<?xml version="1.0" encoding="UTF-8" standalone="no"?>
<svg width="65px" height="20px" viewBox="0 0 65 20" version="1.1" xmlns="http://www.w3.org/2000/svg" xmlns:xlink="http://www.w3.org/1999/xlink" xmlns:sketch="http://www.bohemiancoding.com/sketch/ns">
    <!-- Generator: bin/sketchtool 1.4 (305) - http://www.bohemiancoding.com/sketch -->
    <title>spotify_svg</title>
    <desc>Created with bin/sketchtool.</desc>
    <defs></defs>
    <g id="Page-1" stroke="none" stroke-width="1" fill="none" fill-rule="evenodd" sketch:type="MSPage">
        <g id="02-auth-g" sketch:type="MSArtboardGroup" transform="translate(-1129.000000, -80.000000)" fill="#22BF54">
            <g id="Group" sketch:type="MSLayerGroup" transform="translate(788.000000, 60.000000)">
                <g id="Frontend-Copy" sketch:type="MSShapeGroup">
                    <g id="spotify_svg" transform="translate(341.000000, 20.000000)">
                        <path d="M9.99952381,0.0329761905 C4.49369048,0.0329761905 0.0301190476,4.49642857 0.0301190476,10.0022619 C0.0301190476,15.5086905 4.49369048,19.9719048 9.99952381,19.9719048 C15.5055952,19.9719048 19.9689286,15.5086905 19.9689286,10.0022619 C19.9689286,4.49678571 15.5058333,0.033452381 9.99940476,0.033452381 L9.99952381,0.0329761905 Z M14.5714286,14.4115476 C14.392381,14.7052381 14.0097619,14.7972619 13.7170238,14.6183333 C11.3759524,13.1875 8.42928571,12.8642857 4.95904762,13.6570238 C4.62464286,13.7336905 4.29130952,13.5240476 4.21511905,13.1897619 C4.13857143,12.8553571 4.3472619,12.5220238 4.6825,12.4458333 C8.48011905,11.577619 11.737619,11.9513095 14.3653571,13.5570238 C14.6582143,13.7367857 14.7510714,14.1189286 14.5713095,14.4117857 L14.5714286,14.4115476 Z M15.7916667,11.697381 C15.5661905,12.0632143 15.0878571,12.1779762 14.7225,11.9533333 C12.0433333,10.3064286 7.95797619,9.82940476 4.78833333,10.7915476 C4.3772619,10.9157143 3.94309524,10.6840476 3.81833333,10.2736905 C3.69452381,9.86261905 3.92630952,9.42928571 4.33666667,9.30428571 C7.9572619,8.20571429 12.4582143,8.73785714 15.5355952,10.6289286 C15.9010714,10.8539286 16.0165476,11.3325 15.7915476,11.6975 L15.7916667,11.697381 Z M15.8964286,8.87071429 C12.6828571,6.9622619 7.38214286,6.78678571 4.31440476,7.71785714 C3.82178571,7.8672619 3.30083333,7.58916667 3.15154762,7.09654762 C3.0022619,6.60369048 3.28011905,6.08309524 3.77309524,5.93333333 C7.29464286,4.86428571 13.1488095,5.07083333 16.8480952,7.26690476 C17.2911905,7.52988095 17.4365476,8.10214286 17.1739286,8.54464286 C16.9120238,8.9877381 16.3382143,9.13380952 15.8965476,8.87071429 L15.8964286,8.87071429 Z" id="Shape"></path>
                        <path d="M27.1535714,9.23642857 C25.4322619,8.82595238 25.1258333,8.53785714 25.1258333,7.9325 C25.1258333,7.36059524 25.6642857,6.97571429 26.465,6.97571429 C27.2411905,6.97571429 28.0108333,7.26797619 28.8177381,7.86964286 C28.8421429,7.88785714 28.8727381,7.89511905 28.9028571,7.89035714 C28.9329762,7.88583333 28.9596429,7.86928571 28.9772619,7.84440476 L29.8177381,6.65964286 C29.8522619,6.61083333 29.8428571,6.54357143 29.7963095,6.50630952 C28.8359524,5.73571429 27.7545238,5.36107143 26.4904762,5.36107143 C24.6319048,5.36107143 23.3336905,6.47642857 23.3336905,8.0722619 C23.3336905,9.78357143 24.4535714,10.3895238 26.3888095,10.8572619 C28.0359524,11.2366667 28.3139286,11.5545238 28.3139286,12.1227381 C28.3139286,12.752381 27.7517857,13.1438095 26.8471429,13.1438095 C25.842381,13.1438095 25.0228571,12.8053571 24.1060714,12.0114286 C24.0833333,11.9917857 24.0521429,11.9828571 24.0233333,11.9845238 C23.9929762,11.9870238 23.9652381,12.0010714 23.9459524,12.0242857 L23.0035714,13.1458333 C22.9640476,13.192381 22.9690476,13.2619048 23.0147619,13.3021429 C24.0814286,14.2544048 25.3933333,14.757381 26.8090476,14.757381 C28.8117857,14.757381 30.1059524,13.6630952 30.1059524,11.9694048 C30.1095238,10.5396429 29.2535714,9.74797619 27.1571429,9.23797619 L27.1535714,9.23642857 Z" id="Shape"></path>
                        <path d="M34.6369048,7.53880952 C33.7688095,7.53880952 33.0567857,7.88071429 32.4696429,8.58130952 L32.4696429,7.7927381 C32.4696429,7.73047619 32.4191667,7.6797619 32.3570238,7.6797619 L30.8157143,7.6797619 C30.7534524,7.6797619 30.7030952,7.73047619 30.7030952,7.7927381 L30.7030952,16.554881 C30.7030952,16.6171429 30.7534524,16.6678571 30.8157143,16.6678571 L32.3570238,16.6678571 C32.4191667,16.6678571 32.4696429,16.6171429 32.4696429,16.554881 L32.4696429,13.7890476 C33.0569048,14.4480952 33.7690476,14.770119 34.6369048,14.770119 C36.249881,14.770119 37.8827381,13.5284524 37.8827381,11.154881 C37.885119,8.78071429 36.2517857,7.53869048 34.6386905,7.53869048 L34.6369048,7.53880952 Z M36.0904762,11.154881 C36.0904762,12.3635714 35.3459524,13.2070238 34.279881,13.2070238 C33.2259524,13.2070238 32.4309524,12.3252381 32.4309524,11.154881 C32.4309524,9.98464286 33.2259524,9.1027381 34.279881,9.1027381 C35.3286905,9.10261905 36.0905952,9.96547619 36.0905952,11.1547619 L36.0904762,11.154881 Z" id="Shape"></path>
                        <path d="M42.0678571,7.53880952 C39.9905952,7.53880952 38.3632143,9.13833333 38.3632143,11.1807143 C38.3632143,13.2008333 39.9794048,14.7835714 42.042381,14.7835714 C44.1270238,14.7835714 45.7594048,13.1894048 45.7594048,11.154881 C45.7594048,9.12738095 44.1379762,7.53904762 42.0677381,7.53904762 L42.0678571,7.53880952 Z M42.0678571,13.2190476 C40.9629762,13.2190476 40.13,12.3313095 40.13,11.1542857 C40.13,9.9722619 40.9341667,9.11452381 42.042381,9.11452381 C43.1544048,9.11452381 43.9929762,10.0022619 43.9929762,11.180119 C43.9929762,12.3619048 43.1834524,13.2190476 42.0679762,13.2190476 L42.0678571,13.2190476 Z" id="Shape"></path>
                        <path d="M50.1952381,7.6797619 L48.4991667,7.6797619 L48.4991667,5.94571429 C48.4991667,5.88357143 48.4489286,5.83285714 48.3866667,5.83285714 L46.8455952,5.83285714 C46.7832143,5.83285714 46.732619,5.88357143 46.732619,5.94571429 L46.732619,7.6797619 L45.9915476,7.6797619 C45.9295238,7.6797619 45.8792857,7.73047619 45.8792857,7.7927381 L45.8792857,9.11738095 C45.8792857,9.17952381 45.9295238,9.23035714 45.9915476,9.23035714 L46.732619,9.23035714 L46.732619,12.6578571 C46.732619,14.0429762 47.4220238,14.7452381 48.7816667,14.7452381 C49.3345238,14.7452381 49.7932143,14.6310714 50.2254762,14.3859524 C50.2605952,14.3663095 50.282381,14.3284524 50.282381,14.2882143 L50.282381,13.0267857 C50.282381,12.9878571 50.2621429,12.9510714 50.2288095,12.9307143 C50.1952381,12.9096429 50.1534524,12.9085714 50.1190476,12.9255952 C49.8221429,13.075 49.535119,13.1439286 49.2142857,13.1439286 C48.7197619,13.1439286 48.4991667,12.9194048 48.4991667,12.4161905 L48.4991667,9.23095238 L50.1952381,9.23095238 C50.2575,9.23095238 50.307619,9.1802381 50.307619,9.11797619 L50.307619,7.79345238 C50.31,7.73119048 50.26,7.68047619 50.1969048,7.68047619 L50.1952381,7.6797619 Z" id="Shape"></path>
                        <path d="M56.1047619,7.68654762 L56.1047619,7.47357143 C56.1047619,6.84702381 56.345,6.56761905 56.8838095,6.56761905 C57.205119,6.56761905 57.4632143,6.63142857 57.7522619,6.72785714 C57.7878571,6.73904762 57.825,6.73345238 57.8539286,6.71214286 C57.8836905,6.69083333 57.9004762,6.65666667 57.9004762,6.62047619 L57.9004762,5.32166667 C57.9004762,5.27202381 57.8685714,5.22809524 57.8207143,5.21345238 C57.5153571,5.12261905 57.1246429,5.02940476 56.5396429,5.02940476 C55.1160714,5.02940476 54.3635714,5.83107143 54.3635714,7.34690476 L54.3635714,7.67309524 L53.6230952,7.67309524 C53.5609524,7.67309524 53.51,7.72380952 53.51,7.78595238 L53.51,9.11738095 C53.51,9.17952381 53.5609524,9.23035714 53.6230952,9.23035714 L54.3635714,9.23035714 L54.3635714,14.5171429 C54.3635714,14.5794048 54.4138095,14.630119 54.4759524,14.630119 L56.0172619,14.630119 C56.0795238,14.630119 56.1302381,14.5794048 56.1302381,14.5171429 L56.1302381,9.23071429 L57.5692857,9.23071429 L59.7736905,14.5161905 C59.5234524,15.0715476 59.277381,15.1820238 58.9414286,15.1820238 C58.669881,15.1820238 58.3839286,15.1009524 58.0915476,14.9409524 C58.0640476,14.9258333 58.0314286,14.9233333 58.0017857,14.9325 C57.972381,14.9428571 57.947619,14.9647619 57.935119,14.9933333 L57.4127381,16.1394048 C57.3878571,16.1935714 57.4091667,16.2571429 57.4613095,16.2852381 C58.0066667,16.5805952 58.4989286,16.7066667 59.107381,16.7066667 C60.2454762,16.7066667 60.8745238,16.1765476 61.4290476,14.7503571 L64.1029762,7.84083333 C64.1164286,7.80607143 64.112381,7.76678571 64.0910714,7.73595238 C64.069881,7.70535714 64.0357143,7.68690476 63.9983333,7.68690476 L62.3938095,7.68690476 C62.3457143,7.68690476 62.3027381,7.7175 62.2870238,7.76261905 L60.6433333,12.457619 L58.8429762,7.75952381 C58.8265476,7.71583333 58.7844048,7.68690476 58.7377381,7.68690476 L56.1044048,7.68690476 L56.1047619,7.68654762 Z" id="Shape"></path>
                        <path d="M52.6785714,7.6797619 L51.1372619,7.6797619 C51.075,7.6797619 51.0242857,7.73047619 51.0242857,7.7927381 L51.0242857,14.5171429 C51.0242857,14.5794048 51.075,14.630119 51.1372619,14.630119 L52.6785714,14.630119 C52.7407143,14.630119 52.7915476,14.5794048 52.7915476,14.5171429 L52.7915476,7.79321429 C52.7915476,7.73095238 52.7415476,7.6802381 52.6784524,7.6802381 L52.6785714,7.6797619 Z" id="Shape"></path>
                        <path d="M51.9166667,4.61797619 C51.3060714,4.61797619 50.8105952,5.1122619 50.8105952,5.72285714 C50.8105952,6.33380952 51.3061905,6.82869048 51.9166667,6.82869048 C52.5270238,6.82869048 53.0220238,6.33380952 53.0220238,5.72285714 C53.0220238,5.11238095 52.5267857,4.61797619 51.9172619,4.61797619 L51.9166667,4.61797619 Z" id="Shape"></path>
                    </g>
                </g>
            </g>
        </g>
    </g>
</svg>