<svg xmlns="http://www.w3.org/2000/svg" viewBox="0 0 110 50"><path fill="#6BA542" d="M81.8 36.8c0 .6-.4 1-1 1H71c-.5 0-1-.4-1-1 0-.5.4-.9.9-1l1.1-.1c.5-.1.9-.5.9-1V17l-2.1-.4c-.5-.1-.9-.5-.9-1 0-.6.4-1 1-1 2.3-.2 4.5-.8 6.5-2 0 0 .2-.1.4-.1.5 0 .9.4.9.9v21.4c0 .5.4.9.9 1l1.3.2c.5-.1.9.3.9.8m-15.5-23c-1.1-1.7-3.1-1.6-3.1-1.6-2.8.1-5.3 1.7-6.6 4.2v-3.1c0-.5-.4-.9-.9-.9-.3 0-.4.1-.4.1-2 1.2-4.3 1.9-6.5 2-.6 0-1 .5-1 1s.4.9.9 1l2.1.4v17.7c0 .5-.4.9-.9 1l-1.1.1c-.5.1-.9.5-.9 1s.4 1 1 1h9.8c.5 0 1-.4 1-1 0-.5-.4-.9-.9-1l-1.3-.2c-.5-.1-.9-.5-.9-1V18.8c.9-1.2 2.1-2.2 3.4-2.7.4 2.1 2.6 3.4 4.6 2.6 2-.6 2.9-3.1 1.7-4.9zm42.9-.4c-.8-1.3-2.3-1.2-2.3-1.2-1.9 0-3.7 1.1-4.7 2.7-1.7-1.6-4.2-2.5-7.1-2.7-6.2 0-10.6 3.7-10.6 9 0 2.9 2.1 6.2 6.1 7.4.1 0 .1.1 0 .2-2.7.6-5.6 2.6-5.6 5.3 0 1.7.9 3.5 3.5 4.3.1 0 .1.1 0 .2-1.2.4-6.3 2.3-6.3 5.8 0 2.9 3.1 5.6 11.7 5.6 1.8 0 3.7-.2 5.4-.7 2.7-.7 5.4-1.9 7.1-4.1.8-1 1.4-2.2 1.6-3.5.3-1.4.2-2.9-.3-4.2-1.1-2.4-3.8-3.2-6.2-3.4-.7-.1-1.3-.1-2-.1h-6.8c-.9 0-2.1-.2-2.6-1s-.2-1.7.4-2.3c.6-.6 1.5-1 2.4-1.2.9-.2 1.8-.2 2.7-.2 3.8-.3 7.8-2.1 9-6.1.7-2.4.1-5.1-1.4-7.1.4-.3.8-.5 1.3-.7.3 1.5 2 2.5 3.5 2 1.5-.7 2.1-2.6 1.2-4zM90.6 38.8h6.3c3 0 6.4-.1 6.4 3.1 0 4.2-4.3 5.4-9 5.4-4.6 0-6.8-1.5-6.8-4.5 0-2 1.5-3.2 3.1-4zM94.7 27c-3.3 0-4.7-2.9-4.7-6.2 0-2.9.8-6.4 4.7-6.4 3.7 0 4.8 2.8 4.8 6.1 0 3.6-1.2 6.5-4.8 6.5zM76.2 3.4c-1.3 2-2 4.4-2 6.9 0 .1.1.2.2.2 2.2-.6 4-2.4 4.7-4.6.3-1 .3-2 .1-2.9-.2-.9.1-1.8.6-2.5.1-.1 0-.2-.1-.3-2.2-.5-4.7.1-6.3 1.7-1.4 1.4-2.1 3.4-2 5.4.1.9.4 1.7.8 2.5.1.1.3.1.3 0 .3-2.5 1.5-4.8 3.3-6.6.2-.3.6 0 .4.2zM12.8 23.2l-3.6-1.5c-2-.9-3.6-1.7-3.6-3.7 0-1.9 1.6-3.3 3.7-3.3 1 0 2.6.3 3.2.5 0 0 .7 1.5 1.1 2.1.4.7.8 1.4 1.2 2 .4.5 1 .7 1.6.4.6-.4.6-1 .6-1.6v-4.2c0-.4-.1-.7-.4-1-.4-.3-1-.3-1.5-.4-1.2-.1-6.3-.4-6.3-.4s-3.4-.2-6 2.6c-1.2 1.3-2 3.1-2 5 0 3.9 2.5 6 5.9 7.3l2.9 1.2c2 .8 3.8 1.9 3.8 4.2 0 2.5-2 3.8-4.7 3.8-1.5 0-2.6-.3-3.4-.7-.7-1.3-2.3-4.1-2.6-4.6-.3-.5-.6-1-1.2-1-.5 0-1 .4-1.1.9v.6c.1.6.4 4.1.5 5.2.1.5.4.9 1 1s1.2.2 1.8.4c1.3.3 2.7.5 4 .6h1.1c5.7 0 9.8-3.4 9.8-8.2-.2-4.1-3-6.1-5.8-7.2zm33 .1c-.1-2.6-.7-5.2-2.3-7.4-1.6-2.2-4.1-3.4-6.8-3.7-.4 0-.8-.1-1.2-.1-2.8.1-5.3 1.7-6.6 4.2v-3.1c0-.5-.4-.9-.9-.9-.3 0-.4.1-.4.1-2 1.2-4.3 1.9-6.5 2-.6 0-1 .5-1 1s.4.9.9 1l2.1.4v29.8c0 .5-.4.9-.9 1l-1.1.1c-.5.1-.9.5-.9 1s.4 1 1 1H31c.5 0 1-.4 1-1 0-.5-.4-.9-.9-1l-1.3-.2c-.5-.1-.9-.5-.9-1v-9.2c1.4.8 3.2 1.1 4.9 1.1 1.3 0 2.7-.3 3.9-.8 2.6-1.1 4.7-3.1 6.1-5.5 1.4-2.5 2.1-5.7 2-8.8zM34 36.2c-3.2 0-5.2-1.9-5.2-5.3V18.1c.9-1.1 2.4-1.8 4.2-1.8 5 0 7.3 3.7 7.3 9.6 0 6.3-2.3 10.3-6.3 10.3z"/></svg>