<?xml version="1.0" encoding="utf-8"?>
<!-- Generator: Adobe Illustrator 19.1.0, SVG Export Plug-In . SVG Version: 6.00 Build 0)  -->
<svg version="1.1" id="Layer_1" xmlns:sketch="http://www.bohemiancoding.com/sketch/ns"
	 xmlns="http://www.w3.org/2000/svg" xmlns:xlink="http://www.w3.org/1999/xlink" x="0px" y="0px" viewBox="-42 408.9 511 24"
	 style="enable-background:new -42 408.9 511 24;" xml:space="preserve">
<style type="text/css">
	.st0{fill:none;}
	.st1{fill:none;stroke:#343434;stroke-width:2;stroke-linecap:square;}
	.st2{fill:none;stroke:url(#path-3_2_);stroke-width:2;stroke-linecap:square;}
	.st3{fill:#FFFFFF;stroke:#343434;stroke-width:2;}
	.st4{fill:#229922;stroke:#229922;stroke-width:2;}
	.st5{fill:#FFFFFF;}
</style>
<title>wizard</title>
<desc>Created with Sketch.</desc>
<g id="Page-1" sketch:type="MSPage">
	<g id="_x30_2-auth-g" transform="translate(-92.000000, -58.000000)" sketch:type="MSArtboardGroup">
		<g id="wizard" transform="translate(94.000000, 60.000000)" sketch:type="MSLayerGroup">
			<g id="Line">
				<g sketch:type="MSShapeGroup">
					<path id="path-1" class="st0" d="M223,418.9h220"/>
				</g>
				<g>
					<path id="path-1_1_" class="st0" d="M223,418.9h220"/>
				</g>
				<g>
					<path id="path-1_2_" class="st1" d="M222,418.9h222"/>
				</g>
			</g>
			<g id="Line-Copy">
				<g sketch:type="MSShapeGroup">
					<path id="path-3" class="st0" d="M-20,418.9h220"/>
				</g>
				<g>
					
						<linearGradient id="path-3_2_" gradientUnits="userSpaceOnUse" x1="-85.9105" y1="430.4793" x2="-84.9082" y2="430.9805" gradientTransform="matrix(220 0 0 -1 18857.998 849.67)">
						<stop  offset="0" style="stop-color:#229922"/>
						<stop  offset="1" style="stop-color:#343434"/>
					</linearGradient>
					<path id="path-3_1_" class="st2" d="M-21,418.9h222"/>
				</g>
			</g>
			<g id="icon---check-copy-2" transform="translate(487.000000, 0.000000)" sketch:type="MSShapeGroup">
				<path id="Path-Copy" class="st3" d="M-42,418.6c0,5.4,4.5,9.7,10,9.7s10-4.4,10-9.7c0-5.4-4.5-9.7-10-9.7S-42,413.2-42,418.6z"
					/>
			</g>
			<g id="icon---check-copy-2_1_" transform="translate(243.000000, 0.000000)">
				<g id="Path-Copy_1_">
					<g sketch:type="MSShapeGroup">
						<path id="path-4" class="st3" d="M-42,418.6c0,5.4,4.5,9.7,10,9.7s10-4.4,10-9.7c0-5.4-4.5-9.7-10-9.7S-42,413.2-42,418.6z"/>
					</g>
					<g>
						<path id="path-4_1_" class="st0" d="M-42,418.6c0,5.4,4.5,9.7,10,9.7s10-4.4,10-9.7c0-5.4-4.5-9.7-10-9.7S-42,413.2-42,418.6z
							"/>
					</g>
					<g>
						<path id="path-4_2_" class="st0" d="M-42,418.6c0,5.4,4.5,9.7,10,9.7s10-4.4,10-9.7c0-5.4-4.5-9.7-10-9.7S-42,413.2-42,418.6z
							"/>
					</g>
				</g>
			</g>
			<g id="icon---check-copy-2_2_" sketch:type="MSShapeGroup">
				<path id="Path-Copy_2_" class="st4" d="M-42,418.6c0,5.4,4.5,9.7,10,9.7s10-4.4,10-9.7c0-5.4-4.5-9.7-10-9.7S-42,413.2-42,418.6
					z"/>
				<path id="Rectangle-9" class="st5" d="M-32.7,422.9C-32.7,422.9-32.7,422.9-32.7,422.9l6.1-6.1c0.4-0.4,0.4-1.1,0-1.6
					c-0.4-0.4-1.1-0.4-1.6,0l-5.3,5.3l-2.4-2.4c-0.4-0.4-1.1-0.4-1.5,0c-0.4,0.4-0.4,1.1,0,1.5l3.2,3.2
					C-33.8,423.4-33.1,423.4-32.7,422.9C-32.7,422.9-32.7,422.9-32.7,422.9L-32.7,422.9z"/>
			</g>
		</g>
	</g>
</g>
</svg>
