<?xml version="1.0" encoding="utf-8"?>
<!-- Generator: Adobe Illustrator 18.1.1, SVG Export Plug-In . SVG Version: 6.00 Build 0)  -->
<svg version="1.1" id="Layer_1" xmlns="http://www.w3.org/2000/svg" xmlns:xlink="http://www.w3.org/1999/xlink" x="0px" y="0px"
	 viewBox="0 0 60 60" enable-background="new 0 0 60 60" xml:space="preserve">
<g>
	<g>
		
			<circle fill="none" stroke="#DEDDDD" stroke-width="0.9833" stroke-miterlimit="10" stroke-dasharray="3.9851,1.9925" cx="30" cy="30" r="29.5"/>
	</g>
	<path fill="#DEDEDD" d="M30,15.4c-8.2,0-15,6.7-15,15c0,6.6,4.3,12.2,10.2,14.2c0.7,0.1,1-0.3,1-0.7c0-0.4,0-1.5,0-2.8
		c-4.2,0.9-5-1.8-5-1.8c-0.7-1.7-1.7-2.2-1.7-2.2c-1.4-0.9,0.1-0.9,0.1-0.9c1.5,0.1,2.3,1.5,2.3,1.5c1.3,2.3,3.5,1.6,4.4,1.2
		c0.1-1,0.5-1.6,1-2c-3.3-0.4-6.8-1.7-6.8-7.4c0-1.6,0.6-2.9,1.5-4c-0.1-0.4-0.7-1.9,0.1-3.9c0,0,1.3-0.4,4.1,1.5
		c1.2-0.3,2.5-0.5,3.8-0.5s2.5,0.2,3.8,0.5c2.9-1.9,4.1-1.5,4.1-1.5c0.8,2,0.3,3.6,0.1,3.9c1,1,1.5,2.4,1.5,4c0,5.8-3.5,7-6.8,7.4
		c0.5,0.5,1,1.4,1,2.8c0,2,0,3.6,0,4.1c0,0.4,0.3,0.9,1,0.7C40.7,42.6,45,37,45,30.4C44.9,22.1,38.2,15.4,30,15.4z"/>
</g>
</svg>
