<?xml version="1.0" encoding="utf-8"?>
<!-- Generator: Adobe Illustrator 18.1.1, SVG Export Plug-In . SVG Version: 6.00 Build 0)  -->
<svg version="1.1" id="Layer_1" xmlns="http://www.w3.org/2000/svg" xmlns:xlink="http://www.w3.org/1999/xlink" x="0px" y="0px"
	 viewBox="0 0 60 60" enable-background="new 0 0 60 60" xml:space="preserve">
<g>
	
		<circle fill="none" stroke="#259A47" stroke-width="0.9833" stroke-miterlimit="10" stroke-dasharray="3.9851,1.9925" cx="30" cy="30" r="29.5"/>
</g>
<g>
	<path id="outline_4_" fill-rule="evenodd" clip-rule="evenodd" fill="#DEDEDD" d="M30.6,26.4h3.1v3.1h1.5c0.7,0,1.5-0.1,2.1-0.4
		c0.3-0.1,0.7-0.3,1-0.5c-0.4-0.6-0.7-1.3-0.7-2c-0.1-1,0.1-2.2,0.8-2.9l0.3-0.4l0.4,0.3c1,0.8,1.8,1.9,1.9,3.1
		c1.2-0.3,2.5-0.3,3.6,0.3l0.4,0.2l-0.2,0.4c-0.9,1.7-2.7,2.2-4.5,2.1c-2.7,6.6-8.4,9.7-15.4,9.7c-3.6,0-6.9-1.4-8.8-4.6l0-0.1
		l-0.3-0.6c-0.6-1.4-0.9-3-0.7-4.5l0-0.5h2.6v-3.1h3.1v-3.1h6.1v-3.1h3.7V26.4z"/>
	<g id="body_colors_4_">
		<path fill="#DEDEDD" d="M40.5,27.6c0.2-1.6-1-2.9-1.7-3.4c-0.9,1-1,3.6,0.4,4.7c-0.7,0.7-2.3,1.3-3.9,1.3H15.6
			c-0.2,1.7,0.1,3.2,0.8,4.6l0.2,0.4c0.1,0.2,0.3,0.5,0.5,0.7h0c0.8,0.1,1.6,0.1,2.2,0.1c0,0,0,0,0,0c1.3,0,2.4-0.2,3.3-0.5
			c0.1,0,0.3,0,0.3,0.1c0,0.1,0,0.3-0.1,0.3c-0.1,0-0.2,0.1-0.3,0.1c0,0,0,0,0,0c-0.7,0.2-1.4,0.3-2.3,0.4c0.1,0-0.1,0-0.1,0
			c0,0-0.1,0-0.1,0c-0.4,0-0.7,0-1.1,0c-0.4,0-0.9,0-1.3,0l0,0c1.6,1.8,4.2,2.9,7.4,2.9c6.8,0,12.5-3,15.1-9.8
			c1.8,0.2,3.5-0.3,4.3-1.8C43.1,26.9,41.4,27.1,40.5,27.6z"/>
		<path fill="#DEDEDD" d="M40.5,27.6c0.2-1.6-1-2.9-1.7-3.4c-0.9,1-1,3.6,0.4,4.7c-0.7,0.7-2.3,1.3-3.9,1.3H16.7
			c-0.1,2.6,0.9,4.5,2.6,5.7c0,0,0,0,0,0c1.3,0,2.4-0.2,3.3-0.5c0.1,0,0.3,0,0.3,0.1c0,0.1,0,0.3-0.1,0.3c-0.1,0-0.2,0.1-0.3,0.1
			c0,0,0,0,0,0c-0.7,0.2-1.4,0.3-2.3,0.4c0,0,0,0,0,0c2.3,1.2,5.7,1.2,9.5-0.3c4.3-1.7,8.3-4.8,11.1-8.4
			C40.6,27.5,40.6,27.6,40.5,27.6z"/>
		<path fill="#DEDEDD" d="M15.6,32.1c0.1,0.9,0.4,1.7,0.8,2.5l0.2,0.4c0.1,0.2,0.3,0.5,0.5,0.7c0.8,0.1,1.6,0.1,2.2,0.1
			c1.3,0,2.4-0.2,3.3-0.5c0.1,0,0.3,0,0.3,0.1c0,0.1,0,0.3-0.1,0.3c-0.1,0-0.2,0.1-0.3,0.1c0,0,0,0,0,0c-0.7,0.2-1.4,0.3-2.3,0.4
			c0,0-0.1,0-0.1,0c-0.4,0-0.7,0-1.1,0c-0.4,0-0.9,0-1.3,0c1.6,1.8,4.2,2.9,7.4,2.9c5.8,0,10.9-2.2,13.8-7.1H15.6z"/>
		<path fill="#DEDEDD" d="M16.9,32.1c0.3,1.6,1.2,2.8,2.4,3.7c1.3,0,2.4-0.2,3.3-0.5c0.1,0,0.3,0,0.3,0.1c0,0.1,0,0.3-0.1,0.3
			c-0.1,0-0.2,0.1-0.3,0.1c0,0,0,0,0,0c-0.7,0.2-1.4,0.3-2.3,0.4c2.3,1.2,5.7,1.2,9.5-0.3c2.3-0.9,4.6-2.2,6.6-3.8H16.9z"/>
	</g>
	<g id="Containers_4_">
		<path fill-rule="evenodd" clip-rule="evenodd" fill="#DEDEDD" d="M20.4,27.2h0.2v2.2h-0.2V27.2z M20,27.2h0.2v2.2H20V27.2z
			 M19.6,27.2h0.2v2.2h-0.2V27.2z M19.2,27.2h0.2v2.2h-0.2V27.2z M18.8,27.2h0.2v2.2h-0.2V27.2z M18.4,27.2h0.2v2.2h-0.2V27.2z
			 M18.2,26.9h2.7v2.7h-2.7V26.9z"/>
		<path fill-rule="evenodd" clip-rule="evenodd" fill="#DEDEDD" d="M23.5,24.1h0.2v2.2h-0.2V24.1z M23.1,24.1h0.2v2.2h-0.2V24.1z
			 M22.7,24.1h0.2v2.2h-0.2V24.1z M22.3,24.1h0.2v2.2h-0.2V24.1z M21.9,24.1h0.2v2.2h-0.2V24.1z M21.5,24.1h0.2v2.2h-0.2V24.1z
			 M21.3,23.9h2.7v2.7h-2.7V23.9z"/>
		<path fill-rule="evenodd" clip-rule="evenodd" fill="#DEDEDD" d="M23.5,27.2h0.2v2.2h-0.2V27.2z M23.1,27.2h0.2v2.2h-0.2V27.2z
			 M22.7,27.2h0.2v2.2h-0.2V27.2z M22.3,27.2h0.2v2.2h-0.2V27.2z M21.9,27.2h0.2v2.2h-0.2V27.2z M21.5,27.2h0.2v2.2h-0.2V27.2z
			 M21.3,26.9h2.7v2.7h-2.7V26.9z"/>
		<path fill-rule="evenodd" clip-rule="evenodd" fill="#DEDEDD" d="M26.6,27.2h0.2v2.2h-0.2V27.2z M26.2,27.2h0.2v2.2h-0.2V27.2z
			 M25.8,27.2H26v2.2h-0.2V27.2z M25.4,27.2h0.2v2.2h-0.2V27.2z M25,27.2h0.2v2.2H25V27.2z M24.6,27.2h0.2v2.2h-0.2V27.2z
			 M24.3,26.9H27v2.7h-2.7V26.9z"/>
		<path fill-rule="evenodd" clip-rule="evenodd" fill="#DEDEDD" d="M26.6,24.1h0.2v2.2h-0.2V24.1z M26.2,24.1h0.2v2.2h-0.2V24.1z
			 M25.8,24.1H26v2.2h-0.2V24.1z M25.4,24.1h0.2v2.2h-0.2V24.1z M25,24.1h0.2v2.2H25V24.1z M24.6,24.1h0.2v2.2h-0.2V24.1z
			 M24.3,23.9H27v2.7h-2.7V23.9z"/>
		<path fill-rule="evenodd" clip-rule="evenodd" fill="#DEDEDD" d="M29.6,27.2h0.2v2.2h-0.2V27.2z M29.2,27.2h0.2v2.2h-0.2V27.2z
			 M28.8,27.2h0.2v2.2h-0.2V27.2z M28.4,27.2h0.2v2.2h-0.2V27.2z M28,27.2h0.2v2.2H28V27.2z M27.6,27.2h0.2v2.2h-0.2V27.2z
			 M27.4,26.9h2.7v2.7h-2.7V26.9z"/>
		<path fill-rule="evenodd" clip-rule="evenodd" fill="#DEDEDD" d="M29.6,24.1h0.2v2.2h-0.2V24.1z M29.2,24.1h0.2v2.2h-0.2V24.1z
			 M28.8,24.1h0.2v2.2h-0.2V24.1z M28.4,24.1h0.2v2.2h-0.2V24.1z M28,24.1h0.2v2.2H28V24.1z M27.6,24.1h0.2v2.2h-0.2V24.1z
			 M27.4,23.9h2.7v2.7h-2.7V23.9z"/>
		<path fill-rule="evenodd" clip-rule="evenodd" fill="#DEDEDD" d="M29.6,21h0.2v2.2h-0.2V21z M29.2,21h0.2v2.2h-0.2V21z M28.8,21
			h0.2v2.2h-0.2V21z M28.4,21h0.2v2.2h-0.2V21z M28,21h0.2v2.2H28V21z M27.6,21h0.2v2.2h-0.2V21z M27.4,20.8h2.7v2.7h-2.7V20.8z"/>
		<path fill-rule="evenodd" clip-rule="evenodd" fill="#DEDEDD" d="M32.7,27.2h0.2v2.2h-0.2V27.2z M32.3,27.2h0.2v2.2h-0.2V27.2z
			 M31.9,27.2h0.2v2.2h-0.2V27.2z M31.5,27.2h0.2v2.2h-0.2V27.2z M31.1,27.2h0.2v2.2h-0.2V27.2z M30.7,27.2h0.2v2.2h-0.2V27.2z
			 M30.5,26.9h2.7v2.7h-2.7V26.9z"/>
	</g>
	<path fill-rule="evenodd" clip-rule="evenodd" fill="#DEDEDD" d="M23.8,33.9c0.4,0,0.7,0.3,0.7,0.7c0,0.4-0.3,0.7-0.7,0.7
		c-0.4,0-0.7-0.3-0.7-0.7C23,34.2,23.4,33.9,23.8,33.9L23.8,33.9z"/>
	<path fill-rule="evenodd" clip-rule="evenodd" fill="#DEDEDD" d="M23.8,34.1c0.1,0,0.1,0,0.2,0c-0.1,0-0.1,0.1-0.1,0.2
		c0,0.1,0.1,0.2,0.2,0.2c0.1,0,0.2,0,0.2-0.1c0,0.1,0,0.1,0,0.2c0,0.3-0.2,0.5-0.5,0.5c-0.3,0-0.5-0.2-0.5-0.5
		C23.2,34.3,23.5,34.1,23.8,34.1L23.8,34.1z"/>
	<path fill="#DEDEDD" d="M25.7,39.2c-1.8-0.9-2.8-2-3.4-3.3c-0.7,0.2-1.5,0.3-2.4,0.4c-0.4,0-0.7,0-1.1,0c-0.5,0-0.9,0-1.4,0
		c1.7,1.7,3.7,2.9,7.5,3C25.2,39.2,25.4,39.2,25.7,39.2z"/>
	<path fill="#DEDEDD" d="M23,37c-0.3-0.3-0.5-0.8-0.7-1.2c-0.7,0.2-1.5,0.3-2.4,0.4C20.6,36.6,21.5,36.9,23,37z"/>
</g>
</svg>
