<?xml version="1.0" encoding="utf-8"?>
<!-- Generator: Adobe Illustrator 18.1.1, SVG Export Plug-In . SVG Version: 6.00 Build 0)  -->
<svg version="1.1" id="Layer_1" xmlns="http://www.w3.org/2000/svg" xmlns:xlink="http://www.w3.org/1999/xlink" x="0px" y="0px"
	 viewBox="0 0 60 60" enable-background="new 0 0 60 60" xml:space="preserve">
<g>
	
		<circle fill="none" stroke="#269847" stroke-width="0.9833" stroke-miterlimit="10" stroke-dasharray="3.9851,1.9925" cx="30" cy="30" r="29.5"/>
</g>
<path fill="#DEDEDD" d="M45,40.6c0,0-1.5-4.9-5.3-8.7c-1.1-1.1-3.9-2.2-5.8-0.6c-3.4,2.8-3.4,9.3-3.4,9.3H45z M28.6,40.6
	c0-1.8-1.4-3.2-3.2-3.2c-1.4,0-2.6,1-3,2.2h-5.7c-0.1,0-0.3,0-0.5-0.2C16,39.3,16,39,16,38.9c0-0.1,0-0.1,0-0.1l0,0
	c0.9-3.2,3-8.2,3.3-8.6c0.1-0.1,0.3-0.3,0.4-0.3l0.2-0.1v0.1c1,4.7,2,6.4,2,6.5l0.1,0.2l1.3-0.3l-3.1-15.1l-1.4,0.3v0.2
	c0,0.1-0.2,2.2,0.7,6.8l0,0l0.1,0.3l-0.2,0.1c-0.3,0.2-0.6,0.4-0.9,0.6c-0.3,0.3-2.3,5.1-3.5,9.1c0,0.1,0,0.1,0,0.1
	c-0.1,0.5,0.1,1,0.3,1.4c0.5,0.6,1.2,0.6,1.3,0.6h6.9l0,0L28.6,40.6L28.6,40.6z M32.9,21l0.5,2.3c0.9,0.2,1.5,1,1.5,1.9
	c0,1.1-0.9,1.9-1.9,1.9c-1.1,0-1.9-0.9-1.9-1.9c0-0.6,0.3-1.2,0.8-1.5l-0.5-2.6c-2,0.5-3.5,2.3-3.5,4.4c0,2.5,2,4.6,4.6,4.6
	c2.5,0,4.6-2,4.6-4.6C37,23.3,35.2,21.3,32.9,21z M32.4,21c0.2,0,0.4,0,0.5,0.1l-0.3-1.8l-1.5,0.3l0.3,1.5C31.7,21.1,32,21,32.4,21z
	"/>
</svg>
