<?xml version="1.0" encoding="utf-8"?>
<!-- Generator: Adobe Illustrator 18.1.1, SVG Export Plug-In . SVG Version: 6.00 Build 0)  -->
<svg version="1.1" id="Layer_1" xmlns="http://www.w3.org/2000/svg" xmlns:xlink="http://www.w3.org/1999/xlink" x="0px" y="0px"
	 viewBox="0 0 60 60" enable-background="new 0 0 60 60" xml:space="preserve">
<g>
	<path fill="#DEDEDD" d="M17,26.4c0,0,0,4.3,0,5.3c0,2.1,5.8,3.8,12.9,3.8s12.9-1.7,12.9-3.8c0-1,0-5.3,0-5.3s-3.4,3.2-12.9,3.2
		C19.2,29.6,17,26.4,17,26.4z M30,37.2c-10.8,0-12.9-3.2-12.9-3.2s0,6.2,0,7.2c0,2.1,5.8,3.8,12.9,3.8S43,43.3,43,41.2
		c0-1,0-7.2,0-7.2S39.6,37.2,30,37.2z M29.9,42.3c-0.8,0-1.4-0.6-1.4-1.4c0-0.8,0.6-1.4,1.4-1.4c0.8,0,1.4,0.6,1.4,1.4
		C31.2,41.8,30.7,42.3,29.9,42.3z M30,15C22.8,15,17,16.7,17,18.8c0,0.2,4.4,4.6,18.7,2.8c-3.2,1.2-14.3,1.8-18.7-1.8
		c0,1.4,0,3.5,0,4.3c0,2.1,5.8,3.8,12.9,3.8s12.9-1.7,12.9-3.8c0-1,0-4.3,0-5.3C43,16.7,37.1,15,30,15z"/>
	<g>
		
			<circle fill="none" stroke="#269847" stroke-width="0.9833" stroke-miterlimit="10" stroke-dasharray="3.9851,1.9925" cx="30" cy="30" r="29.5"/>
	</g>
</g>
<g>
</g>
<g>
</g>
<g>
</g>
<g>
</g>
<g>
</g>
<g>
</g>
</svg>
