<?xml version="1.0" encoding="utf-8"?>
<!-- Generator: Adobe Illustrator 18.1.1, SVG Export Plug-In . SVG Version: 6.00 Build 0)  -->
<svg version="1.1" id="Layer_1" xmlns="http://www.w3.org/2000/svg" xmlns:xlink="http://www.w3.org/1999/xlink" x="0px" y="0px"
	 viewBox="0 0 55.8 40" enable-background="new 0 0 55.8 40" xml:space="preserve">
<g>
	<path fill="#F04F38" d="M0,32.6h2V6.8H0V0.7h10.9v12.6l2.9-2.9H21l4.7,4.8v18.7L21,38.5h-8.4L9,34.9l-0.3,3.6H0 M15.9,32.4l1-0.9
		V17.7l-1-1h-2.6l-2.4,2.4v11.5l1.8,1.8H15.9z"/>
	<polyline fill="#A1A19A" points="35.6,0 36.7,0 28.3,40 27.2,40 	"/>
	<polyline fill="#A4A49D" points="37.8,32.6 39.8,32.6 39.8,16.5 37.8,16.5 37.8,10.3 46.4,10.3 46.8,14.2 50.7,10.3 55.8,10.3 
		55.8,18.4 50.8,18.4 48.7,20.5 48.7,32.6 52.1,32.6 52.1,38.5 37.8,38.5 	"/>
</g>
<g>
</g>
<g>
</g>
<g>
</g>
<g>
</g>
<g>
</g>
<g>
</g>
</svg>
