<?xml version="1.0" encoding="utf-8"?>
<!-- Generator: Adobe Illustrator 18.1.1, SVG Export Plug-In . SVG Version: 6.00 Build 0)  -->
<svg version="1.1" id="Layer_1" xmlns="http://www.w3.org/2000/svg" xmlns:xlink="http://www.w3.org/1999/xlink" x="0px" y="0px"
	 viewBox="0 0 220 40" enable-background="new 0 0 220 40" xml:space="preserve">
<path fill="#7AB55B" d="M81.2,28.1c0.9,0.4,2.4,1.1,3.9,1.1c1.3,0,2.1-0.8,2.1-1.6c0-0.9-0.5-1.4-1.9-2.2c-1.8-1.1-3.1-2.5-3.1-4.4
	c0-3.3,2.9-5.7,7-5.7c1.8,0,3.2,0.4,4,0.8L92,19.4c-0.6-0.3-1.8-0.6-2.9-0.6c-1.3,0-2.2,0.6-2.2,1.6c0,0.8,0.6,1.3,1.8,1.9
	c1.9,1.1,3.4,2.5,3.4,4.6c0,3.8-3.1,5.9-7.3,5.9c-1.9-0.1-3.8-0.6-4.7-1.2L81.2,28.1z M92.9,32.4l4.7-24.4h4.8l-1.8,9.6l0.1,0.1
	c1.2-1.5,2.9-2.5,5-2.5c2.5,0,3.9,1.6,3.9,4.3c0,0.8-0.1,2-0.4,3.1l-1.9,9.8h-4.8l1.8-9.4c0.1-0.6,0.2-1.4,0.2-2.1
	c0-1.1-0.4-1.7-1.5-1.7c-1.5,0-3.1,1.9-3.8,5l-1.6,8.2L92.9,32.4L92.9,32.4z M120.2,15.2c-5.7,0-9.5,5.1-9.5,10.9
	c0,3.7,2.3,6.6,6.6,6.6c5.6,0,9.4-5,9.4-10.9C126.7,18.4,124.7,15.2,120.2,15.2z M117.9,29.1c-1.6,0-2.3-1.4-2.3-3.1
	c0-2.7,1.4-7.1,4-7.1c1.7,0,2.2,1.4,2.2,2.9C121.9,24.6,120.4,29.1,117.9,29.1z M138.8,15.2c-1.9,0-3.8,1.2-5,2.8h-0.1l0.2-2.4h-4.2
	c-0.2,1.6-0.6,4.3-0.9,6.3l-3.3,17.3h4.8l1.2-7.2h0.1c0.6,0.4,1.6,0.7,2.8,0.7c5.6,0,9.2-5.7,9.2-11.5
	C143.7,18,142.3,15.2,138.8,15.2z M134.3,29.1c-0.8,0-1.4-0.2-1.9-0.7l0.8-4.4c0.6-3,2.1-4.9,3.8-4.9c1.4,0,1.9,1.4,1.9,2.6
	C138.8,24.8,136.9,29.1,134.3,29.1z M143.9,32.3l3.2-16.8h4.8l-3.2,16.8H143.9z M150,13.5c-1.3,0-2.2-0.9-2.2-2.4
	c0-1.6,1.2-2.8,2.7-2.8c1.4,0,2.4,1,2.4,2.4C152.8,12.5,151.5,13.5,150,13.5L150,13.5z M152.7,32.3l2.5-13.2H153l0.7-3.6h2.2
	l0.1-0.8c0.4-2,1.1-4,2.8-5.4c1.2-1.1,2.9-1.6,4.6-1.6c1.2,0,2,0.2,2.6,0.4l-0.9,3.7c-0.4-0.1-0.9-0.2-1.5-0.2c-1.6,0-2.6,1.4-2.8,3
	l-0.2,0.8h3.3l-0.6,3.6H160l-2.5,13.2H152.7z M169.8,15.5l0.8,7.6c0.2,1.7,0.4,2.8,0.4,4h0.1c0.4-1.2,0.8-2.2,1.4-4l2.9-7.6h4.9
	L174.5,28c-2.1,4.2-4.1,7.4-6.2,9.4c-1.7,1.6-3.7,2.4-4.6,2.6l-1.3-4c0.8-0.2,1.8-0.7,2.7-1.3c1.1-0.8,2-1.8,2.6-2.9
	c0.1-0.2,0.2-0.4,0.1-0.8l-2.9-15.4L169.8,15.5z M74.5,36.4l-12,2.6l1.7-34.4c0.1,0,0.2,0.1,0.3,0.1l2.3,2.3l3.1,0.2
	c0,0,0.1,0,0.2,0.1c0.1,0.1,0.1,0.2,0.1,0.2L74.5,36.4z M63.1,4.7L61.9,5c-0.5-1.6-1.2-2.6-2.1-3.2c-0.7-0.4-1.4-0.7-2.2-0.6
	C57.4,1,57.3,0.8,57,0.6c-0.9-0.7-2-0.8-3.3-0.3c-4,1.4-5.7,6.6-6.3,9.2l-3.5,1.1c0,0-0.8,0.2-1,0.4c-0.1,0.3-0.2,1-0.2,1l-3,22.9
	l22.2,4.2l1.7-34.4C63.4,4.6,63.1,4.7,63.1,4.7z M57.4,6.4l-3.9,1.2c0.5-2,1.5-4.1,3.4-4.9C57.4,3.8,57.4,5.2,57.4,6.4z M54.2,1.6
	c0.8-0.3,1.4-0.3,1.9,0.1c-2.5,1.1-3.6,4-4.1,6.5L48.9,9C49.6,6.6,51.2,2.7,54.2,1.6z M56.4,18.4c-0.2-0.1-0.4-0.2-0.6-0.2
	c-0.2-0.1-0.5-0.2-0.8-0.2c-0.3-0.1-0.6-0.1-0.9-0.1c-0.3-0.1-0.6-0.1-1,0c-0.3,0-0.6,0.1-0.9,0.2c-0.2,0.1-0.4,0.2-0.6,0.4
	c-0.2,0.1-0.3,0.3-0.4,0.6c-0.1,0.2-0.1,0.4-0.2,0.7c0,0.2,0,0.4,0.1,0.6c0.1,0.2,0.2,0.4,0.3,0.5c0.1,0.2,0.3,0.4,0.6,0.5
	c0.2,0.2,0.5,0.4,0.8,0.6c0.4,0.2,0.9,0.6,1.2,0.9c0.4,0.4,0.8,0.8,1.2,1.2c0.4,0.4,0.6,1,0.8,1.6c0.2,0.6,0.3,1.2,0.2,1.9
	c-0.1,1.2-0.3,2.2-0.8,3s-1,1.5-1.7,1.9c-0.7,0.4-1.4,0.8-2.3,0.9c-0.8,0.1-1.8,0.1-2.6-0.1c-0.4-0.1-0.9-0.2-1.2-0.4
	c-0.4-0.1-0.8-0.3-1.1-0.5c-0.3-0.2-0.6-0.4-0.9-0.6c-0.2-0.2-0.4-0.4-0.6-0.6l1-3.4c0.2,0.1,0.4,0.3,0.6,0.5
	c0.3,0.2,0.5,0.4,0.8,0.5c0.3,0.2,0.6,0.3,0.9,0.4c0.3,0.1,0.7,0.2,1,0.2c0.3,0.1,0.6,0.1,0.8,0s0.4-0.1,0.6-0.2
	c0.2-0.1,0.3-0.3,0.4-0.5s0.1-0.4,0.1-0.6c0-0.2,0-0.4-0.1-0.7c-0.1-0.2-0.1-0.4-0.3-0.6c-0.1-0.2-0.3-0.4-0.6-0.6
	c-0.2-0.2-0.5-0.4-0.8-0.7c-0.4-0.3-0.8-0.6-1.1-0.9c-0.3-0.3-0.6-0.7-0.8-1.1c-0.2-0.4-0.4-0.8-0.6-1.2c-0.1-0.4-0.2-0.9-0.1-1.5
	c0.1-0.9,0.2-1.8,0.5-2.5c0.3-0.8,0.8-1.4,1.3-2c0.6-0.6,1.2-1.1,2-1.5c0.8-0.4,1.7-0.7,2.8-0.8c0.5-0.1,0.9-0.1,1.4-0.1
	s0.8,0,1.2,0.1c0.4,0.1,0.8,0.1,1.1,0.2c0.3,0.1,0.6,0.2,0.8,0.3L56.4,18.4z M58.9,6c0-0.1,0-0.3,0-0.4c-0.4-1.2-0.3-2.2-0.6-3.1
	c0.3,0,0.5,0.1,0.8,0.3c0.7,0.5,1.2,1.5,1.6,2.6L58.9,6z"/>
</svg>
