<?xml version="1.0" encoding="utf-8"?>
<!-- Generator: Adobe Illustrator 18.1.1, SVG Export Plug-In . SVG Version: 6.00 Build 0)  -->
<svg version="1.1" id="Layer_1" xmlns="http://www.w3.org/2000/svg" xmlns:xlink="http://www.w3.org/1999/xlink" x="0px" y="0px"
	 viewBox="0 0 220 40" enable-background="new 0 0 220 40" xml:space="preserve">
<g>
	<path fill="#5DBD6C" d="M23.6,25.7c0.5,0.6,0.7,1.3,0.7,2.1c0,1.1-0.4,2-1.1,2.8c-0.8,0.8-1.7,1.2-2.7,1.2c-1.2,0-2.1-0.4-2.7-1.2
		l-5.9-7.4l0,4.1c0,1.2-0.2,2.1-0.6,2.7c-0.7,1.2-1.8,1.8-3.2,1.8c-1.3,0-2.3-0.4-3-1.3c-0.7-0.8-1-1.8-1-3.1v-15
		c0-1.2,0.3-2.3,1-3.1C5.8,8.4,6.7,8,8,8c1.2,0,2.1,0.4,2.9,1.3c0.4,0.5,0.7,0.9,0.8,1.4c0.1,0.3,0.1,0.9,0.1,1.7v3.7l4.4-6.3
		C17,8.6,18.1,8,19.4,8c1.1,0,2,0.4,2.8,1.1c0.8,0.8,1.2,1.7,1.2,2.7c0,0.8-0.2,1.5-0.6,2.1l-3.9,5.7L23.6,25.7z M29.6,8
		c-1.2,0-2.1,0.4-2.9,1.3c-0.7,0.7-1,1.9-1,3.5v14.6c0,1.4,0.3,2.5,1,3.2c0.8,0.8,1.7,1.3,2.9,1.3c1.2,0,2.2-0.4,2.9-1.3
		c0.7-0.8,1-1.9,1-3.1V12.8c0-1.6-0.3-2.8-1-3.6C31.7,8.4,30.8,8,29.6,8z M47.4,15.3c1.3,0,2.4,0.5,3.3,1.4c0.9,1,1.5,1.6,1.8,1.7
		c0.6,0.3,1.2,0.4,1.8,0.4c0.8,0,1.5-0.2,2.1-0.7c1.1-0.8,1.7-1.8,1.7-3.2c0-1.6-0.9-3.2-2.8-4.7c-2.4-1.9-5-2.9-7.9-2.9
		c-3.3,0-6.2,1.1-8.5,3.3c-2.6,2.5-4,5.5-4,9.1c0,2.4,0.6,4.6,1.9,6.6c1.3,2,3,3.5,5.1,4.5c1.7,0.8,3.5,1.2,5.4,1.2
		c3.1,0,5.8-1,8.2-3.1c1.7-1.5,2.5-2.9,2.5-4.3c0-1.1-0.4-2-1.2-2.7c-0.8-0.7-1.7-1.1-2.7-1.1c-0.9,0-1.7,0.3-2.3,0.8
		c-0.5,0.5-1.1,1.1-1.7,1.6c-0.9,0.7-1.9,1.1-2.9,1.1c-1.3,0-2.3-0.4-3.2-1.3c-0.9-0.9-1.3-2-1.3-3.2c0-1.3,0.4-2.4,1.3-3.3
		C45,15.7,46.1,15.3,47.4,15.3z M79,25.7l-4.8-6.1l3.9-5.7c0.4-0.6,0.6-1.3,0.6-2.1c0-1.1-0.4-2-1.2-2.7C76.8,8.3,75.9,8,74.8,8
		c-1.3,0-2.4,0.6-3.2,1.8l-4.4,6.3v-3.7c0-0.8,0-1.4-0.1-1.7c-0.1-0.5-0.4-1-0.8-1.4C65.6,8.4,64.6,8,63.4,8c-1.2,0-2.2,0.4-2.9,1.3
		c-0.7,0.8-1,1.8-1,3.1v15c0,1.3,0.3,2.4,1,3.1c0.7,0.9,1.7,1.3,2.9,1.3c1.4,0,2.5-0.6,3.2-1.8c0.4-0.6,0.6-1.5,0.6-2.7v-4.1
		l5.9,7.4c0.6,0.8,1.5,1.1,2.7,1.1c1.1,0,2-0.4,2.7-1.2c0.8-0.8,1.1-1.7,1.1-2.8C79.8,27,79.5,26.3,79,25.7z"/>
	<g>
		<path fill="#5DBD6C" d="M96.4,19c1.6,1.3,2.3,3.1,2.3,5.5c0,2.6-0.9,4.6-2.6,6c-1.6,1.3-3.8,2-6.4,2c-2.6,0-4.8-0.7-6.5-2.1
			c-1.4-1.1-2.1-2.4-2.1-3.9c0-1,0.3-1.8,1-2.5c0.7-0.7,1.5-1,2.5-1c0.9,0,1.8,0.4,2.7,1.1c1.2,1,2,1.4,2.5,1.4c0.7,0,1-0.3,1-1
			c0-0.4-0.2-0.7-0.6-1c-0.2-0.1-1.4-0.6-3.5-1.3c-3.5-1.2-5.2-3.5-5.2-6.7c0-2.5,0.9-4.4,2.7-5.9C86,8.4,88,7.8,90.3,7.8
			c2,0,3.8,0.5,5.3,1.5c1.5,1,2.3,2.2,2.3,3.7c0,0.9-0.3,1.7-0.9,2.3c-0.6,0.6-1.3,0.9-2.2,0.9c-0.9,0-2-0.5-3.2-1.4
			C90.9,14.2,90.4,14,90,14c-0.6,0-0.9,0.3-0.9,0.9c0,0.6,0.8,1.1,2.3,1.6C93.6,17.2,95.2,18,96.4,19z"/>
		<path fill="#5DBD6C" d="M119.1,12c0-0.7-0.2-1.3-0.6-1.9c-0.4-0.6-0.9-1-1.5-1.3c-0.6-0.2-1.8-0.3-3.7-0.3l-7.8,0
			c-2.2,0-3.6,0.1-4.2,0.4c-0.6,0.3-1.1,0.7-1.4,1.3c-0.4,0.6-0.6,1.3-0.6,1.9c0,1.1,0.4,2,1.2,2.7c0.7,0.6,1.7,0.9,2.8,0.9h2v11.8
			c0,1.4,0.2,2.4,0.7,3c0.7,1.1,1.8,1.6,3.2,1.6c1.4,0,2.4-0.6,3.2-1.8c0.4-0.7,0.7-1.7,0.7-3V15.6h1.8c1.4,0,2.4-0.3,3-0.8
			C118.7,14,119.1,13,119.1,12z"/>
		<path fill="#5DBD6C" d="M131.4,10.6c-0.7-1.6-1.9-2.3-3.6-2.3c-1.7,0-2.8,0.8-3.6,2.3l-7.3,15.6c-0.3,0.7-0.5,1.4-0.5,2
			c0,0.8,0.2,1.5,0.7,2.2c0.8,1.1,1.8,1.6,3.2,1.6c1.1,0,2.1-0.4,2.8-1.3c0.4-0.4,0.8-1.1,1.1-1.9h7.2c0.5,1.1,1,1.8,1.5,2.3
			c0.7,0.6,1.5,0.9,2.5,0.9c1.2,0,2.2-0.5,3-1.4c0.6-0.7,0.9-1.5,0.9-2.4c0-0.6-0.1-1.2-0.4-1.9L131.4,10.6z"/>
		<path fill="#5DBD6C" d="M156.3,22.8c1.7-1.9,2.5-3.9,2.5-6c0-1.1-0.2-2.3-0.7-3.4c-0.6-1.5-1.7-2.7-3-3.6
			c-1.4-0.9-2.9-1.4-4.5-1.4h-4.9c-3.2,0-4.8,1.5-4.8,4.5v14.5c0,1.4,0.3,2.5,0.9,3.3c0.7,1,1.7,1.4,3,1.4c1.1,0,2-0.4,2.7-1.1
			c0.7-0.8,1.1-1.7,1.1-2.8V25l3.2,5.3c0.7,1.2,1.8,1.8,3.2,1.8c1.1,0,2-0.4,2.8-1.1c0.8-0.7,1.1-1.6,1.1-2.7c0-0.9-0.3-1.7-0.8-2.5
			L156.3,22.8z"/>
		<path fill="#5DBD6C" d="M177.2,8.7c-0.6-0.2-1.8-0.3-3.7-0.3l-7.8,0c-2.2,0-3.6,0.1-4.2,0.4c-0.6,0.3-1.1,0.7-1.4,1.3
			c-0.4,0.6-0.6,1.3-0.6,1.9c0,1.1,0.4,2,1.2,2.7c0.7,0.6,1.7,0.9,2.8,0.9h2v11.8c0,1.4,0.2,2.4,0.7,3c0.7,1.1,1.8,1.6,3.2,1.6
			c1.4,0,2.4-0.6,3.2-1.8c0.4-0.7,0.7-1.7,0.7-3l0-11.7h1.8c1.4,0,2.4-0.3,3-0.8c0.8-0.8,1.3-1.7,1.3-2.8c0-0.7-0.2-1.3-0.6-1.9
			C178.3,9.4,177.8,9,177.2,8.7z"/>
		<path fill="#5DBD6C" d="M192.3,15.6c1.3,0,2.3-0.3,3-0.9c0.8-0.7,1.2-1.6,1.2-2.8c0-1.1-0.5-2.1-1.4-2.8c-0.5-0.4-1.2-0.6-2-0.7
			c-0.2,0-0.9,0-2.2,0l-4.6,0c-1.2,0-2,0-2.4,0.1c-0.8,0.2-1.5,0.5-2.1,1.1c-0.5,0.5-0.8,1.1-0.9,1.9c-0.1,0.4-0.1,1.1-0.1,2.1v12.8
			c0,1.4,0.1,2.4,0.3,3c0.3,1,1,1.7,2,2.1c0.5,0.2,1.5,0.3,2.9,0.3h6c1.5,0,2.6-0.3,3.2-0.8c0.8-0.7,1.3-1.6,1.3-2.8
			c0-1.1-0.4-2-1.3-2.7c-0.7-0.6-1.8-0.9-3.2-0.9h-3.5v-1.8h2.8c2.3,0,3.4-0.9,3.4-2.8c0-0.9-0.3-1.6-0.9-2.1
			c-0.6-0.5-1.3-0.7-2.2-0.7h-3v-1.6H192.3z"/>
		<path fill="#5DBD6C" d="M215.2,25.7l-1.8-2.9c1.7-1.9,2.5-3.9,2.5-6c0-1.1-0.2-2.3-0.7-3.4c-0.6-1.5-1.7-2.7-3-3.6
			c-1.4-0.9-2.9-1.4-4.5-1.4h-4.9c-3.2,0-4.8,1.5-4.8,4.5v14.5c0,1.4,0.3,2.5,0.9,3.3c0.7,1,1.7,1.4,3,1.4c1.1,0,2-0.4,2.7-1.1
			c0.7-0.8,1.1-1.7,1.1-2.8l0-3.2l3.2,5.3c0.7,1.2,1.8,1.8,3.2,1.8c1.1,0,2-0.4,2.8-1.1c0.7-0.7,1.1-1.6,1.1-2.7
			C215.9,27.4,215.7,26.6,215.2,25.7z"/>
	</g>
</g>
</svg>
