<?xml version="1.0" encoding="utf-8"?>
<!-- Generator: Adobe Illustrator 18.1.1, SVG Export Plug-In . SVG Version: 6.00 Build 0)  -->
<svg version="1.1" id="Layer_1" xmlns="http://www.w3.org/2000/svg" xmlns:xlink="http://www.w3.org/1999/xlink" xmlns:inkscape="http://www.inkscape.org/namespaces/inkscape" xmlns:sodipodi="http://sodipodi.sourceforge.net/DTD/sodipodi-0.dtd" x="0px" y="0px"
	 viewBox="0 0 237 70" enable-background="new 0 0 237 70" xml:space="preserve">
<g id="layer1" transform="translate(-158.5057,-516.37602)" inkscape:label="Layer 1" inkscape:groupmode="layer">
	<g id="g3013" transform="matrix(0.32691763,0,0,0.32691763,107.10723,367.08299)">
		<g id="g3076" transform="translate(-9.722718,143.54268)">
			<path id="path3904-5-7-5-2-2" inkscape:connector-curvature="0" fill="#4183C4" d="M758.4,373.7c-19.4,0-40.3,3.6-54.7,9.5
				l5.6,39.4c10.9-5.1,28.2-9.1,41.4-9.1c15,0,23,4.8,23,16c0,0.8,0,3.9-0.3,6.7c-59.6,0-82.4,11.2-82.4,44.7
				c0,29.5,18.3,46.4,49.4,46.4c13.2,0,25.6,0.1,37.3-9.4h1.4l2.3,9.4h40.4c-6.2-11.1-6.8-35.3-6.6-49.3c0.3-17.7,1.7-38.4,1.7-53
				C816.9,387.1,789.8,373.7,758.4,373.7z M772.7,466.5l0.2,3.8c0.4,6.9-1.6,12.8-6.3,17.7c-4.7,4.8-10.7,7.4-18,7.8
				c-5.9,0.3-10.6-0.7-14-2.9c-3.4-2.3-5.2-5.6-5.4-9.9c-0.3-4.7,1.5-8.3,5.4-10.9c4-2.6,10-4.1,18.1-4.5L772.7,466.5z"/>
			<path id="path3900-5-0-0-4-7" inkscape:connector-curvature="0" fill="#4183C4" d="M587.1,415.2v-41.5h-35.3v-50.5L504,341.6
				v32.1h-22.4v41.4H504v47c0,28.6,9.8,63.6,65.9,65.1l14.5-41.1c-23.3-2.6-32.5-11.4-32.5-35.6v-35.3L587.1,415.2"/>
			<path id="path4120-2-8-4-8-3" sodipodi:nodetypes="cccccccccccccccc" inkscape:connector-curvature="0" fill="#4183C4" d="
				M167.4,373.8l34.1,153.3h39.8c-10.1-53.4-18.7-98.7-29-153.3H167.4z M252,373.8l-8.6,31.3l15.4,81.8l15.6-56.3l26.9,96.6h46.3
				l33.8-153.3h-44.7l-16.2,85.7l-23.7-85.7H252z"/>
			<path id="path4925-1-4-7" inkscape:connector-curvature="0" fill="#4183C4" d="M453.3,337.1c0,13.2-10.7,24-24,24
				c-13.2,0-24-10.7-24-24s10.7-24,24-24C442.6,313.2,453.3,323.9,453.3,337.1z"/>
			<path id="path4925-4-9-9-9" inkscape:connector-curvature="0" fill="#4183C4" d="M661.2,503.3c0,13.2-10.7,24-24,24
				c-13.2,0-24-10.7-24-24c0-13.2,10.7-24,24-24C650.5,479.4,661.2,490.1,661.2,503.3z"/>
			<path id="path4925-8-5-4-0" inkscape:connector-curvature="0" fill="#4183C4" d="M891.4,337.1c0,13.2-10.7,24-24,24
				c-13.2,0-24-10.7-24-24s10.7-24,24-24C880.6,313.2,891.4,323.9,891.4,337.1z"/>
			<path id="path3900-5-0-24-92-4-2" sodipodi:nodetypes="cccc" inkscape:connector-curvature="0" fill="#4183C4" d="M453.3,373.9
				h-47.9v153.2h47.9"/>
			<path id="path3900-5-0-24-9-9-5-3" sodipodi:nodetypes="cccc" inkscape:connector-curvature="0" fill="#4183C4" d="M891.4,374.6
				h-47.9v152.5h47.9"/>
		</g>
	</g>
</g>
</svg>
