<?xml version="1.0" encoding="utf-8"?>
<!-- Generator: Adobe Illustrator 18.1.1, SVG Export Plug-In . SVG Version: 6.00 Build 0)  -->
<svg version="1.1" id="Layer_1" xmlns="http://www.w3.org/2000/svg" xmlns:xlink="http://www.w3.org/1999/xlink" x="0px" y="0px"
	 viewBox="0 0 220 220" enable-background="new 0 0 220 220" xml:space="preserve">
<path id="rails" fill="none" stroke="#DDDDDC" stroke-width="2" stroke-miterlimit="10" d="M117.8,143.4l14.2,6.5l-1.4-10.1l-13-7
	L117.8,143.4z M10,177.4l18.5,2.1l4-17.2l-17.7-3.1L10,177.4z M75.8,58.3l-12.1-9l-8.4,11.4L68.6,69L75.8,58.3z M112.9,28.1
	L105.2,18l-10.9,6.4l9.1,9.9L112.9,28.1z M152.9,21l-2.5-8.3l-13.2-1.1l3.8,9.1L152.9,21z M48.1,105l-15.1-6.6l-5.1,15l15.5,5.8
	L48.1,105z M123.4,98.2l-2.7,9.3l9.7,9l2.4-8.6L123.4,98.2z M151.9,25.4C113,23.5,43.3,60.4,33.3,208.3h95.4
	c-21.4-55.4-18.9-97.2-4.2-125.6c21.4-41.2,53.2-43.9,83-26.6c1.1-2.5,2.5-5.7,2.5-5.7C193,34.2,177.2,26.6,151.9,25.4z M154.8,56.1
	l3.5,8.5l6.6-3.5l-2.4-7.8L154.8,56.1z M133.2,75.4l7.2,9.9l4.5-6.5l-6.3-9.8L133.2,75.4z M144.2,191l-4.5-10.9l-16.5-3.1l4.3,12.5
	L144.2,191z"/>
</svg>
