<?xml version="1.0" encoding="utf-8"?>
<!-- Generator: Adobe Illustrator 18.1.1, SVG Export Plug-In . SVG Version: 6.00 Build 0)  -->
<svg version="1.1" id="Layer_1" xmlns="http://www.w3.org/2000/svg" xmlns:xlink="http://www.w3.org/1999/xlink" x="0px" y="0px"
	 viewBox="0 0 220 220" enable-background="new 0 0 220 220" xml:space="preserve">
<g>
	<path id="ruby" fill="none" stroke="#DEDEDD" stroke-width="2" stroke-miterlimit="10" d="M183,126.7L183,126.7
		c-10.3,5.4-20.9,8.9-31.9,11.3c-14.5,3.2-29.5,4.3-44.6,4.6l0,0c-15.3-0.5-30.6-2.1-45.2-6.3c-14-4-27.3-10.4-39.6-20.6l0,0
		c-4.3-4.5-12.5-13-11.6-24.6c0.5-6.1,3.4-13.1,10.8-20.8l33.3-30.3C67,36.2,93.9,27,94.7,27.2c0.8,0.3,29.8,1,44.6,1.6l33.3,15.7
		l30.8,31.1c8.6,12.2,7.9,22.8,2.8,31.4C201.2,115.6,191.8,122.3,183,126.7z M151.1,138l-41.3,54.7 M109.8,192.8l-3.3-50.1
		 M61.3,136.4l48.4,56.4 M109.8,192.8l86-74.1 M109.8,192.8l-88.1-76.9 M49.8,58.1c-0.1,16,30.4,26.5,62.4,26.7s60-10.9,60.1-26.9
		c0.1-16-30.1-27.3-62.2-27.5C78.1,30.3,49.9,42.1,49.8,58.1z M20.8,70.4l21.7-6.5l11.6-23.8 M21.7,115.9l20.9-51.9L10.1,91.2
		 M61.3,136.4l15.9-50.3l-55.5,29.8 M77.2,86.1l29.3,56.6l32.6-54.4 M183,126.7l-43.9-38.5l12,49.8 M206.2,107.1l-29.4-39l6.1,58.7
		 M172.6,44.5l4.3,23.5l26.6,7.6 M42.6,63.9l34.6,22.2l61.9,2.1L176.8,68"/>
</g>
</svg>
