<?xml version="1.0" encoding="utf-8"?>
<!-- Generator: Adobe Illustrator 18.1.1, SVG Export Plug-In . SVG Version: 6.00 Build 0)  -->
<svg version="1.1" id="Layer_1" xmlns="http://www.w3.org/2000/svg" xmlns:xlink="http://www.w3.org/1999/xlink" x="0px" y="0px"
	 viewBox="0 0 220 220" enable-background="new 0 0 220 220" xml:space="preserve">
<path id="js" fill="none" stroke="#DEDEDD" stroke-miterlimit="10" d="M10,10v200h200V10H10z M115.4,181.3c-2.9,6-8.6,9.9-15.1,11.8
	c-10,2.3-19.6,1-26.7-3.3c-4.8-2.9-8.5-7.4-11-12.6c5.1-3.1,10.1-6.2,15.2-9.3c0.1,0.1,0.5,0.8,1.1,1.7c1.9,3.3,3.6,5.6,6.9,7.2
	c3.2,1.1,10.3,1.8,13.1-3.9c1.7-2.9,1.1-12.3,1.1-22.6c0-16.2,0.1-32.2,0.1-48.4h18.7c0,17.2,0.1,34.4,0,51.5
	C118.8,163.9,119.7,173.4,115.4,181.3z M193,176c-6.5,22.2-42.8,23-57.2,8.3c-3.1-3.5-5-5.3-6.8-9.3c7.7-4.4,7.7-4.4,15.2-8.8
	c4.1,6.3,7.8,9.7,14.6,11.1c9.2,1.1,18.4-2,16.3-11.8c-2.1-8-18.8-9.9-30.2-18.4c-11.5-7.7-14.2-26.5-4.8-37.3
	c3.2-4,8.5-6.9,14.2-8.4c2-0.2,3.9-0.5,5.9-0.8c11.3-0.2,18.4,2.8,23.6,8.6c1.4,1.5,2.6,3,4.8,6.5c-6,3.8-6,3.8-14.6,9.4
	c-1.8-4-4.9-6.5-8.1-7.5c-5-1.5-11.3,0.1-12.7,5.4c-0.5,1.6-0.4,3.2,0.4,5.9c2,4.6,8.9,6.7,15,9.5c17.6,7.1,23.6,14.8,25,23.9
	C195,170.2,193.3,175.2,193,176z"/>
</svg>
