<?xml version="1.0" encoding="utf-8"?>
<!-- Generator: Adobe Illustrator 18.1.1, SVG Export Plug-In . SVG Version: 6.00 Build 0)  -->
<svg version="1.1" id="Layer_1" xmlns="http://www.w3.org/2000/svg" xmlns:xlink="http://www.w3.org/1999/xlink" x="0px" y="0px"
	 viewBox="0 0 220 220" enable-background="new 0 0 220 220" xml:space="preserve">
<g>
	<path id="node" fill="none" stroke="#DEDEDD" stroke-miterlimit="10" d="M79.3,75.4v78.7c0,14.5-7.9,22.9-21.7,22.9
		c-4.2,0-7.6,0-16.9-4.6L29,165.6c-4.7-2.8-7.7-7.9-7.7-13.4V67.7c0-5.5,2.9-10.6,7.7-13.4L102.3,12c4.6-2.6,10.8-2.6,15.4,0
		L191,54.3c4.7,2.7,7.7,7.9,7.7,13.4v84.6c0,5.5-3,10.6-7.7,13.4l-73.3,42.3c-2.3,1.4-5,2.1-7.7,2.1c-2.7,0-5.3-0.7-7.7-2.1
		l-24.5-14.5 M100.7,122.5c0,14.4,10,22.8,29,22.8c24.4,0,32.2-6.6,32.2-18.5c0-10.2-11.8-16.9-29.5-16.9c-16,0-28.7-4.3-28.7-16.1
		c0-9.9,5.8-16.9,26.1-16.9c26.5,0,29.7,12.5,29.7,21.5"/>
</g>
</svg>
