<?xml version="1.0" encoding="utf-8"?>
<!-- Generator: Adobe Illustrator 18.1.1, SVG Export Plug-In . SVG Version: 6.00 Build 0)  -->
<svg version="1.1" id="Layer_1" xmlns="http://www.w3.org/2000/svg" xmlns:xlink="http://www.w3.org/1999/xlink" x="0px" y="0px"
	 viewBox="0 0 220 220" enable-background="new 0 0 220 220" xml:space="preserve">
<path id="clojure" fill="none" stroke="#DDDDDC" stroke-width="2" stroke-miterlimit="10" d="M172.5,110c0,34.5-28,62.5-62.5,62.5
	s-62.5-28-62.5-62.5s28-62.5,62.5-62.5S172.5,75.5,172.5,110z M106.5,98c2.1,6.9-4.4,14.8-10.9,26.2S85,147.5,85,167.3 M110,10
	C54.8,10,10,54.8,10,110s44.8,100,100,100s100-44.8,100-100S165.2,10,110,10z M110,110c19.2,76.7,67.8,57.8,89.4,44.8 M110,110
	C90.8,33.3,42.2,52.2,20.6,65.2"/>
</svg>
