<?xml version="1.0" encoding="utf-8"?>
<!-- Generator: Adobe Illustrator 18.1.1, SVG Export Plug-In . SVG Version: 6.00 Build 0)  -->
<svg version="1.1" id="Layer_1" xmlns="http://www.w3.org/2000/svg" xmlns:xlink="http://www.w3.org/1999/xlink" x="0px" y="0px"
	 viewBox="0 0 220 220" enable-background="new 0 0 220 220" xml:space="preserve">
<path id="java" fill="none" stroke="#DDDDDC" stroke-miterlimit="10" d="M116.8,126.7c0,0,24.5-12.6,13.2-28.5
	c-10.5-14.8-18.6-22.1,25.1-47.4 M130,10c8.4,33-29.6,43-43.3,63.5c-9.3,14,4.6,29.1,23.5,46.2 M130,10 M83.8,164.7
	c-30.8,8.6,18.7,26.3,57.9,9.5 M83.8,164.7 M79,142.8c-33.9,11.2,18.9,24,66.2,10.1 M79,142.8 M68.3,180.3c-7.9-5.6-51.3,11-22,15.7
	c79.8,12.9,145.5-5.8,124.8-15.2 M171.1,180.9 M87.4,120.1c0,0-14.1-1-31.5,7.4c-20.5,9.9,50.8,14.4,87.7,4.7 M87.4,120.1
	 M151.9,157.5c50.1-13.2,31.7-46.4,7.7-38c-2.1,0.8-3.2,2.5-3.2,2.5 M62.8,204c0,0,4.6,3.8,28.3,5.3c36,2.3,91.3-1.3,92.6-18.3"/>
</svg>
