<?xml version="1.0" encoding="utf-8"?>
<!-- Generator: Adobe Illustrator 18.1.1, SVG Export Plug-In . SVG Version: 6.00 Build 0)  -->
<svg version="1.1" id="Layer_1" xmlns="http://www.w3.org/2000/svg" xmlns:xlink="http://www.w3.org/1999/xlink" x="0px" y="0px"
	 viewBox="0 0 220 220" enable-background="new 0 0 220 220" xml:space="preserve">
<path id="php" fill="none" stroke="#DDDDDC" stroke-miterlimit="10" d="M190.8,97.7c2.1,2.3,2.6,6.3,1.5,11.9
	c-1.1,5.8-3.3,10-6.6,12.5c-3.2,2.5-8.2,3.7-14.8,3.7h-10l6.1-31.6h11.3C184.5,94.2,188.7,95.4,190.8,97.7z M50,94.2H38.8l-6.1,31.6
	h10c6.6,0,11.6-1.2,14.8-3.7c3.2-2.5,5.4-6.7,6.6-12.5c1.1-5.6,0.6-9.6-1.5-11.9C60.4,95.4,56.3,94.2,50,94.2z M70.7,129.2
	c-3.3,3.1-6.9,5.3-10.9,6.6c-4,1.3-9.1,2-15.3,2H30.3l-3.9,20.1H10l14.7-75.4h31.6c9.5,0,16.4,2.5,20.8,7.5c4.4,5,5.7,12,3.9,20.9
	c-0.7,3.7-1.9,7.1-3.6,10.1C75.7,123.8,73.4,126.6,70.7,129.2z M120.8,137.7l6.5-33.4c0.7-3.8,0.5-6.4-0.8-7.8s-4-2.1-8.2-2.1h-13
	l-8.4,43.2H80.5l14.7-75.4h16.3l-3.9,20.1h14.5c9.1,0,15.4,1.6,18.9,4.8c3.5,3.2,4.5,8.4,3.1,15.5l-6.8,35.1H120.8z M209.3,110.7
	c-0.7,3.7-1.9,7.1-3.6,10.1c-1.7,3.1-3.9,5.8-6.7,8.4c-3.3,3.1-6.9,5.3-10.9,6.6c-4,1.3-9.1,2-15.3,2h-14.1l-3.9,20.1h-16.4
	l14.7-75.4h31.6c9.5,0,16.4,2.5,20.8,7.5C209.7,94.8,211,101.7,209.3,110.7z"/>
</svg>
