<?xml version="1.0" encoding="utf-8"?>
<!-- Generator: Adobe Illustrator 18.1.1, SVG Export Plug-In . SVG Version: 6.00 Build 0)  -->
<svg version="1.1" id="Layer_1" xmlns="http://www.w3.org/2000/svg" xmlns:xlink="http://www.w3.org/1999/xlink" x="0px" y="0px"
	 viewBox="0 0 220 220" enable-background="new 0 0 220 220" xml:space="preserve">
<path id="python" fill="none" stroke="#DDDDDC" stroke-miterlimit="10" d="M83,24.6c4.9,0,9,4.1,9,9.1c0,5-4,9.1-9,9.1
	c-4.9,0-9-4.1-9-9.1C74.1,28.7,78.1,24.6,83,24.6z M136.7,176.1c4.9,0,9,4.1,9,9.1c0,5-4,9.1-9,9.1c-4.9,0-9-4.1-9-9.1
	C127.7,180.1,131.8,176.1,136.7,176.1z M109.9,61H62.2 M157.5,157.9h-48.7 M205.3,85.2c-3.4-13.8-10-24.2-23.9-24.2h-23.9V36.8
	c0-12.9-10.9-22.6-23.9-24.8c-8.2-1.4-16.7-2-24.9-1.9c-8.2,0-15.9,0.7-22.8,1.9c-20.2,3.6-23.9,11-23.9,24.8V61H44.3
	c-13.9,0-26,8.3-29.8,24.2c-4.4,18.2-4.6,29.5,0,48.5c3.4,14.1,11.5,24.2,25.4,24.2h22.4v24.2c0,12.9,11.2,20.5,23.9,24.2
	c15.1,4.4,29.6,5.2,47.7,0c12-3.5,23.9-10.5,23.9-24.2v-24.2h23.9c13.9,0,19-9.7,23.9-24.2C210.2,118.7,210,104.4,205.3,85.2z
	 M62.2,157.9v-1.2c0-25.8,20.9-46.6,46.6-46.6h0h0h0c26.9,0,48.7-21.8,48.7-48.7V61"/>
</svg>
