<?xml version="1.0" encoding="utf-8"?>
<!-- Generator: Adobe Illustrator 18.1.1, SVG Export Plug-In . SVG Version: 6.00 Build 0)  -->
<svg version="1.1" id="Layer_1" xmlns="http://www.w3.org/2000/svg" xmlns:xlink="http://www.w3.org/1999/xlink" x="0px" y="0px"
	 viewBox="0 0 500 272" enable-background="new 0 0 500 272" xml:space="preserve">
<g>
	<path fill="#343434" d="M72.9,227.9v43.7H0l0-43.7c0-20.1,16.3-36.5,36.5-36.5C56.6,191.5,72.9,207.8,72.9,227.9z"/>
	<path fill="#343434" d="M330.5,54.4l25.5-46.5c0.9-1.6,0.8-3.5,0-5c-0.1-0.2-0.2-0.4-0.4-0.6v0c-0.1-0.2-0.3-0.3-0.5-0.5
		c-0.2-0.2-0.3-0.3-0.5-0.5c-0.2-0.1-0.4-0.3-0.6-0.4c-0.1-0.1-0.2-0.1-0.3-0.1c-0.2-0.1-0.4-0.2-0.6-0.2c-0.2-0.1-0.4-0.1-0.6-0.2
		c-0.5-0.1-1-0.1-1.5-0.1c-0.2,0-0.4,0.1-0.6,0.1c-0.4,0.1-0.7,0.2-1.1,0.4h0c-0.3,0.2-0.6,0.3-0.8,0.5c-0.3,0.2-0.5,0.4-0.7,0.7
		c-0.2,0.2-0.3,0.4-0.4,0.6c-0.1,0.1-0.1,0.2-0.2,0.3L321.3,50c-0.7-0.3-1.3-0.6-2-0.9c0,0,0,0,0,0c-3.4-1.5-6.8-2.8-10.4-4
		c0,0,0,0,0,0c-1.4-0.5-2.8-1-4.2-1.4c0,0,0,0,0,0c-1.4-0.5-2.8-0.9-4.3-1.3c-4.3-1.3-8.8-2.4-13.2-3.4c-1.5-0.3-2.9-0.6-4.4-0.9
		c-0.1,0-0.2,0-0.3-0.1c-1.1-0.2-2.2-0.4-3.4-0.6c-3.4-0.6-6.8-1-10.2-1.4c-0.8-0.1-1.6-0.2-2.3-0.2c-5.5-0.5-11.1-0.8-16.7-0.8
		c-25.5,0-49.7,5.4-71.3,14.9L152.9,3.1c-1.3-2.5-4.4-3.4-6.8-2c-0.1,0.1-0.2,0.1-0.3,0.2c-0.2,0.1-0.4,0.3-0.6,0.4
		c-0.1,0.1-0.2,0.2-0.3,0.2c-0.3,0.3-0.6,0.7-0.8,1.1c-0.2,0.3-0.3,0.6-0.4,0.9c-0.1,0.2-0.1,0.4-0.2,0.6c-0.2,1.1-0.1,2.3,0.5,3.4
		l25.5,46.4c-50,25.8-83.8,74.9-83.8,131.3l328.4,0C414.1,129.3,380.4,80.2,330.5,54.4z M175.2,126.2c-7.6,0-13.7-6.2-13.7-13.8
		c0-7.6,6.1-13.8,13.7-13.8c7.6,0,13.8,6.2,13.8,13.8C189,120,182.8,126.2,175.2,126.2z M334.5,122.1c-0.2,0.2-0.3,0.3-0.5,0.5
		c-0.5,0.4-1,0.9-1.6,1.2c-0.6,0.4-1.1,0.7-1.7,1c-1.8,0.9-3.8,1.4-6,1.4c-1.3,0-2.5-0.2-3.6-0.5c-0.2,0-0.3-0.1-0.5-0.1
		c-0.9-0.3-1.7-0.6-2.5-1c-1-0.5-1.9-1.2-2.7-1.9c0,0,0,0,0,0c-0.2-0.2-0.3-0.3-0.5-0.5c-0.5-0.5-1-1.1-1.4-1.7
		c-0.6-0.8-1.1-1.7-1.5-2.6c-0.1-0.2-0.2-0.5-0.3-0.7c0,0,0,0,0,0c-0.2-0.4-0.3-0.8-0.4-1.3c-0.1-0.4-0.2-0.9-0.3-1.3
		c-0.1-0.7-0.2-1.4-0.2-2.1c0-0.7,0.1-1.4,0.2-2.1c0.5-3,1.9-5.6,3.9-7.7l0.6-0.5c0.8-0.7,1.6-1.3,2.6-1.8c0,0,0,0,0,0
		c1.2-0.6,2.4-1.1,3.8-1.4c0.9-0.2,1.8-0.3,2.8-0.3c7.5,0,13.7,6.2,13.7,13.8C338.5,116.2,337,119.6,334.5,122.1z"/>
	<polygon fill="#343434" points="413,271.6 87.1,271.6 87.1,198.4 413,198.3 	"/>
	<path fill="#343434" d="M500,271.6h-72.9l0-43.7c0-20.1,16.3-36.5,36.4-36.5c0.6,0,1.3,0,1.9,0.1c0.6,0,1.2,0.1,1.9,0.1
		c0.4,0,0.8,0.1,1.2,0.1c0.9,0.1,1.7,0.3,2.5,0.4c0.2,0,0.4,0.1,0.6,0.1c0.4,0.1,0.7,0.2,1.1,0.3c0.4,0.1,0.8,0.2,1.2,0.3
		c0.8,0.2,1.5,0.5,2.2,0.7c0.2,0.1,0.4,0.2,0.7,0.2c0.3,0.1,0.7,0.3,1,0.4c0.5,0.2,1.1,0.5,1.6,0.7c0.5,0.3,1.1,0.5,1.6,0.8
		c0.4,0.2,0.9,0.5,1.3,0.7c0.1,0,0.2,0.1,0.2,0.1c1,0.6,2,1.3,2.9,2c0,0,0,0,0,0c0.2,0.2,0.5,0.4,0.7,0.5c0.4,0.3,0.8,0.7,1.2,1
		c0.3,0.2,0.5,0.5,0.8,0.7c0.2,0.2,0.4,0.4,0.6,0.6c0.4,0.4,0.8,0.7,1.1,1.1c0.3,0.3,0.5,0.5,0.7,0.8c0.2,0.2,0.4,0.4,0.6,0.7
		c0.2,0.2,0.4,0.4,0.6,0.7c0.4,0.5,0.7,0.9,1.1,1.4c0.2,0.2,0.3,0.4,0.4,0.6c0.2,0.3,0.4,0.6,0.6,0.8c0.2,0.2,0.3,0.5,0.5,0.7
		c0.3,0.5,0.6,1,0.9,1.5c0.2,0.3,0.3,0.5,0.4,0.8c0.3,0.5,0.6,1,0.8,1.6c0.1,0.3,0.3,0.5,0.4,0.8c0.1,0.3,0.2,0.5,0.4,0.8
		c0.1,0.3,0.2,0.6,0.3,0.8c0.1,0.3,0.3,0.7,0.4,1c0.1,0.2,0.2,0.4,0.2,0.7c0.1,0.3,0.2,0.6,0.3,0.9c0.3,0.9,0.5,1.7,0.7,2.6
		c0.1,0.3,0.1,0.6,0.2,0.9c0.1,0.3,0.1,0.6,0.2,0.9c0.1,0.3,0.1,0.6,0.2,0.9c0.1,0.3,0.1,0.6,0.1,0.9c0.2,1.2,0.3,2.5,0.3,3.7
		c0,0.3,0,0.6,0,0.9L500,271.6z"/>
	<path fill="#343434" d="M36.5,191.5C16.3,191.5,0,207.8,0,227.9l0,43.7h72.9v-43.7C72.9,207.8,56.6,191.5,36.5,191.5z M330.5,54.4
		l25.5-46.5c0.9-1.6,0.8-3.5,0-5c-0.1-0.2-0.2-0.4-0.4-0.6v0c-0.1-0.2-0.3-0.3-0.5-0.5c-0.2-0.2-0.3-0.3-0.5-0.5
		c-0.2-0.1-0.4-0.3-0.6-0.4c-0.1-0.1-0.2-0.1-0.3-0.1c-0.2-0.1-0.4-0.2-0.6-0.2c-0.2-0.1-0.4-0.1-0.6-0.2c-0.5-0.1-1-0.1-1.5-0.1
		c-0.2,0-0.4,0.1-0.6,0.1c-0.4,0.1-0.7,0.2-1.1,0.4h0c-0.3,0.2-0.6,0.3-0.8,0.5c-0.3,0.2-0.5,0.4-0.7,0.7c-0.2,0.2-0.3,0.4-0.4,0.6
		c-0.1,0.1-0.1,0.2-0.2,0.3l-25.7,47c-0.7-0.3-1.4-0.6-2-0.9c0,0,0,0,0,0c-3.4-1.4-6.8-2.8-10.4-4c0,0,0,0,0,0
		c-1.4-0.5-2.8-1-4.2-1.4c0,0,0,0,0,0c-1.4-0.5-2.8-0.9-4.3-1.3c-4.3-1.3-8.8-2.4-13.2-3.4c-1.5-0.3-2.9-0.6-4.4-0.9
		c-0.1,0-0.2,0-0.3-0.1c-1.1-0.2-2.2-0.4-3.4-0.6c-3.4-0.6-6.8-1-10.2-1.4c-0.8-0.1-1.6-0.2-2.3-0.2c-5.5-0.5-11.1-0.8-16.7-0.8
		c-25.5,0-49.7,5.4-71.3,14.9L152.9,3.1c-1.3-2.5-4.4-3.4-6.8-2c-0.1,0.1-0.2,0.1-0.3,0.2c-0.2,0.1-0.4,0.3-0.6,0.4
		c-0.1,0.1-0.2,0.2-0.3,0.2c-0.3,0.3-0.6,0.7-0.8,1.1c-0.2,0.3-0.3,0.6-0.4,0.9c-0.1,0.2-0.1,0.4-0.2,0.6c-0.2,1.1-0.1,2.3,0.5,3.4
		l25.5,46.4c-50,25.8-83.8,74.9-83.8,131.3l328.4,0C414.1,129.3,380.4,80.2,330.5,54.4z M175.2,126.2c-7.6,0-13.7-6.2-13.7-13.8
		c0-7.6,6.1-13.8,13.7-13.8c7.6,0,13.8,6.2,13.8,13.8C189,120,182.8,126.2,175.2,126.2z M334.5,122.1c-0.2,0.2-0.3,0.3-0.5,0.5
		c-0.5,0.4-1,0.9-1.6,1.2c-0.6,0.4-1.1,0.7-1.7,1c-1.8,0.9-3.8,1.4-6,1.4c-1.3,0-2.5-0.2-3.6-0.5c-0.2,0-0.3-0.1-0.5-0.1
		c-0.9-0.3-1.7-0.6-2.5-1c-1-0.5-1.9-1.2-2.7-1.9c0,0,0,0,0,0c-0.2-0.2-0.3-0.3-0.5-0.5c-0.5-0.5-1-1.1-1.4-1.7
		c-0.6-0.8-1.1-1.7-1.5-2.6c-0.1-0.2-0.2-0.5-0.3-0.7c0,0,0,0,0,0c-0.2-0.4-0.3-0.8-0.4-1.3c-0.1-0.4-0.2-0.9-0.3-1.3
		c-0.1-0.7-0.2-1.4-0.2-2.1c0-0.7,0.1-1.4,0.2-2.1c0.5-3,1.9-5.6,3.9-7.7l0.6-0.5c0.8-0.7,1.6-1.3,2.6-1.8c0,0,0,0,0,0
		c1.2-0.6,2.4-1.1,3.8-1.4c0.9-0.2,1.8-0.3,2.8-0.3c7.5,0,13.7,6.2,13.7,13.8C338.5,116.2,337,119.6,334.5,122.1z M413,271.6H87.1
		l0-73.2l325.9-0.1h0V271.6L413,271.6z M500,271.6h-72.9l0-43.7c0-20.1,16.3-36.5,36.4-36.5c0.6,0,1.3,0,1.9,0.1
		c0.6,0,1.2,0.1,1.9,0.1c0.4,0,0.8,0.1,1.2,0.1c0.9,0.1,1.7,0.3,2.5,0.4c0.2,0,0.4,0.1,0.6,0.1c0.4,0.1,0.7,0.2,1.1,0.3
		c0.4,0.1,0.8,0.2,1.2,0.3c0.8,0.2,1.5,0.5,2.2,0.7c0.2,0.1,0.4,0.2,0.7,0.2c0.3,0.1,0.7,0.3,1,0.4c0.5,0.2,1.1,0.5,1.6,0.7
		s1.1,0.5,1.6,0.8c0.4,0.2,0.9,0.5,1.3,0.7c0.1,0,0.2,0.1,0.2,0.1c1,0.6,2,1.3,2.9,2c0,0,0,0,0,0c0.2,0.2,0.5,0.4,0.7,0.5
		c0.4,0.3,0.8,0.6,1.2,1c0.3,0.2,0.5,0.5,0.8,0.7c0.2,0.2,0.4,0.4,0.6,0.6c0.4,0.4,0.8,0.7,1.1,1.1c0.3,0.3,0.5,0.5,0.7,0.8
		c0.2,0.2,0.4,0.4,0.6,0.7c0.2,0.2,0.4,0.4,0.6,0.7c0.4,0.5,0.8,0.9,1.1,1.4c0.2,0.2,0.3,0.4,0.4,0.6c0.2,0.3,0.4,0.6,0.6,0.8
		c0.2,0.2,0.3,0.5,0.5,0.7c0.3,0.5,0.6,1,0.9,1.5c0.2,0.3,0.3,0.5,0.4,0.8c0.3,0.5,0.6,1,0.8,1.6c0.1,0.3,0.3,0.5,0.4,0.8
		s0.2,0.5,0.4,0.8c0.1,0.3,0.2,0.6,0.3,0.8c0.1,0.3,0.3,0.7,0.4,1c0.1,0.2,0.2,0.4,0.2,0.7c0.1,0.3,0.2,0.6,0.3,0.9
		c0.3,0.9,0.5,1.7,0.7,2.6c0.1,0.3,0.1,0.6,0.2,0.9c0.1,0.3,0.1,0.6,0.2,0.9c0.1,0.3,0.1,0.6,0.2,0.9c0.1,0.3,0.1,0.6,0.1,0.9
		c0.2,1.2,0.3,2.5,0.3,3.7c0,0.3,0,0.6,0,0.9L500,271.6L500,271.6z"/>
</g>
</svg>
