<?xml version="1.0" encoding="utf-8"?>
<!-- Generator: Adobe Illustrator 18.1.1, SVG Export Plug-In . SVG Version: 6.00 Build 0)  -->
<svg version="1.1" id="Layer_1" xmlns="http://www.w3.org/2000/svg" xmlns:xlink="http://www.w3.org/1999/xlink" x="0px" y="0px"
	 viewBox="0 0 400 200" enable-background="new 0 0 400 200" xml:space="preserve">
<path fill="#343434" d="M300.2,123.8c-39.9-4-77.8,23.5-98,23.5c-20.2,0-51.4-22.9-84.5-22.3c-43.5,0.6-83.5,25.3-106,64.2
	c-2,3.5-3.9,7.1-5.6,10.8h358.6c13.7-16.3,27.9-24.6,29.1-25.4C363.8,130.6,316.9,124.5,300.2,123.8z M300.7,0
	c-25.8,1-56.9,17.2-75.4,38.8C208.7,58,194.2,88.6,198.1,118c28.7,2.2,58.1-14.6,76-36.3C292,60.1,304,30,300.7,0z"/>
</svg>
