<?xml version="1.0" encoding="iso-8859-1"?>
<!-- Generator: Adobe Illustrator 18.1.1, SVG Export Plug-In . SVG Version: 6.00 Build 0)  -->
<svg version="1.1" id="Layer_1" xmlns="http://www.w3.org/2000/svg" xmlns:xlink="http://www.w3.org/1999/xlink" x="0px" y="0px"
	 viewBox="176 333.5 260 125" style="enable-background:new 176 333.5 260 125;" xml:space="preserve">
<g>
	<defs>
		<rect id="SVGID_1_" x="175.933" y="333.5" width="260" height="125"/>
	</defs>
	<clipPath id="SVGID_2_">
		<use xlink:href="#SVGID_1_"  style="overflow:visible;"/>
	</clipPath>
	<g style="clip-path:url(#SVGID_2_);">
		<path style="fill:#343434;" d="M561.861-426.422h-79.732c-1.969,0.984-5.906,1.969-8.859,1.969c-3.937,0-6.89-0.984-8.859-1.969
			H300.027l0.984,0.984c0,0.984-0.984,1.969-1.969,1.969h-60.045c-0.984,0-1.969-0.984-1.969-1.969c0-0.984,0-0.984,0.984-0.984
			h-8.859c-29.53,0-53.154,23.624-53.154,53.154v778.613c0,29.53,23.624,53.154,53.154,53.154h333.691
			c29.53,0,53.154-23.624,53.154-53.154v-778.613C614.031-402.798,590.407-426.422,561.861-426.422z M611.078,390.581
			L611.078,390.581v13.781c0,25.593-20.671,46.264-45.28,47.248l0,0c-0.984,0-0.984,0-1.969,0l0,0H226.201l0,0
			c-11.812,0-23.624-4.922-31.499-12.796l0,0c-9.843-8.859-15.749-20.671-15.749-34.452v-13.781l0,0l0,0v-752.036l0,0v-13.781
			c0-10.828,3.937-20.671,9.843-29.53l0,0l0,0c0.984-0.984,0.984-0.984,1.969-1.969l0,0c0,0,0-0.984,0.984-0.984l0,0
			c0,0,0,0,0.984-0.984l0,0c0,0,0,0,0.984-0.984l0,0l0.984-0.984l0,0c0.984-0.984,0.984-0.984,1.969-1.969l0,0
			c0,0,0.984,0,0.984-0.984l0,0c0,0,0.984,0,0.984-0.984l0,0c0,0,0.984,0,0.984-0.984l0,0c0,0,0.984,0,0.984-0.984l0,0
			c0.984,0,0.984-0.984,1.969-0.984l0,0c0,0,0.984,0,0.984-0.984l0,0h0.984l0,0h0.984l0,0h0.984l0,0h0.984l0,0h0.984l0,0h0.984l0,0
			h0.984l0,0h0.984l0,0h0.984l0,0h0.984l0,0h0.984l0,0h0.984l0,0h0.984c0,0,0,0,0.984,0h0.984c0,0,0,0,0.984,0h0.984
			c0,0,0,0,0.984,0h0.984l0,0h0.984h337.629h0.984l0,0h0.984c0,0,0,0,0.984,0h0.984c0,0,0,0,0.984,0h0.984l0,0h0.984l0,0h0.984l0,0
			h0.984l0,0h0.984l0,0h0.984l0,0h0.984l0,0h0.984l0,0h0.984l0,0h0.984l0,0h0.984l0,0h0.984l0,0h0.984l0,0h0.984l0,0
			c0,0,0.984,0,0.984,0.984l0,0c0.984,0,0.984,0.984,1.969,0.984l0,0c0,0,0.984,0,0.984,0.984l0,0c0,0,0.984,0,0.984,0.984l0,0
			c0,0,0.984,0,0.984,0.984l0,0c0,0,0.984,0,0.984,0.984l0,0c0.984,0.984,0.984,0.984,1.969,1.969l0,0l0.984,0.984l0,0
			c0,0,0,0,0.984,0.984l0,0c0,0,0,0,0.984,0.984l0,0c0,0,0,0.984,0.984,0.984l0,0c0.984,0.984,0.984,0.984,1.969,1.969l0,0l0,0
			c5.906,7.875,9.843,17.718,9.843,29.53v13.781v0.984l0,0L611.078,390.581L611.078,390.581z"/>
		<path style="fill:#343434;" d="M232.107-384.095c-2.953,0-4.922,1.969-4.922,4.922c0,1.969,0.984,2.953,1.969,3.937
			c0,0,0,0-0.984-0.984c0,0,0-0.984-0.984-0.984v-0.984l0,0v-0.984l0,0v-0.984c0,0,0,0,0-0.984l0,0l0,0l0,0l0,0l0,0l0,0l0,0l0,0l0,0
			l0,0l0,0l0,0l0,0l0,0l0,0l0,0l0,0l0,0l0,0l0,0l0,0C231.123-384.095,231.123-384.095,232.107-384.095
			C231.123-384.095,231.123-384.095,232.107-384.095L232.107-384.095L232.107-384.095L232.107-384.095L232.107-384.095
			C232.107-384.095,233.091-384.095,232.107-384.095C233.091-384.095,233.091-384.095,232.107-384.095
			C233.091-384.095,233.091-384.095,232.107-384.095C233.091-384.095,233.091-384.095,232.107-384.095c0.984,0,0.984,0,0.984,0
			l-2.953,9.843h0.984c2.953,0,4.922-1.969,4.922-4.922C237.029-382.126,235.06-384.095,232.107-384.095z"/>
		<path style="fill:#343434;" d="M247.857-384.095c-2.953,0-4.922,1.969-4.922,4.922c0,1.969,0.984,2.953,1.969,3.937
			c0,0,0,0-0.984-0.984c0,0,0-0.984-0.984-0.984v-0.984l0,0v-0.984l0,0v-0.984c0,0,0,0,0-0.984l0,0l0,0l0,0l0,0l0,0l0,0l0,0l0,0l0,0
			l0,0l0,0l0,0l0,0l0,0l0,0l0,0l0,0l0,0l0,0l0,0l0,0C246.872-384.095,246.872-384.095,247.857-384.095
			C246.872-384.095,246.872-384.095,247.857-384.095L247.857-384.095L247.857-384.095L247.857-384.095L247.857-384.095
			L247.857-384.095C248.841-384.095,248.841-384.095,247.857-384.095C248.841-384.095,248.841-384.095,247.857-384.095
			C248.841-384.095,248.841-384.095,247.857-384.095c0.984,0,0.984,0,0.984,0l-2.953,9.843h0.984c2.953,0,4.922-1.969,4.922-4.922
			C252.778-382.126,250.809-384.095,247.857-384.095z"/>
		<rect x="610.094" y="-361.456" style="fill:#343434;" width="0" height="752.036"/>
		<rect x="177.968" y="-361.456" style="fill:#343434;" width="0" height="752.036"/>
		<path style="fill:#343434;" d="M183.874,390.581h421.298v-752.036H183.874V390.581z M280.34,364.003c0,0,0.984,0.984,0,1.969
			h-0.984c0,0,0,0-0.984,0l-10.828-6.891v-1.969l10.828-6.891c0,0,0.984,0,1.969,0c0,0,0,0.984,0,1.969l-9.843,6.89L280.34,364.003z
			 M510.675,364.003c0,0.984,0,0.984-0.984,0.984h-12.796c-0.984,0-0.984-0.984-0.984-0.984v-7.875c0-0.984,0-0.984,0.984-1.969
			l5.906-4.922h0.984h0.984l5.906,4.922c0,0,0.984,0.984,0.984,1.969L510.675,364.003L510.675,364.003z M204.546-341.769h379.955
			v675.257H204.545L204.546-341.769L204.546-341.769z"/>
		<path style="fill:#343434;" d="M502.801,352.191l-4.922,3.937l0,0v6.891h10.828v-6.891l0,0L502.801,352.191z"/>
		<circle style="fill:#343434;" cx="270.496" cy="-380.158" r="0.984"/>
		<circle style="fill:#343434;" cx="270.496" cy="-385.08" r="0.984"/>
		<circle style="fill:#343434;" cx="270.496" cy="-390.986" r="0.984"/>
		<circle style="fill:#343434;" cx="270.496" cy="-375.236" r="0.984"/>
		<circle style="fill:#343434;" cx="275.418" cy="-380.158" r="0.984"/>
		<circle style="fill:#343434;" cx="275.418" cy="-385.08" r="0.984"/>
		<circle style="fill:#343434;" cx="275.418" cy="-390.986" r="0.984"/>
		<circle style="fill:#343434;" cx="275.418" cy="-375.236" r="0.984"/>
		<circle style="fill:#343434;" cx="281.324" cy="-380.158" r="0.984"/>
		<circle style="fill:#343434;" cx="281.324" cy="-385.08" r="0.984"/>
		<circle style="fill:#343434;" cx="281.324" cy="-390.986" r="0.984"/>
		<circle style="fill:#343434;" cx="281.324" cy="-375.236" r="0.984"/>
		<circle style="fill:#343434;" cx="286.246" cy="-380.158" r="0.984"/>
		<circle style="fill:#343434;" cx="286.246" cy="-385.08" r="0.984"/>
		<circle style="fill:#343434;" cx="286.246" cy="-390.986" r="0.984"/>
		<circle style="fill:#343434;" cx="286.246" cy="-375.236" r="0.984"/>
		<circle style="fill:#343434;" cx="291.167" cy="-380.158" r="0.984"/>
		<circle style="fill:#343434;" cx="291.167" cy="-385.08" r="0.984"/>
		<circle style="fill:#343434;" cx="291.167" cy="-390.986" r="0.984"/>
		<circle style="fill:#343434;" cx="291.167" cy="-375.236" r="0.984"/>
		<circle style="fill:#343434;" cx="296.089" cy="-380.158" r="0.984"/>
		<circle style="fill:#343434;" cx="296.089" cy="-385.08" r="0.984"/>
		<circle style="fill:#343434;" cx="296.089" cy="-390.986" r="0.984"/>
		<circle style="fill:#343434;" cx="296.089" cy="-375.236" r="0.984"/>
		<circle style="fill:#343434;" cx="301.995" cy="-380.158" r="0.984"/>
		<circle style="fill:#343434;" cx="301.995" cy="-385.08" r="0.984"/>
		<circle style="fill:#343434;" cx="301.995" cy="-390.986" r="0.984"/>
		<circle style="fill:#343434;" cx="301.995" cy="-375.236" r="0.984"/>
		<circle style="fill:#343434;" cx="306.917" cy="-380.158" r="0.984"/>
		<circle style="fill:#343434;" cx="306.917" cy="-385.08" r="0.984"/>
		<circle style="fill:#343434;" cx="306.917" cy="-390.986" r="0.984"/>
		<circle style="fill:#343434;" cx="306.917" cy="-375.236" r="0.984"/>
		<circle style="fill:#343434;" cx="311.839" cy="-380.158" r="0.984"/>
		<circle style="fill:#343434;" cx="311.839" cy="-385.08" r="0.984"/>
		<circle style="fill:#343434;" cx="311.839" cy="-390.986" r="0.984"/>
		<circle style="fill:#343434;" cx="311.839" cy="-375.236" r="0.984"/>
		<circle style="fill:#343434;" cx="316.76" cy="-380.158" r="0.984"/>
		<circle style="fill:#343434;" cx="316.76" cy="-385.08" r="0.984"/>
		<circle style="fill:#343434;" cx="316.76" cy="-390.986" r="0.984"/>
		<circle style="fill:#343434;" cx="316.76" cy="-375.236" r="0.984"/>
		<circle style="fill:#343434;" cx="322.666" cy="-380.158" r="0.984"/>
		<circle style="fill:#343434;" cx="322.666" cy="-385.08" r="0.984"/>
		<circle style="fill:#343434;" cx="322.666" cy="-390.986" r="0.984"/>
		<circle style="fill:#343434;" cx="322.666" cy="-375.236" r="0.984"/>
		<circle style="fill:#343434;" cx="327.588" cy="-380.158" r="0.984"/>
		<circle style="fill:#343434;" cx="327.588" cy="-385.08" r="0.984"/>
		<circle style="fill:#343434;" cx="327.588" cy="-390.986" r="0.984"/>
		<circle style="fill:#343434;" cx="327.588" cy="-375.236" r="0.984"/>
		<circle style="fill:#343434;" cx="332.51" cy="-380.158" r="0.984"/>
		<circle style="fill:#343434;" cx="332.51" cy="-385.08" r="0.984"/>
		<circle style="fill:#343434;" cx="332.51" cy="-390.986" r="0.984"/>
		<circle style="fill:#343434;" cx="332.51" cy="-375.236" r="0.984"/>
		<circle style="fill:#343434;" cx="337.431" cy="-380.158" r="0.984"/>
		<circle style="fill:#343434;" cx="337.431" cy="-385.08" r="0.984"/>
		<circle style="fill:#343434;" cx="337.431" cy="-390.986" r="0.984"/>
		<circle style="fill:#343434;" cx="337.431" cy="-375.236" r="0.984"/>
		<circle style="fill:#343434;" cx="343.338" cy="-380.158" r="0.984"/>
		<circle style="fill:#343434;" cx="343.338" cy="-385.08" r="0.984"/>
		<circle style="fill:#343434;" cx="343.338" cy="-390.986" r="0.984"/>
		<circle style="fill:#343434;" cx="343.338" cy="-375.236" r="0.984"/>
		<circle style="fill:#343434;" cx="348.259" cy="-380.158" r="0.984"/>
		<circle style="fill:#343434;" cx="348.259" cy="-385.08" r="0.984"/>
		<circle style="fill:#343434;" cx="348.259" cy="-390.986" r="0.984"/>
		<circle style="fill:#343434;" cx="348.259" cy="-375.236" r="0.984"/>
		<circle style="fill:#343434;" cx="353.181" cy="-380.158" r="0.984"/>
		<circle style="fill:#343434;" cx="353.181" cy="-385.08" r="0.984"/>
		<circle style="fill:#343434;" cx="353.181" cy="-390.986" r="0.984"/>
		<circle style="fill:#343434;" cx="353.181" cy="-375.236" r="0.984"/>
		<circle style="fill:#343434;" cx="358.103" cy="-380.158" r="0.984"/>
		<circle style="fill:#343434;" cx="358.103" cy="-385.08" r="0.984"/>
		<circle style="fill:#343434;" cx="358.103" cy="-390.986" r="0.984"/>
		<circle style="fill:#343434;" cx="358.103" cy="-375.236" r="0.984"/>
		<circle style="fill:#343434;" cx="364.009" cy="-380.158" r="0.984"/>
		<circle style="fill:#343434;" cx="364.009" cy="-385.08" r="0.984"/>
		<circle style="fill:#343434;" cx="364.009" cy="-390.986" r="0.984"/>
		<circle style="fill:#343434;" cx="364.009" cy="-375.236" r="0.984"/>
		<circle style="fill:#343434;" cx="368.93" cy="-380.158" r="0.984"/>
		<circle style="fill:#343434;" cx="368.93" cy="-385.08" r="0.984"/>
		<circle style="fill:#343434;" cx="368.93" cy="-390.986" r="0.984"/>
		<circle style="fill:#343434;" cx="368.93" cy="-375.236" r="0.984"/>
		<circle style="fill:#343434;" cx="373.852" cy="-380.158" r="0.984"/>
		<circle style="fill:#343434;" cx="373.852" cy="-385.08" r="0.984"/>
		<circle style="fill:#343434;" cx="373.852" cy="-390.986" r="0.984"/>
		<circle style="fill:#343434;" cx="373.852" cy="-375.236" r="0.984"/>
		<circle style="fill:#343434;" cx="378.774" cy="-380.158" r="0.984"/>
		<circle style="fill:#343434;" cx="378.774" cy="-385.08" r="0.984"/>
		<circle style="fill:#343434;" cx="378.774" cy="-390.986" r="0.984"/>
		<circle style="fill:#343434;" cx="378.774" cy="-375.236" r="0.984"/>
		<circle style="fill:#343434;" cx="384.68" cy="-380.158" r="0.984"/>
		<circle style="fill:#343434;" cx="384.68" cy="-385.08" r="0.984"/>
		<circle style="fill:#343434;" cx="384.68" cy="-390.986" r="0.984"/>
		<circle style="fill:#343434;" cx="384.68" cy="-375.236" r="0.984"/>
		<circle style="fill:#343434;" cx="389.601" cy="-380.158" r="0.984"/>
		<circle style="fill:#343434;" cx="389.601" cy="-385.08" r="0.984"/>
		<circle style="fill:#343434;" cx="389.601" cy="-390.986" r="0.984"/>
		<circle style="fill:#343434;" cx="389.601" cy="-375.236" r="0.984"/>
		<circle style="fill:#343434;" cx="394.523" cy="-380.158" r="0.984"/>
		<circle style="fill:#343434;" cx="394.523" cy="-385.08" r="0.984"/>
		<circle style="fill:#343434;" cx="394.523" cy="-390.986" r="0.984"/>
		<circle style="fill:#343434;" cx="394.523" cy="-375.236" r="0.984"/>
		<circle style="fill:#343434;" cx="399.445" cy="-380.158" r="0.984"/>
		<circle style="fill:#343434;" cx="399.445" cy="-385.08" r="0.984"/>
		<circle style="fill:#343434;" cx="399.445" cy="-390.986" r="0.984"/>
		<circle style="fill:#343434;" cx="399.445" cy="-375.236" r="0.984"/>
		<circle style="fill:#343434;" cx="405.351" cy="-380.158" r="0.984"/>
		<circle style="fill:#343434;" cx="405.351" cy="-385.08" r="0.984"/>
		<circle style="fill:#343434;" cx="405.351" cy="-390.986" r="0.984"/>
		<circle style="fill:#343434;" cx="405.351" cy="-375.236" r="0.984"/>
		<circle style="fill:#343434;" cx="410.273" cy="-380.158" r="0.984"/>
		<circle style="fill:#343434;" cx="410.273" cy="-385.08" r="0.984"/>
		<circle style="fill:#343434;" cx="410.273" cy="-390.986" r="0.984"/>
		<circle style="fill:#343434;" cx="410.273" cy="-375.236" r="0.984"/>
		<circle style="fill:#343434;" cx="415.194" cy="-380.158" r="0.984"/>
		<circle style="fill:#343434;" cx="415.194" cy="-385.08" r="0.984"/>
		<circle style="fill:#343434;" cx="415.194" cy="-390.986" r="0.984"/>
		<circle style="fill:#343434;" cx="415.194" cy="-375.236" r="0.984"/>
		<circle style="fill:#343434;" cx="420.116" cy="-380.158" r="0.984"/>
		<circle style="fill:#343434;" cx="420.116" cy="-385.08" r="0.984"/>
		<circle style="fill:#343434;" cx="420.116" cy="-390.986" r="0.984"/>
		<circle style="fill:#343434;" cx="420.116" cy="-375.236" r="0.984"/>
		<circle style="fill:#343434;" cx="425.038" cy="-380.158" r="0.984"/>
		<circle style="fill:#343434;" cx="425.038" cy="-385.08" r="0.984"/>
		<circle style="fill:#343434;" cx="425.038" cy="-390.986" r="0.984"/>
		<circle style="fill:#343434;" cx="425.038" cy="-375.236" r="0.984"/>
		<circle style="fill:#343434;" cx="430.944" cy="-380.158" r="0.984"/>
		<circle style="fill:#343434;" cx="430.944" cy="-385.08" r="0.984"/>
		<circle style="fill:#343434;" cx="430.944" cy="-390.986" r="0.984"/>
		<circle style="fill:#343434;" cx="430.944" cy="-375.236" r="0.984"/>
		<circle style="fill:#343434;" cx="435.865" cy="-380.158" r="0.984"/>
		<circle style="fill:#343434;" cx="435.865" cy="-385.08" r="0.984"/>
		<circle style="fill:#343434;" cx="435.865" cy="-390.986" r="0.984"/>
		<circle style="fill:#343434;" cx="435.865" cy="-375.236" r="0.984"/>
		<circle style="fill:#343434;" cx="440.787" cy="-380.158" r="0.984"/>
		<circle style="fill:#343434;" cx="440.787" cy="-385.08" r="0.984"/>
		<circle style="fill:#343434;" cx="440.787" cy="-390.986" r="0.984"/>
		<circle style="fill:#343434;" cx="440.787" cy="-375.236" r="0.984"/>
		<circle style="fill:#343434;" cx="445.709" cy="-380.158" r="0.984"/>
		<circle style="fill:#343434;" cx="445.709" cy="-385.08" r="0.984"/>
		<circle style="fill:#343434;" cx="445.709" cy="-390.986" r="0.984"/>
		<circle style="fill:#343434;" cx="445.709" cy="-375.236" r="0.984"/>
		<circle style="fill:#343434;" cx="451.615" cy="-380.158" r="0.984"/>
		<circle style="fill:#343434;" cx="451.615" cy="-385.08" r="0.984"/>
		<circle style="fill:#343434;" cx="451.615" cy="-390.986" r="0.984"/>
		<circle style="fill:#343434;" cx="451.615" cy="-375.236" r="0.984"/>
		<circle style="fill:#343434;" cx="456.537" cy="-380.158" r="0.984"/>
		<circle style="fill:#343434;" cx="456.537" cy="-385.08" r="0.984"/>
		<circle style="fill:#343434;" cx="456.537" cy="-390.986" r="0.984"/>
		<circle style="fill:#343434;" cx="456.537" cy="-375.236" r="0.984"/>
		<circle style="fill:#343434;" cx="461.458" cy="-380.158" r="0.984"/>
		<circle style="fill:#343434;" cx="461.458" cy="-385.08" r="0.984"/>
		<circle style="fill:#343434;" cx="461.458" cy="-390.986" r="0.984"/>
		<circle style="fill:#343434;" cx="461.458" cy="-375.236" r="0.984"/>
		<circle style="fill:#343434;" cx="466.38" cy="-380.158" r="0.984"/>
		<circle style="fill:#343434;" cx="466.38" cy="-385.08" r="0.984"/>
		<circle style="fill:#343434;" cx="466.38" cy="-390.986" r="0.984"/>
		<circle style="fill:#343434;" cx="466.38" cy="-375.236" r="0.984"/>
		<circle style="fill:#343434;" cx="472.286" cy="-380.158" r="0.984"/>
		<circle style="fill:#343434;" cx="472.286" cy="-385.08" r="0.984"/>
		<circle style="fill:#343434;" cx="472.286" cy="-390.986" r="0.984"/>
		<circle style="fill:#343434;" cx="472.286" cy="-375.236" r="0.984"/>
		<circle style="fill:#343434;" cx="477.208" cy="-380.158" r="0.984"/>
		<circle style="fill:#343434;" cx="477.208" cy="-385.08" r="0.984"/>
		<circle style="fill:#343434;" cx="477.208" cy="-390.986" r="0.984"/>
		<circle style="fill:#343434;" cx="477.208" cy="-375.236" r="0.984"/>
		<circle style="fill:#343434;" cx="482.129" cy="-380.158" r="0.984"/>
		<circle style="fill:#343434;" cx="482.129" cy="-385.08" r="0.984"/>
		<circle style="fill:#343434;" cx="482.129" cy="-390.986" r="0.984"/>
		<circle style="fill:#343434;" cx="482.129" cy="-375.236" r="0.984"/>
		<circle style="fill:#343434;" cx="487.051" cy="-380.158" r="0.984"/>
		<circle style="fill:#343434;" cx="487.051" cy="-385.08" r="0.984"/>
		<circle style="fill:#343434;" cx="487.051" cy="-390.986" r="0.984"/>
		<circle style="fill:#343434;" cx="487.051" cy="-375.236" r="0.984"/>
		<circle style="fill:#343434;" cx="492.957" cy="-380.158" r="0.984"/>
		<circle style="fill:#343434;" cx="492.957" cy="-385.08" r="0.984"/>
		<circle style="fill:#343434;" cx="492.957" cy="-390.986" r="0.984"/>
		<circle style="fill:#343434;" cx="492.957" cy="-375.236" r="0.984"/>
		<circle style="fill:#343434;" cx="497.879" cy="-380.158" r="0.984"/>
		<circle style="fill:#343434;" cx="497.879" cy="-385.08" r="0.984"/>
		<circle style="fill:#343434;" cx="497.879" cy="-390.986" r="0.984"/>
		<circle style="fill:#343434;" cx="497.879" cy="-375.236" r="0.984"/>
		<circle style="fill:#343434;" cx="502.801" cy="-380.158" r="0.984"/>
		<circle style="fill:#343434;" cx="502.801" cy="-385.08" r="0.984"/>
		<circle style="fill:#343434;" cx="502.801" cy="-390.986" r="0.984"/>
		<circle style="fill:#343434;" cx="502.801" cy="-375.236" r="0.984"/>
		<circle style="fill:#343434;" cx="507.722" cy="-380.158" r="0.984"/>
		<circle style="fill:#343434;" cx="507.722" cy="-385.08" r="0.984"/>
		<circle style="fill:#343434;" cx="507.722" cy="-390.986" r="0.984"/>
		<circle style="fill:#343434;" cx="507.722" cy="-375.236" r="0.984"/>
		<circle style="fill:#343434;" cx="513.628" cy="-380.158" r="0.984"/>
		<circle style="fill:#343434;" cx="513.628" cy="-385.08" r="0.984"/>
		<circle style="fill:#343434;" cx="513.628" cy="-390.986" r="0.984"/>
		<circle style="fill:#343434;" cx="513.628" cy="-375.236" r="0.984"/>
		<circle style="fill:#343434;" cx="518.55" cy="-380.158" r="0.984"/>
		<circle style="fill:#343434;" cx="518.55" cy="-385.08" r="0.984"/>
		<circle style="fill:#343434;" cx="518.55" cy="-390.986" r="0.984"/>
		<circle style="fill:#343434;" cx="518.55" cy="-375.236" r="0.984"/>
		<circle style="fill:#343434;" cx="270.496" cy="415.189" r="0.984"/>
		<circle style="fill:#343434;" cx="270.496" cy="410.267" r="0.984"/>
		<circle style="fill:#343434;" cx="270.496" cy="405.346" r="0.984"/>
		<circle style="fill:#343434;" cx="270.496" cy="421.095" r="0.984"/>
		<circle style="fill:#343434;" cx="275.418" cy="415.189" r="0.984"/>
		<circle style="fill:#343434;" cx="275.418" cy="410.267" r="0.984"/>
		<circle style="fill:#343434;" cx="275.418" cy="405.346" r="0.984"/>
		<circle style="fill:#343434;" cx="275.418" cy="421.095" r="0.984"/>
		<circle style="fill:#343434;" cx="281.324" cy="415.189" r="0.984"/>
		<circle style="fill:#343434;" cx="281.324" cy="410.267" r="0.984"/>
		<circle style="fill:#343434;" cx="281.324" cy="405.346" r="0.984"/>
		<circle style="fill:#343434;" cx="281.324" cy="421.095" r="0.984"/>
		<circle style="fill:#343434;" cx="286.246" cy="415.189" r="0.984"/>
		<circle style="fill:#343434;" cx="286.246" cy="410.267" r="0.984"/>
		<circle style="fill:#343434;" cx="286.246" cy="405.346" r="0.984"/>
		<circle style="fill:#343434;" cx="286.246" cy="421.095" r="0.984"/>
		<circle style="fill:#343434;" cx="291.167" cy="415.189" r="0.984"/>
		<circle style="fill:#343434;" cx="291.167" cy="410.267" r="0.984"/>
		<circle style="fill:#343434;" cx="291.167" cy="405.346" r="0.984"/>
		<circle style="fill:#343434;" cx="291.167" cy="421.095" r="0.984"/>
		<circle style="fill:#343434;" cx="296.089" cy="415.189" r="0.984"/>
		<circle style="fill:#343434;" cx="296.089" cy="410.267" r="0.984"/>
		<circle style="fill:#343434;" cx="296.089" cy="405.346" r="0.984"/>
		<circle style="fill:#343434;" cx="296.089" cy="421.095" r="0.984"/>
		<circle style="fill:#343434;" cx="301.995" cy="415.189" r="0.984"/>
		<circle style="fill:#343434;" cx="301.995" cy="410.267" r="0.984"/>
		<circle style="fill:#343434;" cx="301.995" cy="405.346" r="0.984"/>
		<circle style="fill:#343434;" cx="301.995" cy="421.095" r="0.984"/>
		<circle style="fill:#343434;" cx="306.917" cy="415.189" r="0.984"/>
		<circle style="fill:#343434;" cx="306.917" cy="410.267" r="0.984"/>
		<circle style="fill:#343434;" cx="306.917" cy="405.346" r="0.984"/>
		<circle style="fill:#343434;" cx="306.917" cy="421.095" r="0.984"/>
		<circle style="fill:#343434;" cx="311.839" cy="415.189" r="0.984"/>
		<circle style="fill:#343434;" cx="311.839" cy="410.267" r="0.984"/>
		<circle style="fill:#343434;" cx="311.839" cy="405.346" r="0.984"/>
		<circle style="fill:#343434;" cx="311.839" cy="421.095" r="0.984"/>
		<circle style="fill:#343434;" cx="316.76" cy="415.189" r="0.984"/>
		<circle style="fill:#343434;" cx="316.76" cy="410.267" r="0.984"/>
		<circle style="fill:#343434;" cx="316.76" cy="405.346" r="0.984"/>
		<circle style="fill:#343434;" cx="316.76" cy="421.095" r="0.984"/>
		<circle style="fill:#343434;" cx="322.666" cy="415.189" r="0.984"/>
		<circle style="fill:#343434;" cx="322.666" cy="410.267" r="0.984"/>
		<circle style="fill:#343434;" cx="322.666" cy="405.346" r="0.984"/>
		<circle style="fill:#343434;" cx="322.666" cy="421.095" r="0.984"/>
		<circle style="fill:#343434;" cx="327.588" cy="415.189" r="0.984"/>
		<circle style="fill:#343434;" cx="327.588" cy="410.267" r="0.984"/>
		<circle style="fill:#343434;" cx="327.588" cy="405.346" r="0.984"/>
		<circle style="fill:#343434;" cx="327.588" cy="421.095" r="0.984"/>
		<circle style="fill:#343434;" cx="332.51" cy="415.189" r="0.984"/>
		<circle style="fill:#343434;" cx="332.51" cy="410.267" r="0.984"/>
		<circle style="fill:#343434;" cx="332.51" cy="405.346" r="0.984"/>
		<circle style="fill:#343434;" cx="332.51" cy="421.095" r="0.984"/>
		<circle style="fill:#343434;" cx="337.431" cy="415.189" r="0.984"/>
		<circle style="fill:#343434;" cx="337.431" cy="410.267" r="0.984"/>
		<circle style="fill:#343434;" cx="337.431" cy="405.346" r="0.984"/>
		<circle style="fill:#343434;" cx="337.431" cy="421.095" r="0.984"/>
		<circle style="fill:#343434;" cx="343.338" cy="415.189" r="0.984"/>
		<circle style="fill:#343434;" cx="343.338" cy="410.267" r="0.984"/>
		<circle style="fill:#343434;" cx="343.338" cy="405.346" r="0.984"/>
		<circle style="fill:#343434;" cx="343.338" cy="421.095" r="0.984"/>
		<circle style="fill:#343434;" cx="348.259" cy="415.189" r="0.984"/>
		<circle style="fill:#343434;" cx="348.259" cy="410.267" r="0.984"/>
		<circle style="fill:#343434;" cx="348.259" cy="405.346" r="0.984"/>
		<circle style="fill:#343434;" cx="348.259" cy="421.095" r="0.984"/>
		<circle style="fill:#343434;" cx="353.181" cy="415.189" r="0.984"/>
		<circle style="fill:#343434;" cx="353.181" cy="410.267" r="0.984"/>
		<circle style="fill:#343434;" cx="353.181" cy="405.346" r="0.984"/>
		<circle style="fill:#343434;" cx="353.181" cy="421.095" r="0.984"/>
		<circle style="fill:#343434;" cx="358.103" cy="415.189" r="0.984"/>
		<circle style="fill:#343434;" cx="358.103" cy="410.267" r="0.984"/>
		<circle style="fill:#343434;" cx="358.103" cy="405.346" r="0.984"/>
		<circle style="fill:#343434;" cx="358.103" cy="421.095" r="0.984"/>
		<circle style="fill:#343434;" cx="364.009" cy="415.189" r="0.984"/>
		<circle style="fill:#343434;" cx="364.009" cy="410.267" r="0.984"/>
		<circle style="fill:#343434;" cx="364.009" cy="405.346" r="0.984"/>
		<circle style="fill:#343434;" cx="364.009" cy="421.095" r="0.984"/>
		<circle style="fill:#343434;" cx="368.93" cy="415.189" r="0.984"/>
		<circle style="fill:#343434;" cx="368.93" cy="410.267" r="0.984"/>
		<circle style="fill:#343434;" cx="368.93" cy="405.346" r="0.984"/>
		<circle style="fill:#343434;" cx="368.93" cy="421.095" r="0.984"/>
		<circle style="fill:#343434;" cx="373.852" cy="415.189" r="0.984"/>
		<circle style="fill:#343434;" cx="373.852" cy="410.267" r="0.984"/>
		<circle style="fill:#343434;" cx="373.852" cy="405.346" r="0.984"/>
		<circle style="fill:#343434;" cx="373.852" cy="421.095" r="0.984"/>
		<circle style="fill:#343434;" cx="378.774" cy="415.189" r="0.984"/>
		<circle style="fill:#343434;" cx="378.774" cy="410.267" r="0.984"/>
		<circle style="fill:#343434;" cx="378.774" cy="405.346" r="0.984"/>
		<circle style="fill:#343434;" cx="378.774" cy="421.095" r="0.984"/>
		<circle style="fill:#343434;" cx="384.68" cy="415.189" r="0.984"/>
		<circle style="fill:#343434;" cx="384.68" cy="410.267" r="0.984"/>
		<circle style="fill:#343434;" cx="384.68" cy="405.346" r="0.984"/>
		<circle style="fill:#343434;" cx="384.68" cy="421.095" r="0.984"/>
		<circle style="fill:#343434;" cx="389.601" cy="415.189" r="0.984"/>
		<circle style="fill:#343434;" cx="389.601" cy="410.267" r="0.984"/>
		<circle style="fill:#343434;" cx="389.601" cy="405.346" r="0.984"/>
		<circle style="fill:#343434;" cx="389.601" cy="421.095" r="0.984"/>
		<circle style="fill:#343434;" cx="394.523" cy="415.189" r="0.984"/>
		<circle style="fill:#343434;" cx="394.523" cy="410.267" r="0.984"/>
		<circle style="fill:#343434;" cx="394.523" cy="405.346" r="0.984"/>
		<circle style="fill:#343434;" cx="394.523" cy="421.095" r="0.984"/>
		<circle style="fill:#343434;" cx="399.445" cy="415.189" r="0.984"/>
		<circle style="fill:#343434;" cx="399.445" cy="410.267" r="0.984"/>
		<circle style="fill:#343434;" cx="399.445" cy="405.346" r="0.984"/>
		<circle style="fill:#343434;" cx="399.445" cy="421.095" r="0.984"/>
		<circle style="fill:#343434;" cx="404.367" cy="415.189" r="0.984"/>
		<circle style="fill:#343434;" cx="404.367" cy="410.267" r="0.984"/>
		<circle style="fill:#343434;" cx="404.367" cy="405.346" r="0.984"/>
		<circle style="fill:#343434;" cx="404.367" cy="421.095" r="0.984"/>
		<circle style="fill:#343434;" cx="410.273" cy="415.189" r="0.984"/>
		<circle style="fill:#343434;" cx="410.273" cy="410.267" r="0.984"/>
		<circle style="fill:#343434;" cx="410.273" cy="405.346" r="0.984"/>
		<circle style="fill:#343434;" cx="410.273" cy="421.095" r="0.984"/>
		<circle style="fill:#343434;" cx="415.194" cy="415.189" r="0.984"/>
		<circle style="fill:#343434;" cx="415.194" cy="410.267" r="0.984"/>
		<circle style="fill:#343434;" cx="415.194" cy="405.346" r="0.984"/>
		<circle style="fill:#343434;" cx="415.194" cy="421.095" r="0.984"/>
		<circle style="fill:#343434;" cx="420.116" cy="415.189" r="0.984"/>
		<circle style="fill:#343434;" cx="420.116" cy="410.267" r="0.984"/>
		<circle style="fill:#343434;" cx="420.116" cy="405.346" r="0.984"/>
		<circle style="fill:#343434;" cx="420.116" cy="421.095" r="0.984"/>
		<circle style="fill:#343434;" cx="425.038" cy="415.189" r="0.984"/>
		<circle style="fill:#343434;" cx="425.038" cy="410.267" r="0.984"/>
		<circle style="fill:#343434;" cx="425.038" cy="405.346" r="0.984"/>
		<circle style="fill:#343434;" cx="425.038" cy="421.095" r="0.984"/>
		<circle style="fill:#343434;" cx="430.944" cy="415.189" r="0.984"/>
		<circle style="fill:#343434;" cx="430.944" cy="410.267" r="0.984"/>
		<circle style="fill:#343434;" cx="430.944" cy="405.346" r="0.984"/>
		<circle style="fill:#343434;" cx="430.944" cy="421.095" r="0.984"/>
		<circle style="fill:#343434;" cx="435.865" cy="415.189" r="0.984"/>
		<circle style="fill:#343434;" cx="435.865" cy="410.267" r="0.984"/>
		<circle style="fill:#343434;" cx="435.865" cy="405.346" r="0.984"/>
		<circle style="fill:#343434;" cx="435.865" cy="421.095" r="0.984"/>
		<circle style="fill:#343434;" cx="440.787" cy="415.189" r="0.984"/>
		<circle style="fill:#343434;" cx="440.787" cy="410.267" r="0.984"/>
		<circle style="fill:#343434;" cx="440.787" cy="405.346" r="0.984"/>
		<circle style="fill:#343434;" cx="440.787" cy="421.095" r="0.984"/>
		<circle style="fill:#343434;" cx="445.709" cy="415.189" r="0.984"/>
		<circle style="fill:#343434;" cx="445.709" cy="410.267" r="0.984"/>
		<circle style="fill:#343434;" cx="445.709" cy="405.346" r="0.984"/>
		<circle style="fill:#343434;" cx="445.709" cy="421.095" r="0.984"/>
		<circle style="fill:#343434;" cx="451.615" cy="415.189" r="0.984"/>
		<circle style="fill:#343434;" cx="451.615" cy="410.267" r="0.984"/>
		<circle style="fill:#343434;" cx="451.615" cy="405.346" r="0.984"/>
		<circle style="fill:#343434;" cx="451.615" cy="421.095" r="0.984"/>
		<circle style="fill:#343434;" cx="456.537" cy="415.189" r="0.984"/>
		<circle style="fill:#343434;" cx="456.537" cy="410.267" r="0.984"/>
		<circle style="fill:#343434;" cx="456.537" cy="405.346" r="0.984"/>
		<circle style="fill:#343434;" cx="456.537" cy="421.095" r="0.984"/>
		<circle style="fill:#343434;" cx="461.458" cy="415.189" r="0.984"/>
		<circle style="fill:#343434;" cx="461.458" cy="410.267" r="0.984"/>
		<circle style="fill:#343434;" cx="461.458" cy="405.346" r="0.984"/>
		<circle style="fill:#343434;" cx="461.458" cy="421.095" r="0.984"/>
		<circle style="fill:#343434;" cx="466.38" cy="415.189" r="0.984"/>
		<circle style="fill:#343434;" cx="466.38" cy="410.267" r="0.984"/>
		<circle style="fill:#343434;" cx="466.38" cy="405.346" r="0.984"/>
		<circle style="fill:#343434;" cx="466.38" cy="421.095" r="0.984"/>
		<circle style="fill:#343434;" cx="472.286" cy="415.189" r="0.984"/>
		<circle style="fill:#343434;" cx="472.286" cy="410.267" r="0.984"/>
		<circle style="fill:#343434;" cx="472.286" cy="405.346" r="0.984"/>
		<circle style="fill:#343434;" cx="472.286" cy="421.095" r="0.984"/>
		<circle style="fill:#343434;" cx="477.208" cy="415.189" r="0.984"/>
		<circle style="fill:#343434;" cx="477.208" cy="410.267" r="0.984"/>
		<circle style="fill:#343434;" cx="477.208" cy="405.346" r="0.984"/>
		<circle style="fill:#343434;" cx="477.208" cy="421.095" r="0.984"/>
		<circle style="fill:#343434;" cx="482.129" cy="415.189" r="0.984"/>
		<circle style="fill:#343434;" cx="482.129" cy="410.267" r="0.984"/>
		<circle style="fill:#343434;" cx="482.129" cy="405.346" r="0.984"/>
		<circle style="fill:#343434;" cx="482.129" cy="421.095" r="0.984"/>
		<circle style="fill:#343434;" cx="487.051" cy="415.189" r="0.984"/>
		<circle style="fill:#343434;" cx="487.051" cy="410.267" r="0.984"/>
		<circle style="fill:#343434;" cx="487.051" cy="405.346" r="0.984"/>
		<circle style="fill:#343434;" cx="487.051" cy="421.095" r="0.984"/>
		<circle style="fill:#343434;" cx="492.957" cy="415.189" r="0.984"/>
		<circle style="fill:#343434;" cx="492.957" cy="410.267" r="0.984"/>
		<circle style="fill:#343434;" cx="492.957" cy="405.346" r="0.984"/>
		<circle style="fill:#343434;" cx="492.957" cy="421.095" r="0.984"/>
		<circle style="fill:#343434;" cx="497.879" cy="415.189" r="0.984"/>
		<circle style="fill:#343434;" cx="497.879" cy="410.267" r="0.984"/>
		<circle style="fill:#343434;" cx="497.879" cy="405.346" r="0.984"/>
		<circle style="fill:#343434;" cx="497.879" cy="421.095" r="0.984"/>
		<circle style="fill:#343434;" cx="502.801" cy="415.189" r="0.984"/>
		<circle style="fill:#343434;" cx="502.801" cy="410.267" r="0.984"/>
		<circle style="fill:#343434;" cx="502.801" cy="405.346" r="0.984"/>
		<circle style="fill:#343434;" cx="502.801" cy="421.095" r="0.984"/>
		<circle style="fill:#343434;" cx="507.722" cy="415.189" r="0.984"/>
		<circle style="fill:#343434;" cx="507.722" cy="410.267" r="0.984"/>
		<circle style="fill:#343434;" cx="507.722" cy="405.346" r="0.984"/>
		<circle style="fill:#343434;" cx="507.722" cy="421.095" r="0.984"/>
		<circle style="fill:#343434;" cx="513.628" cy="415.189" r="0.984"/>
		<circle style="fill:#343434;" cx="513.628" cy="410.267" r="0.984"/>
		<circle style="fill:#343434;" cx="513.628" cy="405.346" r="0.984"/>
		<circle style="fill:#343434;" cx="513.628" cy="421.095" r="0.984"/>
		<circle style="fill:#343434;" cx="518.55" cy="415.189" r="0.984"/>
		<circle style="fill:#343434;" cx="518.55" cy="410.267" r="0.984"/>
		<circle style="fill:#343434;" cx="518.55" cy="405.346" r="0.984"/>
		<circle style="fill:#343434;" cx="518.55" cy="421.095" r="0.984"/>
		<path style="fill:#343434;" d="M549.065-396.892c-7.875,0-13.781,5.906-13.781,13.781c0,7.875,5.906,13.781,13.781,13.781
			c7.875,0,13.781-5.906,13.781-13.781C562.845-390.986,555.955-396.892,549.065-396.892z M549.065-376.221
			c-3.937,0-6.89-2.953-6.89-6.891c0-3.938,2.953-6.891,6.89-6.891c3.937,0,6.89,2.953,6.89,6.891
			C555.955-379.173,553.002-376.221,549.065-376.221z"/>
		<circle style="fill:#343434;" cx="549.065" cy="-383.111" r="1.969"/>
		<path style="fill:#343434;" d="M233.091-384.095L233.091-384.095L233.091-384.095L233.091-384.095
			C233.091-384.095,232.107-384.095,233.091-384.095c-0.984,0-0.984,0-0.984,0l0,0l0,0l0,0l0,0l0,0l0,0l0,0l0,0l0,0l0,0l0,0l0,0l0,0
			l0,0l0,0l0,0l0,0l0,0l0,0l0,0l0,0l0,0l0,0l0,0l0,0l0,0c0,0,0,0,0,0.984v0.984l0,0v0.984l0,0v0.984c0,0,0,0.984,0.984,0.984
			c0,0,0,0,0.984,0.984c0.984,0,0.984,0.984,1.969,0.984l0,0L233.091-384.095C234.076-384.095,233.091-384.095,233.091-384.095z
			 M231.123-375.236c-0.984,0-1.969-0.984-1.969-1.969c-0.984-0.984-0.984-1.969,0-3.937c0.984-1.969,1.969-2.953,3.937-2.953h0.984
			L231.123-375.236z"/>
		<path style="fill:#343434;" d="M248.841-384.095L248.841-384.095L248.841-384.095L248.841-384.095
			C247.857-384.095,247.857-384.095,248.841-384.095c-0.984,0-0.984,0-0.984,0l0,0l0,0l0,0l0,0l0,0l0,0l0,0l0,0l0,0l0,0l0,0l0,0l0,0
			l0,0l0,0l0,0l0,0l0,0l0,0l0,0l0,0l0,0l0,0l0,0l0,0l0,0c0,0,0,0,0,0.984v0.984l0,0v0.984l0,0v0.984c0,0,0,0.984,0.984,0.984
			c0,0,0,0,0.984,0.984c0.984,0,0.984,0.984,1.969,0.984l0,0L248.841-384.095L248.841-384.095z M245.888-375.236
			c-0.984,0-1.969-0.984-1.969-1.969c-0.984-0.984-0.984-1.969,0-3.937c0.984-1.969,1.969-2.953,3.937-2.953h0.984L245.888-375.236z
			"/>
		<path style="fill:#343434;" d="M236.044-425.438c0,0.984,0.984,1.969,1.969,1.969h60.045c0.984,0,1.969-0.984,1.969-1.969
			s0-0.984-0.984-0.984h-0.984h-60.045h-0.984C236.044-426.422,236.044-426.422,236.044-425.438z M238.013-427.406h59.06
			c0.984,0,1.969,0,1.969,0.984s-0.984,0.984-1.969,0.984h-59.06c-0.984,0-1.969,0-1.969-0.984
			C236.044-426.422,237.029-427.406,238.013-427.406z"/>
		<path style="fill:#343434;" d="M238.013-425.438h59.06c0.984,0,1.969,0,1.969-0.984c0,0-0.984-0.984-1.969-0.984h-59.06
			c-0.984,0-1.969,0-1.969,0.984C236.044-425.438,237.029-425.438,238.013-425.438z"/>
		<path style="opacity:0.7;fill:#343434;enable-background:new    ;" d="M238.013-425.438h59.06c0.984,0,1.969,0,1.969-0.984
			c0,0-0.984-0.984-1.969-0.984h-59.06c-0.984,0-1.969,0-1.969,0.984C236.044-425.438,237.029-425.438,238.013-425.438z"/>
	</g>
</g>
</svg>
