<?xml version="1.0" encoding="iso-8859-1"?>
<!-- Generator: Adobe Illustrator 18.1.1, SVG Export Plug-In . SVG Version: 6.00 Build 0)  -->
<svg version="1.1" id="Layer_1" xmlns="http://www.w3.org/2000/svg" xmlns:xlink="http://www.w3.org/1999/xlink" x="0px" y="0px"
	 viewBox="146 362.235 320 72" style="enable-background:new 146 362.235 320 72;" xml:space="preserve">
<g>
	<defs>
		<rect id="SVGID_1_" x="146" y="362.341" width="320" height="71.893"/>
	</defs>
	<clipPath id="SVGID_2_">
		<use xlink:href="#SVGID_1_"  style="overflow:visible;"/>
	</clipPath>
	<g style="clip-path:url(#SVGID_2_);">
		<path style="fill:#343434;" d="M146-23.385v423.614c0,17.941,14.951,33.889,31.896,33.889h258.155
			c15.948,0,29.902-11.961,29.902-27.909v-608.01c0.997-16.945-13.954-33.889-28.905-33.889h-238.22h-24.918
			c-14.951,0-27.909,14.951-27.909,32.892v40.866 M147.993-74.219v6.977 M146-140.004v21.928 M305.478-223.73
			c1.993,0,3.987,1.994,3.987,3.987c0,1.993-1.993,3.987-3.987,3.987s-3.987-1.994-3.987-3.987
			C301.491-222.733,303.485-223.73,305.478-223.73z M281.556-195.821c0-1.994,0.997-2.99,2.99-2.99h37.876
			c1.993,0,2.99,0.997,2.99,2.99v0.997c0,1.994-0.997,2.99-2.99,2.99h-37.876c-1.993,0-2.99-0.997-2.99-2.99V-195.821z
			 M259.628-206.785c2.99,0,5.98,2.99,5.98,5.98c0,2.99-2.99,5.98-5.98,5.98c-2.99,0-5.98-2.99-5.98-5.98
			C253.648-203.795,256.638-206.785,259.628-206.785z M305.478,421.16c-12.958,0-22.925-10.964-22.925-22.925
			c0-12.957,10.964-23.922,22.925-23.922c12.958,0,23.922,10.964,23.922,23.922C329.4,411.192,318.436,421.16,305.478,421.16z
			 M451.999,362.352H163.941v-524.284h288.057V362.352z"/>
		<circle style="fill:#343434;" cx="305.478" cy="398.235" r="18.938"/>
	</g>
</g>
</svg>
