<?xml version="1.0" encoding="utf-8"?>
<!-- Generator: Adobe Illustrator 18.1.1, SVG Export Plug-In . SVG Version: 6.00 Build 0)  -->
<svg version="1.1" id="Layer_1" xmlns="http://www.w3.org/2000/svg" xmlns:xlink="http://www.w3.org/1999/xlink" x="0px" y="0px"
	 viewBox="0 0 126.1 30" enable-background="new 0 0 126.1 30" xml:space="preserve">
<path fill-rule="evenodd" clip-rule="evenodd" fill="#FFFFFF" d="M93.4,23.3c2.8-2.4,5.7-4.9,8.5-7.3c1-0.8,2-1.7,3-2.6
	c-0.8-1-2.1-1.7-3.2-2.1c-2.2-0.8-4.4-0.6-6.4,0.6c-2.6,1.5-3.8,4-3.7,7c0,1.2,0.4,2.3,1,3.4C92.9,22.7,93.1,23,93.4,23.3
	 M96.7,25.6c1.4,0.5,3,0.4,4.4,0.2c0.7-0.3,2.6-1.1,3.3-1l0.1,0l0.1,0c0.4,0.2,0.8,0.5,1,0.9c0.5,1,0.3,2-0.7,2.6l-0.3,0.2
	c-3.6,2.1-7.5,1.8-11.1-0.2c-1.7-0.9-3.1-2.3-4-4L89.2,24c-2.3-4-2-8.3,0.6-12.1c0.9-1.3,2.1-2.4,3.5-3.2l0.5-0.3
	c3.4-2,7.1-1.8,10.6-0.1c1.9,0.9,3.4,2.3,4.5,4.1l0.2,0.3c0.8,1.3-0.2,2.5-1.2,3.3c-1.2,0.9-2.4,2-3.5,3
	C101.7,21.3,99.2,23.4,96.7,25.6z M123.8,7.3h0.4c1.1,0,1.9,0.8,1.9,1.9c0,1.6-1.5,2-2.8,2c-1.7,0-3.4,1-4.5,2.2
	c-1.5,1.5-2.1,3.3-2.1,5.4V28c0,1.1-0.7,1.9-1.8,1.9h-0.3c-1.1,0-1.8-0.9-1.8-1.9v-9.8c0-3.8,1.8-6.8,4.9-9
	C119.5,8,121.6,7.3,123.8,7.3z M76.2,13.9c1.5-1.5,3-3,4.5-4.4c0.4-0.4,2-2.1,2.6-2.1H84l0.1,0C84.9,7.5,85.6,8,85.6,9v0.4
	c0,0.6-0.7,1.4-1.2,1.8c-0.9,0.9-1.8,1.8-2.7,2.7l-4.6,4.7c2,2,4,4,6,6c0.5,0.6,1.1,1.1,1.6,1.7c0.2,0.2,0.5,0.4,0.6,0.7
	c0.2,0.3,0.3,0.6,0.3,0.9v0.4l0,0.1c-0.2,0.9-0.8,1.6-1.7,1.6h-0.3c-0.6,0-1.3-0.7-1.8-1.1c-0.9-0.8-1.8-1.7-2.6-2.6l-2.9-2.9V28
	c0,1.1-0.7,1.9-1.8,1.9h-0.3c-1.1,0-1.8-0.9-1.8-1.9V2c0-1.1,0.7-1.9,1.8-1.9h0.3c1.1,0,1.8,0.8,1.8,1.9V13.9z M63.8,11.3
	c-0.6-0.3-1.7-0.4-2.3-0.4c-3.2-0.1-5.5,1.7-6.9,4.5c-0.5,1-0.7,2-0.7,3.1c0,3.3,1.7,5.6,4.6,7c1.1,0.5,2.4,0.6,3.6,0.6
	c1,0,2.5-0.6,3.4-1.1l0.2-0.1h0.7l0.1,0c0.9,0.2,1.5,0.7,1.5,1.7V27c0,2.3-4.3,2.9-5.9,3c-5.7,0.4-10-2.8-11.7-8.2
	c-0.3-1-0.4-1.9-0.4-2.9v-0.8c0-4.1,2.1-7.4,5.6-9.5c1.7-1,3.5-1.5,5.4-1.5h0.8c2,0,3.9,0.6,5.6,1.7l0.1,0.1L67.7,9
	c0.2,0.3,0.3,0.7,0.3,1v0.4c0,1-0.7,1.5-1.6,1.7l-0.1,0h-0.2C65.6,12.1,64.3,11.5,63.8,11.3z M28.9,18.5c0,2.9,1.4,5,3.9,6.6
	c1.2,0.7,2.4,1,3.8,1c2.9,0,5-1.5,6.5-3.9c0.7-1.2,1-2.4,1-3.8c0-2.7-1.3-4.8-3.5-6.3c-1.2-0.8-2.6-1.2-4-1.2
	c-3.2,0-5.5,1.6-6.9,4.5C29.1,16.4,28.9,17.5,28.9,18.5z M36.1,7.1h0.5c4.4,0,7.8,2.2,9.9,6c0.9,1.5,1.3,3.2,1.3,5v0.8
	c0,4.1-2,7.5-5.6,9.5c-1.7,1-3.5,1.5-5.4,1.5h-0.8c-4.1,0-7.4-2.1-9.5-5.6c-1-1.7-1.5-3.5-1.5-5.4v-0.8c0-4.1,2.1-7.4,5.6-9.6
	C32.3,7.6,34.2,7.1,36.1,7.1z M3.8,18.5c0,3,1.5,5.2,4.1,6.7c1.1,0.6,2.2,0.9,3.4,0.9c2.9,0,5.1-1.4,6.6-3.9c0.7-1.2,1-2.4,1-3.8
	c0-2.6-1.2-4.6-3.3-6.1C14.4,11.4,13,11,11.4,11c-3.2,0-5.5,1.6-6.9,4.5C4,16.4,3.8,17.5,3.8,18.5z M19,10V1.9C19,0.9,19.6,0,20.7,0
	H21c1.1,0,1.8,0.9,1.8,1.9v17c0,4.1-2,7.4-5.6,9.5c-1.7,1-3.5,1.5-5.4,1.5H11c-4.1,0-7.4-2.1-9.5-5.6c-1-1.7-1.5-3.5-1.5-5.4v-0.8
	c0-4.1,2-7.4,5.6-9.6c1.7-1,3.5-1.5,5.4-1.5h0.8C14.6,7.1,17,8.2,19,10z"/>
</svg>
