<?xml version="1.0" encoding="utf-8"?>
<!-- Generator: Adobe Illustrator 18.1.1, SVG Export Plug-In . SVG Version: 6.00 Build 0)  -->
<svg version="1.1" id="Layer_1" xmlns="http://www.w3.org/2000/svg" xmlns:xlink="http://www.w3.org/1999/xlink" x="0px" y="0px"
	 viewBox="0 0 110.9 30" enable-background="new 0 0 110.9 30" xml:space="preserve">
<g>
	<path fill="#FFFFFF" d="M21.4,12.8H12c-0.2,0-0.4,0.2-0.4,0.4v4.6c0,0.2,0.2,0.4,0.4,0.4h3.6v5.7c0,0-0.8,0.3-3.1,0.3
		c-2.7,0-6.4-1-6.4-9.2c0-8.2,3.9-9.3,7.5-9.3c3.1,0,4.5,0.6,5.4,0.8c0.3,0.1,0.5-0.2,0.5-0.4l1-4.4c0-0.1,0-0.2-0.2-0.3
		C20.1,1.2,18,0,12.6,0C6.4,0,0,2.6,0,15.4C0,28.1,7.3,30,13.5,30c5.1,0,8.2-2.2,8.2-2.2c0.1-0.1,0.1-0.2,0.1-0.3V13.3
		C21.8,13,21.6,12.8,21.4,12.8z"/>
	<path fill="#FFFFFF" d="M69.4,1.5c0-0.2-0.2-0.4-0.4-0.4h-5.2c-0.2,0-0.4,0.2-0.4,0.4c0,0,0,10.1,0,10.1h-8.2V1.5
		c0-0.2-0.2-0.4-0.4-0.4h-5.2c-0.2,0-0.4,0.2-0.4,0.4V29c0,0.2,0.2,0.4,0.4,0.4h5.2c0.2,0,0.4-0.2,0.4-0.4V17.2h8.2
		c0,0,0,11.7,0,11.7c0,0.2,0.2,0.4,0.4,0.4H69c0.2,0,0.4-0.2,0.4-0.4V1.5z"/>
	<g>
		<g>
			<ellipse fill="#FFFFFF" cx="27.9" cy="5.1" rx="3.4" ry="3.4"/>
			<path fill="#FFFFFF" d="M30.9,23.2c0-0.7,0-12.7,0-12.7c0-0.2-0.2-0.4-0.4-0.4h-5.2c-0.2,0-0.5,0.2-0.5,0.5c0,0,0,15.3,0,18.2
				c0,0.5,0.3,0.7,0.8,0.7c0,0,2.2,0,4.7,0c0.5,0,0.6-0.3,0.6-0.7C30.9,27.8,30.9,23.9,30.9,23.2z"/>
		</g>
	</g>
	<path fill="#FFFFFF" d="M89.4,10.1h-5.2c-0.2,0-0.4,0.2-0.4,0.4V24c0,0-1.3,1-3.2,1c-1.9,0-2.4-0.9-2.4-2.7c0-1.8,0-11.7,0-11.7
		c0-0.2-0.2-0.4-0.4-0.4h-5.3c-0.2,0-0.4,0.2-0.4,0.4c0,0,0,7.2,0,12.6c0,5.5,3,6.8,7.2,6.8c3.4,0,6.2-1.9,6.2-1.9s0.1,1,0.2,1.1
		c0.1,0.1,0.2,0.2,0.4,0.2l3.4,0c0.2,0,0.4-0.2,0.4-0.4l0-18.4C89.8,10.3,89.6,10.1,89.4,10.1z"/>
	<path fill="#FFFFFF" d="M103.6,9.5c-3,0-5,1.3-5,1.3V1.5c0-0.2-0.2-0.4-0.4-0.4h-5.3c-0.2,0-0.4,0.2-0.4,0.4V29
		c0,0.2,0.2,0.4,0.4,0.4c0,0,3.7,0,3.7,0c0.2,0,0.3-0.1,0.4-0.2c0.1-0.1,0.2-1.3,0.2-1.3s2.2,2,6.2,2c4.8,0,7.5-2.4,7.5-10.9
		C110.9,10.6,106.6,9.5,103.6,9.5z M101.5,25c-1.8-0.1-3-0.9-3-0.9v-8.7c0,0,1.2-0.7,2.7-0.9c1.9-0.2,3.7,0.4,3.7,4.9
		C104.9,24.1,104.1,25.1,101.5,25z"/>
	<path fill="#FFFFFF" d="M46,10.1H42c0,0,0-5.2,0-5.2c0-0.2-0.1-0.3-0.3-0.3h-5.4c-0.2,0-0.3,0.1-0.3,0.3v5.4c0,0-2.7,0.6-2.9,0.7
		c-0.2,0.1-0.3,0.2-0.3,0.4v3.4c0,0.2,0.2,0.4,0.4,0.4H36c0,0,0,3.5,0,8.1c0,6,4.2,6.6,7.1,6.6c1.3,0,2.9-0.4,3.1-0.5
		c0.2-0.1,0.2-0.2,0.2-0.4l0-3.7c0-0.2-0.2-0.4-0.4-0.4c-0.2,0-0.8,0.1-1.4,0.1c-1.9,0-2.6-0.9-2.6-2.1c0-1.2,0-7.7,0-7.7H46
		c0.2,0,0.4-0.2,0.4-0.4v-4.2C46.4,10.3,46.2,10.1,46,10.1z"/>
</g>
</svg>
