<?xml version="1.0" encoding="utf-8"?>
<!-- Generator: Adobe Illustrator 18.1.1, SVG Export Plug-In . SVG Version: 6.00 Build 0)  -->
<svg version="1.1" id="Layer_1" xmlns="http://www.w3.org/2000/svg" xmlns:xlink="http://www.w3.org/1999/xlink" x="0px" y="0px"
	 viewBox="0 0 182 70" enable-background="new 0 0 182 70" xml:space="preserve">
<g>
	<g>
		<polygon fill-rule="evenodd" clip-rule="evenodd" fill="#343434" points="23.6,67.4 12.9,63.6 12.9,47.9 23.6,51.6 		"/>
		<polygon fill-rule="evenodd" clip-rule="evenodd" fill="#343434" points="25.6,67.4 36.2,63.6 36.2,47.9 25.6,51.6 		"/>
		<polygon fill-rule="evenodd" clip-rule="evenodd" fill="#343434" points="14,46.7 24.8,43.7 34.8,46.9 24.8,50.3 		"/>
	</g>
	<g>
		<polygon fill-rule="evenodd" clip-rule="evenodd" fill="#343434" points="10.9,45.5 0.2,41.7 0.2,26.1 10.9,29.7 		"/>
		<polygon fill-rule="evenodd" clip-rule="evenodd" fill="#343434" points="12.9,45.5 23.5,41.7 23.5,26.1 12.9,29.7 		"/>
		<polygon fill-rule="evenodd" clip-rule="evenodd" fill="#343434" points="1.3,24.9 12.1,21.9 22.1,25.1 12.1,28.5 		"/>
	</g>
	<g>
		<polygon fill-rule="evenodd" clip-rule="evenodd" fill="#343434" points="35.8,45.5 25.1,41.7 25.1,26.1 35.8,29.7 		"/>
		<polygon fill-rule="evenodd" clip-rule="evenodd" fill="#343434" points="37.8,45.5 48.4,41.7 48.4,26.1 37.8,29.7 		"/>
		<polygon fill-rule="evenodd" clip-rule="evenodd" fill="#343434" points="26.2,24.9 37,21.9 47,25.1 37,28.5 		"/>
	</g>
	<g>
		<polygon fill-rule="evenodd" clip-rule="evenodd" fill="#343434" points="48.5,23.7 37.8,19.9 37.8,4.2 48.5,7.8 		"/>
		<polygon fill-rule="evenodd" clip-rule="evenodd" fill="#343434" points="50.5,23.7 61.1,19.9 61.1,4.2 50.5,7.8 		"/>
		<polygon fill-rule="evenodd" clip-rule="evenodd" fill="#343434" points="38.9,3 49.7,0 59.8,3.2 49.7,6.6 		"/>
	</g>
	<g>
		<polygon fill-rule="evenodd" clip-rule="evenodd" fill="#343434" points="73.4,23.7 62.7,19.9 62.7,4.2 73.4,7.8 		"/>
		<polygon fill-rule="evenodd" clip-rule="evenodd" fill="#343434" points="75.4,23.7 86,19.9 86,4.2 75.4,7.8 		"/>
		<polygon fill-rule="evenodd" clip-rule="evenodd" fill="#343434" points="63.8,3 74.6,0 84.7,3.2 74.6,6.6 		"/>
	</g>
	<g>
		<path fill="#343434" d="M68,57.2l-3.6,12.5h-1.6L60,60.4l-2.6,9.3h-1.6l-3.7-12.5h1.9l2.7,9.3l2.6-9.3h1.4l2.8,9.3l2.8-9.3H68z"/>
		<path fill="#343434" d="M77.9,65.9l1.8,0.4c-0.3,1.1-1,1.9-1.9,2.6c-1,0.7-2.1,1-3.4,1c-1.7,0-3.1-0.6-4.1-1.8
			c-1.1-1.2-1.6-2.8-1.6-4.7c0-2,0.5-3.6,1.6-4.8c1.1-1.2,2.5-1.8,4.1-1.8c1.6,0,2.9,0.6,3.9,1.7c1,1.1,1.5,2.8,1.5,5.1h-9
			c0,1.9,0.4,3.2,1.2,3.8c0.8,0.7,1.6,1,2.5,1C76.1,68.4,77.3,67.6,77.9,65.9z M77.8,62.1c0-0.7-0.1-1.3-0.3-1.9
			c-0.2-0.5-0.6-1-1.1-1.4c-0.5-0.4-1.1-0.6-1.8-0.6c-1,0-1.8,0.3-2.4,1c-0.7,0.7-1,1.6-1.1,2.8H77.8z"/>
		<path fill="#343434" d="M83.4,69.7h-0.9V52.8h1.9v6.4c0.9-1.6,2.1-2.4,3.7-2.4c1.4,0,2.6,0.6,3.6,1.7c1,1.1,1.4,2.8,1.4,4.9
			c0,1.9-0.5,3.4-1.4,4.7C90.7,69.4,89.5,70,88,70c-1.7,0-3-0.8-3.9-2.4L83.4,69.7z M84.4,64.8c0.1,1.3,0.5,2.2,1.2,2.8
			c0.7,0.6,1.4,0.9,2.2,0.9c1,0,1.8-0.4,2.4-1.3c0.6-0.9,0.9-2,0.9-3.5c0-1.6-0.3-2.9-0.9-3.8c-0.6-0.9-1.4-1.4-2.4-1.4
			c-0.8,0-1.5,0.3-2.2,1c-0.7,0.7-1,1.5-1.2,2.5V64.8z"/>
		<path fill="#343434" d="M98,66.4l1.8-0.4c0.4,1.6,1.7,2.3,3.9,2.3c0.8,0,1.5-0.2,2-0.5c0.6-0.4,0.8-0.9,0.8-1.5
			c0-1-0.7-1.6-2.1-1.9l-2.6-0.5c-1-0.2-1.8-0.6-2.5-1.2c-0.6-0.6-0.9-1.3-0.9-2.3c0-1,0.4-1.9,1.2-2.6c0.8-0.7,1.9-1.1,3.4-1.1
			c2.7,0,4.4,1.1,5,3.2l-1.8,0.4c-0.5-1.3-1.6-1.9-3.1-1.9c-0.8,0-1.4,0.2-1.9,0.5c-0.5,0.3-0.8,0.8-0.8,1.4c0,0.9,0.6,1.5,1.9,1.7
			l2.4,0.4c2.5,0.5,3.8,1.7,3.8,3.7c0,1.1-0.5,2.1-1.4,2.8c-0.9,0.7-2.2,1.1-3.8,1.1C100.6,70,98.7,68.8,98,66.4z"/>
		<path fill="#343434" d="M119,65.9l1.8,0.4c-0.3,1.1-1,1.9-1.9,2.6c-1,0.7-2.1,1-3.4,1c-1.7,0-3.1-0.6-4.1-1.8
			c-1.1-1.2-1.6-2.8-1.6-4.7c0-2,0.5-3.6,1.6-4.8c1.1-1.2,2.5-1.8,4.1-1.8c1.6,0,2.9,0.6,3.9,1.7c1,1.1,1.5,2.8,1.5,5.1h-9
			c0,1.9,0.4,3.2,1.2,3.8c0.8,0.7,1.6,1,2.5,1C117.3,68.4,118.4,67.6,119,65.9z M118.9,62.1c0-0.7-0.1-1.3-0.3-1.9
			c-0.2-0.5-0.6-1-1.1-1.4c-0.5-0.4-1.1-0.6-1.8-0.6c-1,0-1.8,0.3-2.4,1c-0.7,0.7-1,1.6-1.1,2.8H118.9z"/>
		<path fill="#343434" d="M125.1,69.7h-1.9V57.2h1.7v2.9c0.6-1.4,1.2-2.2,1.8-2.6c0.6-0.4,1.2-0.6,1.9-0.6c0.2,0,0.5,0,0.8,0v1.8
			h-0.4c-1.1,0-2,0.4-2.7,1.2c-0.7,0.8-1.1,1.8-1.1,3.1V69.7z"/>
		<path fill="#343434" d="M141.3,57.2L137,69.7h-2l-4.4-12.5h2.1l3.5,10.1l3.4-10.1H141.3z"/>
		<path fill="#343434" d="M144.9,52.8V55h-2.1v-2.2H144.9z M144.9,57.2v12.5h-1.9V57.2H144.9z"/>
		<path fill="#343434" d="M155,65.3l1.7,0.3c-0.2,1.4-0.8,2.5-1.6,3.2c-0.8,0.8-1.9,1.2-3.2,1.2c-1.7,0-3-0.6-3.9-1.9
			c-0.9-1.3-1.3-2.8-1.3-4.6c0-1.9,0.5-3.5,1.4-4.7c0.9-1.3,2.2-1.9,3.9-1.9c1.4,0,2.4,0.4,3.3,1.2c0.8,0.8,1.3,1.9,1.5,3.1
			l-1.7,0.3c-0.3-2.1-1.3-3.1-3-3.1c-1.1,0-1.9,0.5-2.5,1.4c-0.6,0.9-0.9,2.1-0.9,3.5c0,1.6,0.3,2.8,0.9,3.7
			c0.6,0.9,1.4,1.3,2.4,1.3C153.6,68.4,154.6,67.4,155,65.3z"/>
		<path fill="#343434" d="M167.7,65.9l1.8,0.4c-0.3,1.1-1,1.9-1.9,2.6c-1,0.7-2.1,1-3.4,1c-1.7,0-3.1-0.6-4.1-1.8
			c-1.1-1.2-1.6-2.8-1.6-4.7c0-2,0.5-3.6,1.6-4.8c1.1-1.2,2.5-1.8,4.1-1.8c1.6,0,2.9,0.6,3.9,1.7c1,1.1,1.5,2.8,1.5,5.1h-9
			c0,1.9,0.4,3.2,1.2,3.8c0.8,0.7,1.6,1,2.5,1C165.9,68.4,167.1,67.6,167.7,65.9z M167.6,62.1c0-0.7-0.1-1.3-0.3-1.9
			c-0.2-0.5-0.6-1-1.1-1.4c-0.5-0.4-1.1-0.6-1.8-0.6c-1,0-1.8,0.3-2.4,1c-0.7,0.7-1,1.6-1.1,2.8H167.6z"/>
		<path fill="#343434" d="M170.8,66.4l1.9-0.4c0.4,1.6,1.7,2.3,3.9,2.3c0.8,0,1.5-0.2,2-0.5c0.6-0.4,0.8-0.9,0.8-1.5
			c0-1-0.7-1.6-2.1-1.9l-2.6-0.5c-1-0.2-1.8-0.6-2.5-1.2c-0.6-0.6-0.9-1.3-0.9-2.3c0-1,0.4-1.9,1.2-2.6c0.8-0.7,1.9-1.1,3.4-1.1
			c2.7,0,4.4,1.1,5,3.2l-1.8,0.4c-0.5-1.3-1.6-1.9-3.1-1.9c-0.8,0-1.4,0.2-1.9,0.5c-0.5,0.3-0.8,0.8-0.8,1.4c0,0.9,0.6,1.5,1.9,1.7
			l2.4,0.4c2.5,0.5,3.8,1.7,3.8,3.7c0,1.1-0.5,2.1-1.4,2.8c-0.9,0.7-2.2,1.1-3.8,1.1C173.3,70,171.5,68.8,170.8,66.4z"/>
	</g>
	<g>
		<g>
			<path fill-rule="evenodd" clip-rule="evenodd" fill="#343434" d="M127.1,30.6v-3c0-0.5,0.3-0.8,0.8-0.8l13.4,0
				c0.4,0,0.8,0.3,0.8,0.8l0,2.6c0,0.4-0.4,1-1,1.9l-6.9,9.9c2.6-0.1,5.3,0.3,7.6,1.6c0.5,0.3,0.7,0.7,0.7,1.2V48
				c0,0.4-0.5,0.9-1,0.7c-4.1-2.2-9.6-2.4-14.2,0c-0.5,0.2-1-0.3-1-0.7v-3c0-0.5,0-1.3,0.5-2.1l8-11.5l-7,0
				C127.4,31.3,127.1,31,127.1,30.6z"/>
			<path fill-rule="evenodd" clip-rule="evenodd" fill="#343434" d="M79.1,49.3H75c-0.4,0-0.7-0.3-0.7-0.7l0-20.9
				c0-0.4,0.4-0.8,0.8-0.8l3.8,0c0.4,0,0.7,0.3,0.7,0.7v2.7h0.1c1-2.6,2.9-3.9,5.4-3.9c2.6,0,4.2,1.2,5.3,3.9c1-2.6,3.2-3.9,5.6-3.9
				c1.7,0,3.6,0.7,4.7,2.3c1.3,1.8,1,4.3,1,6.6l0,13.2c0,0.4-0.4,0.8-0.8,0.8h-4.1c-0.4,0-0.7-0.4-0.7-0.8l0-11.1
				c0-0.9,0.1-3.1-0.1-3.9c-0.3-1.4-1.2-1.8-2.4-1.8c-1,0-2,0.7-2.4,1.7c-0.4,1.1-0.4,2.8-0.4,4v11.1c0,0.4-0.4,0.8-0.8,0.8H86
				c-0.4,0-0.7-0.4-0.7-0.8l0-11.1c0-2.3,0.4-5.8-2.5-5.8c-2.9,0-2.8,3.3-2.8,5.8l0,11.1C79.9,48.9,79.5,49.3,79.1,49.3z"/>
			<path fill-rule="evenodd" clip-rule="evenodd" fill="#343434" d="M151.9,26.4c6,0,9.3,5.2,9.3,11.8c0,6.4-3.6,11.5-9.3,11.5
				c-5.9,0-9.1-5.2-9.1-11.7C142.8,31.5,146,26.4,151.9,26.4z M151.9,31.3c-3,0-3.2,4.1-3.2,6.7c0,2.6,0,7.5,3.1,7.5
				c3.1,0,3.3-3.9,3.3-6.6c0-1.8-0.1-3.9-0.6-5.6C154.1,31.8,153.2,31.3,151.9,31.3z"/>
			<path fill-rule="evenodd" clip-rule="evenodd" fill="#343434" d="M169.8,49.3h-4.1c-0.4,0-0.7-0.4-0.7-0.8l0-20.9
				c0-0.4,0.4-0.7,0.8-0.7l3.8,0c0.4,0,0.6,0.3,0.7,0.6v3.2h0.1c1.1-2.9,2.7-4.2,5.6-4.2c1.8,0,3.6,0.7,4.8,2.5
				c1.1,1.7,1.1,4.5,1.1,6.5v13.2c0,0.4-0.4,0.7-0.8,0.7h-4.1c-0.4,0-0.7-0.3-0.7-0.7V37.2c0-2.3,0.3-5.6-2.6-5.6
				c-1,0-1.9,0.7-2.4,1.7c-0.6,1.3-0.6,2.6-0.6,4v11.3C170.6,48.9,170.3,49.3,169.8,49.3z"/>
			<path fill-rule="evenodd" clip-rule="evenodd" fill="#343434" d="M116.9,39.3c0,1.6,0,2.9-0.8,4.3c-0.6,1.1-1.7,1.9-2.8,1.9
				c-1.6,0-2.5-1.2-2.5-3c0-3.5,3.1-4.1,6.1-4.1V39.3z M121,49.2c-0.3,0.2-0.7,0.3-1,0.1c-1.4-1.1-1.6-1.6-2.3-2.7
				c-2.2,2.3-3.8,3-6.7,3c-3.4,0-6.1-2.1-6.1-6.4c0-3.3,1.8-5.6,4.4-6.7c2.2-1,5.3-1.1,7.7-1.4v-0.5c0-1,0.1-2.1-0.5-3
				c-0.5-0.8-1.5-1.1-2.3-1.1c-1.6,0-2.9,0.8-3.3,2.4c-0.1,0.4-0.3,0.7-0.7,0.7l-4-0.4c-0.3-0.1-0.7-0.3-0.6-0.9
				c0.9-4.8,5.2-6.2,9.1-6.2c2,0,4.6,0.5,6.1,2c2,1.9,1.8,4.3,1.8,7v6.4c0,1.9,0.8,2.8,1.5,3.8c0.3,0.4,0.3,0.8,0,1.1
				C123.3,47.2,121.8,48.5,121,49.2L121,49.2z"/>
			<path fill-rule="evenodd" clip-rule="evenodd" fill="#343434" d="M63.8,39.3c0,1.6,0,2.9-0.8,4.3c-0.6,1.1-1.7,1.9-2.8,1.9
				c-1.6,0-2.5-1.2-2.5-3c0-3.5,3.1-4.1,6.1-4.1V39.3z M68,49.2c-0.3,0.2-0.7,0.3-1,0.1c-1.4-1.1-1.6-1.6-2.3-2.7
				c-2.2,2.3-3.8,3-6.7,3c-3.4,0-6.1-2.1-6.1-6.4c0-3.3,1.8-5.6,4.4-6.7c2.2-1,5.3-1.1,7.7-1.4v-0.5c0-1,0.1-2.1-0.5-3
				c-0.5-0.8-1.5-1.1-2.3-1.1c-1.6,0-2.9,0.8-3.3,2.4c-0.1,0.4-0.3,0.7-0.7,0.7l-4-0.4c-0.3-0.1-0.7-0.3-0.6-0.9
				c0.9-4.8,5.2-6.2,9.1-6.2c2,0,4.6,0.5,6.1,2c2,1.9,1.8,4.3,1.8,7v6.4c0,1.9,0.8,2.8,1.5,3.8c0.3,0.4,0.3,0.8,0,1.1
				C70.3,47.2,68.8,48.5,68,49.2L68,49.2z"/>
		</g>
	</g>
</g>
</svg>
