<?xml version="1.0" encoding="utf-8"?>
<!-- Generator: Adobe Illustrator 18.1.1, SVG Export Plug-In . SVG Version: 6.00 Build 0)  -->
<svg version="1.1" id="Layer_1" xmlns="http://www.w3.org/2000/svg" xmlns:xlink="http://www.w3.org/1999/xlink" x="0px" y="0px"
	 viewBox="0 0 60 60" enable-background="new 0 0 60 60" xml:space="preserve">
<g>
	<g>
		
			<circle fill="none" stroke="#259A47" stroke-width="0.9833" stroke-miterlimit="10" stroke-dasharray="3.9851,1.9925" cx="30" cy="30" r="29.5"/>
	</g>
	<g>
		<path fill="#DEDEDD" d="M19.2,24.7c-1,0-1.9,0.8-1.9,1.9l0,7.8c0,1,0.8,1.9,1.9,1.9c1,0,1.9-0.8,1.9-1.9l0-7.8
			C21,25.5,20.2,24.7,19.2,24.7L19.2,24.7z"/>
		<path fill="#DEDEDD" d="M34.1,17.7l1.3-2.4c0.1-0.1,0-0.3-0.1-0.3c-0.1-0.1-0.3,0-0.3,0.1l-1.3,2.4c-1.1-0.5-2.3-0.8-3.6-0.8
			c-1.3,0-2.5,0.3-3.6,0.8l-1.3-2.4C25,15,24.8,15,24.7,15c-0.1,0.1-0.2,0.2-0.1,0.3l1.3,2.4c-2.5,1.3-4.3,3.8-4.3,6.7l16.7,0
			C38.3,21.5,36.6,19.1,34.1,17.7L34.1,17.7z M26.2,21.4c-0.4,0-0.7-0.3-0.7-0.7c0-0.4,0.3-0.7,0.7-0.7c0.4,0,0.7,0.3,0.7,0.7
			C26.9,21.1,26.6,21.4,26.2,21.4L26.2,21.4z M33.8,21.4c-0.4,0-0.7-0.3-0.7-0.7c0-0.4,0.3-0.7,0.7-0.7c0.4,0,0.7,0.3,0.7,0.7
			C34.5,21.1,34.2,21.4,33.8,21.4L33.8,21.4z"/>
		<path fill="#DEDEDD" d="M21.7,37.1c0,1.1,0.9,2,2,2l1.3,0l0,4.1c0,1,0.8,1.9,1.9,1.9c1,0,1.9-0.8,1.9-1.9l0-4.1l2.5,0l0,4.1
			c0,1,0.8,1.9,1.9,1.9c1,0,1.9-0.8,1.9-1.9l0-4.1l1.4,0c1.1,0,2-0.9,2-2l0-12l-16.6,0L21.7,37.1z"/>
		<path fill="#DEDEDD" d="M40.8,24.7c-1,0-1.9,0.8-1.9,1.9l0,7.8c0,1,0.8,1.9,1.9,1.9c1,0,1.9-0.8,1.9-1.9l0-7.8
			C42.7,25.5,41.9,24.7,40.8,24.7L40.8,24.7z"/>
		<path fill="#DEDEDD" d="M19.2,24.7c-1,0-1.9,0.8-1.9,1.9l0,7.8c0,1,0.8,1.9,1.9,1.9c1,0,1.9-0.8,1.9-1.9l0-7.8
			C21,25.5,20.2,24.7,19.2,24.7L19.2,24.7z M34.1,17.7l1.3-2.4c0.1-0.1,0-0.3-0.1-0.4c-0.1-0.1-0.3,0-0.3,0.1l-1.3,2.4
			c-1.1-0.5-2.3-0.8-3.6-0.8c-1.3,0-2.5,0.3-3.6,0.8l-1.3-2.4C25,15,24.8,15,24.7,15c-0.1,0.1-0.2,0.2-0.1,0.3l1.3,2.4
			c-2.5,1.3-4.3,3.8-4.3,6.7l16.7,0C38.3,21.5,36.6,19.1,34.1,17.7L34.1,17.7z M26.2,21.4c-0.4,0-0.7-0.3-0.7-0.7
			c0-0.4,0.3-0.7,0.7-0.7c0.4,0,0.7,0.3,0.7,0.7C26.9,21.1,26.6,21.4,26.2,21.4L26.2,21.4z M33.8,21.4c-0.4,0-0.7-0.3-0.7-0.7
			c0-0.4,0.3-0.7,0.7-0.7c0.4,0,0.7,0.3,0.7,0.7C34.5,21.1,34.2,21.4,33.8,21.4L33.8,21.4z M21.7,25.1l0,12c0,1.1,0.9,2,2,2l1.3,0
			l0,4.1c0,1,0.8,1.9,1.9,1.9c1,0,1.9-0.8,1.9-1.9l0-4.1l2.5,0l0,4.1c0,1,0.8,1.9,1.9,1.9c1,0,1.9-0.8,1.9-1.9l0-4.1l1.3,0
			c1.1,0,2-0.9,2-2l0-12L21.7,25.1z M42.7,26.6c0-1-0.8-1.9-1.9-1.9c-1,0-1.9,0.8-1.9,1.9l0,7.8c0,1,0.8,1.9,1.9,1.9
			c1,0,1.9-0.8,1.9-1.9L42.7,26.6z"/>
	</g>
</g>
</svg>
