<?xml version="1.0" encoding="utf-8"?>
<!-- Generator: Adobe Illustrator 18.1.1, SVG Export Plug-In . SVG Version: 6.00 Build 0)  -->
<svg version="1.1" id="Layer_1" xmlns="http://www.w3.org/2000/svg" xmlns:xlink="http://www.w3.org/1999/xlink" x="0px" y="0px"
	 viewBox="0 0 60 60" enable-background="new 0 0 60 60" xml:space="preserve">
<g>
	<g>
		
			<circle fill="none" stroke="#259A47" stroke-width="0.9833" stroke-miterlimit="10" stroke-dasharray="3.9851,1.9925" cx="30" cy="30" r="29.5"/>
	</g>
	<path id="App_Store_1_" fill="#DEDEDD" d="M15,33V29c0-0.4,0.3-0.7,0.7-0.7h7.2l-3.1,5.4h-4.1C15.3,33.7,15,33.4,15,33z M20.1,41.4
		l-2.3,1.6c-0.3,0.2-0.5,0.1-0.5-0.3l0.3-2.7c0-0.4,0.3-0.5,0.7-0.3l1.8,1C20.4,40.8,20.4,41.2,20.1,41.4z M20.7,39.9l-1.8-1
		c-0.3-0.2-0.4-0.6-0.3-0.9l8.2-14.3c0.2-0.3,0.6-0.4,0.9-0.2l1.8,1c0.3,0.2,0.4,0.6,0.3,0.9l-8.2,14.3C21.4,40,21,40.1,20.7,39.9z
		 M26.9,33.7l3.1-5.4h1.8l2.5,5.4H26.9z M37.1,35.3c-0.7-0.4-4.3-8.5-5.2-10.6c-0.9-2.1-3.7-7.8-2.8-8.2c0.6-0.3,2.9,4.1,4.6,6.8
		c1.7,2.7,5.2,9.6,5.7,10.3c0.4,0.8-0.4,1.4-0.9,1.6C38.1,35.5,37.8,35.7,37.1,35.3z M39.5,39.1l-1.1-1.7c-0.2-0.4-0.1-0.8,0.3-1
		l1-0.5c0.4-0.2,0.8,0,1,0.3l0.8,1.6c0.2,0.4,0.1,0.8-0.3,1l-0.7,0.4C40.2,39.5,39.7,39.4,39.5,39.1z M43.4,43.5
		c-0.2-0.7-1.9-0.8-2.7-1.8c-0.8-1.1-0.1-1.6,0.1-1.9C43.9,38.1,43.4,43.5,43.4,43.5z M45,33c0,0.4-0.3,0.7-0.7,0.7h-3.6
		c0-0.2-0.1-0.4-0.2-0.6c-0.1-0.2-0.3-0.6-0.7-1.2c-0.5-0.9-1.2-2.2-1.9-3.6h6.4c0.4,0,0.7,0.3,0.7,0.7L45,33L45,33z"/>
</g>
</svg>
