<?xml version="1.0" encoding="utf-8"?>
<!-- Generator: Adobe Illustrator 18.1.1, SVG Export Plug-In . SVG Version: 6.00 Build 0)  -->
<svg version="1.1" id="Layer_1" xmlns="http://www.w3.org/2000/svg" xmlns:xlink="http://www.w3.org/1999/xlink" x="0px" y="0px"
	 viewBox="0 0 60 60" enable-background="new 0 0 60 60" xml:space="preserve">
<g>
	<g>
		
			<circle fill="none" stroke="#259A47" stroke-width="0.9833" stroke-miterlimit="10" stroke-dasharray="3.9851,1.9925" cx="30" cy="30" r="29.5"/>
	</g>
	<g id="Your_Icon_1_">
		<path fill="#DEDEDD" d="M15.9,37.4l0,7.6h3.9l2.4-2.4c0,0-0.4-3.1,2-4.4c1.7-0.9,2.1-0.3,3.7-2.9c0.9-1.5,2-1.8,3.2-1.6l1.8-1.8
			c2.9,0.9,6.2,0.2,8.5-2.1c3.3-3.3,3.3-8.8,0-12.1c-3.3-3.3-8.8-3.3-12.1,0c-2.3,2.3-3,5.6-2.1,8.5L15.9,37.4z M37.5,24.7
			c-1.7,0-3.1-1.4-3.1-3.1c0-1.7,1.4-3.1,3.1-3.1c1.7,0,3.1,1.4,3.1,3.1C40.6,23.3,39.2,24.7,37.5,24.7z M28.6,23.2
			c0-0.4,0.3-0.7,0.7-0.7s0.7,0.3,0.7,0.7c0,3.3,2.7,6,6,6c0.4,0,0.7,0.3,0.7,0.7s-0.3,0.7-0.7,0.7C31.8,30.5,28.6,27.2,28.6,23.2z
			 M19.2,38.6l9.6-9.6l1,1l-9.6,9.6L19.2,38.6z"/>
	</g>
</g>
</svg>
