<?xml version="1.0" encoding="utf-8"?>
<!-- Generator: Adobe Illustrator 18.1.1, SVG Export Plug-In . SVG Version: 6.00 Build 0)  -->
<svg version="1.1" id="Layer_1" xmlns="http://www.w3.org/2000/svg" xmlns:xlink="http://www.w3.org/1999/xlink" x="0px" y="0px"
	 viewBox="0 0 60 60" enable-background="new 0 0 60 60" xml:space="preserve">
<g>
	<g>
		<g>
			<path fill="#DEDEDD" d="M31,24.3l3.2,3.3L19.7,43.7c-0.6,0.7-1.7,0.7-2.4,0l-1.7-1.8c-0.7-0.6-0.7-1.7,0-2.4L31,24.3z"/>
		</g>
		<g>
			<path fill="#DEDEDD" d="M44.6,27.7l-2.4,2.5c-0.5,0.5-1.3,0.5-1.8,0l-0.5-0.6c-0.4-0.4-0.6-1.1-0.4-1.3c0.4-0.3,0.3-1.1-0.5-1.8
				c-1.1-1.1-2.5-1.2-3-0.6c-0.2,0.2-0.9,0.9-0.9,0.9l-3.4-3.3l0.5-0.5c0,0,0.1-0.1,0.4-0.4c1.1-1.1,0-2.2,0-2.2
				c-2.9-2.9-7.1-2.8-7.1-2.8l0-1.1c8.3-2.1,11.4,1.5,12.5,2.6c1.1,1.1,2.1,2.1,2.4,2.4c0.6,0.6,0,2.3,0.9,3.2
				c0.4,0.4,0.9,0.6,1.3,0.6c0.4-0.4,1.2-0.3,1.5,0.1l0.5,0.5C45.1,26.4,45.1,27.1,44.6,27.7z"/>
		</g>
	</g>
	<g>
		
			<circle fill="none" stroke="#259A47" stroke-width="0.9833" stroke-miterlimit="10" stroke-dasharray="3.9851,1.9925" cx="30" cy="30" r="29.5"/>
	</g>
</g>
</svg>
