<?xml version="1.0" encoding="utf-8"?>
<!-- Generator: Adobe Illustrator 18.1.1, SVG Export Plug-In . SVG Version: 6.00 Build 0)  -->
<svg version="1.1" id="Layer_1" xmlns="http://www.w3.org/2000/svg" xmlns:xlink="http://www.w3.org/1999/xlink" x="0px" y="0px"
	 viewBox="0 0 60 60" enable-background="new 0 0 60 60" xml:space="preserve">
<g>
	<g>
		
			<circle fill="none" stroke="#259A47" stroke-width="0.9833" stroke-miterlimit="10" stroke-dasharray="3.9851,1.9925" cx="30" cy="30" r="29.5"/>
	</g>
	<g>
		<path fill="#DEDEDD" d="M35.4,40.6L35.4,40.6l-10.6,0.1c-0.1,0-0.1,0-0.1,0.1c0,0-0.1,0.1,0,0.1l-0.4,4c0,0.1,0.1,0.2,0.2,0.2h0
			l11.5-0.1c0.1,0,0.2-0.1,0.2-0.2l-0.4-4c0,0,0-0.1-0.1-0.1C35.5,40.6,35.4,40.6,35.4,40.6L35.4,40.6z"/>
		<path fill="#DEDEDD" d="M37.8,30.5l-6.3-15.1c0,0-0.1-0.1-0.1-0.1c0,0-0.3-0.1-0.9-0.3c0,0-0.1,0-0.1,0c0,0-0.1,0.1-0.1,0.1
			l0,12.2c0,0.1,0.1,0.2,0.2,0.2c0.3,0.1,0.5,0.2,0.7,0.4c0.4,0.3,0.6,0.8,0.7,1.2c0,0.5-0.1,1-0.4,1.4c-0.4,0.4-0.9,0.7-1.4,0.7
			c-0.4,0-0.8-0.1-1.2-0.4c-0.8-0.6-0.9-1.8-0.3-2.6c0.3-0.3,0.5-0.6,0.9-0.6c0.1,0,0.1-0.1,0.1-0.2l0-12.3c0-0.1,0-0.1-0.1-0.1
			c0,0-0.1-0.1-0.1,0c-0.3,0-0.4,0.1-0.6,0.1c0,0-0.1,0.1-0.1,0.1l-6.6,15.3c0,0.1,0,0.1,0,0.2c0,0.1,1.6,2.2,3.3,8.8
			c0,0.1,0.1,0.2,0.2,0.2h0l8.4-0.1c0.1,0,0.2-0.1,0.2-0.1c0,0,1.1-4.5,3.5-8.8C37.8,30.6,37.8,30.6,37.8,30.5L37.8,30.5z"/>
	</g>
</g>
</svg>
