<?xml version="1.0" encoding="utf-8"?>
<!-- Generator: Adobe Illustrator 18.1.1, SVG Export Plug-In . SVG Version: 6.00 Build 0)  -->
<svg version="1.1" id="Layer_1" xmlns="http://www.w3.org/2000/svg" xmlns:xlink="http://www.w3.org/1999/xlink" x="0px" y="0px"
	 viewBox="0 0 60 60" enable-background="new 0 0 60 60" xml:space="preserve">
<g>
	<g>
		
			<circle fill="none" stroke="#259A47" stroke-width="0.9833" stroke-miterlimit="10" stroke-dasharray="3.9851,1.9925" cx="30" cy="30" r="29.5"/>
	</g>
	<path fill="#DEDEDD" d="M45,29.9c0-2.6-1.7-4.9-4-5.7c-1.5-4.6-5.8-7.9-10.9-7.9c-5.1,0-9.4,3.3-10.9,7.9C16.7,25,15,27.2,15,29.9
		c0,3.3,2.7,6,6,6v-11c1.2-3.8,4.8-6.5,9-6.5c4.2,0,7.7,2.7,9,6.5v10.3c-0.4,0.9-3,5.9-6.3,6.1c-0.3-0.7-0.9-1.2-1.7-1.2
		c-1,0-1.8,0.8-1.8,1.8c0,1,0.8,1.8,1.8,1.8c0.8,0,1.5-0.5,1.7-1.2c4-0.1,6.8-5.4,7.4-6.7C42.9,35.3,45,32.8,45,29.9z"/>
</g>
</svg>
