<?xml version="1.0" encoding="utf-8"?>
<!-- Generator: Adobe Illustrator 18.1.1, SVG Export Plug-In . SVG Version: 6.00 Build 0)  -->
<svg version="1.1" id="Layer_1" xmlns="http://www.w3.org/2000/svg" xmlns:xlink="http://www.w3.org/1999/xlink" x="0px" y="0px"
	 viewBox="0 0 60 60" enable-background="new 0 0 60 60" xml:space="preserve">
<g>
	<g>
		
			<circle fill="none" stroke="#259A47" stroke-width="0.9833" stroke-miterlimit="10" stroke-dasharray="3.9851,1.9925" cx="30" cy="30" r="29.5"/>
	</g>
	<g id="Your_Icon">
		<g>
			<g>
				<g>
					<g>
						<path fill="#DEDEDD" d="M44.2,37.5L33.4,19c-1.9-3.3-5-3.3-6.9,0L15.8,37.5c-1.9,3.3-0.4,5.9,3.4,5.9h21.6
							C44.5,43.4,46.1,40.8,44.2,37.5z M43.4,41c-0.4,0.7-1.4,1.1-2.7,1.1H19.2c-1.3,0-2.3-0.4-2.7-1.1c-0.4-0.7-0.2-1.7,0.4-2.8
							l10.7-18.5c0.7-1.1,1.5-1.8,2.3-1.8c0.8,0,1.6,0.6,2.3,1.8L43,38.2C43.7,39.3,43.8,40.3,43.4,41z"/>
						<path fill="#DEDEDD" d="M41.6,39L30.9,20.5c-0.4-0.8-0.8-1-0.9-1c-0.1,0-0.5,0.2-0.9,1L18.4,39c-0.4,0.7-0.4,1.2-0.4,1.2
							c0.1,0.1,0.4,0.3,1.3,0.3h21.6c0.9,0,1.2-0.2,1.3-0.2C42.1,40.2,42.1,39.7,41.6,39z M30,26c1,0,1.5,1,1.4,2.1
							c-0.1,1.1-0.3,2.8-0.6,4.9c-0.1,0.6-0.3,1.1-0.8,1.1c-0.5,0-0.7-0.5-0.8-1.1c-0.3-2-0.5-3.8-0.6-4.9C28.5,27.1,29,26,30,26z
							 M30,38.2c-0.8,0-1.5-0.7-1.5-1.5c0-0.8,0.7-1.5,1.5-1.5c0.8,0,1.5,0.7,1.5,1.5C31.5,37.5,30.8,38.2,30,38.2z"/>
					</g>
				</g>
			</g>
		</g>
	</g>
</g>
</svg>
