<?xml version="1.0" encoding="utf-8"?>
<!-- Generator: Adobe Illustrator 18.1.1, SVG Export Plug-In . SVG Version: 6.00 Build 0)  -->
<svg version="1.1" id="Layer_1" xmlns="http://www.w3.org/2000/svg" xmlns:xlink="http://www.w3.org/1999/xlink" x="0px" y="0px"
	 viewBox="0 0 60 60" enable-background="new 0 0 60 60" xml:space="preserve">
<g>
	<g>
		
			<circle fill="none" stroke="#259A47" stroke-width="0.9833" stroke-miterlimit="10" stroke-dasharray="3.9851,1.9925" cx="30" cy="30" r="29.5"/>
	</g>
	<g>
		<path fill-rule="evenodd" clip-rule="evenodd" fill="#DEDEDD" d="M30,15.4c-8.3,0-15,6.7-15,15c0,6.6,4.3,12.2,10.3,14.2
			c0.7,0.1,1-0.3,1-0.7c0-0.4,0-1.5,0-2.8c-4.2,0.9-5.1-1.8-5.1-1.8c-0.7-1.7-1.7-2.2-1.7-2.2c-1.4-0.9,0.1-0.9,0.1-0.9
			c1.5,0.1,2.3,1.5,2.3,1.5c1.3,2.3,3.5,1.6,4.4,1.2c0.1-1,0.5-1.6,1-2c-3.3-0.4-6.8-1.7-6.8-7.4c0-1.6,0.6-3,1.5-4
			c-0.2-0.4-0.7-1.9,0.1-4c0,0,1.3-0.4,4.1,1.5c1.2-0.3,2.5-0.5,3.8-0.5c1.3,0,2.6,0.2,3.8,0.5c2.9-1.9,4.1-1.5,4.1-1.5
			c0.8,2.1,0.3,3.6,0.1,4c1,1.1,1.5,2.4,1.5,4c0,5.8-3.5,7-6.8,7.4c0.5,0.5,1,1.4,1,2.8c0,2,0,3.6,0,4.1c0,0.4,0.3,0.9,1,0.7
			c6-2,10.2-7.6,10.2-14.2C45,22.1,38.3,15.4,30,15.4z"/>
		<path fill="#DEDEDD" d="M20.7,36.9c0,0.1-0.2,0.1-0.3,0c-0.1,0-0.2-0.2-0.1-0.2c0-0.1,0.1-0.1,0.3,0
			C20.7,36.7,20.7,36.8,20.7,36.9L20.7,36.9z M20.5,36.8"/>
		<path fill="#DEDEDD" d="M21.3,37.6c-0.1,0.1-0.2,0-0.3-0.1c-0.1-0.1-0.1-0.2,0-0.3c0.1-0.1,0.2,0,0.3,0.1
			C21.3,37.4,21.4,37.5,21.3,37.6L21.3,37.6z M21.1,37.4"/>
		<path fill="#DEDEDD" d="M21.9,38.4c-0.1,0.1-0.2,0-0.3-0.1c-0.1-0.1-0.1-0.3,0-0.4c0.1-0.1,0.2,0,0.3,0.1
			C22,38.2,22,38.4,21.9,38.4L21.9,38.4z M21.9,38.4"/>
		<path fill="#DEDEDD" d="M22.7,39.3c-0.1,0.1-0.3,0.1-0.4-0.1c-0.1-0.1-0.2-0.3-0.1-0.4c0.1-0.1,0.3-0.1,0.4,0.1
			C22.7,39,22.8,39.2,22.7,39.3L22.7,39.3z M22.7,39.3"/>
		<path fill="#DEDEDD" d="M23.8,39.8c0,0.1-0.2,0.2-0.4,0.1c-0.2-0.1-0.3-0.2-0.2-0.3c0-0.1,0.2-0.2,0.4-0.1
			C23.7,39.5,23.8,39.6,23.8,39.8L23.8,39.8z M23.8,39.8"/>
		<path fill="#DEDEDD" d="M25,39.9c0,0.1-0.1,0.2-0.3,0.2c-0.2,0-0.3-0.1-0.3-0.2c0-0.1,0.1-0.2,0.3-0.2C24.9,39.6,25,39.7,25,39.9
			L25,39.9z M25,39.9"/>
		<path fill="#DEDEDD" d="M26.2,39.7c0,0.1-0.1,0.2-0.3,0.3c-0.2,0-0.3,0-0.4-0.2c0-0.1,0.1-0.2,0.3-0.3
			C26,39.5,26.2,39.5,26.2,39.7L26.2,39.7z M26.2,39.7"/>
	</g>
</g>
</svg>
