<?xml version="1.0" encoding="utf-8"?>
<!-- Generator: Adobe Illustrator 18.1.1, SVG Export Plug-In . SVG Version: 6.00 Build 0)  -->
<svg version="1.1" id="Layer_1" xmlns="http://www.w3.org/2000/svg" xmlns:xlink="http://www.w3.org/1999/xlink" x="0px" y="0px"
	 viewBox="0 0 60 60" enable-background="new 0 0 60 60" xml:space="preserve">
<g>
	<g>
		
			<circle fill="none" stroke="#259A47" stroke-width="0.9833" stroke-miterlimit="10" stroke-dasharray="3.9851,1.9925" cx="30" cy="30" r="29.5"/>
	</g>
	<g>
		<g>
			<path fill="#DEDEDD" d="M22.1,34.1l-6-2.8C15.4,31,15,30.5,15,29.8v-0.2c0-0.7,0.4-1.2,1.1-1.5l6-2.8c0.2-0.1,0.4-0.2,0.7-0.2
				c0.6,0,1.1,0.5,1.1,1.1c0,0.5-0.3,0.9-0.7,1.1l-5.4,2.4l5.4,2.4c0.5,0.2,0.7,0.6,0.7,1.1c0,0.7-0.5,1.1-1.2,1.1
				C22.5,34.3,22.3,34.2,22.1,34.1z"/>
		</g>
		<g>
			<path fill="#DEDEDD" d="M25.5,36.8l7-14.5c0.2-0.4,0.5-0.6,0.9-0.6c0.6,0,1,0.5,1,1c0,0.2-0.1,0.4-0.1,0.5l-7,14.5
				c-0.2,0.4-0.5,0.6-0.9,0.6c-0.6,0-1-0.5-1-1C25.3,37.1,25.4,36.9,25.5,36.8z"/>
		</g>
		<g>
			<path fill="#DEDEDD" d="M37.9,25.2l6,2.8c0.7,0.3,1.1,0.8,1.1,1.5v0.2c0,0.7-0.4,1.2-1.1,1.5l-6,2.8c-0.2,0.1-0.4,0.2-0.7,0.2
				c-0.6,0-1.1-0.5-1.1-1.1c0-0.5,0.3-0.9,0.7-1.1l5.4-2.4l-5.4-2.4c-0.5-0.2-0.7-0.6-0.7-1.1c0-0.7,0.5-1.1,1.2-1.1
				C37.5,25.1,37.7,25.2,37.9,25.2z"/>
		</g>
	</g>
</g>
</svg>
