<?xml version="1.0" encoding="utf-8"?>
<!-- Generator: Adobe Illustrator 18.1.1, SVG Export Plug-In . SVG Version: 6.00 Build 0)  -->
<svg version="1.1" id="Layer_1" xmlns="http://www.w3.org/2000/svg" xmlns:xlink="http://www.w3.org/1999/xlink" x="0px" y="0px"
	 viewBox="0 0 60 60" enable-background="new 0 0 60 60" xml:space="preserve">
<g>
	<g>
		
			<circle fill="none" stroke="#259A47" stroke-width="0.9833" stroke-miterlimit="10" stroke-dasharray="3.9851,1.9925" cx="30" cy="30" r="29.5"/>
	</g>
	<g>
		<g id="XMLID_94_">
			<g id="XMLID_97_">
				<g id="XMLID_98_">
					<g>
						<g id="XMLID_99_">
							<g>
								<path fill="#DEDEDD" d="M30.1,21.6c-0.4,0-0.8,0.1-1.3,0.2v6.7H15v-5.4c0-0.8,0.7-1.5,1.5-1.5h6.3c-1.7-0.4-3-1.1-3-2.4
									c0-1.6,1.7-4.1,4.3-3.5c2.7,0.6,4.5,2.7,6,4.5c1.4-1.8,3.5-4.1,6.3-4.5c2.3-0.3,4.3,2,4,3.6c-0.2,1.3-1.5,2.1-3.2,2.4h6.2
									c0.8,0,1.5,0.7,1.5,1.5v5.4H31.2v-6.7C30.8,21.7,30.5,21.7,30.1,21.6L30.1,21.6C30.2,21.6,30.2,21.6,30.1,21.6L30.1,21.6
									L30.1,21.6C30.2,21.6,30.2,21.6,30.1,21.6z M38.5,19.6c0.9-1.1-0.9-3.5-2.7-2.6c-1.8,0.8-3.1,2.2-4.2,3.6
									c1,0.1,1.9,0.1,2.9,0.1C35.7,20.6,37.9,20.5,38.5,19.6z M21.7,19.6c1.2,1.3,4.7,1.2,6.9,0.9c-1.1-1.3-2.4-2.9-4.2-3.6
									c-1.3-0.5-2,0-2.6,0.9C21.5,18.5,21.2,19.1,21.7,19.6z"/>
								<path fill="#DEDEDD" d="M43.7,29.5v13.5c0,0.8-0.6,1.4-1.4,1.4H31.1V29.5H43.7z"/>
								<path fill="#DEDEDD" d="M30.2,21.6L30.2,21.6L30.2,21.6C30.2,21.6,30.2,21.6,30.2,21.6L30.2,21.6
									C30.2,21.6,30.2,21.6,30.2,21.6C30.2,21.6,30.2,21.6,30.2,21.6z"/>
								<path fill="#DEDEDD" d="M28.9,29.5v14.9H17.7c-0.8,0-1.4-0.6-1.4-1.4V29.5H28.9z"/>
							</g>
						</g>
					</g>
				</g>
			</g>
		</g>
	</g>
</g>
</svg>
