<?xml version="1.0" encoding="utf-8"?>
<!-- Generator: Adobe Illustrator 18.1.1, SVG Export Plug-In . SVG Version: 6.00 Build 0)  -->
<svg version="1.1" id="Layer_1" xmlns="http://www.w3.org/2000/svg" xmlns:xlink="http://www.w3.org/1999/xlink" x="0px" y="0px"
	 viewBox="0 0 60 60" enable-background="new 0 0 60 60" xml:space="preserve">
<g>
	<g>
		
			<circle fill="none" stroke="#259A47" stroke-width="0.9833" stroke-miterlimit="10" stroke-dasharray="3.9851,1.9925" cx="30" cy="30" r="29.5"/>
	</g>
	<g>
		<path fill="#DEDEDD" d="M13.5,37.2l2.3-3.2c1.4,1.5,3.6,2.7,6.4,2.7c2.3,0,3.5-1.1,3.5-2.2c0-3.5-11.5-1.1-11.5-8.6
			c0-3.3,2.9-6.1,7.6-6.1c3.2,0,5.8,1,7.8,2.8l-2.4,3.1c-1.6-1.5-3.8-2.2-5.8-2.2c-1.8,0-2.9,0.8-2.9,2c0,3.2,11.5,1.1,11.5,8.5
			c0,3.7-2.6,6.4-8,6.4C18.1,40.3,15.3,39,13.5,37.2z"/>
		<path fill="#DEDEDD" d="M31.8,32.7c0-4.2,3.1-7.6,7.5-7.6c4.3,0,7.3,3.2,7.3,8v0.8H35.8c0.2,1.8,1.7,3.4,4.2,3.4
			c1.2,0,2.9-0.5,3.9-1.4l1.7,2.5c-1.4,1.3-3.7,2-6,2C35.1,40.3,31.8,37.4,31.8,32.7z M39.3,28.2c-2.4,0-3.4,1.8-3.6,3.2h7.1
			C42.8,30,41.8,28.2,39.3,28.2z"/>
	</g>
</g>
</svg>
