<?xml version="1.0" encoding="utf-8"?>
<!-- Generator: Adobe Illustrator 18.1.1, SVG Export Plug-In . SVG Version: 6.00 Build 0)  -->
<svg version="1.1" id="Layer_1" xmlns="http://www.w3.org/2000/svg" xmlns:xlink="http://www.w3.org/1999/xlink" x="0px" y="0px"
	 viewBox="0 0 60 60" enable-background="new 0 0 60 60" xml:space="preserve">
<g>
	<g>
		
			<circle fill="none" stroke="#259A47" stroke-width="0.9833" stroke-miterlimit="10" stroke-dasharray="3.9851,1.9925" cx="30" cy="30" r="29.5"/>
	</g>
	<g>
		<path fill="#DEDEDD" d="M18.7,45c-0.3,0-0.6-0.2-0.6-0.6V40c0-0.3,0.2-0.6,0.6-0.6s0.6,0.2,0.6,0.6v4.4C19.3,44.7,19.1,45,18.7,45
			z"/>
		<path fill="#DEDEDD" d="M18.7,34.4c-0.3,0-0.6-0.2-0.6-0.6V15.6c0-0.3,0.2-0.6,0.6-0.6s0.6,0.2,0.6,0.6v18.1
			C19.3,34,19.1,34.4,18.7,34.4z"/>
		<path fill="#DEDEDD" d="M41.2,45c-0.3,0-0.6-0.2-0.6-0.6V31.2c0-0.3,0.2-0.6,0.6-0.6s0.6,0.2,0.6,0.6v13.2
			C41.8,44.7,41.6,45,41.2,45z"/>
		<path fill="#DEDEDD" d="M41.2,25.6c-0.3,0-0.6-0.2-0.6-0.6v-9.4c0-0.3,0.2-0.6,0.6-0.6s0.6,0.2,0.6,0.6V25
			C41.8,25.3,41.6,25.6,41.2,25.6z"/>
		<path fill="#DEDEDD" d="M30,45c-0.3,0-0.6-0.2-0.6-0.6V28.1c0-0.3,0.2-0.6,0.6-0.6c0.3,0,0.6,0.2,0.6,0.6v16.3
			C30.6,44.7,30.3,45,30,45z"/>
		<path fill="#DEDEDD" d="M30,22.5c-0.3,0-0.6-0.2-0.6-0.6v-6.2c0-0.3,0.2-0.6,0.6-0.6c0.3,0,0.6,0.2,0.6,0.6v6.2
			C30.6,22.2,30.3,22.5,30,22.5z"/>
		<path fill="#DEDEDD" d="M20.6,40.6h-3.7c-1,0-1.8-0.8-1.8-1.8v-3.7c0-1,0.8-1.8,1.8-1.8h3.7c1,0,1.8,0.8,1.8,1.8v3.7
			C22.5,39.8,21.6,40.6,20.6,40.6z M16.9,34.4c-0.3,0-0.6,0.2-0.6,0.6v3.7c0,0.3,0.2,0.6,0.6,0.6h3.7c0.3,0,0.6-0.2,0.6-0.6V35
			c0-0.3-0.2-0.6-0.6-0.6H16.9z"/>
		<path fill="#DEDEDD" d="M31.8,28.7h-3.7c-1,0-1.8-0.8-1.8-1.8v-3.7c0-1,0.8-1.8,1.8-1.8h3.7c1,0,1.8,0.8,1.8,1.8v3.7
			C33.7,27.9,32.9,28.7,31.8,28.7z M28.1,22.5c-0.3,0-0.6,0.2-0.6,0.6v3.7c0,0.3,0.2,0.6,0.6,0.6h3.7c0.3,0,0.6-0.2,0.6-0.6v-3.7
			c0-0.3-0.2-0.6-0.6-0.6H28.1z"/>
		<path fill="#DEDEDD" d="M43.1,31.9h-3.7c-1,0-1.8-0.8-1.8-1.8v-3.7c0-1,0.8-1.8,1.8-1.8h3.7c1,0,1.8,0.8,1.8,1.8V30
			C45,31,44.1,31.9,43.1,31.9z M39.3,25.6c-0.3,0-0.6,0.2-0.6,0.6v3.7c0,0.3,0.2,0.6,0.6,0.6H43c0.3,0,0.6-0.2,0.6-0.6v-3.7
			c0-0.3-0.2-0.6-0.6-0.6H39.3z"/>
	</g>
</g>
</svg>
