<?xml version="1.0" encoding="utf-8"?>
<!-- Generator: Adobe Illustrator 18.1.1, SVG Export Plug-In . SVG Version: 6.00 Build 0)  -->
<svg version="1.1" id="Layer_1" xmlns="http://www.w3.org/2000/svg" xmlns:xlink="http://www.w3.org/1999/xlink" x="0px" y="0px"
	 viewBox="0 0 60 60" enable-background="new 0 0 60 60" xml:space="preserve">
<g>
	<g>
		
			<circle fill="none" stroke="#259A47" stroke-width="0.9833" stroke-miterlimit="10" stroke-dasharray="3.9851,1.9925" cx="30" cy="30" r="29.5"/>
	</g>
	<g>
		<path fill="#DEDEDD" d="M33.3,31.5L31.8,30l1.5-1.5c0.3-0.3,0.3-0.7,0-1l-1-1c-0.3-0.3-0.7-0.3-1,0L29.8,28l-1.5-1.5
			c-0.3-0.3-0.7-0.3-1,0l-1,1c-0.3,0.3-0.3,0.7,0,1l1.5,1.5l-1.5,1.5c-0.3,0.3-0.3,0.7,0,1l1,1c0.3,0.3,0.7,0.3,1,0l1.5-1.5l1.5,1.5
			c0.3,0.3,0.7,0.3,1,0l1-1C33.6,32.2,33.6,31.8,33.3,31.5z"/>
		<path id="turn_4_" fill="#DEDEDD" d="M29.8,15c-7,0-12.9,4.8-14.5,11.2c0,0.1,0,0.1,0,0.2c0,0.4,0.3,0.7,0.7,0.7h6
			c0.3,0,0.5-0.2,0.6-0.4c0,0,0,0,0,0c1.2-2.7,4-4.6,7.1-4.6c4.3,0,7.9,3.5,7.9,7.9c0,4.3-3.5,7.9-7.9,7.9c-3.2,0-5.9-1.9-7.1-4.6
			c0,0,0,0,0,0c-0.1-0.2-0.4-0.4-0.6-0.4h-6c-0.4,0-0.7,0.3-0.7,0.7c0,0.1,0,0.1,0,0.2C16.9,40.2,22.8,45,29.8,45
			c8.3,0,15-6.7,15-15S38.1,15,29.8,15z"/>
	</g>
</g>
</svg>
