<?xml version="1.0" encoding="utf-8"?>
<!-- Generator: Adobe Illustrator 18.1.1, SVG Export Plug-In . SVG Version: 6.00 Build 0)  -->
<svg version="1.1" id="Layer_1" xmlns="http://www.w3.org/2000/svg" xmlns:xlink="http://www.w3.org/1999/xlink" x="0px" y="0px"
	 viewBox="0 0 60 60" enable-background="new 0 0 60 60" xml:space="preserve">
<g>
	<g>
		
			<circle fill="none" stroke="#259A47" stroke-width="0.9833" stroke-miterlimit="10" stroke-dasharray="3.9851,1.9925" cx="30" cy="30" r="29.5"/>
	</g>
	<g>
		<g>
			<path fill="#DEDEDD" d="M43.7,36.8c-0.1,0-2-0.1-2-2.2v0.1C40.4,21.5,33.8,18.1,30,18.1c-3.8,0-10.6,3.5-11.7,16.5l0,0
				c0,0-0.4,2.1-2,2.2c-0.1,0.1-0.7,0.2-0.7,0.9c0,0.6,0,1.8,0,1.8s8.7-0.9,14.4-0.9s14.4,0.9,14.4,0.9s0-1.2,0-1.8
				C44.4,37.1,44,36.9,43.7,36.8z"/>
			<circle fill="#DEDEDD" cx="30" cy="17.1" r="2.1"/>
		</g>
		<path fill="#DEDEDD" d="M30,45c2.3,0,4.1-1.9,4.1-4.1c0,0-1.2-0.4-4.1-0.4s-4.1,0.4-4.1,0.4C25.9,43.1,27.7,45,30,45z"/>
	</g>
</g>
</svg>
