<?xml version="1.0" encoding="utf-8"?>
<!-- Generator: Adobe Illustrator 18.1.1, SVG Export Plug-In . SVG Version: 6.00 Build 0)  -->
<svg version="1.1" id="Layer_1" xmlns="http://www.w3.org/2000/svg" xmlns:xlink="http://www.w3.org/1999/xlink" x="0px" y="0px"
	 viewBox="0 0 60 60" enable-background="new 0 0 60 60" xml:space="preserve">
<g>
	<g>
		<path fill="#DEDEDD" d="M38.9,18.6c-0.7-0.7-1.6-1.1-2.7-1.1c-1,0-1.9,0.4-2.7,1.1c-0.7,0.7-1.1,1.6-1.1,2.7
			c0,0.7,0.2,1.3,0.5,1.9c0.3,0.6,0.8,1,1.4,1.4c0,0.7-0.1,1.3-0.2,1.8c-0.1,0.5-0.3,1-0.5,1.4c-0.3,0.4-0.5,0.7-0.8,1
			c-0.3,0.3-0.7,0.5-1.2,0.8c-0.5,0.2-1,0.4-1.4,0.6c-0.4,0.2-1,0.4-1.7,0.6c-1.3,0.4-2.3,0.8-3,1.1V22c0.6-0.3,1-0.8,1.4-1.4
			c0.3-0.6,0.5-1.2,0.5-1.9c0-1-0.4-1.9-1.1-2.7c-0.7-0.7-1.6-1.1-2.7-1.1s-1.9,0.4-2.7,1.1c-0.7,0.7-1.1,1.6-1.1,2.7
			c0,0.7,0.2,1.3,0.5,1.9c0.3,0.6,0.8,1,1.4,1.4v16c-0.6,0.3-1,0.8-1.4,1.4c-0.3,0.6-0.5,1.2-0.5,1.9c0,1,0.4,1.9,1.1,2.7
			s1.6,1.1,2.7,1.1s1.9-0.4,2.7-1.1s1.1-1.6,1.1-2.7c0-0.7-0.2-1.3-0.5-1.9c-0.3-0.6-0.8-1-1.4-1.4v-0.5c0-0.9,0.3-1.5,0.8-2
			c0.5-0.4,1.6-0.9,3.3-1.4c1.8-0.6,3.1-1.1,4-1.6c2.9-1.7,4.4-4.3,4.4-8.1c0.6-0.3,1-0.8,1.4-1.4s0.5-1.2,0.5-1.9
			C40,20.2,39.6,19.3,38.9,18.6z M25.1,42.6c-0.4,0.4-0.8,0.5-1.3,0.5c-0.5,0-1-0.2-1.3-0.5c-0.4-0.4-0.5-0.8-0.5-1.3
			c0-0.5,0.2-1,0.5-1.3c0.4-0.4,0.8-0.5,1.3-0.5c0.5,0,1,0.2,1.3,0.5c0.4,0.4,0.5,0.8,0.5,1.3C25.6,41.8,25.4,42.2,25.1,42.6z
			 M25.1,20.1c-0.4,0.4-0.8,0.5-1.3,0.5c-0.5,0-1-0.2-1.3-0.5c-0.4-0.4-0.5-0.8-0.5-1.3c0-0.5,0.2-1,0.5-1.3
			c0.4-0.4,0.8-0.5,1.3-0.5c0.5,0,1,0.2,1.3,0.5c0.4,0.4,0.5,0.8,0.5,1.3C25.6,19.3,25.4,19.7,25.1,20.1z M37.6,22.6
			c-0.4,0.4-0.8,0.5-1.3,0.5c-0.5,0-1-0.2-1.3-0.5c-0.4-0.4-0.5-0.8-0.5-1.3c0-0.5,0.2-1,0.5-1.3c0.4-0.4,0.8-0.5,1.3-0.5
			c0.5,0,1,0.2,1.3,0.5c0.4,0.4,0.5,0.8,0.5,1.3C38.1,21.8,37.9,22.2,37.6,22.6z"/>
	</g>
	<g>
		
			<circle fill="none" stroke="#259A47" stroke-width="0.9833" stroke-miterlimit="10" stroke-dasharray="3.9851,1.9925" cx="30" cy="30" r="29.5"/>
	</g>
</g>
</svg>
