<?xml version="1.0" encoding="utf-8"?>
<!-- Generator: Adobe Illustrator 18.1.1, SVG Export Plug-In . SVG Version: 6.00 Build 0)  -->
<svg version="1.1" id="Layer_1" xmlns="http://www.w3.org/2000/svg" xmlns:xlink="http://www.w3.org/1999/xlink" x="0px" y="0px"
	 viewBox="0 0 60 60" enable-background="new 0 0 60 60" xml:space="preserve">
<g>
	
		<circle fill="none" stroke="#259A47" stroke-width="0.9833" stroke-miterlimit="10" stroke-dasharray="3.9851,1.9925" cx="30" cy="30" r="29.5"/>
</g>
<g>
	<path fill="#DEDEDD" d="M27,43.2c0.6,1.1,1.7,1.8,3,1.8s2.4-0.7,3-1.8H27z"/>
	<path fill="#DEDEDD" d="M33.3,37.5c0.6,0,1.2-0.6,1.2-1.2c0-5.1,4.5-5.8,4.5-12.3c0-5-4-9-9-9c-5,0-9,4-9,9c0,6.5,4.5,7.2,4.5,12.3
		c0,0.6,0.6,1.2,1.2,1.2H33.3z"/>
	<path fill="#DEDEDD" d="M33.9,39.2c0,0.4-0.3,0.8-0.8,0.8h-6.3c-0.4,0-0.8-0.3-0.8-0.8l0,0c0-0.4,0.3-0.8,0.8-0.8h6.3
		C33.6,38.4,33.9,38.7,33.9,39.2L33.9,39.2z"/>
	<path fill="#DEDEDD" d="M33.9,41.5c0,0.4-0.3,0.8-0.8,0.8h-6.3c-0.4,0-0.8-0.3-0.8-0.8l0,0c0-0.4,0.3-0.8,0.8-0.8h6.3
		C33.6,40.8,33.9,41.1,33.9,41.5L33.9,41.5z"/>
</g>
</svg>
