<?xml version="1.0" encoding="utf-8"?>
<!-- Generator: Adobe Illustrator 18.1.1, SVG Export Plug-In . SVG Version: 6.00 Build 0)  -->
<svg version="1.1" id="Layer_1" xmlns="http://www.w3.org/2000/svg" xmlns:xlink="http://www.w3.org/1999/xlink" x="0px" y="0px"
	 viewBox="0 0 60 60" enable-background="new 0 0 60 60" xml:space="preserve">
<g>
	<path fill="#DEDEDD" d="M41,20.7c-2.4-1.7-5.8-2.6-10.1-2.9c-0.7,0-1.4-0.1-2.1-0.1c-8.4,0-13.4,3.4-13.7,9.4
		c-0.4,6.6,4.7,10.7,14.2,11.2c0.2,0,0.4,0,0.6,0l7,3.9l0.1-1.4c0,0-0.1-1.5,1.2-3.7c3.5-1.9,6.5-3.6,6.8-8.2
		C45.2,25.5,43.8,22.6,41,20.7z M25.4,29.8c-0.3,0.3-0.7,0.5-1.2,0.5c-0.4,0-0.8-0.2-1.2-0.5c-0.3-0.3-0.5-0.7-0.5-1.1
		s0.2-0.8,0.5-1.2s0.7-0.5,1.2-0.5c0.4,0,0.8,0.2,1.2,0.5c0.3,0.3,0.5,0.7,0.5,1.1S25.7,29.4,25.4,29.8z M31,29.8
		c-0.3,0.3-0.7,0.5-1.2,0.5c-0.4,0-0.8-0.2-1.2-0.5c-0.3-0.3-0.5-0.7-0.5-1.1s0.2-0.8,0.5-1.2c0.3-0.3,0.7-0.5,1.2-0.5
		c0.4,0,0.8,0.2,1.2,0.5c0.3,0.3,0.5,0.7,0.5,1.1S31.3,29.4,31,29.8z M36.6,29.8c-0.3,0.3-0.7,0.5-1.2,0.5c-0.4,0-0.8-0.2-1.2-0.5
		c-0.3-0.3-0.5-0.7-0.5-1.1s0.2-0.8,0.5-1.2S35,27,35.5,27c0.4,0,0.8,0.2,1.2,0.5c0.3,0.3,0.5,0.7,0.5,1.1S36.9,29.4,36.6,29.8z"/>
	<g>
		
			<circle fill="none" stroke="#259A47" stroke-width="0.9833" stroke-miterlimit="10" stroke-dasharray="3.9851,1.9925" cx="30" cy="30" r="29.5"/>
	</g>
</g>
</svg>
