<?xml version="1.0" encoding="utf-8"?>
<!-- Generator: Adobe Illustrator 18.1.1, SVG Export Plug-In . SVG Version: 6.00 Build 0)  -->
<svg version="1.1" id="Layer_1" xmlns="http://www.w3.org/2000/svg" xmlns:xlink="http://www.w3.org/1999/xlink" x="0px" y="0px"
	 viewBox="0 0 60 60" enable-background="new 0 0 60 60" xml:space="preserve">
<g>
	<g>
		
			<circle fill="none" stroke="#259A47" stroke-width="0.9833" stroke-miterlimit="10" stroke-dasharray="3.9851,1.9925" cx="30" cy="30" r="29.5"/>
	</g>
	<path fill="#DEDEDD" d="M33.8,29.1c1.5-1.1,2.5-2.9,2.5-5c0-3.4-2.7-6.1-6.1-6.1s-6.1,2.7-6.1,6c0,2,1,3.9,2.5,5
		c-3.4,1.4-5.9,4.9-5.9,8.9c0,5.2,18.9,5.2,18.9,0C39.7,34,37.2,30.5,33.8,29.1z M40.8,29.2c1.1-0.8,1.8-2.1,1.8-3.6
		c0-2.4-2-4.5-4.5-4.5c-0.5,0-1.1,0.1-1.6,0.3c0.3,0.8,0.5,1.7,0.5,2.7c0,1.7-0.7,3.4-1.9,4.7c3.2,1.8,5.2,5.2,5.2,9
		c0,0.2,0,0.3-0.1,0.5c2.6-0.3,4.6-1.2,4.6-2.6C45.1,32.7,43.3,30.3,40.8,29.2z M19.9,37.9c0-3.8,2-7.1,5.1-8.9
		c0.1-0.1,0.1-0.1,0.2-0.1c-1.1-1.3-1.8-2.9-1.8-4.7c0-0.9,0.2-1.8,0.5-2.6c-0.5-0.3-1.2-0.4-1.9-0.4c-2.4,0-4.5,2-4.5,4.5
		c0,1.5,0.7,2.8,1.8,3.6c-2.5,1-4.3,3.4-4.3,6.5c0,1.5,2.3,2.4,5,2.7C19.9,38.2,19.9,38.1,19.9,37.9z"/>
</g>
</svg>
