<?xml version="1.0" encoding="utf-8"?>
<!-- Generator: Adobe Illustrator 18.1.1, SVG Export Plug-In . SVG Version: 6.00 Build 0)  -->
<svg version="1.1" id="Layer_1" xmlns="http://www.w3.org/2000/svg" xmlns:xlink="http://www.w3.org/1999/xlink" x="0px" y="0px"
	 viewBox="0 0 175.9 50" enable-background="new 0 0 175.9 50" xml:space="preserve">
<path fill="#DEDEDD" d="M52,35.2c1.1,0.5,3,1.3,4.8,1.3c1.6,0,2.6-0.9,2.6-2c0-1.1-0.6-1.8-2.4-2.8c-2.2-1.3-3.9-3.1-3.9-5.4
	c0-4.1,3.6-7.1,8.7-7.1c2.2,0,4,0.4,5,1l-1.4,4.2c-0.8-0.4-2.2-0.8-3.6-0.8c-1.6,0-2.7,0.8-2.7,1.9c0,0.9,0.8,1.6,2.2,2.4
	c2.3,1.3,4.2,3.1,4.2,5.7c0,4.7-3.8,7.4-9.1,7.3c-2.4-0.1-4.7-0.7-5.8-1.5L52,35.2z M66.6,40.5l5.9-30.5h5.9l-2.2,12l0.1,0.1
	c1.5-1.9,3.6-3.1,6.2-3.1c3.1,0,4.8,2,4.8,5.4c0,1-0.1,2.5-0.4,3.8l-2.3,12.2h-5.9l2.2-11.8c0.1-0.8,0.2-1.7,0.2-2.6
	c0-1.3-0.5-2.1-1.9-2.1c-1.9,0-3.9,2.3-4.7,6.3l-2,10.3L66.6,40.5L66.6,40.5z M100.7,19c-7.1,0-11.9,6.4-11.9,13.6
	c0,4.6,2.9,8.3,8.2,8.3c6.9,0,11.7-6.2,11.7-13.6C108.8,23,106.3,19,100.7,19z M97.9,36.4c-2,0-2.9-1.7-2.9-3.9c0-3.3,1.8-8.9,5-8.9
	c2.1,0,2.8,1.8,2.8,3.6C102.8,30.7,101,36.4,97.9,36.4z M124,19c-2.3,0-4.7,1.5-6.2,3.5h-0.1l0.3-3h-5.2c-0.2,2-0.7,5.4-1.1,7.8
	L107.4,49h5.9l1.5-9h0.1c0.7,0.5,2,0.9,3.5,0.9c7,0,11.5-7.1,11.5-14.3C130.1,22.5,128.3,19,124,19z M118.3,36.4
	c-1,0-1.8-0.3-2.4-0.8l1-5.5c0.7-3.7,2.6-6.1,4.7-6.1c1.8,0,2.3,1.7,2.3,3.3C124,31,121.6,36.4,118.3,36.4z M130.3,40.4l4-21h6
	l-4,21H130.3z M138,16.9c-1.6,0-2.8-1.1-2.8-2.9c0-1.9,1.5-3.4,3.3-3.4c1.8,0,2.9,1.2,2.9,2.9C141.5,15.6,139.9,16.9,138,16.9
	L138,16.9z M141.4,40.4l3.1-16.5h-2.7l0.8-4.5h2.7l0.1-1c0.4-2.5,1.4-5,3.4-6.7c1.5-1.4,3.6-1.9,5.8-1.9c1.5,0,2.5,0.2,3.2,0.5
	l-1.1,4.6c-0.5-0.1-1.1-0.3-1.9-0.3c-1.9,0-3.2,1.8-3.5,3.8l-0.2,1h4.1l-0.8,4.5h-4l-3.1,16.5H141.4z M162.7,19.4l0.9,9.5
	c0.2,2.1,0.4,3.5,0.5,5h0.1c0.4-1.5,0.9-2.7,1.8-5l3.6-9.5h6.1L168.6,35c-2.6,5.3-5.1,9.2-7.8,11.8c-2.1,1.9-4.6,2.9-5.8,3.2l-1.6-5
	c1-0.3,2.2-0.8,3.3-1.6c1.4-0.9,2.5-2.2,3.2-3.6c0.1-0.3,0.2-0.5,0.1-1l-3.6-19.3L162.7,19.4z M43.5,45.6l-15,3.3l2.1-43
	C30.8,5.9,30.9,6,31,6l2.9,2.9l3.9,0.3c0,0,0.1,0,0.2,0.1c0.1,0.1,0.1,0.3,0.1,0.3L43.5,45.6z M29.3,5.9l-1.5,0.4
	c-0.6-1.9-1.5-3.3-2.6-4c-0.8-0.5-1.7-0.8-2.7-0.8C22.2,1.2,22,1,21.7,0.8c-1.1-0.8-2.5-1-4.1-0.4c-5,1.8-7.1,8.3-7.9,11.5l-4.4,1.3
	c0,0-1,0.3-1.2,0.5C3.9,14.2,3.8,15,3.8,15L0,43.6l27.8,5.2l2.1-43C29.6,5.8,29.3,5.9,29.3,5.9z M22.2,8.1l-4.8,1.5
	c0.6-2.5,1.9-5.1,4.2-6.1C22.1,4.8,22.2,6.5,22.2,8.1z M18.2,2c1-0.4,1.8-0.4,2.4,0.1c-3.1,1.4-4.5,5-5.1,8.1l-3.8,1.1
	C12.4,8.2,14.4,3.4,18.2,2z M20.9,23c-0.2-0.1-0.4-0.2-0.8-0.3c-0.3-0.1-0.6-0.2-0.9-0.3c-0.4-0.1-0.8-0.1-1.1-0.1
	c-0.4-0.1-0.8-0.1-1.2,0c-0.4,0-0.8,0.1-1.1,0.2c-0.3,0.1-0.5,0.2-0.8,0.4c-0.2,0.1-0.4,0.4-0.5,0.7c-0.1,0.2-0.1,0.5-0.2,0.8
	c0,0.2,0,0.4,0.1,0.7s0.2,0.4,0.4,0.6c0.1,0.2,0.4,0.4,0.7,0.6c0.3,0.2,0.6,0.4,1,0.7c0.5,0.3,1.1,0.7,1.5,1.1
	c0.5,0.4,1,0.9,1.5,1.5c0.4,0.5,0.8,1.2,1,1.9c0.2,0.7,0.4,1.5,0.3,2.4c-0.1,1.5-0.4,2.7-0.9,3.7c-0.5,1-1.2,1.9-2.1,2.4
	c-0.8,0.5-1.8,0.9-2.9,1.1c-1,0.1-2.2,0.1-3.3-0.1c-0.5-0.1-1.1-0.3-1.5-0.4c-0.4-0.1-0.9-0.4-1.3-0.6C8,40,7.6,39.8,7.3,39.4
	c-0.3-0.2-0.5-0.5-0.8-0.8l1.2-4.2c0.2,0.1,0.4,0.4,0.8,0.6c0.3,0.2,0.6,0.4,1,0.6c0.4,0.2,0.8,0.4,1.1,0.5c0.3,0.1,0.8,0.3,1.2,0.3
	c0.4,0.1,0.7,0.1,1,0c0.3-0.1,0.5-0.1,0.7-0.3c0.2-0.1,0.4-0.4,0.4-0.6c0-0.2,0.1-0.5,0.1-0.8c0-0.3,0-0.5-0.1-0.8
	c-0.1-0.2-0.1-0.5-0.4-0.8c-0.1-0.2-0.4-0.5-0.7-0.8c-0.3-0.2-0.6-0.5-1-0.8c-0.4-0.4-0.9-0.8-1.3-1.1c-0.4-0.3-0.8-0.8-1-1.4
	c-0.3-0.4-0.5-1-0.7-1.5c-0.1-0.5-0.2-1.1-0.1-1.9c0.1-1.1,0.3-2.2,0.6-3.1c0.4-0.9,0.9-1.8,1.6-2.5c0.7-0.8,1.5-1.4,2.5-1.9
	c1-0.4,2.1-0.8,3.4-1c0.6-0.1,1.1-0.1,1.7-0.1c0.5,0,1,0,1.5,0.1c0.4,0.1,0.9,0.1,1.3,0.2c0.4,0.1,0.7,0.2,1,0.4L20.9,23z M24.1,7.5
	c0-0.1,0-0.4,0-0.5c-0.5-1.5-0.3-2.7-0.7-3.8c0.4,0,0.6,0.1,0.9,0.4c0.8,0.6,1.5,1.9,2,3.3L24.1,7.5z"/>
</svg>
