<?xml version="1.0" encoding="utf-8"?>
<!-- Generator: Adobe Illustrator 18.1.1, SVG Export Plug-In . SVG Version: 6.00 Build 0)  -->
<svg version="1.1" id="Layer_1" xmlns="http://www.w3.org/2000/svg" xmlns:xlink="http://www.w3.org/1999/xlink" x="0px" y="0px"
	 viewBox="0 0 143.1 25" enable-background="new 0 0 143.1 25" xml:space="preserve">
<g>
	<path fill-rule="evenodd" clip-rule="evenodd" fill="#DEDEDD" d="M128.4,10l4.5-4.8l0,0c0.3-0.3,0.4-0.6,0.4-0.8
		c0-0.4-0.3-0.5-1.2-0.5l0,0h-1.1v-3h12.2v3h-1.6l0,0c-1.9,0-2.2,0.3-4.8,3.5l0,0l-7.1,7.6v4.7l0,0c0,1.2,0.6,1.6,2.3,1.6l0,0h2.7
		v2.9h-17.1v-2.9h2.7l0,0c1.7,0,2.3-0.4,2.3-1.6l0,0v-4.7l-8.3-9.2l0,0c-1.4-1.6-1.2-2-5-2l0,0v-3h15.5v3h-1.1l0,0
		c-1.1,0-1.6,0.2-1.6,0.6c0,0.4,0.3,0.6,0.6,0.9l0,0l4.2,4.6l0,0C127.2,10.6,127.8,10.6,128.4,10L128.4,10L128.4,10L128.4,10z"/>
	<path fill-rule="evenodd" clip-rule="evenodd" fill="#DEDEDD" d="M24.7,0.9h3.7v8.4H25l0,0c-0.3-1.7-1.4-2.3-2.3-3.2
		c-1.7-1.6-5.5-2.9-8.6-2.9c-4.1,0-7.5,1.3-7.5,3.1c0,5.1,23.3,1.1,23.3,10.8c0,5.1-5,7.9-13.9,7.9c-3.1,0-7.8-1-10.5-2.4
		c-0.9-0.5-1.2,0.5-1.4,1.7l0,0H0.1v-8.7h3.5l0,0c0.8,2.2,1.8,2.7,2.8,3.5c1.7,1.5,5.7,2.7,9.3,2.6c5.5-0.1,7.4-1.3,7.4-3
		c0-1.8-1.9-2.2-7.9-3.1l0,0L10,14.8l0,0C4.2,13.9,0,12.6,0,8c0-4.8,5.3-7.8,13.8-7.8c3.6,0,6.5,0.5,9.4,2.1
		C24,2.8,24.7,2.8,24.7,0.9L24.7,0.9L24.7,0.9L24.7,0.9z"/>
	<path fill-rule="evenodd" clip-rule="evenodd" fill="#DEDEDD" d="M97.5,15l0.1-9.3l0,0c0-1.2-0.6-1.6-2.5-1.6l0,0h-2.1V1.1h13.6V4
		h-1.8l0,0c-1.8,0-2.5,0.4-2.5,1.6l0,0v18.8l-5.3,0L79.7,8.1v11.9l0,0c0,1.2,0.6,1.6,2.5,1.6l0,0h2.4v2.9H70.4v-2.9h2.3l0,0
		c1.8,0,2.5-0.5,2.5-1.6l0,0V5.6l0,0c0-1.2-0.6-1.6-2.5-1.6l0,0h-2.3V1.1h12.2L97.5,15L97.5,15L97.5,15z"/>
	<path fill-rule="evenodd" clip-rule="evenodd" fill="#DEDEDD" d="M51.8,0C41,0,34.2,4.8,34.2,12.5c0,7.6,6.7,12.3,17.3,12.3
		c11.3,0,17.8-4.7,17.8-12.7C69.4,4.9,62.3,0,51.8,0L51.8,0L51.8,0L51.8,0z M51.6,21.8c-6,0-9.5-3.5-9.5-9.5c0-5.8,3.6-9.3,9.8-9.3
		c5.9,0,9.4,3.5,9.4,9.6C61.3,18.5,57.8,21.8,51.6,21.8L51.6,21.8L51.6,21.8L51.6,21.8z"/>
</g>
</svg>
