<?xml version="1.0" encoding="utf-8"?>
<!-- Generator: Adobe Illustrator 18.1.1, SVG Export Plug-In . SVG Version: 6.00 Build 0)  -->
<svg version="1.1" id="Layer_1" xmlns="http://www.w3.org/2000/svg" xmlns:xlink="http://www.w3.org/1999/xlink" x="0px" y="0px"
	 viewBox="0 0 245.6 25" enable-background="new 0 0 245.6 25" xml:space="preserve">
<path fill="#DEDEDD" d="M20.6,0.4v6.4H16v-2h-2.6v15.4h2v4.4h-10v-4.4h2V4.8H4.7v2H0V0.4L20.6,0.4L20.6,0.4z M37.9,0.4
	c5.5,0,8.8,2.7,8.8,7.7c0,3.2-1.7,5.8-4.5,6.8l4.5,5.4h1.6v4.4H37.9v-4.4h1.2l-3.5-4.5h-2.8v4.5h2v4.4H24.8v-4.4h2V4.8h-2V0.4H37.9z
	 M32.8,11.4h4.4c1.8,0,3.4-1,3.4-3.3c0-2.3-1.5-3.3-3.3-3.3h-4.5L32.8,11.4L32.8,11.4z M75,0.4v4.4h-2v11.3c0,6.4-4.3,8.9-10.3,8.9
	c-6.1,0-10.4-2.5-10.4-8.9V4.8h-2V0.4h10.1v4.4h-2v11.3c0,2.5,1,4.5,4.4,4.5c3.3,0,4.3-2,4.3-4.5V4.8h-2V0.4H75L75,0.4z M104,0.4
	v4.4h-2v19.9h-6.2l-9.3-14h-0.1v9.6h2.2v4.4h-9.7v-4.4H81V4.8h-2V0.4h7.9l9.6,14.8h0.1V4.8h-2.2V0.4H104z M118.4,0.4v4.4h-2v6.9
	l7-6.9h-1.6V0.4h10.9v4.4h-2.1l-6.4,6l7.1,9.4h1.8v4.4h-11.2v-4.4h1.8l-4-5.5l-3.2,3v2.5h2v4.4h-9.8v-4.4h2V4.8h-2V0.4H118.4
	L118.4,0.4z M168.6,17.5v6.1c-3.6,1-6.3,1.4-9.4,1.4c-9.1,0-11.7-5.7-11.7-12.7C147.5,5.4,150,0,159.1,0c3.1,0,5.8,0.4,9.4,1.4v6.1
	h-4.7V4.8c-1.8-0.3-3-0.4-4.3-0.4c-4.2,0-5.8,3.2-5.8,7.9c0,5,1.6,8.3,5.8,8.3c1.3,0,2.5,0,4.3-0.4v-2.6L168.6,17.5L168.6,17.5z
	 M193,18.2v6.4h-19.7v-4.4h2V4.8h-2V0.4h10.1v4.4h-2v15.4h7v-2H193L193,18.2z M219.1,0.4v4.4h-2v11.3c0,6.4-4.3,8.9-10.4,8.9
	c-6.1,0-10.4-2.5-10.4-8.9V4.8h-2.1V0.4h10.1v4.4h-2v11.3c0,2.5,1,4.5,4.4,4.5c3.3,0,4.3-2,4.3-4.5V4.8h-2V0.4H219.1L219.1,0.4z
	 M241.1,12.1c2.6,0.8,4.5,2.7,4.5,5.9c0,4.2-3,6.7-8.5,6.7h-13.9v-4.4h2V4.8h-2V0.4h13.1c5.5,0,8.5,2.2,8.5,6.2
	C244.8,9.1,243.3,11.1,241.1,12.1L241.1,12.1L241.1,12.1z M235.7,4.8h-4.4V10h4.4c1.9,0,2.8-1,2.8-2.6
	C238.5,5.9,237.5,4.8,235.7,4.8 M231.3,14.4v5.8h4.9c1.8,0,3.1-0.9,3.1-2.9c0-2-1.3-2.9-3.2-2.9L231.3,14.4L231.3,14.4z"/>
</svg>
