<?xml version="1.0" encoding="utf-8"?>
<!-- Generator: Adobe Illustrator 18.1.1, SVG Export Plug-In . SVG Version: 6.00 Build 0)  -->
<svg version="1.1" id="Layer_1" xmlns="http://www.w3.org/2000/svg" xmlns:xlink="http://www.w3.org/1999/xlink" x="0px" y="0px"
	 viewBox="0 0 94.9 50" enable-background="new 0 0 94.9 50" xml:space="preserve">
<g>
	<rect x="26.8" y="33.2" fill="#DDDDDC" width="4.2" height="16.5"/>
	<path fill="#DDDDDC" d="M64.5,37.9c-0.2-0.1-1.5-0.9-3.5-0.9c-2.7,0-4.6,1.9-4.6,4.4c0,2.4,1.8,4.4,4.6,4.4c2,0,3.3-0.8,3.5-0.9
		v4.4C64,49.6,62.6,50,60.7,50c-4.7,0-8.8-3.2-8.8-8.5c0-4.9,3.7-8.5,8.8-8.5c2,0,3.4,0.5,3.8,0.6V37.9z"/>
	<path fill="#DDDDDC" d="M21.1,37.9c-0.2-0.1-1.5-0.9-3.5-0.9c-2.7,0-4.6,1.9-4.6,4.4c0,2.4,1.8,4.4,4.6,4.4c2,0,3.3-0.8,3.5-0.9
		v4.4c-0.5,0.1-1.9,0.6-3.8,0.6c-4.7,0-8.8-3.2-8.8-8.5c0-4.9,3.7-8.5,8.8-8.5c2,0,3.4,0.5,3.8,0.6V37.9z"/>
	<path fill="#DDDDDC" d="M86.3,41.5c0,4.7-3.6,8.5-8.7,8.5c-5.1,0-8.7-3.8-8.7-8.5c0-4.7,3.6-8.5,8.7-8.5
		C82.7,32.9,86.3,36.8,86.3,41.5z M77.6,37.1c-2.5,0-4.3,1.9-4.3,4.3c0,2.4,1.8,4.3,4.3,4.3c2.5,0,4.3-1.9,4.3-4.3
		C81.9,39.1,80.1,37.1,77.6,37.1z"/>
	<path fill="#DDDDDC" d="M46.8,37c-0.1,0-1.8-0.5-3.3-0.5c-1.7,0-2.6,0.6-2.6,1.3c0,1,1.2,1.4,1.9,1.6l1.2,0.4
		c2.7,0.9,3.9,2.7,3.9,4.7c0,4.1-3.6,5.5-6.8,5.5c-2.2,0-4.3-0.4-4.5-0.5v-3.8c0.4,0.1,2.1,0.6,3.9,0.6c2.1,0,3-0.6,3-1.5
		c0-0.8-0.8-1.3-1.9-1.6c-0.2-0.1-0.6-0.2-0.9-0.3c-2.3-0.7-4.3-2.1-4.3-4.8c0-3.1,2.3-5.2,6.1-5.2c2,0,3.9,0.5,4.1,0.5V37z"/>
	<path fill="#DDDDDC" d="M4.1,15.5c0-1.1-0.9-2.1-2.1-2.1c-1.1,0-2.1,0.9-2.1,2.1v4.3c0,1.1,0.9,2.1,2.1,2.1c1.1,0,2.1-0.9,2.1-2.1
		V15.5z"/>
	<path fill="#DDDDDC" d="M15.5,9.8c0-1.1-0.9-2.1-2.1-2.1c-1.1,0-2.1,0.9-2.1,2.1v10c0,1.1,0.9,2.1,2.1,2.1c1.1,0,2.1-0.9,2.1-2.1
		V9.8z"/>
	<path fill="#DDDDDC" d="M26.8,2.1c0-1.1-0.9-2.1-2.1-2.1c-1.1,0-2.1,0.9-2.1,2.1v21.9c0,1.1,0.9,2.1,2.1,2.1c1.1,0,2.1-0.9,2.1-2.1
		V2.1z"/>
	<path fill="#DDDDDC" d="M38.2,9.8c0-1.1-0.9-2.1-2.1-2.1C35,7.8,34,8.7,34,9.8v10c0,1.1,0.9,2.1,2.1,2.1c1.1,0,2.1-0.9,2.1-2.1V9.8
		z"/>
	<path fill="#DDDDDC" d="M49.5,15.5c0-1.1-0.9-2.1-2.1-2.1c-1.1,0-2.1,0.9-2.1,2.1v4.3c0,1.1,0.9,2.1,2.1,2.1c1.1,0,2.1-0.9,2.1-2.1
		V15.5z"/>
	<path fill="#DDDDDC" d="M60.8,9.8c0-1.1-0.9-2.1-2.1-2.1c-1.1,0-2.1,0.9-2.1,2.1v10c0,1.1,0.9,2.1,2.1,2.1c1.1,0,2.1-0.9,2.1-2.1
		V9.8z"/>
	<path fill="#DDDDDC" d="M72.2,2.1c0-1.1-0.9-2.1-2.1-2.1c-1.1,0-2.1,0.9-2.1,2.1v21.9c0,1.1,0.9,2.1,2.1,2.1c1.1,0,2.1-0.9,2.1-2.1
		V2.1z"/>
	<path fill="#DDDDDC" d="M83.5,9.8c0-1.1-0.9-2.1-2.1-2.1c-1.1,0-2.1,0.9-2.1,2.1v10c0,1.1,0.9,2.1,2.1,2.1c1.2,0,2.1-0.9,2.1-2.1
		V9.8z"/>
	<path fill="#DDDDDC" d="M94.9,15.5c0-1.1-0.9-2.1-2.1-2.1c-1.1,0-2.1,0.9-2.1,2.1v4.3c0,1.1,0.9,2.1,2.1,2.1c1.1,0,2.1-0.9,2.1-2.1
		V15.5z"/>
</g>
</svg>
