<?xml version="1.0" encoding="utf-8"?>
<!-- Generator: Adobe Illustrator 18.1.1, SVG Export Plug-In . SVG Version: 6.00 Build 0)  -->
<svg version="1.1" id="Layer_1" xmlns="http://www.w3.org/2000/svg" xmlns:xlink="http://www.w3.org/1999/xlink" x="0px" y="0px"
	 viewBox="0 0 60 60" enable-background="new 0 0 60 60" xml:space="preserve">
<g>
	
		<circle fill="none" stroke="#259A47" stroke-width="0.9833" stroke-miterlimit="10" stroke-dasharray="3.9851,1.9925" cx="30" cy="30" r="29.5"/>
</g>
<g>
	<path fill="#DEDEDD" d="M30,15c-5.9,0-10.7,4.8-10.7,10.7c0,7,10.1,18.7,10.1,18.7c0.6,0.7,0.8,0.7,1.3,0c0,0,10.1-11.7,10.1-18.7
		C40.7,19.8,35.9,15,30,15z M30,30.6c-2.7,0-5-2.2-5-5c0-2.7,2.2-5,5-5s5,2.2,5,5C35,28.4,32.7,30.6,30,30.6z"/>
</g>
</svg>
