<?xml version="1.0" encoding="utf-8"?>
<!-- Generator: Adobe Illustrator 18.1.1, SVG Export Plug-In . SVG Version: 6.00 Build 0)  -->
<svg version="1.1" id="Layer_1" xmlns="http://www.w3.org/2000/svg" xmlns:xlink="http://www.w3.org/1999/xlink" x="0px" y="0px"
	 viewBox="0 0 60 60" enable-background="new 0 0 60 60" xml:space="preserve">
<g>
	
		<circle fill="none" stroke="#259A47" stroke-width="0.9833" stroke-miterlimit="10" stroke-dasharray="3.9851,1.9925" cx="30" cy="30" r="29.5"/>
</g>
<g>
	<path id="Phone_1_" fill="#DEDEDD" d="M43.3,38.4L43.1,38c-0.5-1.1-6.2-2.8-6.7-2.8l-0.4,0c-0.7,0.1-1.5,0.8-3,2.1
		c-0.3,0.3-0.7,0.3-1.1,0.1c-2-1.1-4.4-3.3-5.6-4.6c-1.3-1.4-2.9-3.8-3.6-5.7c-0.1-0.4,0-0.8,0.3-1c1.7-1.5,2.4-2.3,2.5-3.1
		c0-0.5-1-6.4-2-6.9l-0.3-0.2c-0.7-0.4-1.7-1.1-2.8-0.8c-0.3,0.1-0.5,0.2-0.8,0.3c-0.7,0.5-2.6,1.7-3.4,3.4
		c-0.5,1-0.7,10.4,6.3,18.3c6.9,7.8,15.5,8.2,16.8,7.9h0l0.1,0c1.7-0.6,3.2-2.3,3.8-3C44.4,40.7,43.7,39.2,43.3,38.4z"/>
</g>
</svg>
