<?xml version="1.0" encoding="UTF-8" standalone="no"?>
<svg width="138px" height="60px" viewBox="0 0 138 60" version="1.1" xmlns="http://www.w3.org/2000/svg" xmlns:xlink="http://www.w3.org/1999/xlink" xmlns:sketch="http://www.bohemiancoding.com/sketch/ns">
    <!-- Generator: bin/sketchtool 1.4 (305) - http://www.bohemiancoding.com/sketch -->
    <title>4 + 4 copy + Rectangle 15 + Rectangle 15 Copy + Fill 1 Copy Copy Copy</title>
    <desc>Created with bin/sketchtool.</desc>
    <defs></defs>
    <g id="Page-1" stroke="none" stroke-width="1" fill="none" fill-rule="evenodd" sketch:type="MSPage">
        <g id="error" sketch:type="MSArtboardGroup" transform="translate(-618.000000, -130.000000)">
            <g id="Main-1" sketch:type="MSLayerGroup" transform="translate(0.000000, 70.000000)">
                <g id="4-+-4-copy-+-Rectangle-15-+-Rectangle-15-Copy-+-Fill-1-Copy-Copy-Copy" transform="translate(618.000000, 60.000000)" sketch:type="MSShapeGroup">
                    <g id="Rectangle-15-+-Rectangle-15-Copy-+-Fill-1-Copy-Copy-Copy" transform="translate(41.000000, 0.000000)" fill="#CC342D">
                        <path d="M4,15.996221 C4,9.37089109 9.36951542,4 15.996221,4 L48.003779,4 C54.6291089,4 60,9.36951542 60,15.996221 L60,48.003779 C60,54.6291089 54.6304846,60 48.003779,60 L15.996221,60 C9.37089109,60 4,54.6304846 4,48.003779 L4,15.996221 Z M13.3333333,19.3315792 C13.3333333,16.0188395 16.0182546,13.3333333 19.3315792,13.3333333 L44.6684208,13.3333333 C47.9811605,13.3333333 50.6666667,16.0182546 50.6666667,19.3315792 L50.6666667,44.6684208 C50.6666667,47.9811605 47.9817454,50.6666667 44.6684208,50.6666667 L19.3315792,50.6666667 C16.0188395,50.6666667 13.3333333,47.9817454 13.3333333,44.6684208 L13.3333333,19.3315792 Z" id="Rectangle-15" fill-opacity="0.150000006"></path>
                        <path d="M0,11.996221 C0,5.37089109 5.36951542,0 11.996221,0 L44.003779,0 C50.6291089,0 56,5.36951542 56,11.996221 L56,44.003779 C56,50.6291089 50.6304846,56 44.003779,56 L11.996221,56 C5.37089109,56 0,50.6304846 0,44.003779 L0,11.996221 Z M9.33333333,17.34227 C9.33333333,12.9190564 12.9130103,9.33333333 17.34227,9.33333333 L38.65773,9.33333333 C43.0809436,9.33333333 46.6666667,12.9130103 46.6666667,17.34227 L46.6666667,38.65773 C46.6666667,43.0809436 43.0869897,46.6666667 38.65773,46.6666667 L17.34227,46.6666667 C12.9190564,46.6666667 9.33333333,43.0869897 9.33333333,38.65773 L9.33333333,17.34227 Z" id="Rectangle-15"></path>
                        <path d="M36.6088524,32.8321864 L33.7768876,30.0001001 L36.6088524,27.1680138 C37.1303825,26.6464613 37.1303825,25.8004406 36.6088524,25.2788881 L34.7206089,23.3905635 C34.1990787,22.8698122 33.3538955,22.8698122 32.8323653,23.3905635 L30.0004006,26.223451 L27.1676347,23.3905635 C26.6461045,22.8698122 25.8009213,22.8698122 25.2793911,23.3905635 L23.3911476,25.2788881 C22.8696175,25.8004406 22.8696175,26.6464613 23.3911476,27.1680138 L26.2239135,30.0001001 L23.3911476,32.8321864 C22.8696175,33.353739 22.8696175,34.1989585 23.3911476,34.7213122 L25.2793911,36.6088356 C25.8009213,37.1303881 26.6461045,37.1303881 27.1676347,36.6088356 L30.0004006,33.7767493 L32.8323653,36.6088356 C33.3538955,37.1303881 34.1990787,37.1303881 34.7206089,36.6088356 L36.6088524,34.7213122 C37.1303825,34.1989585 37.1303825,33.353739 36.6088524,32.8321864" id="Fill-1-Copy" fill-opacity="0.15"></path>
                        <path d="M34.6088524,30.8321864 L31.7768876,28.0001001 L34.6088524,25.1680138 C35.1303825,24.6464613 35.1303825,23.8004406 34.6088524,23.2788881 L32.7206089,21.3905635 C32.1990787,20.8698122 31.3538955,20.8698122 30.8323653,21.3905635 L28.0004006,24.223451 L25.1676347,21.3905635 C24.6461045,20.8698122 23.8009213,20.8698122 23.2793911,21.3905635 L21.3911476,23.2788881 C20.8696175,23.8004406 20.8696175,24.6464613 21.3911476,25.1680138 L24.2239135,28.0001001 L21.3911476,30.8321864 C20.8696175,31.353739 20.8696175,32.1989585 21.3911476,32.7213122 L23.2793911,34.6088356 C23.8009213,35.1303881 24.6461045,35.1303881 25.1676347,34.6088356 L28.0004006,31.7767493 L30.8323653,34.6088356 C31.3538955,35.1303881 32.1990787,35.1303881 32.7206089,34.6088356 L34.6088524,32.7213122 C35.1303825,32.1989585 35.1303825,31.353739 34.6088524,30.8321864" id="Fill-1-Copy"></path>
                    </g>
                    <path d="M132.515,46.685 L132.515,36.675 L137.905,36.675 L137.905,33.815 L132.515,33.815 L132.515,10 L128.28,10 L112,33.87 L112,36.675 L129.38,36.675 L129.38,46.685 L132.515,46.685 Z M129.38,33.815 L115.245,33.815 L129.38,13.135 L129.38,33.815 Z" id="4" fill="#343434"></path>
                    <path d="M20.515,46.685 L20.515,36.675 L25.905,36.675 L25.905,33.815 L20.515,33.815 L20.515,10 L16.28,10 L0,33.87 L0,36.675 L17.38,36.675 L17.38,46.685 L20.515,46.685 Z M17.38,33.815 L3.245,33.815 L17.38,13.135 L17.38,33.815 Z" id="4" fill="#343434"></path>
                </g>
            </g>
        </g>
    </g>
</svg>