<?xml version="1.0" encoding="utf-8"?>
<!-- Generator: Adobe Illustrator 18.1.1, SVG Export Plug-In . SVG Version: 6.00 Build 0)  -->
<svg version="1.1" id="Layer_1" xmlns="http://www.w3.org/2000/svg" xmlns:xlink="http://www.w3.org/1999/xlink" x="0px" y="0px"
	 viewBox="0 0 1400 323.5" enable-background="new 0 0 1400 323.5" xml:space="preserve">
<g>
	<rect x="0" fill="#FFFFFF" width="1400" height="322.8"/>
	<g>
		<path fill="#EEEDED" d="M0.1,44H1400V4.7c0-2.6-1.8-4.7-4-4.7H4C1.8,0,0,2.1,0,4.7L0.1,44z"/>
		<circle fill="#DEDEDD" cx="23" cy="22" r="7.2"/>
		<circle fill="#DEDEDD" cx="49.4" cy="22" r="7.2"/>
		<circle fill="#DEDEDD" cx="75.8" cy="22" r="7.2"/>
	</g>
	<g id="tr_27_">
		<path fill="#DEDEDD" d="M1387.8,322.8h-63.8c1.7-3.9,5.6-6.6,10-6.6h43.8C1382.2,316.2,1386.1,318.9,1387.8,322.8z"/>
	</g>
	<line fill="none" stroke="#DEDEDD" stroke-width="0.875" stroke-miterlimit="10" x1="306.3" y1="306" x2="1400" y2="306"/>
	<path fill="#DEDEDD" d="M1377.7,295.1H1334c-6,0-10.9-4.9-10.9-10.9l0,0c0-6,4.9-10.9,10.9-10.9h43.8c6,0,10.9,4.9,10.9,10.9l0,0
		C1388.7,290.1,1383.7,295.1,1377.7,295.1z"/>
	<g>
		<path fill="#565656" d="M352.5,288.8V281l-1.5,1.6l-0.7-0.7l2.3-2.4h1v9.3H352.5z"/>
		<path fill="#565656" d="M355.5,284.1c0-2.3,1-4.8,3.6-4.8c2.5,0,3.6,2.5,3.6,4.8c0,2.3-1,4.8-3.6,4.8
			C356.5,288.9,355.5,286.4,355.5,284.1z M361.4,284.1c0-1.9-0.6-3.8-2.4-3.8c-1.8,0-2.4,1.9-2.4,3.8c0,1.9,0.6,3.8,2.4,3.8
			C360.8,287.9,361.4,286,361.4,284.1z"/>
		<path fill="#565656" d="M364.1,284.1c0-2.3,1-4.8,3.6-4.8c2.5,0,3.6,2.5,3.6,4.8c0,2.3-1,4.8-3.6,4.8
			C365.1,288.9,364.1,286.4,364.1,284.1z M370,284.1c0-1.9-0.6-3.8-2.4-3.8c-1.8,0-2.4,1.9-2.4,3.8c0,1.9,0.6,3.8,2.4,3.8
			C369.4,287.9,370,286,370,284.1z"/>
		<path fill="#565656" d="M374.4,288.8V281l-1.5,1.6l-0.7-0.7l2.3-2.4h1v9.3H374.4z"/>
		<path fill="#565656" d="M377.4,288.8v-0.9c3.4-2.6,5.2-4.2,5.2-5.8c0-1.2-1-1.7-1.9-1.7c-1.1,0-2,0.5-2.5,1.2l-0.7-0.7
			c0.7-0.9,1.9-1.5,3.2-1.5c1.6,0,3.1,0.9,3.1,2.7c0,1.9-1.9,3.6-4.5,5.7h4.6v1H377.4z"/>
		<path fill="#565656" d="M385.6,284.1c0-2.3,1-4.8,3.6-4.8c2.5,0,3.6,2.5,3.6,4.8c0,2.3-1,4.8-3.6,4.8
			C386.6,288.9,385.6,286.4,385.6,284.1z M391.6,284.1c0-1.9-0.6-3.8-2.4-3.8c-1.8,0-2.4,1.9-2.4,3.8c0,1.9,0.6,3.8,2.4,3.8
			C391,287.9,391.6,286,391.6,284.1z"/>
	</g>
	<g>
		<g>
			<path fill="#565656" d="M557.7,287.9l0.6-0.9c0.4,0.5,1,0.9,1.8,0.9c1.1,0,1.9-0.8,1.9-2v-6.5h1.2v6.5c0,2-1.3,3-3,3
				C559.1,288.9,558.3,288.6,557.7,287.9z"/>
			<path fill="#565656" d="M564.8,285.4c0-2,1.4-3.5,3.3-3.5c2,0,3.2,1.6,3.2,3.6v0.3h-5.5c0.1,1.3,1,2.3,2.4,2.3
				c0.8,0,1.6-0.3,2.1-0.9l0.5,0.7c-0.7,0.7-1.6,1-2.7,1C566.3,288.9,564.8,287.5,564.8,285.4z M568.2,282.7c-1.4,0-2.2,1.2-2.2,2.3
				h4.4C570.4,283.9,569.7,282.7,568.2,282.7z"/>
			<path fill="#565656" d="M577.7,288.8v-4.4c0-1.2-0.6-1.6-1.5-1.6c-0.8,0-1.6,0.5-2,1.1v4.9h-1.1V282h1.1v1
				c0.5-0.6,1.4-1.1,2.4-1.1c1.4,0,2.2,0.7,2.2,2.2v4.7H577.7z"/>
			<path fill="#565656" d="M585.4,288.8v-4.4c0-1.2-0.6-1.6-1.5-1.6c-0.8,0-1.6,0.5-2,1.1v4.9h-1.1V282h1.1v1
				c0.5-0.6,1.4-1.1,2.4-1.1c1.4,0,2.2,0.7,2.2,2.2v4.7H585.4z"/>
			<path fill="#565656" d="M588.1,285.4c0-2,1.4-3.5,3.3-3.5c2,0,3.2,1.6,3.2,3.6v0.3h-5.5c0.1,1.3,1,2.3,2.4,2.3
				c0.8,0,1.6-0.3,2.1-0.9l0.5,0.7c-0.7,0.7-1.6,1-2.7,1C589.6,288.9,588.1,287.5,588.1,285.4z M591.5,282.7c-1.4,0-2.2,1.2-2.2,2.3
				h4.4C593.7,283.9,593,282.7,591.5,282.7z"/>
			<path fill="#565656" d="M598.2,288.8l-2.8-6.8h1.1l2.3,5.5l2.2-5.5h1.1l-2.8,6.8H598.2z"/>
			<path fill="#565656" d="M603.1,280.3c0-0.4,0.3-0.7,0.7-0.7c0.4,0,0.7,0.3,0.7,0.7s-0.3,0.7-0.7,0.7
				C603.4,281,603.1,280.7,603.1,280.3z M603.3,288.8V282h1.1v6.8H603.3z"/>
			<path fill="#565656" d="M606,285.4c0-2,1.4-3.5,3.3-3.5c2,0,3.2,1.6,3.2,3.6v0.3h-5.5c0.1,1.3,1,2.3,2.4,2.3
				c0.8,0,1.6-0.3,2.1-0.9l0.5,0.7c-0.7,0.7-1.6,1-2.7,1C607.5,288.9,606,287.5,606,285.4z M609.4,282.7c-1.4,0-2.2,1.2-2.2,2.3h4.4
				C611.6,283.9,610.9,282.7,609.4,282.7z"/>
			<path fill="#565656" d="M614.3,288.8V282h1.1v1.1c0.5-0.7,1.3-1.2,2.3-1.2v1.1c-0.1,0-0.3,0-0.4,0c-0.6,0-1.5,0.5-1.8,1.1v4.8
				H614.3z"/>
			<path fill="#565656" d="M618.5,285.4c0-2,1.4-3.5,3.3-3.5c2,0,3.2,1.6,3.2,3.6v0.3h-5.5c0.1,1.3,1,2.3,2.4,2.3
				c0.8,0,1.6-0.3,2.1-0.9l0.5,0.7c-0.7,0.7-1.6,1-2.7,1C620,288.9,618.5,287.5,618.5,285.4z M621.9,282.7c-1.4,0-2.2,1.2-2.2,2.3
				h4.4C624.1,283.9,623.4,282.7,621.9,282.7z"/>
			<path fill="#565656" d="M633.3,288.8l-3.8-9.3h1.3l3.2,8.1l3.2-8.1h1.3l-3.8,9.3H633.3z"/>
			<path fill="#565656" d="M639.5,280.3c0-0.4,0.3-0.7,0.7-0.7c0.4,0,0.7,0.3,0.7,0.7s-0.3,0.7-0.7,0.7
				C639.8,281,639.5,280.7,639.5,280.3z M639.6,288.8V282h1.1v6.8H639.6z"/>
			<path fill="#565656" d="M642.8,288.8v-9.3h1.1v9.3H642.8z"/>
			<path fill="#565656" d="M645.9,288.8v-9.3h1.1v9.3H645.9z"/>
			<path fill="#565656" d="M648.7,285.4c0-2,1.4-3.5,3.3-3.5c2,0,3.2,1.6,3.2,3.6v0.3h-5.5c0.1,1.3,1,2.3,2.4,2.3
				c0.8,0,1.6-0.3,2.1-0.9l0.5,0.7c-0.7,0.7-1.6,1-2.7,1C650.1,288.9,648.7,287.5,648.7,285.4z M652,282.7c-1.4,0-2.2,1.2-2.2,2.3
				h4.4C654.2,283.9,653.6,282.7,652,282.7z"/>
			<path fill="#565656" d="M657,290.5l0.5-0.8c0.6,0.7,1.2,0.9,2.2,0.9c1.1,0,2.2-0.5,2.2-2v-1c-0.5,0.7-1.3,1.2-2.3,1.2
				c-1.8,0-3-1.3-3-3.5c0-2.2,1.2-3.5,3-3.5c0.9,0,1.7,0.4,2.3,1.2v-1h1.1v6.6c0,2.2-1.6,2.9-3.2,2.9
				C658.5,291.5,657.7,291.3,657,290.5z M661.9,286.8v-3c-0.4-0.6-1.2-1.1-2-1.1c-1.4,0-2.2,1.1-2.2,2.6c0,1.5,0.8,2.6,2.2,2.6
				C660.7,287.9,661.5,287.4,661.9,286.8z"/>
			<path fill="#565656" d="M669.2,288.8V288c-0.6,0.6-1.3,0.9-2.2,0.9c-1.1,0-2.4-0.8-2.4-2.2c0-1.5,1.2-2.2,2.4-2.2
				c0.9,0,1.7,0.3,2.2,0.9v-1.2c0-0.9-0.7-1.4-1.7-1.4c-0.8,0-1.5,0.3-2.1,0.9L665,283c0.7-0.8,1.6-1.1,2.7-1.1
				c1.4,0,2.6,0.6,2.6,2.3v4.7H669.2z M669.2,287.3v-1.3c-0.4-0.6-1.1-0.8-1.9-0.8c-1,0-1.7,0.6-1.7,1.5c0,0.9,0.7,1.5,1.7,1.5
				C668.1,288.2,668.8,287.9,669.2,287.3z"/>
			<path fill="#565656" d="M671.8,287.9l0.5-0.8c0.4,0.5,1.3,1,2.2,1c1,0,1.6-0.5,1.6-1.2c0-1.6-4.2-0.6-4.2-3.1
				c0-1.1,0.9-1.9,2.5-1.9c1.1,0,2,0.4,2.5,1l-0.5,0.7c-0.4-0.5-1.1-0.9-2-0.9c-0.9,0-1.5,0.5-1.5,1.1c0,1.5,4.2,0.5,4.2,3.1
				c0,1.1-0.9,2-2.7,2C673.4,288.9,672.5,288.6,671.8,287.9z"/>
		</g>
	</g>
	<g>
		<g>
			<path fill="#565656" d="M792,288.8l-0.8-2.1h-4.7l-0.8,2.1h-1.3l3.8-9.3h1.4l3.8,9.3H792z M788.9,280.6l-2,5h4L788.9,280.6z"/>
			<path fill="#565656" d="M801.1,288.8l-2.1-7.5l-2.1,7.5h-1.3l-2.7-9.3h1.3l2.1,7.8l2.1-7.8h1l2.1,7.8l2.1-7.8h1.3l-2.7,9.3H801.1
				z"/>
			<path fill="#565656" d="M805.7,287.5l0.7-0.9c0.6,0.7,1.6,1.3,2.9,1.3c1.7,0,2.2-0.9,2.2-1.6c0-2.4-5.5-1.1-5.5-4.4
				c0-1.5,1.4-2.6,3.2-2.6c1.4,0,2.5,0.5,3.3,1.3l-0.7,0.9c-0.7-0.8-1.7-1.1-2.7-1.1c-1.1,0-1.9,0.6-1.9,1.5c0,2.1,5.5,0.9,5.5,4.4
				c0,1.4-0.9,2.7-3.4,2.7C807.7,288.9,806.5,288.3,805.7,287.5z"/>
			<path fill="#565656" d="M817.7,285.4c0-2,1.4-3.5,3.4-3.5c1.2,0,2,0.5,2.5,1.2l-0.7,0.6c-0.4-0.6-1-0.9-1.7-0.9
				c-1.4,0-2.3,1.1-2.3,2.6s0.9,2.6,2.3,2.6c0.7,0,1.3-0.3,1.7-0.9l0.7,0.6c-0.5,0.7-1.2,1.2-2.5,1.2
				C819,288.9,817.7,287.4,817.7,285.4z"/>
			<path fill="#565656" d="M825,288.8V282h1.1v1.1c0.5-0.7,1.3-1.2,2.3-1.2v1.1c-0.1,0-0.3,0-0.4,0c-0.6,0-1.5,0.5-1.8,1.1v4.8H825z
				"/>
			<path fill="#565656" d="M829.2,285.4c0-2,1.4-3.5,3.3-3.5c2,0,3.2,1.6,3.2,3.6v0.3h-5.5c0.1,1.3,1,2.3,2.4,2.3
				c0.8,0,1.6-0.3,2.1-0.9l0.5,0.7c-0.7,0.7-1.6,1-2.7,1C830.7,288.9,829.2,287.5,829.2,285.4z M832.5,282.7c-1.4,0-2.2,1.2-2.2,2.3
				h4.4C834.8,283.9,834.1,282.7,832.5,282.7z"/>
			<path fill="#565656" d="M842.4,288.8v-1c-0.5,0.7-1.3,1.2-2.3,1.2c-1.8,0-3-1.3-3-3.5c0-2.2,1.2-3.6,3-3.6c0.9,0,1.7,0.4,2.3,1.2
				v-3.6h1.1v9.3H842.4z M842.4,286.9v-3.1c-0.4-0.6-1.2-1.1-2-1.1c-1.4,0-2.2,1.1-2.2,2.6s0.8,2.6,2.2,2.6
				C841.2,288,842,287.5,842.4,286.9z"/>
			<path fill="#565656" d="M845.1,285.4c0-2,1.4-3.5,3.3-3.5c2,0,3.2,1.6,3.2,3.6v0.3h-5.5c0.1,1.3,1,2.3,2.4,2.3
				c0.8,0,1.6-0.3,2.1-0.9l0.5,0.7c-0.7,0.7-1.6,1-2.7,1C846.6,288.9,845.1,287.5,845.1,285.4z M848.5,282.7c-1.4,0-2.2,1.2-2.2,2.3
				h4.4C850.7,283.9,850,282.7,848.5,282.7z"/>
			<path fill="#565656" d="M858,288.8v-4.4c0-1.2-0.6-1.6-1.5-1.6c-0.8,0-1.6,0.5-2,1.1v4.9h-1.1V282h1.1v1c0.5-0.6,1.4-1.1,2.4-1.1
				c1.4,0,2.2,0.7,2.2,2.2v4.7H858z"/>
			<path fill="#565656" d="M861.3,287.4v-4.4h-1.1V282h1.1v-1.8h1.1v1.8h1.4v0.9h-1.4v4.2c0,0.5,0.2,0.9,0.7,0.9
				c0.3,0,0.6-0.1,0.7-0.3l0.3,0.8c-0.3,0.3-0.6,0.4-1.3,0.4C861.9,288.9,861.3,288.4,861.3,287.4z"/>
			<path fill="#565656" d="M865.1,280.3c0-0.4,0.3-0.7,0.7-0.7c0.4,0,0.7,0.3,0.7,0.7s-0.3,0.7-0.7,0.7
				C865.4,281,865.1,280.7,865.1,280.3z M865.3,288.8V282h1.1v6.8H865.3z"/>
			<path fill="#565656" d="M872.6,288.8V288c-0.6,0.6-1.3,0.9-2.2,0.9c-1.1,0-2.4-0.8-2.4-2.2c0-1.5,1.2-2.2,2.4-2.2
				c0.9,0,1.7,0.3,2.2,0.9v-1.2c0-0.9-0.7-1.4-1.7-1.4c-0.8,0-1.5,0.3-2.1,0.9l-0.5-0.7c0.7-0.8,1.6-1.1,2.7-1.1
				c1.4,0,2.6,0.6,2.6,2.3v4.7H872.6z M872.6,287.3v-1.3c-0.4-0.6-1.1-0.8-1.9-0.8c-1,0-1.7,0.6-1.7,1.5c0,0.9,0.7,1.5,1.7,1.5
				C871.5,288.2,872.2,287.9,872.6,287.3z"/>
			<path fill="#565656" d="M875.8,288.8v-9.3h1.1v9.3H875.8z"/>
			<path fill="#565656" d="M878.3,287.9l0.5-0.8c0.4,0.5,1.3,1,2.2,1c1,0,1.6-0.5,1.6-1.2c0-1.6-4.2-0.6-4.2-3.1
				c0-1.1,0.9-1.9,2.5-1.9c1.1,0,2,0.4,2.5,1l-0.5,0.7c-0.4-0.5-1.1-0.9-2-0.9c-0.9,0-1.5,0.5-1.5,1.1c0,1.5,4.2,0.5,4.2,3.1
				c0,1.1-0.9,2-2.7,2C880,288.9,879,288.6,878.3,287.9z"/>
			<path fill="#565656" d="M893.6,288.8v-4.4c0-1.2-0.6-1.6-1.5-1.6c-0.8,0-1.6,0.5-2,1.1v4.9h-1.1V282h1.1v1
				c0.5-0.6,1.4-1.1,2.4-1.1c1.4,0,2.2,0.7,2.2,2.2v4.7H893.6z"/>
			<path fill="#565656" d="M896.4,285.4c0-2,1.4-3.5,3.3-3.5c2,0,3.2,1.6,3.2,3.6v0.3h-5.5c0.1,1.3,1,2.3,2.4,2.3
				c0.8,0,1.6-0.3,2.1-0.9l0.5,0.7c-0.7,0.7-1.6,1-2.7,1C897.8,288.9,896.4,287.5,896.4,285.4z M899.7,282.7c-1.4,0-2.2,1.2-2.2,2.3
				h4.4C901.9,283.9,901.2,282.7,899.7,282.7z"/>
			<path fill="#565656" d="M904.3,285.4c0-2,1.4-3.5,3.3-3.5c2,0,3.2,1.6,3.2,3.6v0.3h-5.5c0.1,1.3,1,2.3,2.4,2.3
				c0.8,0,1.6-0.3,2.1-0.9l0.5,0.7c-0.7,0.7-1.6,1-2.7,1C905.7,288.9,904.3,287.5,904.3,285.4z M907.6,282.7c-1.4,0-2.2,1.2-2.2,2.3
				h4.4C909.8,283.9,909.1,282.7,907.6,282.7z"/>
			<path fill="#565656" d="M917.4,288.8v-1c-0.5,0.7-1.3,1.2-2.3,1.2c-1.8,0-3-1.3-3-3.5c0-2.2,1.2-3.6,3-3.6c0.9,0,1.7,0.4,2.3,1.2
				v-3.6h1.1v9.3H917.4z M917.4,286.9v-3.1c-0.4-0.6-1.2-1.1-2-1.1c-1.4,0-2.2,1.1-2.2,2.6s0.8,2.6,2.2,2.6
				C916.2,288,917.1,287.5,917.4,286.9z"/>
			<path fill="#565656" d="M924.4,287.4v-4.4h-1.1V282h1.1v-1.8h1.1v1.8h1.4v0.9h-1.4v4.2c0,0.5,0.2,0.9,0.7,0.9
				c0.3,0,0.6-0.1,0.7-0.3l0.3,0.8c-0.3,0.3-0.6,0.4-1.3,0.4C924.9,288.9,924.4,288.4,924.4,287.4z"/>
			<path fill="#565656" d="M927.9,285.4c0-2,1.3-3.5,3.3-3.5c2.1,0,3.3,1.6,3.3,3.5s-1.3,3.6-3.3,3.6
				C929.2,288.9,927.9,287.3,927.9,285.4z M933.5,285.4c0-1.4-0.8-2.6-2.2-2.6c-1.4,0-2.3,1.2-2.3,2.6c0,1.4,0.8,2.6,2.3,2.6
				C932.7,288,933.5,286.8,933.5,285.4z"/>
			<path fill="#565656" d="M939.9,288.8v-9.3h1.1v3.6c0.5-0.7,1.4-1.2,2.3-1.2c1.8,0,3,1.4,3,3.6c0,2.2-1.2,3.5-3,3.5
				c-1,0-1.8-0.5-2.3-1.2v1H939.9z M943,288c1.4,0,2.2-1.1,2.2-2.6s-0.8-2.6-2.2-2.6c-0.8,0-1.7,0.5-2,1.1v3.1
				C941.3,287.5,942.2,288,943,288z"/>
			<path fill="#565656" d="M947.6,285.4c0-2,1.4-3.5,3.3-3.5c2,0,3.2,1.6,3.2,3.6v0.3h-5.5c0.1,1.3,1,2.3,2.4,2.3
				c0.8,0,1.6-0.3,2.1-0.9l0.5,0.7c-0.7,0.7-1.6,1-2.7,1C949,288.9,947.6,287.5,947.6,285.4z M950.9,282.7c-1.4,0-2.2,1.2-2.2,2.3
				h4.4C953.1,283.9,952.4,282.7,950.9,282.7z"/>
			<path fill="#565656" d="M959.3,280.3c0-0.4,0.3-0.7,0.7-0.7c0.4,0,0.7,0.3,0.7,0.7s-0.3,0.7-0.7,0.7
				C959.6,281,959.3,280.7,959.3,280.3z M959.5,288.8V282h1.1v6.8H959.5z"/>
			<path fill="#565656" d="M967.2,288.8v-4.4c0-1.2-0.6-1.6-1.5-1.6c-0.8,0-1.6,0.5-2,1.1v4.9h-1.1V282h1.1v1
				c0.5-0.6,1.4-1.1,2.4-1.1c1.4,0,2.2,0.7,2.2,2.2v4.7H967.2z"/>
			<path fill="#565656" d="M973.9,288.8v-9.3h1.1v3.6c0.5-0.7,1.4-1.2,2.3-1.2c1.8,0,3,1.4,3,3.6c0,2.2-1.2,3.5-3,3.5
				c-1,0-1.8-0.5-2.3-1.2v1H973.9z M977,288c1.4,0,2.2-1.1,2.2-2.6s-0.8-2.6-2.2-2.6c-0.8,0-1.7,0.5-2,1.1v3.1
				C975.4,287.5,976.2,288,977,288z"/>
			<path fill="#565656" d="M981.6,285.4c0-2,1.3-3.5,3.3-3.5c2.1,0,3.3,1.6,3.3,3.5s-1.3,3.6-3.3,3.6
				C982.9,288.9,981.6,287.3,981.6,285.4z M987.2,285.4c0-1.4-0.8-2.6-2.2-2.6c-1.4,0-2.3,1.2-2.3,2.6c0,1.4,0.8,2.6,2.3,2.6
				C986.4,288,987.2,286.8,987.2,285.4z"/>
			<path fill="#565656" d="M990.2,287.4v-4.4h-1.1V282h1.1v-1.8h1.1v1.8h1.4v0.9h-1.4v4.2c0,0.5,0.2,0.9,0.7,0.9
				c0.3,0,0.6-0.1,0.7-0.3l0.3,0.8c-0.3,0.3-0.6,0.4-1.3,0.4C990.7,288.9,990.2,288.4,990.2,287.4z"/>
			<path fill="#565656" d="M998.7,288.8v-4.5c0-1.2-0.6-1.5-1.5-1.5c-0.8,0-1.6,0.5-2,1.1v4.9h-1.1v-9.3h1.1v3.6
				c0.5-0.6,1.4-1.1,2.4-1.1c1.4,0,2.2,0.7,2.2,2.2v4.8H998.7z"/>
			<path fill="#565656" d="M1006.5,287.7v3.6h-1.1V282h1.1v1c0.5-0.7,1.3-1.2,2.3-1.2c1.8,0,3,1.3,3,3.5c0,2.2-1.2,3.6-3,3.6
				C1007.9,288.9,1007.1,288.5,1006.5,287.7z M1010.7,285.4c0-1.5-0.8-2.6-2.2-2.6c-0.8,0-1.7,0.5-2,1.1v3.1c0.4,0.6,1.2,1.1,2,1.1
				C1009.9,288,1010.7,286.9,1010.7,285.4z"/>
			<path fill="#565656" d="M1013.5,288.8v-9.3h1.1v9.3H1013.5z"/>
			<path fill="#565656" d="M1020.8,288.8V288c-0.6,0.6-1.3,0.9-2.2,0.9c-1.1,0-2.4-0.8-2.4-2.2c0-1.5,1.2-2.2,2.4-2.2
				c0.9,0,1.7,0.3,2.2,0.9v-1.2c0-0.9-0.7-1.4-1.7-1.4c-0.8,0-1.5,0.3-2.1,0.9l-0.5-0.7c0.7-0.8,1.6-1.1,2.7-1.1
				c1.4,0,2.6,0.6,2.6,2.3v4.7H1020.8z M1020.8,287.3v-1.3c-0.4-0.6-1.1-0.8-1.9-0.8c-1,0-1.7,0.6-1.7,1.5c0,0.9,0.7,1.5,1.7,1.5
				C1019.7,288.2,1020.4,287.9,1020.8,287.3z"/>
			<path fill="#565656" d="M1023.6,285.4c0-2,1.4-3.5,3.4-3.5c1.2,0,2,0.5,2.5,1.2l-0.7,0.6c-0.4-0.6-1-0.9-1.7-0.9
				c-1.4,0-2.3,1.1-2.3,2.6s0.9,2.6,2.3,2.6c0.7,0,1.3-0.3,1.7-0.9l0.7,0.6c-0.5,0.7-1.2,1.2-2.5,1.2
				C1025,288.9,1023.6,287.4,1023.6,285.4z"/>
			<path fill="#565656" d="M1030.5,285.4c0-2,1.4-3.5,3.3-3.5c2,0,3.2,1.6,3.2,3.6v0.3h-5.5c0.1,1.3,1,2.3,2.4,2.3
				c0.8,0,1.6-0.3,2.1-0.9l0.5,0.7c-0.7,0.7-1.6,1-2.7,1C1032,288.9,1030.5,287.5,1030.5,285.4z M1033.9,282.7
				c-1.4,0-2.2,1.2-2.2,2.3h4.4C1036.1,283.9,1035.4,282.7,1033.9,282.7z"/>
			<path fill="#565656" d="M1038.2,287.9l0.5-0.8c0.4,0.5,1.3,1,2.2,1c1,0,1.6-0.5,1.6-1.2c0-1.6-4.2-0.6-4.2-3.1
				c0-1.1,0.9-1.9,2.5-1.9c1.1,0,2,0.4,2.5,1l-0.5,0.7c-0.4-0.5-1.1-0.9-2-0.9c-0.9,0-1.5,0.5-1.5,1.1c0,1.5,4.2,0.5,4.2,3.1
				c0,1.1-0.9,2-2.7,2C1039.8,288.9,1038.9,288.6,1038.2,287.9z"/>
		</g>
	</g>
	<g>
		<g>
			<path fill="#565656" d="M1171.4,288.8v-0.9c3.4-2.6,5.2-4.2,5.2-5.8c0-1.2-1-1.7-1.9-1.7c-1.1,0-2,0.5-2.5,1.2l-0.7-0.7
				c0.7-0.9,1.9-1.5,3.2-1.5c1.6,0,3.1,0.9,3.1,2.7c0,1.9-1.9,3.6-4.5,5.7h4.6v1H1171.4z"/>
			<path fill="#565656" d="M1181.4,288.8V281l-1.5,1.6l-0.7-0.7l2.3-2.4h1v9.3H1181.4z"/>
			<path fill="#565656" d="M1184.5,282.7c0-0.4,0.3-0.8,0.8-0.8c0.4,0,0.8,0.3,0.8,0.8c0,0.4-0.3,0.8-0.8,0.8
				C1184.8,283.4,1184.5,283.1,1184.5,282.7z M1184.5,288.1c0-0.4,0.3-0.8,0.8-0.8c0.4,0,0.8,0.3,0.8,0.8c0,0.4-0.3,0.8-0.8,0.8
				C1184.8,288.9,1184.5,288.6,1184.5,288.1z"/>
			<path fill="#565656" d="M1187.3,287.4l0.7-0.7c0.5,0.7,1.5,1.2,2.6,1.2c1.4,0,2.2-0.7,2.2-1.8c0-1.2-1-1.7-2.3-1.7
				c-0.4,0-0.8,0-1,0v-1.1c0.2,0,0.6,0,1,0c1.2,0,2.2-0.5,2.2-1.5c0-1-1-1.6-2.1-1.6c-1,0-1.8,0.4-2.5,1.1l-0.6-0.7
				c0.7-0.8,1.8-1.4,3.2-1.4c1.8,0,3.2,0.9,3.2,2.5c0,1.3-1.1,2-2,2.2c0.9,0.1,2.2,0.8,2.2,2.3c0,1.6-1.2,2.7-3.3,2.7
				C1189,288.9,1187.8,288.2,1187.3,287.4z"/>
			<path fill="#565656" d="M1195.8,287.8l0.6-0.9c0.5,0.6,1,1,2,1c1.9,0,2.6-1.9,2.6-3.7c0-0.1,0-0.3,0-0.4
				c-0.4,0.6-1.4,1.5-2.6,1.5c-1.7,0-3.1-1-3.1-3c0-1.6,1.2-3.1,3.3-3.1c2.6,0,3.6,2.3,3.6,4.8c0,2.5-1.2,4.8-3.8,4.8
				C1197.2,288.9,1196.4,288.5,1195.8,287.8z M1201,282.9c-0.1-1.2-0.7-2.6-2.3-2.6c-1.4,0-2.1,1.1-2.1,2c0,1.4,1,2,2.2,2
				C1199.6,284.3,1200.5,283.7,1201,282.9z"/>
		</g>
	</g>
	<line fill="none" stroke="#DEDEDD" stroke-width="0.875" stroke-miterlimit="10" x1="306.3" y1="262.2" x2="1400" y2="262.2"/>
	<path fill="#DEDEDD" d="M1377.7,251.3H1334c-6,0-10.9-4.9-10.9-10.9v0c0-6,4.9-10.9,10.9-10.9h43.8c6,0,10.9,4.9,10.9,10.9v0
		C1388.7,246.4,1383.7,251.3,1377.7,251.3z"/>
	<g>
		<path fill="#565656" d="M352.5,245v-7.8l-1.5,1.6l-0.7-0.7l2.3-2.4h1v9.3H352.5z"/>
		<path fill="#565656" d="M355.5,240.4c0-2.3,1-4.8,3.6-4.8c2.5,0,3.6,2.5,3.6,4.8c0,2.3-1,4.8-3.6,4.8
			C356.5,245.2,355.5,242.6,355.5,240.4z M361.4,240.4c0-1.9-0.6-3.8-2.4-3.8c-1.8,0-2.4,1.9-2.4,3.8c0,1.9,0.6,3.8,2.4,3.8
			C360.8,244.1,361.4,242.2,361.4,240.4z"/>
		<path fill="#565656" d="M364.1,240.4c0-2.3,1-4.8,3.6-4.8c2.5,0,3.6,2.5,3.6,4.8c0,2.3-1,4.8-3.6,4.8
			C365.1,245.2,364.1,242.6,364.1,240.4z M370,240.4c0-1.9-0.6-3.8-2.4-3.8c-1.8,0-2.4,1.9-2.4,3.8c0,1.9,0.6,3.8,2.4,3.8
			C369.4,244.1,370,242.2,370,240.4z"/>
		<path fill="#565656" d="M372.7,245v-0.9c3.4-2.6,5.2-4.2,5.2-5.8c0-1.2-1-1.7-1.9-1.7c-1.1,0-2,0.5-2.5,1.2l-0.7-0.7
			c0.7-0.9,1.9-1.5,3.2-1.5c1.6,0,3.1,0.9,3.1,2.7c0,1.9-1.9,3.6-4.5,5.7h4.6v1H372.7z"/>
		<path fill="#565656" d="M380.9,245v-0.9c3.4-2.6,5.2-4.2,5.2-5.8c0-1.2-1-1.7-1.9-1.7c-1.1,0-2,0.5-2.5,1.2l-0.7-0.7
			c0.7-0.9,1.9-1.5,3.2-1.5c1.6,0,3.1,0.9,3.1,2.7c0,1.9-1.9,3.6-4.5,5.7h4.6v1H380.9z"/>
		<path fill="#565656" d="M393.3,245v-2.4h-4.4v-1l4-6h1.6v6h1.3v1h-1.3v2.4H393.3z M393.3,236.8l-3.3,4.9h3.3V236.8z"/>
	</g>
	<g>
		<g>
			<path fill="#565656" d="M558.6,245v-9.3h1.2v9.3H558.6z"/>
			<path fill="#565656" d="M566.2,245v-0.8c-0.6,0.6-1.3,0.9-2.2,0.9c-1.1,0-2.4-0.8-2.4-2.2c0-1.5,1.2-2.2,2.4-2.2
				c0.9,0,1.7,0.3,2.2,0.9v-1.2c0-0.9-0.7-1.4-1.7-1.4c-0.8,0-1.5,0.3-2.1,0.9l-0.5-0.7c0.7-0.8,1.6-1.1,2.7-1.1
				c1.4,0,2.6,0.6,2.6,2.3v4.7H566.2z M566.2,243.6v-1.3c-0.4-0.6-1.1-0.8-1.9-0.8c-1,0-1.7,0.6-1.7,1.5c0,0.9,0.7,1.5,1.7,1.5
				C565,244.4,565.7,244.1,566.2,243.6z"/>
			<path fill="#565656" d="M573.9,245v-4.4c0-1.2-0.6-1.6-1.5-1.6c-0.8,0-1.6,0.5-2,1.1v4.9h-1.1v-6.8h1.1v1
				c0.5-0.6,1.4-1.1,2.4-1.1c1.4,0,2.2,0.7,2.2,2.2v4.7H573.9z"/>
			<path fill="#565656" d="M580.7,245v-9.3h3.2c2.9,0,4.8,2,4.8,4.7c0,2.7-1.9,4.7-4.8,4.7H580.7z M587.4,240.4c0-2-1.3-3.6-3.6-3.6
				h-2v7.3h2C586.1,244,587.4,242.4,587.4,240.4z"/>
			<path fill="#565656" d="M595,245v-1c-0.5,0.6-1.4,1.1-2.4,1.1c-1.4,0-2.2-0.7-2.2-2.2v-4.8h1.1v4.5c0,1.2,0.6,1.5,1.5,1.5
				c0.8,0,1.6-0.5,2-1v-5h1.1v6.8H595z"/>
			<path fill="#565656" d="M602.7,245v-4.4c0-1.2-0.6-1.6-1.5-1.6c-0.8,0-1.6,0.5-2,1.1v4.9h-1.1v-6.8h1.1v1
				c0.5-0.6,1.4-1.1,2.4-1.1c1.4,0,2.2,0.7,2.2,2.2v4.7H602.7z"/>
			<path fill="#565656" d="M605.5,241.6c0-2,1.4-3.5,3.4-3.5c1.2,0,2,0.5,2.5,1.2l-0.7,0.6c-0.4-0.6-1-0.9-1.7-0.9
				c-1.4,0-2.3,1.1-2.3,2.6s0.9,2.6,2.3,2.6c0.7,0,1.3-0.3,1.7-0.9l0.7,0.6c-0.5,0.7-1.2,1.2-2.5,1.2
				C606.8,245.2,605.5,243.6,605.5,241.6z"/>
			<path fill="#565656" d="M617,245v-0.8c-0.6,0.6-1.3,0.9-2.2,0.9c-1.1,0-2.4-0.8-2.4-2.2c0-1.5,1.2-2.2,2.4-2.2
				c0.9,0,1.7,0.3,2.2,0.9v-1.2c0-0.9-0.7-1.4-1.7-1.4c-0.8,0-1.5,0.3-2.1,0.9l-0.5-0.7c0.7-0.8,1.6-1.1,2.7-1.1
				c1.4,0,2.6,0.6,2.6,2.3v4.7H617z M617,243.6v-1.3c-0.4-0.6-1.1-0.8-1.9-0.8c-1,0-1.7,0.6-1.7,1.5c0,0.9,0.7,1.5,1.7,1.5
				C615.9,244.4,616.6,244.1,617,243.6z"/>
			<path fill="#565656" d="M624.7,245v-4.4c0-1.2-0.6-1.6-1.5-1.6c-0.8,0-1.6,0.5-2,1.1v4.9h-1.1v-6.8h1.1v1
				c0.5-0.6,1.4-1.1,2.4-1.1c1.4,0,2.2,0.7,2.2,2.2v4.7H624.7z"/>
		</g>
	</g>
	<g>
		<g>
			<path fill="#565656" d="M793.4,245v-7.7l-3.2,7.7h-0.5l-3.2-7.7v7.7h-1.2v-9.3h1.7l2.9,7l2.9-7h1.7v9.3H793.4z"/>
			<path fill="#565656" d="M796.3,241.6c0-2,1.3-3.5,3.3-3.5c2.1,0,3.3,1.6,3.3,3.5s-1.3,3.6-3.3,3.6
				C797.6,245.2,796.3,243.6,796.3,241.6z M801.9,241.6c0-1.4-0.8-2.6-2.2-2.6c-1.4,0-2.3,1.2-2.3,2.6c0,1.4,0.8,2.6,2.3,2.6
				C801.1,244.2,801.9,243,801.9,241.6z"/>
			<path fill="#565656" d="M806.5,245l-2.8-6.8h1.1l2.3,5.5l2.2-5.5h1.1l-2.8,6.8H806.5z"/>
			<path fill="#565656" d="M811.1,241.6c0-2,1.4-3.5,3.3-3.5c2,0,3.2,1.6,3.2,3.6v0.3h-5.5c0.1,1.3,1,2.3,2.4,2.3
				c0.8,0,1.6-0.3,2.1-0.9l0.5,0.7c-0.7,0.7-1.6,1-2.7,1C812.6,245.2,811.1,243.7,811.1,241.6z M814.4,239c-1.4,0-2.2,1.2-2.2,2.3
				h4.4C816.7,240.2,816,239,814.4,239z"/>
			<path fill="#565656" d="M829.7,245l-0.8-2.1h-4.7l-0.8,2.1h-1.3l3.8-9.3h1.4l3.8,9.3H829.7z M826.6,236.9l-2,5h4L826.6,236.9z"/>
			<path fill="#565656" d="M838.8,245l-2.1-7.5l-2.1,7.5h-1.3l-2.7-9.3h1.3l2.1,7.8l2.1-7.8h1l2.1,7.8l2.1-7.8h1.3L840,245H838.8z"
				/>
			<path fill="#565656" d="M843.4,243.7l0.7-0.9c0.6,0.7,1.6,1.3,2.9,1.3c1.7,0,2.2-0.9,2.2-1.6c0-2.4-5.5-1.1-5.5-4.4
				c0-1.5,1.4-2.6,3.2-2.6c1.4,0,2.5,0.5,3.3,1.3l-0.7,0.9c-0.7-0.8-1.7-1.1-2.7-1.1c-1.1,0-1.9,0.6-1.9,1.5c0,2.1,5.5,0.9,5.5,4.4
				c0,1.4-0.9,2.7-3.4,2.7C845.4,245.2,844.2,244.6,843.4,243.7z"/>
			<path fill="#565656" d="M855.4,241.6c0-2,1.4-3.5,3.4-3.5c1.2,0,2,0.5,2.5,1.2l-0.7,0.6c-0.4-0.6-1-0.9-1.7-0.9
				c-1.4,0-2.3,1.1-2.3,2.6s0.9,2.6,2.3,2.6c0.7,0,1.3-0.3,1.7-0.9l0.7,0.6c-0.5,0.7-1.2,1.2-2.5,1.2
				C856.7,245.2,855.4,243.6,855.4,241.6z"/>
			<path fill="#565656" d="M862.7,245v-6.8h1.1v1.1c0.5-0.7,1.3-1.2,2.3-1.2v1.1c-0.1,0-0.3,0-0.4,0c-0.6,0-1.5,0.5-1.8,1.1v4.8
				H862.7z"/>
			<path fill="#565656" d="M866.9,241.6c0-2,1.4-3.5,3.3-3.5c2,0,3.2,1.6,3.2,3.6v0.3H868c0.1,1.3,1,2.3,2.4,2.3
				c0.8,0,1.6-0.3,2.1-0.9l0.5,0.7c-0.7,0.7-1.6,1-2.7,1C868.3,245.2,866.9,243.7,866.9,241.6z M870.2,239c-1.4,0-2.2,1.2-2.2,2.3
				h4.4C872.4,240.2,871.8,239,870.2,239z"/>
			<path fill="#565656" d="M880.1,245v-1c-0.5,0.7-1.3,1.2-2.3,1.2c-1.8,0-3-1.3-3-3.5c0-2.2,1.2-3.6,3-3.6c0.9,0,1.7,0.4,2.3,1.2
				v-3.6h1.1v9.3H880.1z M880.1,243.2v-3.1c-0.4-0.6-1.2-1.1-2-1.1c-1.4,0-2.2,1.1-2.2,2.6s0.8,2.6,2.2,2.6
				C878.9,244.2,879.7,243.8,880.1,243.2z"/>
			<path fill="#565656" d="M882.8,241.6c0-2,1.4-3.5,3.3-3.5c2,0,3.2,1.6,3.2,3.6v0.3h-5.5c0.1,1.3,1,2.3,2.4,2.3
				c0.8,0,1.6-0.3,2.1-0.9l0.5,0.7c-0.7,0.7-1.6,1-2.7,1C884.3,245.2,882.8,243.7,882.8,241.6z M886.2,239c-1.4,0-2.2,1.2-2.2,2.3
				h4.4C888.4,240.2,887.7,239,886.2,239z"/>
			<path fill="#565656" d="M895.7,245v-4.4c0-1.2-0.6-1.6-1.5-1.6c-0.8,0-1.6,0.5-2,1.1v4.9h-1.1v-6.8h1.1v1
				c0.5-0.6,1.4-1.1,2.4-1.1c1.4,0,2.2,0.7,2.2,2.2v4.7H895.7z"/>
			<path fill="#565656" d="M899,243.6v-4.4h-1.1v-0.9h1.1v-1.8h1.1v1.8h1.4v0.9h-1.4v4.2c0,0.5,0.2,0.9,0.7,0.9
				c0.3,0,0.6-0.1,0.7-0.3l0.3,0.8c-0.3,0.3-0.6,0.4-1.3,0.4C899.5,245.2,899,244.6,899,243.6z"/>
			<path fill="#565656" d="M902.8,236.6c0-0.4,0.3-0.7,0.7-0.7c0.4,0,0.7,0.3,0.7,0.7s-0.3,0.7-0.7,0.7
				C903.1,237.3,902.8,237,902.8,236.6z M902.9,245v-6.8h1.1v6.8H902.9z"/>
			<path fill="#565656" d="M910.3,245v-0.8c-0.6,0.6-1.3,0.9-2.2,0.9c-1.1,0-2.4-0.8-2.4-2.2c0-1.5,1.2-2.2,2.4-2.2
				c0.9,0,1.7,0.3,2.2,0.9v-1.2c0-0.9-0.7-1.4-1.7-1.4c-0.8,0-1.5,0.3-2.1,0.9l-0.5-0.7c0.7-0.8,1.6-1.1,2.7-1.1
				c1.4,0,2.6,0.6,2.6,2.3v4.7H910.3z M910.3,243.6v-1.3c-0.4-0.6-1.1-0.8-1.9-0.8c-1,0-1.7,0.6-1.7,1.5c0,0.9,0.7,1.5,1.7,1.5
				C909.2,244.4,909.9,244.1,910.3,243.6z"/>
			<path fill="#565656" d="M913.5,245v-9.3h1.1v9.3H913.5z"/>
			<path fill="#565656" d="M916,244.1l0.5-0.8c0.4,0.5,1.3,1,2.2,1c1,0,1.6-0.5,1.6-1.2c0-1.6-4.2-0.6-4.2-3.1
				c0-1.1,0.9-1.9,2.5-1.9c1.1,0,2,0.4,2.5,1l-0.5,0.7c-0.4-0.5-1.1-0.9-2-0.9c-0.9,0-1.5,0.5-1.5,1.1c0,1.5,4.2,0.5,4.2,3.1
				c0,1.1-0.9,2-2.7,2C917.7,245.2,916.7,244.8,916,244.1z"/>
			<path fill="#565656" d="M931,245v-0.8c-0.6,0.6-1.3,0.9-2.2,0.9c-1.1,0-2.4-0.8-2.4-2.2c0-1.5,1.2-2.2,2.4-2.2
				c0.9,0,1.7,0.3,2.2,0.9v-1.2c0-0.9-0.7-1.4-1.7-1.4c-0.8,0-1.5,0.3-2.1,0.9l-0.5-0.7c0.7-0.8,1.6-1.1,2.7-1.1
				c1.4,0,2.6,0.6,2.6,2.3v4.7H931z M931,243.6v-1.3c-0.4-0.6-1.1-0.8-1.9-0.8c-1,0-1.7,0.6-1.7,1.5c0,0.9,0.7,1.5,1.7,1.5
				C929.8,244.4,930.6,244.1,931,243.6z"/>
			<path fill="#565656" d="M933.7,241.6c0-2,1.4-3.5,3.4-3.5c1.2,0,2,0.5,2.5,1.2l-0.7,0.6c-0.4-0.6-1-0.9-1.7-0.9
				c-1.4,0-2.3,1.1-2.3,2.6s0.9,2.6,2.3,2.6c0.7,0,1.3-0.3,1.7-0.9l0.7,0.6c-0.5,0.7-1.2,1.2-2.5,1.2
				C935.1,245.2,933.7,243.6,933.7,241.6z"/>
			<path fill="#565656" d="M941.3,243.6v-4.4h-1.1v-0.9h1.1v-1.8h1.1v1.8h1.4v0.9h-1.4v4.2c0,0.5,0.2,0.9,0.7,0.9
				c0.3,0,0.6-0.1,0.7-0.3l0.3,0.8c-0.3,0.3-0.6,0.4-1.3,0.4C941.8,245.2,941.3,244.6,941.3,243.6z"/>
			<path fill="#565656" d="M945,236.6c0-0.4,0.3-0.7,0.7-0.7c0.4,0,0.7,0.3,0.7,0.7s-0.3,0.7-0.7,0.7C945.3,237.3,945,237,945,236.6
				z M945.2,245v-6.8h1.1v6.8H945.2z"/>
			<path fill="#565656" d="M947.9,241.6c0-2,1.3-3.5,3.3-3.5c2.1,0,3.3,1.6,3.3,3.5s-1.3,3.6-3.3,3.6
				C949.2,245.2,947.9,243.6,947.9,241.6z M953.5,241.6c0-1.4-0.8-2.6-2.2-2.6c-1.4,0-2.3,1.2-2.3,2.6c0,1.4,0.8,2.6,2.3,2.6
				C952.7,244.2,953.5,243,953.5,241.6z"/>
			<path fill="#565656" d="M960.9,245v-4.4c0-1.2-0.6-1.6-1.5-1.6c-0.8,0-1.6,0.5-2,1.1v4.9h-1.1v-6.8h1.1v1
				c0.5-0.6,1.4-1.1,2.4-1.1c1.4,0,2.2,0.7,2.2,2.2v4.7H960.9z"/>
			<path fill="#565656" d="M967.9,243.6v-4.4h-1.1v-0.9h1.1v-1.8h1.1v1.8h1.4v0.9h-1.4v4.2c0,0.5,0.2,0.9,0.7,0.9
				c0.3,0,0.6-0.1,0.7-0.3l0.3,0.8c-0.3,0.3-0.6,0.4-1.3,0.4C968.4,245.2,967.9,244.6,967.9,243.6z"/>
			<path fill="#565656" d="M971.4,241.6c0-2,1.3-3.5,3.3-3.5c2.1,0,3.3,1.6,3.3,3.5s-1.3,3.6-3.3,3.6
				C972.7,245.2,971.4,243.6,971.4,241.6z M977,241.6c0-1.4-0.8-2.6-2.2-2.6c-1.4,0-2.3,1.2-2.3,2.6c0,1.4,0.8,2.6,2.3,2.6
				C976.2,244.2,977,243,977,241.6z"/>
			<path fill="#565656" d="M987.9,245v-4.4c0-1.2-0.6-1.6-1.5-1.6c-0.8,0-1.6,0.5-2,1.1v4.9h-1.1v-6.8h1.1v1
				c0.5-0.6,1.4-1.1,2.4-1.1c1.4,0,2.2,0.7,2.2,2.2v4.7H987.9z"/>
			<path fill="#565656" d="M990.7,241.6c0-2,1.3-3.5,3.3-3.5c2.1,0,3.3,1.6,3.3,3.5s-1.3,3.6-3.3,3.6
				C992,245.2,990.7,243.6,990.7,241.6z M996.3,241.6c0-1.4-0.8-2.6-2.2-2.6c-1.4,0-2.3,1.2-2.3,2.6c0,1.4,0.8,2.6,2.3,2.6
				C995.5,244.2,996.3,243,996.3,241.6z"/>
			<path fill="#565656" d="M1004,245v-1c-0.5,0.7-1.3,1.2-2.3,1.2c-1.8,0-3-1.3-3-3.5c0-2.2,1.2-3.6,3-3.6c0.9,0,1.7,0.4,2.3,1.2
				v-3.6h1.1v9.3H1004z M1004,243.2v-3.1c-0.4-0.6-1.2-1.1-2-1.1c-1.4,0-2.2,1.1-2.2,2.6s0.8,2.6,2.2,2.6
				C1002.8,244.2,1003.6,243.8,1004,243.2z"/>
			<path fill="#565656" d="M1006.8,241.6c0-2,1.4-3.5,3.3-3.5c2,0,3.2,1.6,3.2,3.6v0.3h-5.5c0.1,1.3,1,2.3,2.4,2.3
				c0.8,0,1.6-0.3,2.1-0.9l0.5,0.7c-0.7,0.7-1.6,1-2.7,1C1008.2,245.2,1006.8,243.7,1006.8,241.6z M1010.1,239
				c-1.4,0-2.2,1.2-2.2,2.3h4.4C1012.3,240.2,1011.6,239,1010.1,239z"/>
			<path fill="#565656" d="M1018.9,243.6v-4.4h-1.1v-0.9h1.1v-1.8h1.1v1.8h1.4v0.9h-1.4v4.2c0,0.5,0.2,0.9,0.7,0.9
				c0.3,0,0.6-0.1,0.7-0.3l0.3,0.8c-0.3,0.3-0.6,0.4-1.3,0.4C1019.4,245.2,1018.9,244.6,1018.9,243.6z"/>
			<path fill="#565656" d="M1022.4,241.6c0-2,1.4-3.5,3.3-3.5c2,0,3.2,1.6,3.2,3.6v0.3h-5.5c0.1,1.3,1,2.3,2.4,2.3
				c0.8,0,1.6-0.3,2.1-0.9l0.5,0.7c-0.7,0.7-1.6,1-2.7,1C1023.8,245.2,1022.4,243.7,1022.4,241.6z M1025.7,239
				c-1.4,0-2.2,1.2-2.2,2.3h4.4C1027.9,240.2,1027.2,239,1025.7,239z"/>
			<path fill="#565656" d="M1038.8,245v-4.6c0-0.9-0.4-1.4-1.2-1.4c-0.7,0-1.4,0.5-1.8,1v5h-1.1v-4.6c0-0.9-0.4-1.4-1.2-1.4
				c-0.7,0-1.4,0.5-1.8,1.1v4.9h-1.1v-6.8h1.1v1c0.3-0.4,1.2-1.1,2.2-1.1c1,0,1.6,0.6,1.8,1.3c0.4-0.6,1.3-1.3,2.3-1.3
				c1.2,0,1.9,0.7,1.9,2v4.9H1038.8z"/>
			<path fill="#565656" d="M1043,244v3.6h-1.1v-9.3h1.1v1c0.5-0.7,1.3-1.2,2.3-1.2c1.8,0,3,1.3,3,3.5c0,2.2-1.2,3.6-3,3.6
				C1044.4,245.2,1043.6,244.8,1043,244z M1047.2,241.6c0-1.5-0.8-2.6-2.2-2.6c-0.8,0-1.7,0.5-2,1.1v3.1c0.4,0.6,1.2,1.1,2,1.1
				C1046.4,244.2,1047.2,243.1,1047.2,241.6z"/>
			<path fill="#565656" d="M1050,245v-9.3h1.1v9.3H1050z"/>
			<path fill="#565656" d="M1057.3,245v-0.8c-0.6,0.6-1.3,0.9-2.2,0.9c-1.1,0-2.4-0.8-2.4-2.2c0-1.5,1.2-2.2,2.4-2.2
				c0.9,0,1.7,0.3,2.2,0.9v-1.2c0-0.9-0.7-1.4-1.7-1.4c-0.8,0-1.5,0.3-2.1,0.9l-0.5-0.7c0.7-0.8,1.6-1.1,2.7-1.1
				c1.4,0,2.6,0.6,2.6,2.3v4.7H1057.3z M1057.3,243.6v-1.3c-0.4-0.6-1.1-0.8-1.9-0.8c-1,0-1.7,0.6-1.7,1.5c0,0.9,0.7,1.5,1.7,1.5
				C1056.2,244.4,1056.9,244.1,1057.3,243.6z"/>
			<path fill="#565656" d="M1060.7,243.6v-4.4h-1.1v-0.9h1.1v-1.8h1.1v1.8h1.4v0.9h-1.4v4.2c0,0.5,0.2,0.9,0.7,0.9
				c0.3,0,0.6-0.1,0.7-0.3l0.3,0.8c-0.3,0.3-0.6,0.4-1.3,0.4C1061.2,245.2,1060.7,244.6,1060.7,243.6z"/>
			<path fill="#565656" d="M1064.2,241.6c0-2,1.4-3.5,3.3-3.5c2,0,3.2,1.6,3.2,3.6v0.3h-5.5c0.1,1.3,1,2.3,2.4,2.3
				c0.8,0,1.6-0.3,2.1-0.9l0.5,0.7c-0.7,0.7-1.6,1-2.7,1C1065.7,245.2,1064.2,243.7,1064.2,241.6z M1067.5,239
				c-1.4,0-2.2,1.2-2.2,2.3h4.4C1069.8,240.2,1069.1,239,1067.5,239z"/>
		</g>
	</g>
	<g>
		<g>
			<path fill="#565656" d="M1171.4,245v-0.9c3.4-2.6,5.2-4.2,5.2-5.8c0-1.2-1-1.7-1.9-1.7c-1.1,0-2,0.5-2.5,1.2l-0.7-0.7
				c0.7-0.9,1.9-1.5,3.2-1.5c1.6,0,3.1,0.9,3.1,2.7c0,1.9-1.9,3.6-4.5,5.7h4.6v1H1171.4z"/>
			<path fill="#565656" d="M1181.4,245v-7.8l-1.5,1.6l-0.7-0.7l2.3-2.4h1v9.3H1181.4z"/>
			<path fill="#565656" d="M1184.5,238.9c0-0.4,0.3-0.8,0.8-0.8c0.4,0,0.8,0.3,0.8,0.8c0,0.4-0.3,0.8-0.8,0.8
				C1184.8,239.7,1184.5,239.3,1184.5,238.9z M1184.5,244.4c0-0.4,0.3-0.8,0.8-0.8c0.4,0,0.8,0.3,0.8,0.8c0,0.4-0.3,0.8-0.8,0.8
				C1184.8,245.2,1184.5,244.8,1184.5,244.4z"/>
			<path fill="#565656" d="M1187.3,243.6l0.7-0.7c0.5,0.7,1.5,1.2,2.6,1.2c1.4,0,2.2-0.7,2.2-1.8c0-1.2-1-1.7-2.3-1.7
				c-0.4,0-0.8,0-1,0v-1.1c0.2,0,0.6,0,1,0c1.2,0,2.2-0.5,2.2-1.5c0-1-1-1.6-2.1-1.6c-1,0-1.8,0.4-2.5,1.1l-0.6-0.7
				c0.7-0.8,1.8-1.4,3.2-1.4c1.8,0,3.2,0.9,3.2,2.5c0,1.3-1.1,2-2,2.2c0.9,0.1,2.2,0.8,2.2,2.3c0,1.6-1.2,2.7-3.3,2.7
				C1189,245.2,1187.8,244.5,1187.3,243.6z"/>
			<path fill="#565656" d="M1195.4,245v-0.9c3.4-2.6,5.2-4.2,5.2-5.8c0-1.2-1-1.7-1.9-1.7c-1.1,0-2,0.5-2.5,1.2l-0.7-0.7
				c0.7-0.9,1.9-1.5,3.2-1.5c1.6,0,3.1,0.9,3.1,2.7c0,1.9-1.9,3.6-4.5,5.7h4.6v1H1195.4z"/>
		</g>
	</g>
	<line fill="none" stroke="#DEDEDD" stroke-width="0.875" stroke-miterlimit="10" x1="306.3" y1="218.5" x2="1400" y2="218.5"/>
	<path fill="#DEDEDD" d="M1377.7,207.6H1334c-6,0-10.9-4.9-10.9-10.9v0c0-6,4.9-10.9,10.9-10.9h43.8c6,0,10.9,4.9,10.9,10.9v0
		C1388.7,202.6,1383.7,207.6,1377.7,207.6z"/>
	<g>
		<path fill="#565656" d="M352.5,201.3v-7.8L351,195l-0.7-0.7l2.3-2.4h1v9.3H352.5z"/>
		<path fill="#565656" d="M355.5,196.6c0-2.3,1-4.8,3.6-4.8c2.5,0,3.6,2.5,3.6,4.8c0,2.3-1,4.8-3.6,4.8
			C356.5,201.4,355.5,198.9,355.5,196.6z M361.4,196.6c0-1.9-0.6-3.8-2.4-3.8c-1.8,0-2.4,1.9-2.4,3.8c0,1.9,0.6,3.8,2.4,3.8
			C360.8,200.4,361.4,198.5,361.4,196.6z"/>
		<path fill="#565656" d="M364.1,196.6c0-2.3,1-4.8,3.6-4.8c2.5,0,3.6,2.5,3.6,4.8c0,2.3-1,4.8-3.6,4.8
			C365.1,201.4,364.1,198.9,364.1,196.6z M370,196.6c0-1.9-0.6-3.8-2.4-3.8c-1.8,0-2.4,1.9-2.4,3.8c0,1.9,0.6,3.8,2.4,3.8
			C369.4,200.4,370,198.5,370,196.6z"/>
		<path fill="#565656" d="M372.7,201.3v-0.9c3.4-2.6,5.2-4.2,5.2-5.8c0-1.2-1-1.7-1.9-1.7c-1.1,0-2,0.5-2.5,1.2l-0.7-0.7
			c0.7-0.9,1.9-1.5,3.2-1.5c1.6,0,3.1,0.9,3.1,2.7c0,1.9-1.9,3.6-4.5,5.7h4.6v1H372.7z"/>
		<path fill="#565656" d="M380.6,199.9l0.7-0.7c0.5,0.7,1.5,1.2,2.6,1.2c1.4,0,2.2-0.7,2.2-1.8c0-1.2-1-1.7-2.3-1.7
			c-0.4,0-0.8,0-1,0v-1.1c0.2,0,0.6,0,1,0c1.2,0,2.2-0.5,2.2-1.5c0-1-1-1.6-2.1-1.6c-1,0-1.8,0.4-2.5,1.1l-0.6-0.7
			c0.7-0.8,1.8-1.4,3.2-1.4c1.8,0,3.2,0.9,3.2,2.5c0,1.3-1.1,2-2,2.2c0.9,0.1,2.2,0.8,2.2,2.3c0,1.6-1.2,2.7-3.3,2.7
			C382.3,201.4,381.1,200.7,380.6,199.9z"/>
		<path fill="#565656" d="M388.7,196.6c0-2.5,1.2-4.8,3.8-4.8c1.2,0,2,0.5,2.6,1.1l-0.6,0.9c-0.5-0.6-1-1-2-1
			c-1.8,0-2.6,1.8-2.6,3.7c0,0.1,0,0.2,0,0.4c0.4-0.6,1.4-1.5,2.6-1.5c1.7,0,3.1,1,3.1,3c0,1.6-1.2,3.1-3.3,3.1
			C389.7,201.4,388.7,199.2,388.7,196.6z M394.4,198.4c0-1.4-1-2-2.2-2c-0.9,0-1.8,0.6-2.3,1.4c0.1,1.2,0.7,2.6,2.4,2.6
			C393.7,200.4,394.4,199.3,394.4,198.4z"/>
	</g>
	<g>
		<g>
			<path fill="#565656" d="M558.6,201.3v-9.3h3.2c2.9,0,4.8,2,4.8,4.7c0,2.7-1.9,4.7-4.8,4.7H558.6z M565.4,196.6
				c0-2-1.3-3.6-3.6-3.6h-2v7.3h2C564.1,200.2,565.4,198.6,565.4,196.6z"/>
			<path fill="#565656" d="M572.6,201.3v-0.8c-0.6,0.6-1.3,0.9-2.2,0.9c-1.1,0-2.4-0.8-2.4-2.2c0-1.5,1.2-2.2,2.4-2.2
				c0.9,0,1.7,0.3,2.2,0.9v-1.2c0-0.9-0.7-1.4-1.7-1.4c-0.8,0-1.5,0.3-2.1,0.9l-0.5-0.7c0.7-0.8,1.6-1.1,2.7-1.1
				c1.4,0,2.6,0.6,2.6,2.3v4.7H572.6z M572.6,199.8v-1.3c-0.4-0.6-1.1-0.8-1.9-0.8c-1,0-1.7,0.6-1.7,1.5c0,0.9,0.7,1.5,1.7,1.5
				C571.5,200.7,572.2,200.4,572.6,199.8z"/>
			<path fill="#565656" d="M580.3,201.3v-4.4c0-1.2-0.6-1.6-1.5-1.6c-0.8,0-1.6,0.5-2,1.1v4.9h-1.1v-6.8h1.1v1
				c0.5-0.6,1.4-1.1,2.4-1.1c1.4,0,2.2,0.7,2.2,2.2v4.7H580.3z"/>
			<path fill="#565656" d="M587.1,201.3v-9.3h4.2c1.6,0,2.6,1,2.6,2.4c0,1.2-0.8,2-1.6,2.1c1,0.2,1.8,1.2,1.8,2.3
				c0,1.5-1,2.5-2.7,2.5H587.1z M592.7,194.5c0-0.8-0.6-1.5-1.6-1.5h-2.8v3h2.8C592.1,196,592.7,195.3,592.7,194.5z M592.9,198.6
				c0-0.9-0.6-1.6-1.7-1.6h-2.9v3.2h2.9C592.2,200.2,592.9,199.6,592.9,198.6z"/>
			<path fill="#565656" d="M595.5,197.9c0-2,1.4-3.5,3.3-3.5c2,0,3.2,1.6,3.2,3.6v0.3h-5.5c0.1,1.3,1,2.3,2.4,2.3
				c0.8,0,1.6-0.3,2.1-0.9l0.5,0.7c-0.7,0.7-1.6,1-2.7,1C596.9,201.4,595.5,200,595.5,197.9z M598.8,195.2c-1.4,0-2.2,1.2-2.2,2.3
				h4.4C601,196.4,600.4,195.2,598.8,195.2z"/>
			<path fill="#565656" d="M603.4,197.9c0-2,1.4-3.5,3.3-3.5c2,0,3.2,1.6,3.2,3.6v0.3h-5.5c0.1,1.3,1,2.3,2.4,2.3
				c0.8,0,1.6-0.3,2.1-0.9l0.5,0.7c-0.7,0.7-1.6,1-2.7,1C604.8,201.4,603.4,200,603.4,197.9z M606.7,195.2c-1.4,0-2.2,1.2-2.2,2.3
				h4.4C608.9,196.4,608.2,195.2,606.7,195.2z"/>
			<path fill="#565656" d="M611.6,201.3v-6.8h1.1v1.1c0.5-0.7,1.3-1.2,2.3-1.2v1.1c-0.1,0-0.3,0-0.4,0c-0.6,0-1.5,0.5-1.8,1.1v4.8
				H611.6z"/>
			<path fill="#565656" d="M615.9,197.9c0-2,1.4-3.5,3.3-3.5c2,0,3.2,1.6,3.2,3.6v0.3H617c0.1,1.3,1,2.3,2.4,2.3
				c0.8,0,1.6-0.3,2.1-0.9l0.5,0.7c-0.7,0.7-1.6,1-2.7,1C617.3,201.4,615.9,200,615.9,197.9z M619.2,195.2c-1.4,0-2.2,1.2-2.2,2.3
				h4.4C621.4,196.4,620.7,195.2,619.2,195.2z"/>
		</g>
	</g>
	<g>
		<g>
			<path fill="#565656" d="M784.8,200l0.7-0.9c0.6,0.7,1.6,1.3,2.9,1.3c1.7,0,2.2-0.9,2.2-1.6c0-2.4-5.5-1.1-5.5-4.4
				c0-1.5,1.4-2.6,3.2-2.6c1.4,0,2.5,0.5,3.3,1.3l-0.7,0.9c-0.7-0.8-1.7-1.1-2.7-1.1c-1.1,0-1.9,0.6-1.9,1.5c0,2.1,5.5,0.9,5.5,4.4
				c0,1.4-0.9,2.7-3.4,2.7C786.8,201.4,785.6,200.8,784.8,200z"/>
			<path fill="#565656" d="M793.5,201.3v-9.3h1.1v9.3H793.5z"/>
			<path fill="#565656" d="M796.5,192.8c0-0.4,0.3-0.7,0.7-0.7c0.4,0,0.7,0.3,0.7,0.7s-0.3,0.7-0.7,0.7
				C796.8,193.5,796.5,193.2,796.5,192.8z M796.7,201.3v-6.8h1.1v6.8H796.7z"/>
			<path fill="#565656" d="M799.8,203l0.5-0.8c0.6,0.7,1.2,0.9,2.2,0.9c1.1,0,2.2-0.5,2.2-2v-1c-0.5,0.7-1.3,1.2-2.3,1.2
				c-1.8,0-3-1.3-3-3.5c0-2.2,1.2-3.5,3-3.5c0.9,0,1.7,0.4,2.3,1.2v-1h1.1v6.6c0,2.2-1.6,2.9-3.2,2.9
				C801.4,204,800.6,203.8,799.8,203z M804.7,199.3v-3c-0.4-0.6-1.2-1.1-2-1.1c-1.4,0-2.2,1.1-2.2,2.6c0,1.5,0.8,2.6,2.2,2.6
				C803.5,200.4,804.4,199.9,804.7,199.3z"/>
			<path fill="#565656" d="M812.4,201.3v-4.5c0-1.2-0.6-1.5-1.5-1.5c-0.8,0-1.6,0.5-2,1.1v4.9h-1.1v-9.3h1.1v3.6
				c0.5-0.6,1.4-1.1,2.4-1.1c1.4,0,2.2,0.7,2.2,2.2v4.8H812.4z"/>
			<path fill="#565656" d="M815.8,199.9v-4.4h-1.1v-0.9h1.1v-1.8h1.1v1.8h1.4v0.9h-1.4v4.2c0,0.5,0.2,0.9,0.7,0.9
				c0.3,0,0.6-0.1,0.7-0.3l0.3,0.8c-0.3,0.3-0.6,0.4-1.3,0.4C816.3,201.4,815.8,200.9,815.8,199.9z"/>
			<path fill="#565656" d="M819.7,201.3v-9.3h1.1v9.3H819.7z"/>
			<path fill="#565656" d="M822.7,203c0.2,0.1,0.4,0.1,0.6,0.1c0.5,0,0.8-0.2,1-0.7l0.4-1l-2.8-6.8h1.1l2.3,5.5l2.2-5.5h1.1
				l-3.4,8.1c-0.4,1-1.1,1.4-2,1.4c-0.2,0-0.6,0-0.8-0.1L822.7,203z"/>
			<path fill="#565656" d="M837.9,201.3v-4.4c0-1.2-0.6-1.6-1.5-1.6c-0.8,0-1.6,0.5-2,1.1v4.9h-1.1v-6.8h1.1v1
				c0.5-0.6,1.4-1.1,2.4-1.1c1.4,0,2.2,0.7,2.2,2.2v4.7H837.9z"/>
			<path fill="#565656" d="M840.9,192.8c0-0.4,0.3-0.7,0.7-0.7c0.4,0,0.7,0.3,0.7,0.7s-0.3,0.7-0.7,0.7
				C841.2,193.5,840.9,193.2,840.9,192.8z M841,201.3v-6.8h1.1v6.8H841z"/>
			<path fill="#565656" d="M843.8,197.9c0-2,1.4-3.5,3.4-3.5c1.2,0,2,0.5,2.5,1.2l-0.7,0.6c-0.4-0.6-1-0.9-1.7-0.9
				c-1.4,0-2.3,1.1-2.3,2.6s0.9,2.6,2.3,2.6c0.7,0,1.3-0.3,1.7-0.9l0.7,0.6c-0.5,0.7-1.2,1.2-2.5,1.2
				C845.2,201.4,843.8,199.9,843.8,197.9z"/>
			<path fill="#565656" d="M850.7,197.9c0-2,1.4-3.5,3.3-3.5c2,0,3.2,1.6,3.2,3.6v0.3h-5.5c0.1,1.3,1,2.3,2.4,2.3
				c0.8,0,1.6-0.3,2.1-0.9l0.5,0.7c-0.7,0.7-1.6,1-2.7,1C852.2,201.4,850.7,200,850.7,197.9z M854.1,195.2c-1.4,0-2.2,1.2-2.2,2.3
				h4.4C856.3,196.4,855.6,195.2,854.1,195.2z"/>
			<path fill="#565656" d="M859,201.3v-6.8h1.1v1.1c0.5-0.7,1.3-1.2,2.3-1.2v1.1c-0.1,0-0.3,0-0.4,0c-0.6,0-1.5,0.5-1.8,1.1v4.8H859
				z"/>
			<path fill="#565656" d="M867.2,201.3v-9.3h1.1v9.3H867.2z"/>
			<path fill="#565656" d="M870,197.9c0-2,1.3-3.5,3.3-3.5c2.1,0,3.3,1.6,3.3,3.5s-1.3,3.6-3.3,3.6C871.3,201.4,870,199.8,870,197.9
				z M875.6,197.9c0-1.4-0.8-2.6-2.2-2.6c-1.4,0-2.3,1.2-2.3,2.6c0,1.4,0.8,2.6,2.3,2.6C874.8,200.5,875.6,199.3,875.6,197.9z"/>
			<path fill="#565656" d="M878,197.9c0-2,1.3-3.5,3.3-3.5c2.1,0,3.3,1.6,3.3,3.5s-1.3,3.6-3.3,3.6C879.3,201.4,878,199.8,878,197.9
				z M883.6,197.9c0-1.4-0.8-2.6-2.2-2.6c-1.4,0-2.3,1.2-2.3,2.6c0,1.4,0.8,2.6,2.3,2.6C882.8,200.5,883.6,199.3,883.6,197.9z"/>
			<path fill="#565656" d="M891,201.3l-2.4-3l-1.1,1.1v1.9h-1.1v-9.3h1.1v6.2l3.6-3.6h1.3l-3,3.1l3,3.7H891z"/>
			<path fill="#565656" d="M893.4,192.8c0-0.4,0.3-0.7,0.7-0.7c0.4,0,0.7,0.3,0.7,0.7s-0.3,0.7-0.7,0.7
				C893.7,193.5,893.4,193.2,893.4,192.8z M893.6,201.3v-6.8h1.1v6.8H893.6z"/>
			<path fill="#565656" d="M901.3,201.3v-4.4c0-1.2-0.6-1.6-1.5-1.6c-0.8,0-1.6,0.5-2,1.1v4.9h-1.1v-6.8h1.1v1
				c0.5-0.6,1.4-1.1,2.4-1.1c1.4,0,2.2,0.7,2.2,2.2v4.7H901.3z"/>
			<path fill="#565656" d="M904.5,203l0.5-0.8c0.6,0.7,1.2,0.9,2.2,0.9c1.1,0,2.2-0.5,2.2-2v-1c-0.5,0.7-1.3,1.2-2.3,1.2
				c-1.8,0-3-1.3-3-3.5c0-2.2,1.2-3.5,3-3.5c0.9,0,1.7,0.4,2.3,1.2v-1h1.1v6.6c0,2.2-1.6,2.9-3.2,2.9C906,204,905.3,203.8,904.5,203
				z M909.4,199.3v-3c-0.4-0.6-1.2-1.1-2-1.1c-1.4,0-2.2,1.1-2.2,2.6c0,1.5,0.8,2.6,2.2,2.6C908.2,200.4,909,199.9,909.4,199.3z"/>
			<path fill="#565656" d="M915.6,200l0.7-0.9c0.6,0.7,1.6,1.3,2.9,1.3c1.7,0,2.2-0.9,2.2-1.6c0-2.4-5.5-1.1-5.5-4.4
				c0-1.5,1.4-2.6,3.2-2.6c1.4,0,2.5,0.5,3.3,1.3l-0.7,0.9c-0.7-0.8-1.7-1.1-2.7-1.1c-1.1,0-1.9,0.6-1.9,1.5c0,2.1,5.5,0.9,5.5,4.4
				c0,1.4-0.9,2.7-3.4,2.7C917.6,201.4,916.4,200.8,915.6,200z"/>
			<path fill="#565656" d="M924.4,201.3v-9.3h3.2c2.9,0,4.8,2,4.8,4.7c0,2.7-1.9,4.7-4.8,4.7H924.4z M931.1,196.6
				c0-2-1.3-3.6-3.6-3.6h-2v7.3h2C929.8,200.2,931.1,198.6,931.1,196.6z"/>
			<path fill="#565656" d="M933.6,200l0.7-0.9c0.6,0.7,1.6,1.3,2.9,1.3c1.7,0,2.2-0.9,2.2-1.6c0-2.4-5.5-1.1-5.5-4.4
				c0-1.5,1.4-2.6,3.2-2.6c1.4,0,2.5,0.5,3.3,1.3l-0.7,0.9c-0.7-0.8-1.7-1.1-2.7-1.1c-1.1,0-1.9,0.6-1.9,1.5c0,2.1,5.5,0.9,5.5,4.4
				c0,1.4-0.9,2.7-3.4,2.7C935.6,201.4,934.4,200.8,933.6,200z"/>
			<path fill="#565656" d="M946.2,201.3v-5.8h-1.1v-0.9h1.1V194c0-1.4,0.8-2.2,2-2.2c0.5,0,1,0.1,1.4,0.5l-0.4,0.7
				c-0.2-0.2-0.5-0.3-0.8-0.3c-0.7,0-1.1,0.5-1.1,1.3v0.5h1.4v0.9h-1.4v5.8H946.2z"/>
			<path fill="#565656" d="M949.5,197.9c0-2,1.3-3.5,3.3-3.5c2.1,0,3.3,1.6,3.3,3.5s-1.3,3.6-3.3,3.6
				C950.8,201.4,949.5,199.8,949.5,197.9z M955.1,197.9c0-1.4-0.8-2.6-2.2-2.6c-1.4,0-2.3,1.2-2.3,2.6c0,1.4,0.8,2.6,2.3,2.6
				C954.3,200.5,955.1,199.3,955.1,197.9z"/>
			<path fill="#565656" d="M957.9,201.3v-6.8h1.1v1.1c0.5-0.7,1.3-1.2,2.3-1.2v1.1c-0.1,0-0.3,0-0.4,0c-0.6,0-1.5,0.5-1.8,1.1v4.8
				H957.9z"/>
			<path fill="#565656" d="M970.7,201.3v-4.6c0-0.9-0.4-1.4-1.2-1.4c-0.7,0-1.4,0.5-1.8,1v5h-1.1v-4.6c0-0.9-0.4-1.4-1.2-1.4
				c-0.7,0-1.4,0.5-1.8,1.1v4.9h-1.1v-6.8h1.1v1c0.3-0.4,1.2-1.1,2.2-1.1c1,0,1.6,0.6,1.8,1.3c0.4-0.6,1.3-1.3,2.3-1.3
				c1.2,0,1.9,0.7,1.9,2v4.9H970.7z"/>
		</g>
	</g>
	<g>
		<g>
			<path fill="#565656" d="M1171.4,201.3v-0.9c3.4-2.6,5.2-4.2,5.2-5.8c0-1.2-1-1.7-1.9-1.7c-1.1,0-2,0.5-2.5,1.2l-0.7-0.7
				c0.7-0.9,1.9-1.5,3.2-1.5c1.6,0,3.1,0.9,3.1,2.7c0,1.9-1.9,3.6-4.5,5.7h4.6v1H1171.4z"/>
			<path fill="#565656" d="M1179.6,196.6c0-2.3,1-4.8,3.6-4.8c2.5,0,3.6,2.5,3.6,4.8c0,2.3-1,4.8-3.6,4.8
				C1180.6,201.4,1179.6,198.9,1179.6,196.6z M1185.5,196.6c0-1.9-0.6-3.8-2.4-3.8c-1.8,0-2.4,1.9-2.4,3.8c0,1.9,0.6,3.8,2.4,3.8
				C1184.9,200.4,1185.5,198.5,1185.5,196.6z"/>
			<path fill="#565656" d="M1188.3,195.2c0-0.4,0.3-0.8,0.8-0.8c0.4,0,0.8,0.3,0.8,0.8c0,0.4-0.3,0.8-0.8,0.8
				C1188.6,195.9,1188.3,195.6,1188.3,195.2z M1188.3,200.6c0-0.4,0.3-0.8,0.8-0.8c0.4,0,0.8,0.3,0.8,0.8c0,0.4-0.3,0.8-0.8,0.8
				C1188.6,201.4,1188.3,201.1,1188.3,200.6z"/>
			<path fill="#565656" d="M1191.1,199.9l0.7-0.7c0.5,0.7,1.5,1.2,2.6,1.2c1.4,0,2.2-0.7,2.2-1.8c0-1.2-1-1.7-2.3-1.7
				c-0.4,0-0.8,0-1,0v-1.1c0.2,0,0.6,0,1,0c1.2,0,2.2-0.5,2.2-1.5c0-1-1-1.6-2.1-1.6c-1,0-1.8,0.4-2.5,1.1l-0.6-0.7
				c0.7-0.8,1.8-1.4,3.2-1.4c1.8,0,3.2,0.9,3.2,2.5c0,1.3-1.1,2-2,2.2c0.9,0.1,2.2,0.8,2.2,2.3c0,1.6-1.2,2.7-3.3,2.7
				C1192.8,201.4,1191.6,200.7,1191.1,199.9z"/>
			<path fill="#565656" d="M1203.4,201.3v-2.4h-4.4v-1l4-6h1.6v6h1.3v1h-1.3v2.4H1203.4z M1203.4,193l-3.3,4.9h3.3V193z"/>
		</g>
	</g>
	<path id="switch-b_2_" fill="#DEDEDD" d="M1377.7,163.8H1334c-6,0-10.9-4.9-10.9-10.9v0c0-6,4.9-10.9,10.9-10.9h43.8
		c6,0,10.9,4.9,10.9,10.9v0C1388.7,158.9,1383.7,163.8,1377.7,163.8z"/>
	<line fill="none" stroke="#DEDEDD" stroke-width="0.875" stroke-miterlimit="10" x1="306.3" y1="174.8" x2="1400" y2="174.8"/>
	<g>
		<path fill="#565656" d="M352.5,157.5v-7.8l-1.5,1.6l-0.7-0.7l2.3-2.4h1v9.3H352.5z"/>
		<path fill="#565656" d="M355.5,152.9c0-2.3,1-4.8,3.6-4.8c2.5,0,3.6,2.5,3.6,4.8c0,2.3-1,4.8-3.6,4.8
			C356.5,157.7,355.5,155.1,355.5,152.9z M361.4,152.9c0-1.9-0.6-3.8-2.4-3.8c-1.8,0-2.4,1.9-2.4,3.8c0,1.9,0.6,3.8,2.4,3.8
			C360.8,156.6,361.4,154.7,361.4,152.9z"/>
		<path fill="#565656" d="M364.1,152.9c0-2.3,1-4.8,3.6-4.8c2.5,0,3.6,2.5,3.6,4.8c0,2.3-1,4.8-3.6,4.8
			C365.1,157.7,364.1,155.1,364.1,152.9z M370,152.9c0-1.9-0.6-3.8-2.4-3.8c-1.8,0-2.4,1.9-2.4,3.8c0,1.9,0.6,3.8,2.4,3.8
			C369.4,156.6,370,154.7,370,152.9z"/>
		<path fill="#565656" d="M372.7,157.5v-0.9c3.4-2.6,5.2-4.2,5.2-5.8c0-1.2-1-1.7-1.9-1.7c-1.1,0-2,0.5-2.5,1.2l-0.7-0.7
			c0.7-0.9,1.9-1.5,3.2-1.5c1.6,0,3.1,0.9,3.1,2.7c0,1.9-1.9,3.6-4.5,5.7h4.6v1H372.7z"/>
		<path fill="#565656" d="M381.8,157.5l3.8-8.3h-5v-1h6.4v0.8l-3.8,8.5H381.8z"/>
		<path fill="#565656" d="M387.8,156.1l0.7-0.7c0.5,0.7,1.5,1.2,2.6,1.2c1.4,0,2.2-0.7,2.2-1.8c0-1.2-1-1.7-2.3-1.7
			c-0.4,0-0.8,0-1,0v-1.1c0.2,0,0.6,0,1,0c1.2,0,2.2-0.5,2.2-1.5c0-1-1-1.6-2.1-1.6c-1,0-1.8,0.4-2.5,1.1l-0.6-0.7
			c0.7-0.8,1.8-1.4,3.2-1.4c1.8,0,3.2,0.9,3.2,2.5c0,1.3-1.1,2-2,2.2c0.9,0.1,2.2,0.8,2.2,2.3c0,1.6-1.2,2.7-3.3,2.7
			C389.5,157.7,388.3,157,387.8,156.1z"/>
	</g>
	<g>
		<g>
			<path fill="#565656" d="M558.6,157.5v-9.3h3.8c1.9,0,2.9,1.3,2.9,2.8c0,1.5-1.1,2.8-2.9,2.8h-2.6v3.7H558.6z M564.1,151
				c0-1.1-0.8-1.8-1.9-1.8h-2.5v3.6h2.5C563.3,152.8,564.1,152,564.1,151z"/>
			<path fill="#565656" d="M570.7,157.5v-0.8c-0.6,0.6-1.3,0.9-2.2,0.9c-1.1,0-2.4-0.8-2.4-2.2c0-1.5,1.2-2.2,2.4-2.2
				c0.9,0,1.7,0.3,2.2,0.9v-1.2c0-0.9-0.7-1.4-1.7-1.4c-0.8,0-1.5,0.3-2.1,0.9l-0.5-0.7c0.7-0.8,1.6-1.1,2.7-1.1
				c1.4,0,2.6,0.6,2.6,2.3v4.7H570.7z M570.7,156.1v-1.3c-0.4-0.6-1.1-0.8-1.9-0.8c-1,0-1.7,0.6-1.7,1.5c0,0.9,0.7,1.5,1.7,1.5
				C569.6,156.9,570.3,156.6,570.7,156.1z"/>
			<path fill="#565656" d="M578.5,157.5v-1c-0.5,0.6-1.4,1.1-2.4,1.1c-1.4,0-2.2-0.7-2.2-2.2v-4.8h1.1v4.5c0,1.2,0.6,1.5,1.5,1.5
				c0.8,0,1.6-0.5,2-1v-5h1.1v6.8H578.5z"/>
			<path fill="#565656" d="M581.6,157.5v-9.3h1.1v9.3H581.6z"/>
			<path fill="#565656" d="M588.4,157.5v-9.3h4.2c1.6,0,2.6,1,2.6,2.4c0,1.2-0.8,2-1.6,2.1c1,0.2,1.8,1.2,1.8,2.3
				c0,1.5-1,2.5-2.7,2.5H588.4z M594,150.7c0-0.8-0.6-1.5-1.6-1.5h-2.8v3h2.8C593.4,152.2,594,151.6,594,150.7z M594.2,154.9
				c0-0.9-0.6-1.6-1.7-1.6h-2.9v3.2h2.9C593.5,156.5,594.2,155.9,594.2,154.9z"/>
			<path fill="#565656" d="M597,149.1c0-0.4,0.3-0.7,0.7-0.7c0.4,0,0.7,0.3,0.7,0.7s-0.3,0.7-0.7,0.7
				C597.3,149.8,597,149.5,597,149.1z M597.2,157.5v-6.8h1.1v6.8H597.2z"/>
			<path fill="#565656" d="M600.3,159.3l0.5-0.8c0.6,0.7,1.2,0.9,2.2,0.9c1.1,0,2.2-0.5,2.2-2v-1c-0.5,0.7-1.3,1.2-2.3,1.2
				c-1.8,0-3-1.3-3-3.5c0-2.2,1.2-3.5,3-3.5c0.9,0,1.7,0.4,2.3,1.2v-1h1.1v6.6c0,2.2-1.6,2.9-3.2,2.9
				C601.9,160.3,601.1,160,600.3,159.3z M605.2,155.6v-3c-0.4-0.6-1.2-1.1-2-1.1c-1.4,0-2.2,1.1-2.2,2.6c0,1.5,0.8,2.6,2.2,2.6
				C604,156.7,604.8,156.2,605.2,155.6z"/>
			<path fill="#565656" d="M608.3,159.3l0.5-0.8c0.6,0.7,1.2,0.9,2.2,0.9c1.1,0,2.2-0.5,2.2-2v-1c-0.5,0.7-1.3,1.2-2.3,1.2
				c-1.8,0-3-1.3-3-3.5c0-2.2,1.2-3.5,3-3.5c0.9,0,1.7,0.4,2.3,1.2v-1h1.1v6.6c0,2.2-1.6,2.9-3.2,2.9
				C609.9,160.3,609.1,160,608.3,159.3z M613.2,155.6v-3c-0.4-0.6-1.2-1.1-2-1.1c-1.4,0-2.2,1.1-2.2,2.6c0,1.5,0.8,2.6,2.2,2.6
				C612.1,156.7,612.9,156.2,613.2,155.6z"/>
			<path fill="#565656" d="M620.6,157.5v-0.8c-0.6,0.6-1.3,0.9-2.2,0.9c-1.1,0-2.4-0.8-2.4-2.2c0-1.5,1.2-2.2,2.4-2.2
				c0.9,0,1.7,0.3,2.2,0.9v-1.2c0-0.9-0.7-1.4-1.7-1.4c-0.8,0-1.5,0.3-2.1,0.9l-0.5-0.7c0.7-0.8,1.6-1.1,2.7-1.1
				c1.4,0,2.6,0.6,2.6,2.3v4.7H620.6z M620.6,156.1v-1.3c-0.4-0.6-1.1-0.8-1.9-0.8c-1,0-1.7,0.6-1.7,1.5c0,0.9,0.7,1.5,1.7,1.5
				C619.5,156.9,620.2,156.6,620.6,156.1z"/>
			<path fill="#565656" d="M623.8,157.5v-6.8h1.1v1.1c0.5-0.7,1.3-1.2,2.3-1.2v1.1c-0.1,0-0.3,0-0.4,0c-0.6,0-1.5,0.5-1.8,1.1v4.8
				H623.8z"/>
		</g>
	</g>
	<g>
		<g>
			<path fill="#565656" d="M792,157.5v-4.3h-5.5v4.3h-1.2v-9.3h1.2v4h5.5v-4h1.2v9.3H792z"/>
			<path fill="#565656" d="M795.1,149.1c0-0.4,0.3-0.7,0.7-0.7c0.4,0,0.7,0.3,0.7,0.7s-0.3,0.7-0.7,0.7
				C795.4,149.8,795.1,149.5,795.1,149.1z M795.3,157.5v-6.8h1.1v6.8H795.3z"/>
			<path fill="#565656" d="M803.3,157.5v-1c-0.5,0.7-1.3,1.2-2.3,1.2c-1.8,0-3-1.3-3-3.5c0-2.2,1.2-3.6,3-3.6c0.9,0,1.7,0.4,2.3,1.2
				v-3.6h1.1v9.3H803.3z M803.3,155.7v-3.1c-0.4-0.6-1.2-1.1-2-1.1c-1.4,0-2.2,1.1-2.2,2.6s0.8,2.6,2.2,2.6
				C802.2,156.7,803,156.3,803.3,155.7z"/>
			<path fill="#565656" d="M806.1,154.1c0-2,1.4-3.5,3.3-3.5c2,0,3.2,1.6,3.2,3.6v0.3h-5.5c0.1,1.3,1,2.3,2.4,2.3
				c0.8,0,1.6-0.3,2.1-0.9l0.5,0.7c-0.7,0.7-1.6,1-2.7,1C807.5,157.7,806.1,156.2,806.1,154.1z M809.4,151.5c-1.4,0-2.2,1.2-2.2,2.3
				h4.4C811.6,152.7,811,151.5,809.4,151.5z"/>
			<path fill="#565656" d="M817.5,156.2l0.7-0.9c0.6,0.7,1.6,1.3,2.9,1.3c1.7,0,2.2-0.9,2.2-1.6c0-2.4-5.5-1.1-5.5-4.4
				c0-1.5,1.4-2.6,3.2-2.6c1.4,0,2.5,0.5,3.3,1.3l-0.7,0.9c-0.7-0.8-1.7-1.1-2.7-1.1c-1.1,0-1.9,0.6-1.9,1.5c0,2.1,5.5,0.9,5.5,4.4
				c0,1.4-0.9,2.7-3.4,2.7C819.4,157.7,818.2,157.1,817.5,156.2z"/>
			<path fill="#565656" d="M826.2,157.5v-9.3h3.2c2.9,0,4.8,2,4.8,4.7c0,2.7-1.9,4.7-4.8,4.7H826.2z M833,152.9c0-2-1.3-3.6-3.6-3.6
				h-2v7.3h2C831.7,156.5,833,154.9,833,152.9z"/>
			<path fill="#565656" d="M835.5,156.2l0.7-0.9c0.6,0.7,1.6,1.3,2.9,1.3c1.7,0,2.2-0.9,2.2-1.6c0-2.4-5.5-1.1-5.5-4.4
				c0-1.5,1.4-2.6,3.2-2.6c1.4,0,2.5,0.5,3.3,1.3l-0.7,0.9c-0.7-0.8-1.7-1.1-2.7-1.1c-1.1,0-1.9,0.6-1.9,1.5c0,2.1,5.5,0.9,5.5,4.4
				c0,1.4-0.9,2.7-3.4,2.7C837.4,157.7,836.2,157.1,835.5,156.2z"/>
			<path fill="#565656" d="M847.2,156.6l0.5-0.8c0.4,0.5,1.3,1,2.2,1c1,0,1.6-0.5,1.6-1.2c0-1.6-4.2-0.6-4.2-3.1
				c0-1.1,0.9-1.9,2.5-1.9c1.1,0,2,0.4,2.5,1l-0.5,0.7c-0.4-0.5-1.1-0.9-2-0.9c-0.9,0-1.5,0.5-1.5,1.1c0,1.5,4.2,0.5,4.2,3.1
				c0,1.1-0.9,2-2.7,2C848.8,157.7,847.9,157.3,847.2,156.6z"/>
			<path fill="#565656" d="M853.9,154.1c0-2,1.4-3.5,3.3-3.5c2,0,3.2,1.6,3.2,3.6v0.3H855c0.1,1.3,1,2.3,2.4,2.3
				c0.8,0,1.6-0.3,2.1-0.9l0.5,0.7c-0.7,0.7-1.6,1-2.7,1C855.4,157.7,853.9,156.2,853.9,154.1z M857.2,151.5c-1.4,0-2.2,1.2-2.2,2.3
				h4.4C859.5,152.7,858.8,151.5,857.2,151.5z"/>
			<path fill="#565656" d="M862.4,156.1v-4.4h-1.1v-0.9h1.1v-1.8h1.1v1.8h1.4v0.9h-1.4v4.2c0,0.5,0.2,0.9,0.7,0.9
				c0.3,0,0.6-0.1,0.7-0.3l0.3,0.8c-0.3,0.3-0.6,0.4-1.3,0.4C862.9,157.7,862.4,157.1,862.4,156.1z"/>
			<path fill="#565656" d="M866.5,156.1v-4.4h-1.1v-0.9h1.1v-1.8h1.1v1.8h1.4v0.9h-1.4v4.2c0,0.5,0.2,0.9,0.7,0.9
				c0.3,0,0.6-0.1,0.7-0.3l0.3,0.8c-0.3,0.3-0.6,0.4-1.3,0.4C867,157.7,866.5,157.1,866.5,156.1z"/>
			<path fill="#565656" d="M870.3,149.1c0-0.4,0.3-0.7,0.7-0.7c0.4,0,0.7,0.3,0.7,0.7s-0.3,0.7-0.7,0.7
				C870.6,149.8,870.3,149.5,870.3,149.1z M870.4,157.5v-6.8h1.1v6.8H870.4z"/>
			<path fill="#565656" d="M878.1,157.5v-4.4c0-1.2-0.6-1.6-1.5-1.6c-0.8,0-1.6,0.5-2,1.1v4.9h-1.1v-6.8h1.1v1
				c0.5-0.6,1.4-1.1,2.4-1.1c1.4,0,2.2,0.7,2.2,2.2v4.7H878.1z"/>
			<path fill="#565656" d="M881.3,159.3l0.5-0.8c0.6,0.7,1.2,0.9,2.2,0.9c1.1,0,2.2-0.5,2.2-2v-1c-0.5,0.7-1.3,1.2-2.3,1.2
				c-1.8,0-3-1.3-3-3.5c0-2.2,1.2-3.5,3-3.5c0.9,0,1.7,0.4,2.3,1.2v-1h1.1v6.6c0,2.2-1.6,2.9-3.2,2.9
				C882.9,160.3,882.1,160,881.3,159.3z M886.2,155.6v-3c-0.4-0.6-1.2-1.1-2-1.1c-1.4,0-2.2,1.1-2.2,2.6c0,1.5,0.8,2.6,2.2,2.6
				C885,156.7,885.8,156.2,886.2,155.6z"/>
			<path fill="#565656" d="M888.7,156.6l0.5-0.8c0.4,0.5,1.3,1,2.2,1c1,0,1.6-0.5,1.6-1.2c0-1.6-4.2-0.6-4.2-3.1
				c0-1.1,0.9-1.9,2.5-1.9c1.1,0,2,0.4,2.5,1l-0.5,0.7c-0.4-0.5-1.1-0.9-2-0.9c-0.9,0-1.5,0.5-1.5,1.1c0,1.5,4.2,0.5,4.2,3.1
				c0,1.1-0.9,2-2.7,2C890.4,157.7,889.4,157.3,888.7,156.6z"/>
			<path fill="#565656" d="M899.5,157.5v-9.3h1.1v3.6c0.5-0.7,1.4-1.2,2.3-1.2c1.8,0,3,1.4,3,3.6c0,2.2-1.2,3.5-3,3.5
				c-1,0-1.8-0.5-2.3-1.2v1H899.5z M902.5,156.7c1.4,0,2.2-1.1,2.2-2.6s-0.8-2.6-2.2-2.6c-0.8,0-1.7,0.5-2,1.1v3.1
				C900.9,156.3,901.7,156.7,902.5,156.7z"/>
			<path fill="#565656" d="M907.1,154.1c0-2,1.4-3.5,3.3-3.5c2,0,3.2,1.6,3.2,3.6v0.3h-5.5c0.1,1.3,1,2.3,2.4,2.3
				c0.8,0,1.6-0.3,2.1-0.9l0.5,0.7c-0.7,0.7-1.6,1-2.7,1C908.6,157.7,907.1,156.2,907.1,154.1z M910.4,151.5c-1.4,0-2.2,1.2-2.2,2.3
				h4.4C912.6,152.7,912,151.5,910.4,151.5z"/>
			<path fill="#565656" d="M920,157.5v-4.5c0-1.2-0.6-1.5-1.5-1.5c-0.8,0-1.6,0.5-2,1.1v4.9h-1.1v-9.3h1.1v3.6
				c0.5-0.6,1.4-1.1,2.4-1.1c1.4,0,2.2,0.7,2.2,2.2v4.8H920z"/>
			<path fill="#565656" d="M922.9,149.1c0-0.4,0.3-0.7,0.7-0.7c0.4,0,0.7,0.3,0.7,0.7s-0.3,0.7-0.7,0.7
				C923.3,149.8,922.9,149.5,922.9,149.1z M923.1,157.5v-6.8h1.1v6.8H923.1z"/>
			<path fill="#565656" d="M930.8,157.5v-4.4c0-1.2-0.6-1.6-1.5-1.6c-0.8,0-1.6,0.5-2,1.1v4.9h-1.1v-6.8h1.1v1
				c0.5-0.6,1.4-1.1,2.4-1.1c1.4,0,2.2,0.7,2.2,2.2v4.7H930.8z"/>
			<path fill="#565656" d="M938.9,157.5v-1c-0.5,0.7-1.3,1.2-2.3,1.2c-1.8,0-3-1.3-3-3.5c0-2.2,1.2-3.6,3-3.6c0.9,0,1.7,0.4,2.3,1.2
				v-3.6h1.1v9.3H938.9z M938.9,155.7v-3.1c-0.4-0.6-1.2-1.1-2-1.1c-1.4,0-2.2,1.1-2.2,2.6s0.8,2.6,2.2,2.6
				C937.7,156.7,938.5,156.3,938.9,155.7z"/>
			<path fill="#565656" d="M949.9,157.5v-0.8c-0.6,0.6-1.3,0.9-2.2,0.9c-1.1,0-2.4-0.8-2.4-2.2c0-1.5,1.2-2.2,2.4-2.2
				c0.9,0,1.7,0.3,2.2,0.9v-1.2c0-0.9-0.7-1.4-1.7-1.4c-0.8,0-1.5,0.3-2.1,0.9l-0.5-0.7c0.7-0.8,1.6-1.1,2.7-1.1
				c1.4,0,2.6,0.6,2.6,2.3v4.7H949.9z M949.9,156.1v-1.3c-0.4-0.6-1.1-0.8-1.9-0.8c-1,0-1.7,0.6-1.7,1.5c0,0.9,0.7,1.5,1.7,1.5
				C948.7,156.9,949.5,156.6,949.9,156.1z"/>
			<path fill="#565656" d="M956.9,157.5v-5.8h-1.1v-0.9h1.1v-0.5c0-1.4,0.8-2.2,2-2.2c0.5,0,1,0.1,1.4,0.5l-0.4,0.7
				c-0.2-0.2-0.5-0.3-0.8-0.3c-0.7,0-1.1,0.5-1.1,1.3v0.5h1.4v0.9H958v5.8H956.9z"/>
			<path fill="#565656" d="M960.2,154.1c0-2,1.4-3.5,3.3-3.5c2,0,3.2,1.6,3.2,3.6v0.3h-5.5c0.1,1.3,1,2.3,2.4,2.3
				c0.8,0,1.6-0.3,2.1-0.9l0.5,0.7c-0.7,0.7-1.6,1-2.7,1C961.6,157.7,960.2,156.2,960.2,154.1z M963.5,151.5c-1.4,0-2.2,1.2-2.2,2.3
				h4.4C965.7,152.7,965.1,151.5,963.5,151.5z"/>
			<path fill="#565656" d="M972.7,157.5v-0.8c-0.6,0.6-1.3,0.9-2.2,0.9c-1.1,0-2.4-0.8-2.4-2.2c0-1.5,1.2-2.2,2.4-2.2
				c0.9,0,1.7,0.3,2.2,0.9v-1.2c0-0.9-0.7-1.4-1.7-1.4c-0.8,0-1.5,0.3-2.1,0.9l-0.5-0.7c0.7-0.8,1.6-1.1,2.7-1.1
				c1.4,0,2.6,0.6,2.6,2.3v4.7H972.7z M972.7,156.1v-1.3c-0.4-0.6-1.1-0.8-1.9-0.8c-1,0-1.7,0.6-1.7,1.5c0,0.9,0.7,1.5,1.7,1.5
				C971.6,156.9,972.3,156.6,972.7,156.1z"/>
			<path fill="#565656" d="M976.1,156.1v-4.4h-1.1v-0.9h1.1v-1.8h1.1v1.8h1.4v0.9h-1.4v4.2c0,0.5,0.2,0.9,0.7,0.9
				c0.3,0,0.6-0.1,0.7-0.3l0.3,0.8c-0.3,0.3-0.6,0.4-1.3,0.4C976.6,157.7,976.1,157.1,976.1,156.1z"/>
			<path fill="#565656" d="M984.5,157.5v-1c-0.5,0.6-1.4,1.1-2.4,1.1c-1.4,0-2.2-0.7-2.2-2.2v-4.8h1.1v4.5c0,1.2,0.6,1.5,1.5,1.5
				c0.8,0,1.6-0.5,2-1v-5h1.1v6.8H984.5z"/>
			<path fill="#565656" d="M987.7,157.5v-6.8h1.1v1.1c0.5-0.7,1.3-1.2,2.3-1.2v1.1c-0.1,0-0.3,0-0.4,0c-0.6,0-1.5,0.5-1.8,1.1v4.8
				H987.7z"/>
			<path fill="#565656" d="M991.9,154.1c0-2,1.4-3.5,3.3-3.5c2,0,3.2,1.6,3.2,3.6v0.3H993c0.1,1.3,1,2.3,2.4,2.3
				c0.8,0,1.6-0.3,2.1-0.9l0.5,0.7c-0.7,0.7-1.6,1-2.7,1C993.4,157.7,991.9,156.2,991.9,154.1z M995.2,151.5c-1.4,0-2.2,1.2-2.2,2.3
				h4.4C997.4,152.7,996.8,151.5,995.2,151.5z"/>
			<path fill="#565656" d="M1004.1,157.5v-5.8h-1.1v-0.9h1.1v-0.5c0-1.4,0.8-2.2,2-2.2c0.4,0,0.8,0.1,1,0.2l-0.3,0.8
				c-0.2-0.1-0.3-0.2-0.6-0.2c-0.7,0-1.1,0.5-1.1,1.3v0.5h1.4v0.9h-1.4v5.8H1004.1z M1007.8,157.5v-9.3h1.1v9.3H1007.8z"/>
			<path fill="#565656" d="M1015.2,157.5v-0.8c-0.6,0.6-1.3,0.9-2.2,0.9c-1.1,0-2.4-0.8-2.4-2.2c0-1.5,1.2-2.2,2.4-2.2
				c0.9,0,1.7,0.3,2.2,0.9v-1.2c0-0.9-0.7-1.4-1.7-1.4c-0.8,0-1.5,0.3-2.1,0.9l-0.5-0.7c0.7-0.8,1.6-1.1,2.7-1.1
				c1.4,0,2.6,0.6,2.6,2.3v4.7H1015.2z M1015.2,156.1v-1.3c-0.4-0.6-1.1-0.8-1.9-0.8c-1,0-1.7,0.6-1.7,1.5c0,0.9,0.7,1.5,1.7,1.5
				C1014,156.9,1014.7,156.6,1015.2,156.1z"/>
			<path fill="#565656" d="M1018.3,159.3l0.5-0.8c0.6,0.7,1.2,0.9,2.2,0.9c1.1,0,2.2-0.5,2.2-2v-1c-0.5,0.7-1.3,1.2-2.3,1.2
				c-1.8,0-3-1.3-3-3.5c0-2.2,1.2-3.5,3-3.5c0.9,0,1.7,0.4,2.3,1.2v-1h1.1v6.6c0,2.2-1.6,2.9-3.2,2.9
				C1019.9,160.3,1019.1,160,1018.3,159.3z M1023.2,155.6v-3c-0.4-0.6-1.2-1.1-2-1.1c-1.4,0-2.2,1.1-2.2,2.6c0,1.5,0.8,2.6,2.2,2.6
				C1022,156.7,1022.8,156.2,1023.2,155.6z"/>
		</g>
	</g>
	<g>
		<g>
			<path fill="#565656" d="M1171.4,152.9c0-2.3,1-4.8,3.6-4.8c2.5,0,3.6,2.5,3.6,4.8c0,2.3-1,4.8-3.6,4.8
				C1172.4,157.7,1171.4,155.1,1171.4,152.9z M1177.3,152.9c0-1.9-0.6-3.8-2.4-3.8c-1.8,0-2.4,1.9-2.4,3.8c0,1.9,0.6,3.8,2.4,3.8
				C1176.7,156.6,1177.3,154.7,1177.3,152.9z"/>
			<path fill="#565656" d="M1180,157.5v-0.9c3.4-2.6,5.2-4.2,5.2-5.8c0-1.2-1-1.7-1.9-1.7c-1.1,0-2,0.5-2.5,1.2l-0.7-0.7
				c0.7-0.9,1.9-1.5,3.2-1.5c1.6,0,3.1,0.9,3.1,2.7c0,1.9-1.9,3.6-4.5,5.7h4.6v1H1180z"/>
			<path fill="#565656" d="M1188.3,151.4c0-0.4,0.3-0.8,0.8-0.8c0.4,0,0.8,0.3,0.8,0.8c0,0.4-0.3,0.8-0.8,0.8
				C1188.6,152.2,1188.3,151.8,1188.3,151.4z M1188.3,156.9c0-0.4,0.3-0.8,0.8-0.8c0.4,0,0.8,0.3,0.8,0.8c0,0.4-0.3,0.8-0.8,0.8
				C1188.6,157.7,1188.3,157.3,1188.3,156.9z"/>
			<path fill="#565656" d="M1191.6,156.2l0.7-0.8c0.6,0.8,1.4,1.2,2.6,1.2c1.3,0,2.2-0.9,2.2-2c0-1.2-0.9-2-2.1-2
				c-0.8,0-1.5,0.3-2.2,0.9l-0.9-0.3v-5h5.7v1h-4.6v3.2c0.4-0.4,1.2-0.8,2.2-0.8c1.6,0,3,1.1,3,3c0,1.9-1.4,3.1-3.3,3.1
				C1193.3,157.7,1192.3,157.1,1191.6,156.2z"/>
			<path fill="#565656" d="M1199.6,152.9c0-2.3,1-4.8,3.6-4.8c2.5,0,3.6,2.5,3.6,4.8c0,2.3-1,4.8-3.6,4.8
				C1200.7,157.7,1199.6,155.1,1199.6,152.9z M1205.6,152.9c0-1.9-0.6-3.8-2.4-3.8c-1.8,0-2.4,1.9-2.4,3.8c0,1.9,0.6,3.8,2.4,3.8
				C1205,156.6,1205.6,154.7,1205.6,152.9z"/>
		</g>
	</g>
	<line fill="none" stroke="#DEDEDD" stroke-width="0.875" stroke-miterlimit="10" x1="306.3" y1="131" x2="1400" y2="131"/>
	<g>
		<path fill="#333333" d="M351.1,91.7v-9.3h4.2c1.6,0,2.6,1,2.6,2.4c0,1.2-0.8,2-1.6,2.1c1,0.2,1.8,1.2,1.8,2.3c0,1.5-1,2.5-2.7,2.5
			H351.1z M356.7,84.9c0-0.8-0.6-1.5-1.6-1.5h-2.8v3h2.8C356.1,86.4,356.7,85.7,356.7,84.9z M356.9,89c0-0.9-0.6-1.6-1.7-1.6h-2.9
			v3.2h2.9C356.2,90.6,356.9,90,356.9,89z"/>
		<path fill="#333333" d="M364.5,91.7v-1c-0.5,0.6-1.4,1.1-2.4,1.1c-1.4,0-2.2-0.7-2.2-2.2v-4.8h1.1v4.5c0,1.2,0.6,1.5,1.5,1.5
			c0.8,0,1.6-0.5,2-1v-5h1.1v6.8H364.5z"/>
		<path fill="#333333" d="M367.4,83.2c0-0.4,0.3-0.7,0.7-0.7c0.4,0,0.7,0.3,0.7,0.7s-0.3,0.7-0.7,0.7
			C367.7,83.9,367.4,83.6,367.4,83.2z M367.6,91.7v-6.8h1.1v6.8H367.6z"/>
		<path fill="#333333" d="M370.8,91.7v-9.3h1.1v9.3H370.8z"/>
		<path fill="#333333" d="M378.8,91.7v-1c-0.5,0.7-1.3,1.2-2.3,1.2c-1.8,0-3-1.3-3-3.5c0-2.2,1.2-3.6,3-3.6c0.9,0,1.7,0.4,2.3,1.2
			v-3.6h1.1v9.3H378.8z M378.8,89.8v-3.1c-0.4-0.6-1.2-1.1-2-1.1c-1.4,0-2.2,1.1-2.2,2.6s0.8,2.6,2.2,2.6
			C377.6,90.9,378.4,90.4,378.8,89.8z"/>
	</g>
	<g>
		<path fill="#333333" d="M565.3,91.6l-0.8-2.1h-4.7l-0.8,2.1h-1.3l3.8-9.3h1.4l3.8,9.3H565.3z M562.1,83.5l-2,5h4L562.1,83.5z"/>
		<path fill="#333333" d="M572.2,91.6v-1c-0.5,0.6-1.4,1.1-2.4,1.1c-1.4,0-2.2-0.7-2.2-2.2v-4.8h1.1v4.5c0,1.2,0.6,1.5,1.5,1.5
			c0.8,0,1.6-0.5,2-1v-5h1.1v6.8H572.2z"/>
		<path fill="#333333" d="M575.5,90.2v-4.4h-1.1v-0.9h1.1V83h1.1v1.8h1.4v0.9h-1.4V90c0,0.5,0.2,0.9,0.7,0.9c0.3,0,0.6-0.1,0.7-0.3
			l0.3,0.8c-0.3,0.3-0.6,0.4-1.3,0.4C576,91.8,575.5,91.2,575.5,90.2z"/>
		<path fill="#333333" d="M584,91.6v-4.5c0-1.2-0.6-1.5-1.5-1.5c-0.8,0-1.6,0.5-2,1.1v4.9h-1.1v-9.3h1.1v3.6
			c0.5-0.6,1.4-1.1,2.4-1.1c1.4,0,2.2,0.7,2.2,2.2v4.8H584z"/>
		<path fill="#333333" d="M586.8,88.2c0-2,1.3-3.5,3.3-3.5c2.1,0,3.3,1.6,3.3,3.5s-1.3,3.6-3.3,3.6
			C588.1,91.8,586.8,90.2,586.8,88.2z M592.4,88.2c0-1.4-0.8-2.6-2.2-2.6c-1.4,0-2.3,1.2-2.3,2.6c0,1.4,0.8,2.6,2.3,2.6
			C591.6,90.9,592.4,89.6,592.4,88.2z"/>
		<path fill="#333333" d="M595.2,91.6v-6.8h1.1V86c0.5-0.7,1.3-1.2,2.3-1.2v1.1c-0.1,0-0.3,0-0.4,0c-0.6,0-1.5,0.5-1.8,1.1v4.8
			H595.2z"/>
	</g>
	<g>
		<path fill="#333333" d="M785.4,91.6v-9.3h1.2v8.3h4.3v1H785.4z"/>
		<path fill="#333333" d="M791.8,88.2c0-2,1.3-3.5,3.3-3.5c2.1,0,3.3,1.6,3.3,3.5s-1.3,3.6-3.3,3.6
			C793.1,91.8,791.8,90.2,791.8,88.2z M797.4,88.2c0-1.4-0.8-2.6-2.2-2.6c-1.4,0-2.3,1.2-2.3,2.6c0,1.4,0.8,2.6,2.3,2.6
			C796.6,90.9,797.4,89.6,797.4,88.2z"/>
		<path fill="#333333" d="M800.2,93.4l0.5-0.8c0.6,0.7,1.2,0.9,2.2,0.9c1.1,0,2.2-0.5,2.2-2v-1c-0.5,0.7-1.3,1.2-2.3,1.2
			c-1.8,0-3-1.3-3-3.5c0-2.2,1.2-3.5,3-3.5c0.9,0,1.7,0.4,2.3,1.2v-1h1.1v6.6c0,2.2-1.6,2.9-3.2,2.9C801.8,94.4,801,94.1,800.2,93.4
			z M805.1,89.7v-3c-0.4-0.6-1.2-1.1-2-1.1c-1.4,0-2.2,1.1-2.2,2.6c0,1.5,0.8,2.6,2.2,2.6C803.9,90.8,804.7,90.3,805.1,89.7z"/>
	</g>
	<g>
		<path fill="#333333" d="M1169.2,91.6v-9.3h1.2v8.3h4.3v1H1169.2z"/>
		<path fill="#333333" d="M1175.7,88.2c0-2,1.4-3.5,3.3-3.5c2,0,3.2,1.6,3.2,3.6v0.3h-5.5c0.1,1.3,1,2.3,2.4,2.3
			c0.8,0,1.6-0.3,2.1-0.9l0.5,0.7c-0.7,0.7-1.6,1-2.7,1C1177.1,91.8,1175.7,90.4,1175.7,88.2z M1179,85.6c-1.4,0-2.2,1.2-2.2,2.3
			h4.4C1181.2,86.8,1180.5,85.6,1179,85.6z"/>
		<path fill="#333333" d="M1188.5,91.6v-4.4c0-1.2-0.6-1.6-1.5-1.6c-0.8,0-1.6,0.5-2,1.1v4.9h-1.1v-6.8h1.1v1
			c0.5-0.6,1.4-1.1,2.4-1.1c1.4,0,2.2,0.7,2.2,2.2v4.7H1188.5z"/>
		<path fill="#333333" d="M1191.6,93.4l0.5-0.8c0.6,0.7,1.2,0.9,2.2,0.9c1.1,0,2.2-0.5,2.2-2v-1c-0.5,0.7-1.3,1.2-2.3,1.2
			c-1.8,0-3-1.3-3-3.5c0-2.2,1.2-3.5,3-3.5c0.9,0,1.7,0.4,2.3,1.2v-1h1.1v6.6c0,2.2-1.6,2.9-3.2,2.9
			C1193.2,94.4,1192.4,94.1,1191.6,93.4z M1196.5,89.7v-3c-0.4-0.6-1.2-1.1-2-1.1c-1.4,0-2.2,1.1-2.2,2.6c0,1.5,0.8,2.6,2.2,2.6
			C1195.4,90.8,1196.2,90.3,1196.5,89.7z"/>
		<path fill="#333333" d="M1199.9,90.2v-4.4h-1.1v-0.9h1.1V83h1.1v1.8h1.4v0.9h-1.4V90c0,0.5,0.2,0.9,0.7,0.9c0.3,0,0.6-0.1,0.7-0.3
			l0.3,0.8c-0.3,0.3-0.6,0.4-1.3,0.4C1200.4,91.8,1199.9,91.2,1199.9,90.2z"/>
		<path fill="#333333" d="M1208.4,91.6v-4.5c0-1.2-0.6-1.5-1.5-1.5c-0.8,0-1.6,0.5-2,1.1v4.9h-1.1v-9.3h1.1v3.6
			c0.5-0.6,1.4-1.1,2.4-1.1c1.4,0,2.2,0.7,2.2,2.2v4.8H1208.4z"/>
	</g>
	<g>
		<path fill="#333333" d="M1337.5,90.3l0.7-0.9c0.6,0.7,1.6,1.3,2.9,1.3c1.7,0,2.2-0.9,2.2-1.6c0-2.4-5.5-1.1-5.5-4.4
			c0-1.5,1.4-2.6,3.2-2.6c1.4,0,2.5,0.5,3.3,1.3l-0.7,0.9c-0.7-0.8-1.7-1.1-2.7-1.1c-1.1,0-1.9,0.6-1.9,1.5c0,2.1,5.5,0.9,5.5,4.4
			c0,1.4-0.9,2.7-3.4,2.7C1339.4,91.8,1338.2,91.2,1337.5,90.3z"/>
		<path fill="#333333" d="M1346.2,90.2v-4.4h-1.1v-0.9h1.1V83h1.1v1.8h1.4v0.9h-1.4V90c0,0.5,0.2,0.9,0.7,0.9c0.3,0,0.6-0.1,0.7-0.3
			l0.3,0.8c-0.3,0.3-0.6,0.4-1.3,0.4C1346.7,91.8,1346.2,91.2,1346.2,90.2z"/>
		<path fill="#333333" d="M1354.3,91.6v-0.8c-0.6,0.6-1.3,0.9-2.2,0.9c-1.2,0-2.4-0.8-2.4-2.2c0-1.5,1.2-2.2,2.4-2.2
			c0.9,0,1.7,0.3,2.2,0.9V87c0-0.9-0.7-1.4-1.7-1.4c-0.8,0-1.5,0.3-2.1,0.9l-0.5-0.7c0.7-0.8,1.6-1.1,2.7-1.1c1.4,0,2.6,0.6,2.6,2.3
			v4.7H1354.3z M1354.3,90.2v-1.3c-0.4-0.6-1.1-0.8-1.9-0.8c-1,0-1.7,0.6-1.7,1.5c0,0.9,0.7,1.5,1.7,1.5
			C1353.2,91,1353.9,90.8,1354.3,90.2z"/>
		<path fill="#333333" d="M1357.7,90.2v-4.4h-1.1v-0.9h1.1V83h1.1v1.8h1.4v0.9h-1.4V90c0,0.5,0.2,0.9,0.7,0.9c0.3,0,0.6-0.1,0.7-0.3
			l0.3,0.8c-0.3,0.3-0.6,0.4-1.3,0.4C1358.2,91.8,1357.7,91.2,1357.7,90.2z"/>
		<path fill="#333333" d="M1366.1,91.6v-1c-0.5,0.6-1.4,1.1-2.4,1.1c-1.4,0-2.2-0.7-2.2-2.2v-4.8h1.1v4.5c0,1.2,0.6,1.5,1.5,1.5
			c0.8,0,1.6-0.5,2-1v-5h1.1v6.8H1366.1z"/>
		<path fill="#333333" d="M1368.7,90.7l0.5-0.8c0.4,0.5,1.3,1,2.2,1c1,0,1.6-0.5,1.6-1.2c0-1.6-4.2-0.6-4.2-3.1
			c0-1.1,0.9-1.9,2.5-1.9c1.1,0,2,0.4,2.5,1l-0.5,0.7c-0.4-0.5-1.1-0.9-2-0.9c-0.9,0-1.5,0.5-1.5,1.1c0,1.5,4.2,0.5,4.2,3.1
			c0,1.1-0.9,2-2.7,2C1370.3,91.8,1369.4,91.5,1368.7,90.7z"/>
	</g>
	<line fill="none" stroke="#DEDEDD" stroke-miterlimit="10" x1="305.5" y1="323.5" x2="305.5" y2="323.5"/>
	<polyline fill="none" stroke="#DEDEDD" stroke-miterlimit="10" points="305.5,44 305.5,131 305.5,323 	"/>
	<g>
		<path fill="#989898" d="M115,310.4V306c0-1.2-0.6-1.6-1.5-1.6c-0.8,0-1.6,0.5-2,1.1v4.9h-1.1v-6.8h1.1v1c0.5-0.6,1.4-1.1,2.4-1.1
			c1.4,0,2.2,0.7,2.2,2.2v4.7H115z"/>
		<path fill="#989898" d="M117.8,307c0-2,1.4-3.5,3.3-3.5c2,0,3.2,1.6,3.2,3.6v0.3h-5.5c0.1,1.3,1,2.3,2.4,2.3
			c0.8,0,1.6-0.3,2.1-0.9l0.5,0.7c-0.7,0.7-1.6,1-2.7,1C119.2,310.6,117.8,309.1,117.8,307z M121.1,304.4c-1.4,0-2.2,1.2-2.2,2.3
			h4.4C123.3,305.6,122.6,304.4,121.1,304.4z"/>
		<path fill="#989898" d="M131.9,310.4l-1.8-5.4l-1.8,5.4h-1.1l-2.2-6.8h1.1l1.7,5.4l1.8-5.4h0.9l1.8,5.4l1.7-5.4h1.1l-2.2,6.8
			H131.9z"/>
		<path fill="#989898" d="M135.7,307.5v-0.9h3.4v0.9H135.7z"/>
		<path fill="#989898" d="M140.3,302c0-0.4,0.3-0.7,0.7-0.7c0.4,0,0.7,0.3,0.7,0.7s-0.3,0.7-0.7,0.7
			C140.7,302.7,140.3,302.4,140.3,302z M140.5,310.4v-6.8h1.1v6.8H140.5z"/>
		<path fill="#989898" d="M148.2,310.4V306c0-1.2-0.6-1.6-1.5-1.6c-0.8,0-1.6,0.5-2,1.1v4.9h-1.1v-6.8h1.1v1
			c0.5-0.6,1.4-1.1,2.4-1.1c1.4,0,2.2,0.7,2.2,2.2v4.7H148.2z"/>
		<path fill="#989898" d="M153.2,310.4l-2.8-6.8h1.1l2.3,5.5l2.2-5.5h1.1l-2.8,6.8H153.2z"/>
		<path fill="#989898" d="M158.1,302c0-0.4,0.3-0.7,0.7-0.7c0.4,0,0.7,0.3,0.7,0.7s-0.3,0.7-0.7,0.7
			C158.4,302.7,158.1,302.4,158.1,302z M158.3,310.4v-6.8h1.1v6.8H158.3z"/>
		<path fill="#989898" d="M161.6,309v-4.4h-1.1v-0.9h1.1v-1.8h1.1v1.8h1.4v0.9h-1.4v4.2c0,0.5,0.2,0.9,0.7,0.9
			c0.3,0,0.6-0.1,0.7-0.3l0.3,0.8c-0.3,0.3-0.6,0.4-1.3,0.4C162.1,310.6,161.6,310,161.6,309z"/>
		<path fill="#989898" d="M165.1,307c0-2,1.4-3.5,3.3-3.5c2,0,3.2,1.6,3.2,3.6v0.3h-5.5c0.1,1.3,1,2.3,2.4,2.3
			c0.8,0,1.6-0.3,2.1-0.9l0.5,0.7c-0.7,0.7-1.6,1-2.7,1C166.6,310.6,165.1,309.1,165.1,307z M168.4,304.4c-1.4,0-2.2,1.2-2.2,2.3
			h4.4C170.7,305.6,170,304.4,168.4,304.4z"/>
		<path fill="#989898" d="M172.8,307.5v-0.9h3.4v0.9H172.8z"/>
		<path fill="#989898" d="M185.8,310.4v-4.6c0-0.9-0.4-1.4-1.2-1.4c-0.7,0-1.4,0.5-1.8,1v5h-1.1v-4.6c0-0.9-0.4-1.4-1.2-1.4
			c-0.7,0-1.4,0.5-1.8,1.1v4.9h-1.1v-6.8h1.1v1c0.3-0.4,1.2-1.1,2.2-1.1c1,0,1.6,0.6,1.8,1.3c0.4-0.6,1.3-1.3,2.3-1.3
			c1.2,0,1.9,0.7,1.9,2v4.9H185.8z"/>
		<path fill="#989898" d="M188.5,307c0-2,1.3-3.5,3.3-3.5c2.1,0,3.3,1.6,3.3,3.5s-1.3,3.6-3.3,3.6C189.8,310.6,188.5,309,188.5,307z
			 M194.1,307c0-1.4-0.8-2.6-2.2-2.6c-1.4,0-2.3,1.2-2.3,2.6c0,1.4,0.8,2.6,2.3,2.6C193.3,309.7,194.1,308.4,194.1,307z"/>
		<path fill="#989898" d="M201.8,310.4v-1c-0.5,0.7-1.3,1.2-2.3,1.2c-1.8,0-3-1.3-3-3.5c0-2.2,1.2-3.6,3-3.6c0.9,0,1.7,0.4,2.3,1.2
			v-3.6h1.1v9.3H201.8z M201.8,308.6v-3.1c-0.4-0.6-1.2-1.1-2-1.1c-1.4,0-2.2,1.1-2.2,2.6s0.8,2.6,2.2,2.6
			C200.6,309.7,201.4,309.2,201.8,308.6z"/>
		<path fill="#989898" d="M209.2,310.4v-0.8c-0.6,0.6-1.3,0.9-2.2,0.9c-1.1,0-2.4-0.8-2.4-2.2c0-1.5,1.2-2.2,2.4-2.2
			c0.9,0,1.7,0.3,2.2,0.9v-1.2c0-0.9-0.7-1.4-1.7-1.4c-0.8,0-1.5,0.3-2.1,0.9l-0.5-0.7c0.7-0.8,1.6-1.1,2.7-1.1
			c1.4,0,2.6,0.6,2.6,2.3v4.7H209.2z M209.2,309v-1.3c-0.4-0.6-1.1-0.8-1.9-0.8c-1,0-1.7,0.6-1.7,1.5c0,0.9,0.7,1.5,1.7,1.5
			C208.1,309.8,208.8,309.6,209.2,309z"/>
		<path fill="#989898" d="M212.3,310.4v-9.3h1.1v9.3H212.3z"/>
	</g>
	
		<line fill="none" stroke="#C13938" stroke-width="1.75" stroke-linecap="round" stroke-miterlimit="10" x1="287" y1="310.4" x2="280" y2="303.4"/>
	
		<line fill="none" stroke="#C13938" stroke-width="1.75" stroke-linecap="round" stroke-miterlimit="10" x1="287" y1="303.4" x2="280" y2="310.4"/>
	<g>
		<path fill="#989898" d="M110.5,201v-9.3h1.1v3.6c0.5-0.7,1.4-1.2,2.3-1.2c1.8,0,3,1.4,3,3.6c0,2.2-1.2,3.5-3,3.5
			c-1,0-1.8-0.5-2.3-1.2v1H110.5z M113.5,200.3c1.4,0,2.2-1.1,2.2-2.6s-0.8-2.6-2.2-2.6c-0.8,0-1.7,0.5-2,1.1v3.1
			C111.9,199.8,112.7,200.3,113.5,200.3z"/>
		<path fill="#989898" d="M123.1,201v-1c-0.5,0.6-1.4,1.1-2.4,1.1c-1.4,0-2.2-0.7-2.2-2.2v-4.8h1.1v4.5c0,1.2,0.6,1.5,1.5,1.5
			c0.8,0,1.6-0.5,2-1v-5h1.1v6.8H123.1z"/>
		<path fill="#989898" d="M126,192.6c0-0.4,0.3-0.7,0.7-0.7c0.4,0,0.7,0.3,0.7,0.7s-0.3,0.7-0.7,0.7C126.4,193.3,126,193,126,192.6z
			 M126.2,201v-6.8h1.1v6.8H126.2z"/>
		<path fill="#989898" d="M129.4,201v-9.3h1.1v9.3H129.4z"/>
		<path fill="#989898" d="M137.4,201v-1c-0.5,0.7-1.3,1.2-2.3,1.2c-1.8,0-3-1.3-3-3.5c0-2.2,1.2-3.6,3-3.6c0.9,0,1.7,0.4,2.3,1.2
			v-3.6h1.1v9.3H137.4z M137.4,199.2v-3.1c-0.4-0.6-1.2-1.1-2-1.1c-1.4,0-2.2,1.1-2.2,2.6s0.8,2.6,2.2,2.6
			C136.2,200.3,137,199.8,137.4,199.2z"/>
		<path fill="#989898" d="M139.9,198.1v-0.9h3.4v0.9H139.9z"/>
		<path fill="#989898" d="M144.2,200.2l0.5-0.8c0.4,0.5,1.3,1,2.2,1c1,0,1.6-0.5,1.6-1.2c0-1.6-4.2-0.6-4.2-3.1
			c0-1.1,0.9-1.9,2.5-1.9c1.1,0,2,0.4,2.5,1l-0.5,0.7c-0.4-0.5-1.1-0.9-2-0.9c-0.9,0-1.5,0.5-1.5,1.1c0,1.5,4.2,0.5,4.2,3.1
			c0,1.1-0.9,2-2.7,2C145.8,201.2,144.9,200.9,144.2,200.2z"/>
		<path fill="#989898" d="M157.1,201l-1.8-5.4l-1.8,5.4h-1.1l-2.2-6.8h1.1l1.7,5.4l1.8-5.4h0.9l1.8,5.4l1.7-5.4h1.1l-2.2,6.8H157.1z
			"/>
		<path fill="#989898" d="M161.4,192.6c0-0.4,0.3-0.7,0.7-0.7c0.4,0,0.7,0.3,0.7,0.7s-0.3,0.7-0.7,0.7
			C161.7,193.3,161.4,193,161.4,192.6z M161.6,201v-6.8h1.1v6.8H161.6z"/>
		<path fill="#989898" d="M164.9,199.6v-4.4h-1.1v-0.9h1.1v-1.8h1.1v1.8h1.4v0.9H166v4.2c0,0.5,0.2,0.9,0.7,0.9
			c0.3,0,0.6-0.1,0.7-0.3l0.3,0.8c-0.3,0.3-0.6,0.4-1.3,0.4C165.4,201.2,164.9,200.6,164.9,199.6z"/>
		<path fill="#989898" d="M168.4,197.7c0-2,1.4-3.5,3.4-3.5c1.2,0,2,0.5,2.5,1.2l-0.7,0.6c-0.4-0.6-1-0.9-1.7-0.9
			c-1.4,0-2.3,1.1-2.3,2.6s0.9,2.6,2.3,2.6c0.7,0,1.3-0.3,1.7-0.9l0.7,0.6c-0.5,0.7-1.2,1.2-2.5,1.2
			C169.8,201.2,168.4,199.7,168.4,197.7z"/>
		<path fill="#989898" d="M180.3,201v-4.5c0-1.2-0.6-1.5-1.5-1.5c-0.8,0-1.6,0.5-2,1.1v4.9h-1.1v-9.3h1.1v3.6
			c0.5-0.6,1.4-1.1,2.4-1.1c1.4,0,2.2,0.7,2.2,2.2v4.8H180.3z"/>
		<path fill="#989898" d="M183.1,197.7c0-2,1.4-3.5,3.3-3.5c2,0,3.2,1.6,3.2,3.6v0.3h-5.5c0.1,1.3,1,2.3,2.4,2.3
			c0.8,0,1.6-0.3,2.1-0.9l0.5,0.7c-0.7,0.7-1.6,1-2.7,1C184.5,201.2,183.1,199.8,183.1,197.7z M186.4,195c-1.4,0-2.2,1.2-2.2,2.3
			h4.4C188.6,196.2,187.9,195,186.4,195z"/>
		<path fill="#989898" d="M191.4,201v-6.8h1.1v1.1c0.5-0.7,1.3-1.2,2.3-1.2v1.1c-0.1,0-0.3,0-0.4,0c-0.6,0-1.5,0.5-1.8,1.1v4.8
			H191.4z"/>
		<path fill="#989898" d="M195.3,198.1v-0.9h3.4v0.9H195.3z"/>
		<path fill="#989898" d="M199.6,200.2l0.5-0.8c0.4,0.5,1.3,1,2.2,1c1,0,1.6-0.5,1.6-1.2c0-1.6-4.2-0.6-4.2-3.1
			c0-1.1,0.9-1.9,2.5-1.9c1.1,0,2,0.4,2.5,1l-0.5,0.7c-0.4-0.5-1.1-0.9-2-0.9c-0.9,0-1.5,0.5-1.5,1.1c0,1.5,4.2,0.5,4.2,3.1
			c0,1.1-0.9,2-2.7,2C201.2,201.2,200.3,200.9,199.6,200.2z"/>
		<path fill="#989898" d="M206.9,199.6v-4.4h-1.1v-0.9h1.1v-1.8h1.1v1.8h1.4v0.9H208v4.2c0,0.5,0.2,0.9,0.7,0.9
			c0.3,0,0.6-0.1,0.7-0.3l0.3,0.8c-0.3,0.3-0.6,0.4-1.3,0.4C207.4,201.2,206.9,200.6,206.9,199.6z"/>
		<path fill="#989898" d="M210.6,202.7c0.2,0.1,0.4,0.1,0.6,0.1c0.5,0,0.8-0.2,1-0.7l0.4-1l-2.8-6.8h1.1l2.3,5.5l2.2-5.5h1.1
			l-3.4,8.1c-0.4,1-1.1,1.4-2,1.4c-0.2,0-0.6,0-0.8-0.1L210.6,202.7z"/>
		<path fill="#989898" d="M217.7,201v-9.3h1.1v9.3H217.7z"/>
		<path fill="#989898" d="M220.4,197.7c0-2,1.4-3.5,3.3-3.5c2,0,3.2,1.6,3.2,3.6v0.3h-5.5c0.1,1.3,1,2.3,2.4,2.3
			c0.8,0,1.6-0.3,2.1-0.9l0.5,0.7c-0.7,0.7-1.6,1-2.7,1C221.9,201.2,220.4,199.8,220.4,197.7z M223.7,195c-1.4,0-2.2,1.2-2.2,2.3
			h4.4C226,196.2,225.3,195,223.7,195z"/>
		<path fill="#989898" d="M228.1,200.2l0.5-0.8c0.4,0.5,1.3,1,2.2,1c1,0,1.6-0.5,1.6-1.2c0-1.6-4.2-0.6-4.2-3.1
			c0-1.1,0.9-1.9,2.5-1.9c1.1,0,2,0.4,2.5,1l-0.5,0.7c-0.4-0.5-1.1-0.9-2-0.9c-0.9,0-1.5,0.5-1.5,1.1c0,1.5,4.2,0.5,4.2,3.1
			c0,1.1-0.9,2-2.7,2C229.7,201.2,228.8,200.9,228.1,200.2z"/>
	</g>
	
		<line fill="none" stroke="#C13938" stroke-width="1.75" stroke-linecap="round" stroke-miterlimit="10" x1="287" y1="201" x2="280" y2="194"/>
	
		<line fill="none" stroke="#C13938" stroke-width="1.75" stroke-linecap="round" stroke-miterlimit="10" x1="287" y1="194" x2="280" y2="201"/>
	<g>
		<path fill="#989898" d="M114.7,157.3v-0.8c-0.6,0.6-1.3,0.9-2.2,0.9c-1.1,0-2.4-0.8-2.4-2.2c0-1.5,1.2-2.2,2.4-2.2
			c0.9,0,1.7,0.3,2.2,0.9v-1.2c0-0.9-0.7-1.4-1.7-1.4c-0.8,0-1.5,0.3-2.1,0.9l-0.5-0.7c0.7-0.8,1.6-1.1,2.7-1.1
			c1.4,0,2.6,0.6,2.6,2.3v4.7H114.7z M114.7,155.9v-1.3c-0.4-0.6-1.1-0.8-1.9-0.8c-1,0-1.7,0.6-1.7,1.5c0,0.9,0.7,1.5,1.7,1.5
			C113.6,156.7,114.3,156.4,114.7,155.9z"/>
		<path fill="#989898" d="M117.2,156.4l0.5-0.8c0.4,0.5,1.3,1,2.2,1c1,0,1.6-0.5,1.6-1.2c0-1.6-4.2-0.6-4.2-3.1
			c0-1.1,0.9-1.9,2.5-1.9c1.1,0,2,0.4,2.5,1l-0.5,0.7c-0.4-0.5-1.1-0.9-2-0.9c-0.9,0-1.5,0.5-1.5,1.1c0,1.5,4.2,0.5,4.2,3.1
			c0,1.1-0.9,2-2.7,2C118.9,157.5,117.9,157.1,117.2,156.4z"/>
		<path fill="#989898" d="M124.2,148.9c0-0.4,0.3-0.7,0.7-0.7c0.4,0,0.7,0.3,0.7,0.7s-0.3,0.7-0.7,0.7
			C124.5,149.6,124.2,149.3,124.2,148.9z M124.3,157.3v-6.8h1.1v6.8H124.3z"/>
		<path fill="#989898" d="M132.4,157.3v-1c-0.5,0.7-1.3,1.2-2.3,1.2c-1.8,0-3-1.3-3-3.5c0-2.2,1.2-3.6,3-3.6c0.9,0,1.7,0.4,2.3,1.2
			V148h1.1v9.3H132.4z M132.4,155.5v-3.1c-0.4-0.6-1.2-1.1-2-1.1c-1.4,0-2.2,1.1-2.2,2.6s0.8,2.6,2.2,2.6
			C131.2,156.5,132,156,132.4,155.5z"/>
		<path fill="#989898" d="M135.2,153.9c0-2,1.4-3.5,3.3-3.5c2,0,3.2,1.6,3.2,3.6v0.3h-5.5c0.1,1.3,1,2.3,2.4,2.3
			c0.8,0,1.6-0.3,2.1-0.9l0.5,0.7c-0.7,0.7-1.6,1-2.7,1C136.6,157.5,135.2,156,135.2,153.9z M138.5,151.2c-1.4,0-2.2,1.2-2.2,2.3
			h4.4C140.7,152.5,140,151.2,138.5,151.2z"/>
		<path fill="#989898" d="M142.8,154.4v-0.9h3.4v0.9H142.8z"/>
		<path fill="#989898" d="M152.2,157.3v-4.4c0-1.2-0.6-1.6-1.5-1.6c-0.8,0-1.6,0.5-2,1.1v4.9h-1.1v-6.8h1.1v1
			c0.5-0.6,1.4-1.1,2.4-1.1c1.4,0,2.2,0.7,2.2,2.2v4.7H152.2z"/>
		<path fill="#989898" d="M159.6,157.3v-0.8c-0.6,0.6-1.3,0.9-2.2,0.9c-1.1,0-2.4-0.8-2.4-2.2c0-1.5,1.2-2.2,2.4-2.2
			c0.9,0,1.7,0.3,2.2,0.9v-1.2c0-0.9-0.7-1.4-1.7-1.4c-0.8,0-1.5,0.3-2.1,0.9l-0.5-0.7c0.7-0.8,1.6-1.1,2.7-1.1
			c1.4,0,2.6,0.6,2.6,2.3v4.7H159.6z M159.6,155.9v-1.3c-0.4-0.6-1.1-0.8-1.9-0.8c-1,0-1.7,0.6-1.7,1.5c0,0.9,0.7,1.5,1.7,1.5
			C158.4,156.7,159.2,156.4,159.6,155.9z"/>
		<path fill="#989898" d="M164.5,157.3l-2.8-6.8h1.1l2.3,5.5l2.2-5.5h1.1l-2.8,6.8H164.5z"/>
		<path fill="#989898" d="M168.9,154.4v-0.9h3.4v0.9H168.9z"/>
		<path fill="#989898" d="M175.6,157.3l-2.8-6.8h1.1l2.3,5.5l2.2-5.5h1.1l-2.8,6.8H175.6z"/>
		<path fill="#989898" d="M180.3,157.3v-0.9c3.4-2.6,5.2-4.2,5.2-5.8c0-1.2-1-1.7-1.9-1.7c-1.1,0-2,0.5-2.5,1.2l-0.7-0.7
			c0.7-0.9,1.9-1.5,3.2-1.5c1.6,0,3.1,0.9,3.1,2.7c0,1.9-1.9,3.6-4.5,5.7h4.6v1H180.3z"/>
	</g>
	
		<polyline id="check_20_" fill="none" stroke="#259A47" stroke-width="1.75" stroke-linecap="round" stroke-linejoin="round" stroke-miterlimit="10" points="
		278.8,154.9 281.2,157.2 288.2,150.2 	"/>
	<g>
		<path fill="#989898" d="M110.5,179.2v-9.3h1.1v3.6c0.5-0.7,1.4-1.2,2.3-1.2c1.8,0,3,1.4,3,3.6c0,2.2-1.2,3.5-3,3.5
			c-1,0-1.8-0.5-2.3-1.2v1H110.5z M113.5,178.4c1.4,0,2.2-1.1,2.2-2.6s-0.8-2.6-2.2-2.6c-0.8,0-1.7,0.5-2,1.1v3.1
			C111.9,177.9,112.7,178.4,113.5,178.4z"/>
		<path fill="#989898" d="M118.5,179.2v-6.8h1.1v1.1c0.5-0.7,1.3-1.2,2.3-1.2v1.1c-0.1,0-0.3,0-0.4,0c-0.6,0-1.5,0.5-1.8,1.1v4.8
			H118.5z"/>
		<path fill="#989898" d="M127.4,179.2v-0.8c-0.6,0.6-1.3,0.9-2.2,0.9c-1.1,0-2.4-0.8-2.4-2.2c0-1.5,1.2-2.2,2.4-2.2
			c0.9,0,1.7,0.3,2.2,0.9v-1.2c0-0.9-0.7-1.4-1.7-1.4c-0.8,0-1.5,0.3-2.1,0.9l-0.5-0.7c0.7-0.8,1.6-1.1,2.7-1.1
			c1.4,0,2.6,0.6,2.6,2.3v4.7H127.4z M127.4,177.7v-1.3c-0.4-0.6-1.1-0.8-1.9-0.8c-1,0-1.7,0.6-1.7,1.5c0,0.9,0.7,1.5,1.7,1.5
			C126.2,178.6,126.9,178.3,127.4,177.7z"/>
		<path fill="#989898" d="M135.1,179.2v-4.4c0-1.2-0.6-1.6-1.5-1.6c-0.8,0-1.6,0.5-2,1.1v4.9h-1.1v-6.8h1.1v1
			c0.5-0.6,1.4-1.1,2.4-1.1c1.4,0,2.2,0.7,2.2,2.2v4.7H135.1z"/>
		<path fill="#989898" d="M143.1,179.2v-1c-0.5,0.7-1.3,1.2-2.3,1.2c-1.8,0-3-1.3-3-3.5c0-2.2,1.2-3.6,3-3.6c0.9,0,1.7,0.4,2.3,1.2
			v-3.6h1.1v9.3H143.1z M143.1,177.3v-3.1c-0.4-0.6-1.2-1.1-2-1.1c-1.4,0-2.2,1.1-2.2,2.6s0.8,2.6,2.2,2.6
			C141.9,178.4,142.7,177.9,143.1,177.3z"/>
		<path fill="#989898" d="M145.6,176.2v-0.9h3.4v0.9H145.6z"/>
		<path fill="#989898" d="M155,179.2v-4.4c0-1.2-0.6-1.6-1.5-1.6c-0.8,0-1.6,0.5-2,1.1v4.9h-1.1v-6.8h1.1v1c0.5-0.6,1.4-1.1,2.4-1.1
			c1.4,0,2.2,0.7,2.2,2.2v4.7H155z"/>
		<path fill="#989898" d="M157.8,175.8c0-2,1.4-3.5,3.3-3.5c2,0,3.2,1.6,3.2,3.6v0.3h-5.5c0.1,1.3,1,2.3,2.4,2.3
			c0.8,0,1.6-0.3,2.1-0.9l0.5,0.7c-0.7,0.7-1.6,1-2.7,1C159.2,179.3,157.8,177.9,157.8,175.8z M161.1,173.1c-1.4,0-2.2,1.2-2.2,2.3
			h4.4C163.3,174.4,162.6,173.1,161.1,173.1z"/>
		<path fill="#989898" d="M171.9,179.2l-1.8-5.4l-1.8,5.4h-1.1l-2.2-6.8h1.1l1.7,5.4l1.8-5.4h0.9l1.8,5.4l1.7-5.4h1.1l-2.2,6.8
			H171.9z"/>
		<path fill="#989898" d="M175.7,176.2v-0.9h3.4v0.9H175.7z"/>
		<path fill="#989898" d="M185.1,179.2v-4.4c0-1.2-0.6-1.6-1.5-1.6c-0.8,0-1.6,0.5-2,1.1v4.9h-1.1v-6.8h1.1v1
			c0.5-0.6,1.4-1.1,2.4-1.1c1.4,0,2.2,0.7,2.2,2.2v4.7H185.1z"/>
		<path fill="#989898" d="M192.5,179.2v-0.8c-0.6,0.6-1.3,0.9-2.2,0.9c-1.1,0-2.4-0.8-2.4-2.2c0-1.5,1.2-2.2,2.4-2.2
			c0.9,0,1.7,0.3,2.2,0.9v-1.2c0-0.9-0.7-1.4-1.7-1.4c-0.8,0-1.5,0.3-2.1,0.9l-0.5-0.7c0.7-0.8,1.6-1.1,2.7-1.1
			c1.4,0,2.6,0.6,2.6,2.3v4.7H192.5z M192.5,177.7v-1.3c-0.4-0.6-1.1-0.8-1.9-0.8c-1,0-1.7,0.6-1.7,1.5c0,0.9,0.7,1.5,1.7,1.5
			C191.4,178.6,192.1,178.3,192.5,177.7z"/>
		<path fill="#989898" d="M197.4,179.2l-2.8-6.8h1.1l2.3,5.5l2.2-5.5h1.1l-2.8,6.8H197.4z"/>
	</g>
	
		<polyline id="check_19_" fill="none" stroke="#259A47" stroke-width="1.75" stroke-linecap="round" stroke-linejoin="round" stroke-miterlimit="10" points="
		278.8,176.8 281.2,179.1 288.2,172.1 	"/>
	<g>
		<path fill="#989898" d="M110.5,222.9v-9.3h1.1v3.6c0.5-0.7,1.4-1.2,2.3-1.2c1.8,0,3,1.4,3,3.6c0,2.2-1.2,3.5-3,3.5
			c-1,0-1.8-0.5-2.3-1.2v1H110.5z M113.5,222.2c1.4,0,2.2-1.1,2.2-2.6s-0.8-2.6-2.2-2.6c-0.8,0-1.7,0.5-2,1.1v3.1
			C111.9,221.7,112.7,222.2,113.5,222.2z"/>
		<path fill="#989898" d="M123.1,222.9v-1c-0.5,0.6-1.4,1.1-2.4,1.1c-1.4,0-2.2-0.7-2.2-2.2v-4.8h1.1v4.5c0,1.2,0.6,1.5,1.5,1.5
			c0.8,0,1.6-0.5,2-1v-5h1.1v6.8H123.1z"/>
		<path fill="#989898" d="M126,214.5c0-0.4,0.3-0.7,0.7-0.7c0.4,0,0.7,0.3,0.7,0.7s-0.3,0.7-0.7,0.7
			C126.4,215.2,126,214.9,126,214.5z M126.2,222.9v-6.8h1.1v6.8H126.2z"/>
		<path fill="#989898" d="M129.4,222.9v-9.3h1.1v9.3H129.4z"/>
		<path fill="#989898" d="M137.4,222.9v-1c-0.5,0.7-1.3,1.2-2.3,1.2c-1.8,0-3-1.3-3-3.5c0-2.2,1.2-3.6,3-3.6c0.9,0,1.7,0.4,2.3,1.2
			v-3.6h1.1v9.3H137.4z M137.4,221.1V218c-0.4-0.6-1.2-1.1-2-1.1c-1.4,0-2.2,1.1-2.2,2.6s0.8,2.6,2.2,2.6
			C136.2,222.2,137,221.7,137.4,221.1z"/>
		<path fill="#989898" d="M139.9,220v-0.9h3.4v0.9H139.9z"/>
		<path fill="#989898" d="M145,221.5v-4.4h-1.1v-0.9h1.1v-1.8h1.1v1.8h1.4v0.9H146v4.2c0,0.5,0.2,0.9,0.7,0.9c0.3,0,0.6-0.1,0.7-0.3
			l0.3,0.8c-0.3,0.3-0.6,0.4-1.3,0.4C145.5,223.1,145,222.5,145,221.5z"/>
		<path fill="#989898" d="M148.5,219.5c0-2,1.3-3.5,3.3-3.5c2.1,0,3.3,1.6,3.3,3.5s-1.3,3.6-3.3,3.6
			C149.8,223.1,148.5,221.5,148.5,219.5z M154.1,219.5c0-1.4-0.8-2.6-2.2-2.6c-1.4,0-2.3,1.2-2.3,2.6c0,1.4,0.8,2.6,2.3,2.6
			C153.3,222.2,154.1,220.9,154.1,219.5z"/>
		<path fill="#989898" d="M157.9,221.9v3.6h-1.1v-9.3h1.1v1c0.5-0.7,1.3-1.2,2.3-1.2c1.8,0,3,1.3,3,3.5c0,2.2-1.2,3.6-3,3.6
			C159.3,223.1,158.5,222.7,157.9,221.9z M162.1,219.5c0-1.5-0.8-2.6-2.2-2.6c-0.8,0-1.7,0.5-2,1.1v3.1c0.4,0.6,1.2,1.1,2,1.1
			C161.3,222.2,162.1,221,162.1,219.5z"/>
		<path fill="#989898" d="M164.3,220v-0.9h3.4v0.9H164.3z"/>
		<path fill="#989898" d="M168.7,219.5c0-2.2,1.2-3.5,3-3.5c1,0,1.8,0.5,2.3,1.2v-1h1v9.3h-1v-3.6c-0.5,0.8-1.4,1.2-2.3,1.2
			C169.9,223.1,168.7,221.7,168.7,219.5z M173.9,221.1V218c-0.4-0.6-1.2-1.1-2-1.1c-1.4,0-2.2,1.1-2.2,2.6s0.8,2.6,2.2,2.6
			C172.8,222.2,173.6,221.6,173.9,221.1z"/>
		<path fill="#989898" d="M181.7,222.9v-1c-0.5,0.6-1.4,1.1-2.4,1.1c-1.4,0-2.2-0.7-2.2-2.2v-4.8h1.1v4.5c0,1.2,0.6,1.5,1.5,1.5
			c0.8,0,1.6-0.5,2-1v-5h1.1v6.8H181.7z"/>
		<path fill="#989898" d="M184.4,219.5c0-2,1.4-3.5,3.3-3.5c2,0,3.2,1.6,3.2,3.6v0.3h-5.5c0.1,1.3,1,2.3,2.4,2.3
			c0.8,0,1.6-0.3,2.1-0.9l0.5,0.7c-0.7,0.7-1.6,1-2.7,1C185.9,223.1,184.4,221.6,184.4,219.5z M187.7,216.9c-1.4,0-2.2,1.2-2.2,2.3
			h4.4C190,218.1,189.3,216.9,187.7,216.9z"/>
		<path fill="#989898" d="M197.3,222.9v-1c-0.5,0.6-1.4,1.1-2.4,1.1c-1.4,0-2.2-0.7-2.2-2.2v-4.8h1.1v4.5c0,1.2,0.6,1.5,1.5,1.5
			c0.8,0,1.6-0.5,2-1v-5h1.1v6.8H197.3z"/>
		<path fill="#989898" d="M200,219.5c0-2,1.4-3.5,3.3-3.5c2,0,3.2,1.6,3.2,3.6v0.3h-5.5c0.1,1.3,1,2.3,2.4,2.3
			c0.8,0,1.6-0.3,2.1-0.9l0.5,0.7c-0.7,0.7-1.6,1-2.7,1C201.5,223.1,200,221.6,200,219.5z M203.3,216.9c-1.4,0-2.2,1.2-2.2,2.3h4.4
			C205.6,218.1,204.9,216.9,203.3,216.9z"/>
		<path fill="#989898" d="M207.7,220v-0.9h3.4v0.9H207.7z"/>
		<path fill="#989898" d="M212.8,222.9v-5.8h-1.1v-0.9h1.1v-0.5c0-1.4,0.8-2.2,2-2.2c0.4,0,0.8,0.1,1,0.2l-0.3,0.8
			c-0.2-0.1-0.3-0.2-0.6-0.2c-0.7,0-1.1,0.5-1.1,1.3v0.5h1.4v0.9h-1.4v5.8H212.8z M216.3,214.5c0-0.4,0.3-0.7,0.7-0.7
			c0.4,0,0.7,0.3,0.7,0.7s-0.3,0.7-0.7,0.7C216.6,215.2,216.3,214.9,216.3,214.5z M216.5,222.9v-6.8h1.1v6.8H216.5z"/>
		<path fill="#989898" d="M224,222.9l-2-2.8l-2,2.8h-1.2l2.6-3.5l-2.5-3.3h1.2l1.9,2.6l1.9-2.6h1.2l-2.5,3.3l2.6,3.5H224z"/>
		<path fill="#989898" d="M225.5,219.5c0-2,1.4-3.5,3.3-3.5c2,0,3.2,1.6,3.2,3.6v0.3h-5.5c0.1,1.3,1,2.3,2.4,2.3
			c0.8,0,1.6-0.3,2.1-0.9l0.5,0.7c-0.7,0.7-1.6,1-2.7,1C227,223.1,225.5,221.6,225.5,219.5z M228.8,216.9c-1.4,0-2.2,1.2-2.2,2.3
			h4.4C231.1,218.1,230.4,216.9,228.8,216.9z"/>
		<path fill="#989898" d="M233.2,222l0.5-0.8c0.4,0.5,1.3,1,2.2,1c1,0,1.6-0.5,1.6-1.2c0-1.6-4.2-0.6-4.2-3.1c0-1.1,0.9-1.9,2.5-1.9
			c1.1,0,2,0.4,2.5,1l-0.5,0.7c-0.4-0.5-1.1-0.9-2-0.9c-0.9,0-1.5,0.5-1.5,1.1c0,1.5,4.2,0.5,4.2,3.1c0,1.1-0.9,2-2.7,2
			C234.8,223.1,233.9,222.8,233.2,222z"/>
	</g>
	
		<polyline id="check_18_" fill="none" stroke="#259A47" stroke-width="1.75" stroke-linecap="round" stroke-linejoin="round" stroke-miterlimit="10" points="
		278.8,220.5 281.2,222.9 288.2,215.9 	"/>
	<g>
		<path fill="#989898" d="M110.1,241.4c0-2,1.4-3.5,3.4-3.5c1.2,0,2,0.5,2.5,1.2l-0.7,0.6c-0.4-0.6-1-0.9-1.7-0.9
			c-1.4,0-2.3,1.1-2.3,2.6s0.9,2.6,2.3,2.6c0.7,0,1.3-0.3,1.7-0.9l0.7,0.6c-0.5,0.7-1.2,1.2-2.5,1.2
			C111.4,245,110.1,243.4,110.1,241.4z"/>
		<path fill="#989898" d="M122,244.8v-1c-0.5,0.6-1.4,1.1-2.4,1.1c-1.4,0-2.2-0.7-2.2-2.2V238h1.1v4.5c0,1.2,0.6,1.5,1.5,1.5
			c0.8,0,1.6-0.5,2-1v-5h1.1v6.8H122z"/>
		<path fill="#989898" d="M124.5,243.9l0.5-0.8c0.4,0.5,1.3,1,2.2,1c1,0,1.6-0.5,1.6-1.2c0-1.6-4.2-0.6-4.2-3.1
			c0-1.1,0.9-1.9,2.5-1.9c1.1,0,2,0.4,2.5,1l-0.5,0.7c-0.4-0.5-1.1-0.9-2-0.9c-0.9,0-1.5,0.5-1.5,1.1c0,1.5,4.2,0.5,4.2,3.1
			c0,1.1-0.9,2-2.7,2C126.1,245,125.2,244.6,124.5,243.9z"/>
		<path fill="#989898" d="M131.8,243.4V239h-1.1V238h1.1v-1.8h1.1v1.8h1.4v0.9h-1.4v4.2c0,0.5,0.2,0.9,0.7,0.9
			c0.3,0,0.6-0.1,0.7-0.3l0.3,0.8c-0.3,0.3-0.6,0.4-1.3,0.4C132.3,245,131.8,244.4,131.8,243.4z"/>
		<path fill="#989898" d="M135.3,241.4c0-2,1.3-3.5,3.3-3.5c2.1,0,3.3,1.6,3.3,3.5s-1.3,3.6-3.3,3.6
			C136.6,245,135.3,243.4,135.3,241.4z M140.9,241.4c0-1.4-0.8-2.6-2.2-2.6c-1.4,0-2.3,1.2-2.3,2.6c0,1.4,0.8,2.6,2.3,2.6
			C140.1,244,140.9,242.8,140.9,241.4z"/>
		<path fill="#989898" d="M151.9,244.8v-4.6c0-0.9-0.4-1.4-1.2-1.4c-0.7,0-1.4,0.5-1.8,1v5h-1.1v-4.6c0-0.9-0.4-1.4-1.2-1.4
			c-0.7,0-1.4,0.5-1.8,1.1v4.9h-1.1V238h1.1v1c0.3-0.4,1.2-1.1,2.2-1.1c1,0,1.6,0.6,1.8,1.3c0.4-0.6,1.3-1.3,2.3-1.3
			c1.2,0,1.9,0.7,1.9,2v4.9H151.9z"/>
		<path fill="#989898" d="M154.7,241.4c0-2,1.4-3.5,3.3-3.5c2,0,3.2,1.6,3.2,3.6v0.3h-5.5c0.1,1.3,1,2.3,2.4,2.3
			c0.8,0,1.6-0.3,2.1-0.9l0.5,0.7c-0.7,0.7-1.6,1-2.7,1C156.1,245,154.7,243.5,154.7,241.4z M158,238.7c-1.4,0-2.2,1.2-2.2,2.3h4.4
			C160.2,240,159.5,238.7,158,238.7z"/>
		<path fill="#989898" d="M162.9,244.8V238h1.1v1.1c0.5-0.7,1.3-1.2,2.3-1.2v1.1c-0.1,0-0.3,0-0.4,0c-0.6,0-1.5,0.5-1.8,1.1v4.8
			H162.9z"/>
		<path fill="#989898" d="M166.9,241.9v-0.9h3.4v0.9H166.9z"/>
		<path fill="#989898" d="M171.2,243.9l0.5-0.8c0.4,0.5,1.3,1,2.2,1c1,0,1.6-0.5,1.6-1.2c0-1.6-4.2-0.6-4.2-3.1
			c0-1.1,0.9-1.9,2.5-1.9c1.1,0,2,0.4,2.5,1l-0.5,0.7c-0.4-0.5-1.1-0.9-2-0.9c-0.9,0-1.5,0.5-1.5,1.1c0,1.5,4.2,0.5,4.2,3.1
			c0,1.1-0.9,2-2.7,2C172.8,245,171.8,244.6,171.2,243.9z"/>
		<path fill="#989898" d="M178.5,243.4V239h-1.1V238h1.1v-1.8h1.1v1.8h1.4v0.9h-1.4v4.2c0,0.5,0.2,0.9,0.7,0.9
			c0.3,0,0.6-0.1,0.7-0.3l0.3,0.8c-0.3,0.3-0.6,0.4-1.3,0.4C179,245,178.5,244.4,178.5,243.4z"/>
		<path fill="#989898" d="M182,241.4c0-2,1.3-3.5,3.3-3.5c2.1,0,3.3,1.6,3.3,3.5s-1.3,3.6-3.3,3.6C183.3,245,182,243.4,182,241.4z
			 M187.6,241.4c0-1.4-0.8-2.6-2.2-2.6c-1.4,0-2.3,1.2-2.3,2.6c0,1.4,0.8,2.6,2.3,2.6C186.8,244,187.6,242.8,187.6,241.4z"/>
		<path fill="#989898" d="M190.4,244.8V238h1.1v1.1c0.5-0.7,1.3-1.2,2.3-1.2v1.1c-0.1,0-0.3,0-0.4,0c-0.6,0-1.5,0.5-1.8,1.1v4.8
			H190.4z"/>
		<path fill="#989898" d="M194.8,246.5c0.2,0.1,0.4,0.1,0.6,0.1c0.5,0,0.8-0.2,1-0.7l0.4-1L194,238h1.1l2.3,5.5l2.2-5.5h1.1
			l-3.4,8.1c-0.4,1-1.1,1.4-2,1.4c-0.2,0-0.6,0-0.8-0.1L194.8,246.5z"/>
		<path fill="#989898" d="M201.2,241.9v-0.9h3.4v0.9H201.2z"/>
		<path fill="#989898" d="M205.5,243.9l0.5-0.8c0.4,0.5,1.3,1,2.2,1c1,0,1.6-0.5,1.6-1.2c0-1.6-4.2-0.6-4.2-3.1
			c0-1.1,0.9-1.9,2.5-1.9c1.1,0,2,0.4,2.5,1l-0.5,0.7c-0.4-0.5-1.1-0.9-2-0.9c-0.9,0-1.5,0.5-1.5,1.1c0,1.5,4.2,0.5,4.2,3.1
			c0,1.1-0.9,2-2.7,2C207.1,245,206.2,244.6,205.5,243.9z"/>
		<path fill="#989898" d="M212.8,243.4V239h-1.1V238h1.1v-1.8h1.1v1.8h1.4v0.9h-1.4v4.2c0,0.5,0.2,0.9,0.7,0.9
			c0.3,0,0.6-0.1,0.7-0.3l0.3,0.8c-0.3,0.3-0.6,0.4-1.3,0.4C213.3,245,212.8,244.4,212.8,243.4z"/>
		<path fill="#989898" d="M216.5,246.5c0.2,0.1,0.4,0.1,0.6,0.1c0.5,0,0.8-0.2,1-0.7l0.4-1l-2.8-6.8h1.1l2.3,5.5l2.2-5.5h1.1
			l-3.4,8.1c-0.4,1-1.1,1.4-2,1.4c-0.2,0-0.6,0-0.8-0.1L216.5,246.5z"/>
		<path fill="#989898" d="M223.5,244.8v-9.3h1.1v9.3H223.5z"/>
		<path fill="#989898" d="M226.3,241.4c0-2,1.4-3.5,3.3-3.5c2,0,3.2,1.6,3.2,3.6v0.3h-5.5c0.1,1.3,1,2.3,2.4,2.3
			c0.8,0,1.6-0.3,2.1-0.9l0.5,0.7c-0.7,0.7-1.6,1-2.7,1C227.7,245,226.3,243.5,226.3,241.4z M229.6,238.7c-1.4,0-2.2,1.2-2.2,2.3
			h4.4C231.8,240,231.2,238.7,229.6,238.7z"/>
		<path fill="#989898" d="M234,243.9l0.5-0.8c0.4,0.5,1.3,1,2.2,1c1,0,1.6-0.5,1.6-1.2c0-1.6-4.2-0.6-4.2-3.1c0-1.1,0.9-1.9,2.5-1.9
			c1.1,0,2,0.4,2.5,1l-0.5,0.7c-0.4-0.5-1.1-0.9-2-0.9c-0.9,0-1.5,0.5-1.5,1.1c0,1.5,4.2,0.5,4.2,3.1c0,1.1-0.9,2-2.7,2
			C235.6,245,234.7,244.6,234,243.9z"/>
	</g>
	
		<polyline id="check_17_" fill="none" stroke="#259A47" stroke-width="1.75" stroke-linecap="round" stroke-linejoin="round" stroke-miterlimit="10" points="
		278.8,242.4 281.2,244.8 288.2,237.8 	"/>
	<g>
		<path fill="#989898" d="M115.4,266.7v-1c-0.5,0.7-1.3,1.2-2.3,1.2c-1.8,0-3-1.3-3-3.5c0-2.2,1.2-3.6,3-3.6c0.9,0,1.7,0.4,2.3,1.2
			v-3.6h1.1v9.3H115.4z M115.4,264.8v-3.1c-0.4-0.6-1.2-1.1-2-1.1c-1.4,0-2.2,1.1-2.2,2.6s0.8,2.6,2.2,2.6
			C114.2,265.9,115,265.4,115.4,264.8z"/>
		<path fill="#989898" d="M118.1,263.3c0-2,1.4-3.5,3.3-3.5c2,0,3.2,1.6,3.2,3.6v0.3h-5.5c0.1,1.3,1,2.3,2.4,2.3
			c0.8,0,1.6-0.3,2.1-0.9l0.5,0.7c-0.7,0.7-1.6,1-2.7,1C119.6,266.8,118.1,265.4,118.1,263.3z M121.4,260.6c-1.4,0-2.2,1.2-2.2,2.3
			h4.4C123.6,261.9,123,260.6,121.4,260.6z"/>
		<path fill="#989898" d="M125.8,265.8l0.5-0.8c0.4,0.5,1.3,1,2.2,1c1,0,1.6-0.5,1.6-1.2c0-1.6-4.2-0.6-4.2-3.1
			c0-1.1,0.9-1.9,2.5-1.9c1.1,0,2,0.4,2.5,1l-0.5,0.7c-0.4-0.5-1.1-0.9-2-0.9c-0.9,0-1.5,0.5-1.5,1.1c0,1.5,4.2,0.5,4.2,3.1
			c0,1.1-0.9,2-2.7,2C127.4,266.8,126.5,266.5,125.8,265.8z"/>
		<path fill="#989898" d="M132.7,258.2c0-0.4,0.3-0.7,0.7-0.7c0.4,0,0.7,0.3,0.7,0.7s-0.3,0.7-0.7,0.7
			C133,258.9,132.7,258.6,132.7,258.2z M132.9,266.7v-6.8h1.1v6.8H132.9z"/>
		<path fill="#989898" d="M136,268.4l0.5-0.8c0.6,0.7,1.2,0.9,2.2,0.9c1.1,0,2.2-0.5,2.2-2v-1c-0.5,0.7-1.3,1.2-2.3,1.2
			c-1.8,0-3-1.3-3-3.5c0-2.2,1.2-3.5,3-3.5c0.9,0,1.7,0.4,2.3,1.2v-1h1.1v6.6c0,2.2-1.6,2.9-3.2,2.9
			C137.6,269.4,136.8,269.2,136,268.4z M140.9,264.7v-3c-0.4-0.6-1.2-1.1-2-1.1c-1.4,0-2.2,1.1-2.2,2.6c0,1.5,0.8,2.6,2.2,2.6
			C139.8,265.8,140.6,265.3,140.9,264.7z"/>
		<path fill="#989898" d="M148.6,266.7v-4.4c0-1.2-0.6-1.6-1.5-1.6c-0.8,0-1.6,0.5-2,1.1v4.9h-1.1v-6.8h1.1v1
			c0.5-0.6,1.4-1.1,2.4-1.1c1.4,0,2.2,0.7,2.2,2.2v4.7H148.6z"/>
		<path fill="#989898" d="M151.2,263.7v-0.9h3.4v0.9H151.2z"/>
		<path fill="#989898" d="M156,266.7v-9.3h1.1v9.3H156z"/>
		<path fill="#989898" d="M159,258.2c0-0.4,0.3-0.7,0.7-0.7c0.4,0,0.7,0.3,0.7,0.7s-0.3,0.7-0.7,0.7
			C159.3,258.9,159,258.6,159,258.2z M159.1,266.7v-6.8h1.1v6.8H159.1z"/>
		<path fill="#989898" d="M161.7,265.8l0.5-0.8c0.4,0.5,1.3,1,2.2,1c1,0,1.6-0.5,1.6-1.2c0-1.6-4.2-0.6-4.2-3.1
			c0-1.1,0.9-1.9,2.5-1.9c1.1,0,2,0.4,2.5,1l-0.5,0.7c-0.4-0.5-1.1-0.9-2-0.9c-0.9,0-1.5,0.5-1.5,1.1c0,1.5,4.2,0.5,4.2,3.1
			c0,1.1-0.9,2-2.7,2C163.3,266.8,162.4,266.5,161.7,265.8z"/>
		<path fill="#989898" d="M169,265.3v-4.4h-1.1v-0.9h1.1v-1.8h1.1v1.8h1.4v0.9h-1.4v4.2c0,0.5,0.2,0.9,0.7,0.9
			c0.3,0,0.6-0.1,0.7-0.3l0.3,0.8c-0.3,0.3-0.6,0.4-1.3,0.4C169.5,266.8,169,266.3,169,265.3z"/>
		<path fill="#989898" d="M172.7,258.2c0-0.4,0.3-0.7,0.7-0.7c0.4,0,0.7,0.3,0.7,0.7s-0.3,0.7-0.7,0.7
			C173.1,258.9,172.7,258.6,172.7,258.2z M172.9,266.7v-6.8h1.1v6.8H172.9z"/>
		<path fill="#989898" d="M180.6,266.7v-4.4c0-1.2-0.6-1.6-1.5-1.6c-0.8,0-1.6,0.5-2,1.1v4.9h-1.1v-6.8h1.1v1
			c0.5-0.6,1.4-1.1,2.4-1.1c1.4,0,2.2,0.7,2.2,2.2v4.7H180.6z"/>
		<path fill="#989898" d="M183.8,268.4l0.5-0.8c0.6,0.7,1.2,0.9,2.2,0.9c1.1,0,2.2-0.5,2.2-2v-1c-0.5,0.7-1.3,1.2-2.3,1.2
			c-1.8,0-3-1.3-3-3.5c0-2.2,1.2-3.5,3-3.5c0.9,0,1.7,0.4,2.3,1.2v-1h1.1v6.6c0,2.2-1.6,2.9-3.2,2.9
			C185.4,269.4,184.6,269.2,183.8,268.4z M188.7,264.7v-3c-0.4-0.6-1.2-1.1-2-1.1c-1.4,0-2.2,1.1-2.2,2.6c0,1.5,0.8,2.6,2.2,2.6
			C187.5,265.8,188.3,265.3,188.7,264.7z"/>
		<path fill="#989898" d="M191.2,263.7v-0.9h3.4v0.9H191.2z"/>
		<path fill="#989898" d="M196,266.7v-6.8h1.1v1.1c0.5-0.7,1.3-1.2,2.3-1.2v1.1c-0.1,0-0.3,0-0.4,0c-0.6,0-1.5,0.5-1.8,1.1v4.8H196z
			"/>
		<path fill="#989898" d="M200.2,263.3c0-2,1.4-3.5,3.3-3.5c2,0,3.2,1.6,3.2,3.6v0.3h-5.5c0.1,1.3,1,2.3,2.4,2.3
			c0.8,0,1.6-0.3,2.1-0.9l0.5,0.7c-0.7,0.7-1.6,1-2.7,1C201.7,266.8,200.2,265.4,200.2,263.3z M203.6,260.6c-1.4,0-2.2,1.2-2.2,2.3
			h4.4C205.8,261.9,205.1,260.6,203.6,260.6z"/>
		<path fill="#989898" d="M214.4,266.7l-1.8-5.4l-1.8,5.4h-1.1l-2.2-6.8h1.1l1.7,5.4l1.8-5.4h0.9l1.8,5.4l1.7-5.4h1.1l-2.2,6.8
			H214.4z"/>
		<path fill="#989898" d="M218.8,266.7v-6.8h1.1v1.1c0.5-0.7,1.3-1.2,2.3-1.2v1.1c-0.1,0-0.3,0-0.4,0c-0.6,0-1.5,0.5-1.8,1.1v4.8
			H218.8z"/>
		<path fill="#989898" d="M223.2,258.2c0-0.4,0.3-0.7,0.7-0.7c0.4,0,0.7,0.3,0.7,0.7s-0.3,0.7-0.7,0.7
			C223.6,258.9,223.2,258.6,223.2,258.2z M223.4,266.7v-6.8h1.1v6.8H223.4z"/>
		<path fill="#989898" d="M226.8,265.3v-4.4h-1.1v-0.9h1.1v-1.8h1.1v1.8h1.4v0.9h-1.4v4.2c0,0.5,0.2,0.9,0.7,0.9
			c0.3,0,0.6-0.1,0.7-0.3l0.3,0.8c-0.3,0.3-0.6,0.4-1.3,0.4C227.3,266.8,226.8,266.3,226.8,265.3z"/>
		<path fill="#989898" d="M230.3,263.3c0-2,1.4-3.5,3.3-3.5c2,0,3.2,1.6,3.2,3.6v0.3h-5.5c0.1,1.3,1,2.3,2.4,2.3
			c0.8,0,1.6-0.3,2.1-0.9l0.5,0.7c-0.7,0.7-1.6,1-2.7,1C231.7,266.8,230.3,265.4,230.3,263.3z M233.6,260.6c-1.4,0-2.2,1.2-2.2,2.3
			h4.4C235.8,261.9,235.2,260.6,233.6,260.6z"/>
	</g>
	
		<polyline id="check_16_" fill="none" stroke="#259A47" stroke-width="1.75" stroke-linecap="round" stroke-linejoin="round" stroke-miterlimit="10" points="
		278.8,264.3 281.2,266.6 288.2,259.6 	"/>
	<g>
		<path fill="#989898" d="M118.6,288.5V284c0-0.9-0.4-1.4-1.2-1.4c-0.7,0-1.4,0.5-1.8,1v5h-1.1V284c0-0.9-0.4-1.4-1.2-1.4
			c-0.7,0-1.4,0.5-1.8,1.1v4.9h-1.1v-6.8h1.1v1c0.3-0.4,1.2-1.1,2.2-1.1c1,0,1.6,0.6,1.8,1.3c0.4-0.6,1.3-1.3,2.3-1.3
			c1.2,0,1.9,0.7,1.9,2v4.9H118.6z"/>
		<path fill="#989898" d="M126,288.5v-0.8c-0.6,0.6-1.3,0.9-2.2,0.9c-1.1,0-2.4-0.8-2.4-2.2c0-1.5,1.2-2.2,2.4-2.2
			c0.9,0,1.7,0.3,2.2,0.9V284c0-0.9-0.7-1.4-1.7-1.4c-0.8,0-1.5,0.3-2.1,0.9l-0.5-0.7c0.7-0.8,1.6-1.1,2.7-1.1
			c1.4,0,2.6,0.6,2.6,2.3v4.7H126z M126,287.1v-1.3c-0.4-0.6-1.1-0.8-1.9-0.8c-1,0-1.7,0.6-1.7,1.5c0,0.9,0.7,1.5,1.7,1.5
			C124.9,288,125.6,287.7,126,287.1z"/>
		<path fill="#989898" d="M128.6,287.7l0.5-0.8c0.4,0.5,1.3,1,2.2,1c1,0,1.6-0.5,1.6-1.2c0-1.6-4.2-0.6-4.2-3.1
			c0-1.1,0.9-1.9,2.5-1.9c1.1,0,2,0.4,2.5,1l-0.5,0.7c-0.4-0.5-1.1-0.9-2-0.9c-0.9,0-1.5,0.5-1.5,1.1c0,1.5,4.2,0.5,4.2,3.1
			c0,1.1-0.9,2-2.7,2C130.2,288.7,129.2,288.4,128.6,287.7z"/>
		<path fill="#989898" d="M135.9,287.1v-4.4h-1.1v-0.9h1.1v-1.8h1.1v1.8h1.4v0.9h-1.4v4.2c0,0.5,0.2,0.9,0.7,0.9
			c0.3,0,0.6-0.1,0.7-0.3l0.3,0.8c-0.3,0.3-0.6,0.4-1.3,0.4C136.4,288.7,135.9,288.1,135.9,287.1z"/>
		<path fill="#989898" d="M139.4,285.2c0-2,1.4-3.5,3.3-3.5c2,0,3.2,1.6,3.2,3.6v0.3h-5.5c0.1,1.3,1,2.3,2.4,2.3
			c0.8,0,1.6-0.3,2.1-0.9l0.5,0.7c-0.7,0.7-1.6,1-2.7,1C140.8,288.7,139.4,287.3,139.4,285.2z M142.7,282.5c-1.4,0-2.2,1.2-2.2,2.3
			h4.4C144.9,283.7,144.2,282.5,142.7,282.5z"/>
		<path fill="#989898" d="M147.7,288.5v-6.8h1.1v1.1c0.5-0.7,1.3-1.2,2.3-1.2v1.1c-0.1,0-0.3,0-0.4,0c-0.6,0-1.5,0.5-1.8,1.1v4.8
			H147.7z"/>
	</g>
	
		<polyline id="check_15_" fill="none" stroke="#259A47" stroke-width="1.75" stroke-linecap="round" stroke-linejoin="round" stroke-miterlimit="10" points="
		278.8,286.1 281.2,288.5 288.2,281.5 	"/>
	
		<line id="head-border_2_" fill="none" stroke="#DEDEDD" stroke-width="0.875" stroke-miterlimit="10" x1="87.5" y1="131" x2="306.3" y2="131"/>
	<g>
		<path fill="#333333" d="M139.7,91.7v-4l-3.7-5.4h1.4l2.9,4.3l2.9-4.3h1.4l-3.7,5.4v4H139.7z"/>
		<path fill="#333333" d="M143.5,88.3c0-2,1.3-3.5,3.3-3.5c2.1,0,3.3,1.6,3.3,3.5s-1.3,3.6-3.3,3.6
			C144.8,91.8,143.5,90.2,143.5,88.3z M149.1,88.3c0-1.4-0.8-2.6-2.2-2.6c-1.4,0-2.3,1.2-2.3,2.6c0,1.4,0.8,2.6,2.3,2.6
			C148.3,90.9,149.1,89.7,149.1,88.3z"/>
		<path fill="#333333" d="M156.5,91.7v-1c-0.5,0.6-1.4,1.1-2.4,1.1c-1.4,0-2.2-0.7-2.2-2.2v-4.8h1.1v4.5c0,1.2,0.6,1.5,1.5,1.5
			c0.8,0,1.6-0.5,2-1v-5h1.1v6.8H156.5z"/>
		<path fill="#333333" d="M159.6,91.7v-6.8h1.1V86c0.5-0.7,1.3-1.2,2.3-1.2v1.1c-0.1,0-0.3,0-0.4,0c-0.6,0-1.5,0.5-1.8,1.1v4.8
			H159.6z"/>
		<path fill="#333333" d="M167.9,91.7v-9.3h4.2c1.6,0,2.6,1,2.6,2.4c0,1.2-0.8,2-1.6,2.1c1,0.2,1.8,1.2,1.8,2.3c0,1.5-1,2.5-2.7,2.5
			H167.9z M173.5,84.9c0-0.8-0.6-1.5-1.6-1.5H169v3h2.8C172.9,86.4,173.5,85.7,173.5,84.9z M173.6,89c0-0.9-0.6-1.6-1.7-1.6H169v3.2
			h2.9C173,90.6,173.6,90,173.6,89z"/>
		<path fill="#333333" d="M176.6,91.7v-6.8h1.1V86c0.5-0.7,1.3-1.2,2.3-1.2v1.1c-0.1,0-0.3,0-0.4,0c-0.6,0-1.5,0.5-1.8,1.1v4.8
			H176.6z"/>
		<path fill="#333333" d="M185.5,91.7v-0.8c-0.6,0.6-1.3,0.9-2.2,0.9c-1.1,0-2.4-0.8-2.4-2.2c0-1.5,1.2-2.2,2.4-2.2
			c0.9,0,1.7,0.3,2.2,0.9v-1.2c0-0.9-0.7-1.4-1.7-1.4c-0.8,0-1.5,0.3-2.1,0.9l-0.5-0.7c0.7-0.8,1.6-1.1,2.7-1.1
			c1.4,0,2.6,0.6,2.6,2.3v4.7H185.5z M185.5,90.2V89c-0.4-0.6-1.1-0.8-1.9-0.8c-1,0-1.7,0.6-1.7,1.5c0,0.9,0.7,1.5,1.7,1.5
			C184.4,91.1,185.1,90.8,185.5,90.2z"/>
		<path fill="#333333" d="M193.2,91.7v-4.4c0-1.2-0.6-1.6-1.5-1.6c-0.8,0-1.6,0.5-2,1.1v4.9h-1.1v-6.8h1.1v1
			c0.5-0.6,1.4-1.1,2.4-1.1c1.4,0,2.2,0.7,2.2,2.2v4.7H193.2z"/>
		<path fill="#333333" d="M196,88.3c0-2,1.4-3.5,3.4-3.5c1.2,0,2,0.5,2.5,1.2l-0.7,0.6c-0.4-0.6-1-0.9-1.7-0.9
			c-1.4,0-2.3,1.1-2.3,2.6s0.9,2.6,2.3,2.6c0.7,0,1.3-0.3,1.7-0.9l0.7,0.6c-0.5,0.7-1.2,1.2-2.5,1.2C197.3,91.8,196,90.3,196,88.3z"
			/>
		<path fill="#333333" d="M207.9,91.7v-4.5c0-1.2-0.6-1.5-1.5-1.5c-0.8,0-1.6,0.5-2,1.1v4.9h-1.1v-9.3h1.1v3.6
			c0.5-0.6,1.4-1.1,2.4-1.1c1.4,0,2.2,0.7,2.2,2.2v4.8H207.9z"/>
		<path fill="#333333" d="M221.3,91.7l-0.8-2.1h-4.7l-0.8,2.1h-1.3l3.8-9.3h1.4l3.8,9.3H221.3z M218.2,83.5l-2,5h4L218.2,83.5z"/>
		<path fill="#333333" d="M223.4,88.3c0-2,1.4-3.5,3.4-3.5c1.2,0,2,0.5,2.5,1.2l-0.7,0.6c-0.4-0.6-1-0.9-1.7-0.9
			c-1.4,0-2.3,1.1-2.3,2.6s0.9,2.6,2.3,2.6c0.7,0,1.3-0.3,1.7-0.9l0.7,0.6c-0.5,0.7-1.2,1.2-2.5,1.2
			C224.8,91.8,223.4,90.3,223.4,88.3z"/>
		<path fill="#333333" d="M231,90.3v-4.4h-1.1v-0.9h1.1v-1.8h1.1v1.8h1.4v0.9H232V90c0,0.5,0.2,0.9,0.7,0.9c0.3,0,0.6-0.1,0.7-0.3
			l0.3,0.8c-0.3,0.3-0.6,0.4-1.3,0.4C231.5,91.8,231,91.3,231,90.3z"/>
		<path fill="#333333" d="M234.7,83.2c0-0.4,0.3-0.7,0.7-0.7c0.4,0,0.7,0.3,0.7,0.7s-0.3,0.7-0.7,0.7
			C235,83.9,234.7,83.6,234.7,83.2z M234.9,91.7v-6.8h1.1v6.8H234.9z"/>
		<path fill="#333333" d="M239.8,91.7l-2.8-6.8h1.1l2.3,5.5l2.2-5.5h1.1l-2.8,6.8H239.8z"/>
		<path fill="#333333" d="M244.7,83.2c0-0.4,0.3-0.7,0.7-0.7c0.4,0,0.7,0.3,0.7,0.7s-0.3,0.7-0.7,0.7
			C245,83.9,244.7,83.6,244.7,83.2z M244.9,91.7v-6.8h1.1v6.8H244.9z"/>
		<path fill="#333333" d="M248.2,90.3v-4.4h-1.1v-0.9h1.1v-1.8h1.1v1.8h1.4v0.9h-1.4V90c0,0.5,0.2,0.9,0.7,0.9
			c0.3,0,0.6-0.1,0.7-0.3l0.3,0.8c-0.3,0.3-0.6,0.4-1.3,0.4C248.8,91.8,248.2,91.3,248.2,90.3z"/>
		<path fill="#333333" d="M251.9,93.4c0.2,0.1,0.4,0.1,0.6,0.1c0.5,0,0.8-0.2,1-0.7l0.4-1l-2.8-6.8h1.1l2.3,5.5l2.2-5.5h1.1
			l-3.4,8.1c-0.4,1-1.1,1.4-2,1.4c-0.2,0-0.6,0-0.8-0.1L251.9,93.4z"/>
	</g>
	<g id="draw-nav_2_">
		<rect x="0" y="43.5" fill="#333333" width="87.5" height="280"/>
		<circle id="link_7_" fill="#565656" cx="43.8" cy="262.2" r="17.5"/>
		<circle id="link_6_" fill="#565656" cx="43.8" cy="174.8" r="17.5"/>
		<path id="logo_2_" fill="#FFFFFF" d="M43.8,69.8c-8.2,0-15,5.6-17,13.1c0,0.1,0,0.1,0,0.2c0,0.5,0.4,0.8,0.8,0.8h7
			c0.3,0,0.6-0.2,0.8-0.5c0,0,0,0,0,0c1.5-3.1,4.6-5.3,8.3-5.3c5.1,0,9.2,4.1,9.2,9.2s-4.1,9.2-9.2,9.2c-3.7,0-6.9-2.2-8.3-5.3
			c0,0,0,0,0,0c-0.1-0.3-0.4-0.5-0.8-0.5h-7c-0.5,0-0.8,0.4-0.8,0.8c0,0.1,0,0.1,0,0.2c1.9,7.5,8.8,13.1,17,13.1
			c9.7,0,17.5-7.8,17.5-17.5C61.3,77.6,53.4,69.8,43.8,69.8z M43.8,83.1c-2.3,0-4.2,1.9-4.2,4.2s1.9,4.2,4.2,4.2s4.2-1.9,4.2-4.2
			S46.1,83.1,43.8,83.1z"/>
	</g>
</g>
</svg>
