<?xml version="1.0" encoding="utf-8"?>
<!-- Generator: Adobe Illustrator 18.1.1, SVG Export Plug-In . SVG Version: 6.00 Build 0)  -->
<svg version="1.1" id="Layer_1" xmlns="http://www.w3.org/2000/svg" xmlns:xlink="http://www.w3.org/1999/xlink" x="0px" y="0px"
	 viewBox="0 0 266.1 146" enable-background="new 0 0 266.1 146" xml:space="preserve">
<g>
	<polyline id="outline_2_" fill-rule="evenodd" clip-rule="evenodd" fill="#343434" points="0,146 0,94.5 40.8,94.5 40.8,40.8 
		148.1,40.8 148.1,0 212.4,0 212.4,94.5 266.1,94.5 266.1,146 	"/>
	<g id="Containers_3_">
		<path fill-rule="evenodd" clip-rule="evenodd" fill="#FBFCFC" d="M35.1,107.3h3.7V146h-3.7V107.3z M28,107.3h3.8V146H28V107.3z
			 M21,107.3h3.8V146H21V107.3z M13.9,107.3h3.8V146h-3.8V107.3z M6.9,107.3h3.8V146H6.9V107.3z M0,107.3h3.7V146H0V107.3z M0,103.4
			h42.6V146H0V103.4z"/>
		<path fill-rule="evenodd" clip-rule="evenodd" fill="#FBFCFC" d="M88.7,53.6h3.7v38.7h-3.7V53.6z M81.7,53.6h3.8v38.7h-3.8V53.6z
			 M74.6,53.6h3.8v38.7h-3.8V53.6z M67.6,53.6h3.8v38.7h-3.8V53.6z M60.5,53.6h3.8v38.7h-3.8V53.6z M53.6,53.6h3.7v38.7h-3.7V53.6z
			 M49.8,49.8h46.5v46.5H49.8V49.8z"/>
		<path fill-rule="evenodd" clip-rule="evenodd" fill="#FBFCFC" d="M88.7,107.3h3.7V146h-3.7V107.3z M81.7,107.3h3.8V146h-3.8V107.3
			z M74.6,107.3h3.8V146h-3.8V107.3z M67.6,107.3h3.8V146h-3.8V107.3z M60.5,107.3h3.8V146h-3.8V107.3z M53.6,107.3h3.7V146h-3.7
			V107.3z M49.8,103.4h46.5V146H49.8V103.4z"/>
		<path fill-rule="evenodd" clip-rule="evenodd" fill="#FBFCFC" d="M142.3,107.3h3.7V146h-3.7V107.3z M135.3,107.3h3.8V146h-3.8
			V107.3z M128.2,107.3h3.8V146h-3.8V107.3z M121.2,107.3h3.8V146h-3.8V107.3z M114.2,107.3h3.8V146h-3.8V107.3z M107.3,107.3h3.7
			V146h-3.7V107.3z M103.4,103.4h46.5V146h-46.5V103.4z"/>
		<path fill-rule="evenodd" clip-rule="evenodd" fill="#FBFCFC" d="M142.3,53.6h3.7v38.7h-3.7V53.6z M135.3,53.6h3.8v38.7h-3.8V53.6
			z M128.2,53.6h3.8v38.7h-3.8V53.6z M121.2,53.6h3.8v38.7h-3.8V53.6z M114.2,53.6h3.8v38.7h-3.8V53.6z M107.3,53.6h3.7v38.7h-3.7
			V53.6z M103.4,49.8h46.5v46.5h-46.5V49.8z"/>
		<path fill-rule="evenodd" clip-rule="evenodd" fill="#FBFCFC" d="M196,107.3h3.7V146H196V107.3z M188.9,107.3h3.8V146h-3.8V107.3z
			 M181.9,107.3h3.8V146h-3.8V107.3z M174.8,107.3h3.8V146h-3.8V107.3z M167.8,107.3h3.8V146h-3.8V107.3z M160.9,107.3h3.7V146h-3.7
			V107.3z M157,103.4h46.5V146H157V103.4z"/>
		<path fill-rule="evenodd" clip-rule="evenodd" fill="#FBFCFC" d="M196,53.6h3.7v38.7H196V53.6z M188.9,53.6h3.8v38.7h-3.8V53.6z
			 M181.9,53.6h3.8v38.7h-3.8V53.6z M174.8,53.6h3.8v38.7h-3.8V53.6z M167.8,53.6h3.8v38.7h-3.8V53.6z M160.9,53.6h3.7v38.7h-3.7
			V53.6z M157,49.8h46.5v46.5H157V49.8z"/>
		<path fill-rule="evenodd" clip-rule="evenodd" fill="#FBFCFC" d="M196,0h3.7v38.7H196V0z M188.9,0h3.8v38.7h-3.8V0z M181.9,0h3.8
			v38.7h-3.8V0z M174.8,0h3.8v38.7h-3.8V0z M167.8,0h3.8v38.7h-3.8V0z M160.9,0h3.7v38.7h-3.7V0z M157,0h46.5v42.6H157V0z"/>
		<path fill-rule="evenodd" clip-rule="evenodd" fill="#FBFCFC" d="M249.6,107.3h3.7V146h-3.7V107.3z M242.5,107.3h3.8V146h-3.8
			V107.3z M235.5,107.3h3.8V146h-3.8V107.3z M228.5,107.3h3.8V146h-3.8V107.3z M221.4,107.3h3.8V146h-3.8V107.3z M214.5,107.3h3.7
			V146h-3.7V107.3z M210.7,103.4h46.5V146h-46.5V103.4z"/>
	</g>
</g>
<g>
</g>
<g>
</g>
<g>
</g>
<g>
</g>
<g>
</g>
<g>
</g>
</svg>
