<svg xmlns="http://www.w3.org/2000/svg" xmlns:xlink="http://www.w3.org/1999/xlink" version="1.1" id="Your_Icon" x="0px" y="0px" width="100px" height="100px" viewBox="0 0 100 100" enable-background="new 0 0 100 100" xml:space="preserve">
<g>
	<path d="M31.184,50.018C31.184,39.642,39.624,31.2,50,31.2c4.238,0,8.255,1.407,11.545,3.976l-3.625,0.256   c-0.551,0.039-0.966,0.517-0.927,1.068c0.037,0.527,0.476,0.93,0.996,0.93c0.023,0,0.048-0.001,0.071-0.002l6.023-0.426   c0.05-0.003,0.091-0.028,0.139-0.038c0.069-0.015,0.137-0.026,0.203-0.056c0.065-0.03,0.119-0.074,0.176-0.117   c0.039-0.029,0.084-0.044,0.119-0.079c0.009-0.009,0.012-0.021,0.02-0.029c0.049-0.053,0.081-0.116,0.118-0.177   c0.03-0.051,0.067-0.098,0.088-0.153c0.02-0.052,0.021-0.109,0.032-0.165c0.014-0.074,0.031-0.145,0.028-0.22   c-0.001-0.012,0.005-0.021,0.004-0.033l-0.426-6.025c-0.039-0.551-0.522-0.964-1.067-0.927c-0.551,0.039-0.966,0.517-0.927,1.068   l0.254,3.603C59.191,30.775,54.719,29.2,50,29.2c-11.479,0-20.816,9.339-20.816,20.817c0,3.593,0.932,7.137,2.694,10.249   c0.184,0.324,0.522,0.507,0.871,0.507c0.167,0,0.336-0.042,0.491-0.13c0.481-0.272,0.649-0.883,0.378-1.363   C32.025,56.469,31.184,53.266,31.184,50.018z"/>
	<path d="M68.124,39.767c-0.271-0.481-0.883-0.65-1.362-0.377c-0.481,0.272-0.65,0.882-0.378,1.363   c1.592,2.812,2.433,6.015,2.433,9.265c0,10.375-8.441,18.816-18.816,18.816c-4.301,0-8.376-1.443-11.691-4.084l3.797-0.473   c0.548-0.068,0.938-0.567,0.869-1.115c-0.068-0.55-0.573-0.947-1.116-0.869l-5.994,0.745c-0.042,0.005-0.077,0.028-0.117,0.039   c-0.066,0.017-0.13,0.033-0.192,0.063c-0.059,0.029-0.109,0.067-0.161,0.107c-0.037,0.027-0.08,0.042-0.113,0.075   c-0.016,0.016-0.021,0.037-0.036,0.054c-0.013,0.015-0.032,0.022-0.045,0.039c-0.028,0.036-0.038,0.081-0.061,0.12   c-0.034,0.06-0.069,0.116-0.091,0.181c-0.019,0.055-0.024,0.111-0.032,0.169c-0.011,0.071-0.021,0.14-0.016,0.211   c0.001,0.019-0.007,0.037-0.004,0.057l0.745,5.991c0.062,0.507,0.493,0.877,0.99,0.877c0.042,0,0.083-0.002,0.125-0.008   c0.548-0.068,0.938-0.567,0.869-1.115l-0.424-3.408c3.625,2.806,8.04,4.344,12.698,4.344c11.478,0,20.816-9.338,20.816-20.816   C70.816,46.423,69.886,42.878,68.124,39.767z"/>
</g>
</svg>