<?xml version="1.0" encoding="utf-8"?>
<!-- Generator: Adobe Illustrator 18.1.1, SVG Export Plug-In . SVG Version: 6.00 Build 0)  -->
<svg version="1.1" id="Layer_1" xmlns="http://www.w3.org/2000/svg" xmlns:xlink="http://www.w3.org/1999/xlink" x="0px" y="0px"
	 viewBox="0 0 70 70" enable-background="new 0 0 70 70" xml:space="preserve">
<g>
	<path fill-rule="evenodd" clip-rule="evenodd" fill="#343434" d="M56.6,70H13.4c-3.7,0-6.7-3-6.7-6.7V6.7C6.8,3,9.8,0,13.4,0h43.1
		c3.7,0,6.7,3,6.7,6.7v56.6C63.2,67,60.2,70,56.6,70L56.6,70z M60.9,7.1c0-2.6-2.1-4.8-4.8-4.8H13.8c-2.6,0-4.8,2.1-4.8,4.8v55.9
		c0,2.6,2.1,4.8,4.8,4.8h42.3c2.6,0,4.8-2.1,4.8-4.8V7.1L60.9,7.1z"/>
	<path fill="#343434" d="M42.2,60.4V32.6c0,0,1.8-6.7-22.3,2.7c0,0.1,0-25.7,0-25.7l7.9,0v16.5c0,0,22-8.7,22,6.6
		c0,15.3,0,27.7,0,27.7H42.2L42.2,60.4z M46.6,19.6c0,0-8.3,0-8.3,0c3-3.7,5.7-10,5.7-10h8.6C52.6,9.6,51.2,13.7,46.6,19.6
		L46.6,19.6z M20,60.3V44.5l7.9,7.9L20,60.3L20,60.3z"/>
</g>
<g>
</g>
<g>
</g>
<g>
</g>
<g>
</g>
<g>
</g>
<g>
</g>
</svg>
