<?xml version="1.0" encoding="utf-8"?>
<!-- Generator: Adobe Illustrator 18.1.1, SVG Export Plug-In . SVG Version: 6.00 Build 0)  -->
<svg version="1.1" id="Layer_1" xmlns="http://www.w3.org/2000/svg" xmlns:xlink="http://www.w3.org/1999/xlink" x="0px" y="0px"
	 viewBox="0 0 590 209" enable-background="new 0 0 590 209" xml:space="preserve">
<g>
	<path fill-rule="evenodd" clip-rule="evenodd" fill="#343434" d="M478.3,208.6h10.3c1.4-2.3,2.8-4.7,4.1-7.1
		c6.1-10.8,11.6-22.3,16.5-34.5c30.6,1.6,61.9-7.4,76.9-36.7l3.8-7.5l-7.3-4.2c-17.7-10.2-41.3-11.6-61.4-5.7
		c-2.5-21.3-16.5-40.1-33.2-53.5l-6.6-5.3l-5.6,6.4c-11.2,12.9-14.5,34.4-13,50.9c1.1,12.1,4.9,24.5,12.4,34.2
		c-5.7,3.4-12.1,6.1-17.9,8.1c-11.7,4-24.4,6.2-36.8,6.2h-26.8v-54.1h-52.9V0h-63.5v52.9H171.9v52.9H119v54.1H73.8l-0.7,8
		c-1,11.2-1,22.5,0.2,33.5c0.3,2.4,0.6,4.8,1,7.2H106c0,0.1,0.1,0.3,0.1,0.4c0-0.2-0.1-0.3-0.1-0.4h324.4 M430.4,208.6h47.9"/>
	<g id="body_colors_2_">
		<path fill="#343434" d="M478.3,208.6h-47.9"/>
		<path fill="#343434" d="M430.4,208.6H106c0,0.1,0.1,0.3,0.1,0.4c0-0.1-0.1-0.3-0.1-0.4H83.2c-0.1-0.5-0.2-1-0.2-1.5
			c-0.1-0.5-0.2-1-0.2-1.6c0-0.3-0.1-0.5-0.1-0.8c0-0.2,0-0.3-0.1-0.5c0-0.1,0-0.2,0-0.3c-0.1-0.7-0.2-1.3-0.3-2
			c-1.3-10.7-1.5-21.8-0.4-33.4h339c27.8,0,55-10.4,67.9-21.8c-23.1-18.8-20.8-63.5-6.1-80.5c12.8,10.3,33.4,31.9,29.9,59.5
			c0.3-0.2,0.7-0.3,1.1-0.5c0.4-0.2,0.7-0.3,1.1-0.5c16.4-7.4,42.9-10.5,63.7,1.5c-13.7,26.6-43.7,34.6-74.9,31.4
			c-5.8,15.2-12.4,29.4-20,42.4c-1.7,2.9-3.4,5.7-5.1,8.5"/>
		<path fill="#343434" d="M430.4,208.6H106c0,0.1,0.1,0.3,0.1,0.4c0-0.1-0.1-0.3-0.1-0.4c-0.2-0.6-0.3-1.2-0.4-1.8
			c0-0.1,0-0.2-0.1-0.3c-0.2-0.9-0.4-1.7-0.6-2.6h0c-0.3-1.2-0.5-2.5-0.8-3.8c-1.8-9.8-2.6-20.3-2.3-31.5h318.9
			c27.8,0,55-10.4,67.9-21.8c-23.1-18.8-20.8-63.5-6.1-80.5c12.8,10.3,33.4,31.9,29.9,59.5c0.3-0.2,0.7-0.3,1.1-0.5
			c0.4-0.2,0.7-0.3,1.1-0.5c-20.9,27-45.8,52.5-73.4,75.1c-1.7,1.4-3.4,2.7-5.1,4.1c-1.1,0.9-2.2,1.7-3.3,2.6
			C432.1,207.2,431.3,207.9,430.4,208.6"/>
		<path fill="#343434" d="M430.4,208.6H106c0,0.1,0.1,0.3,0.1,0.4c0-0.1-0.1-0.3-0.1-0.4H83.2c-0.1-0.5-0.2-1-0.2-1.5
			c-0.1-0.5-0.2-1-0.2-1.6c0-0.3-0.1-0.5-0.1-0.8c0-0.2,0-0.3-0.1-0.5c0-0.1,0-0.2,0-0.3h398.7c-0.9,1.5-1.9,3.1-2.8,4.6H430.4"/>
		<path fill="#343434" d="M436.2,204c-1.1,0.9-2.2,1.7-3.3,2.6c-0.8,0.7-1.7,1.3-2.6,2H106c-0.2-0.6-0.3-1.2-0.4-1.8
			c0-0.1,0-0.2-0.1-0.3c-0.2-0.9-0.4-1.7-0.6-2.6H436.2z"/>
	</g>
	<g id="Containers_2_">
		<path fill-rule="evenodd" clip-rule="evenodd" fill="#FBFCFC" d="M127.8,114.6v45.8h45.8v-45.8H127.8z M135.3,156.6h-3.6v-38.2
			h3.6V156.6z M142.2,156.6h-3.8v-38.2h3.8V156.6z M149.2,156.6h-3.8v-38.2h3.8V156.6z M156.1,156.6h-3.8v-38.2h3.8V156.6z
			 M163,156.6h-3.8v-38.2h3.8V156.6z M169.8,156.6h-3.6v-38.2h3.6V156.6z"/>
		<path fill-rule="evenodd" clip-rule="evenodd" fill="#FBFCFC" d="M180.7,61.7v45.8h45.8V61.7H180.7z M188.2,103.7h-3.6V65.5h3.6
			V103.7z M195.1,103.7h-3.8V65.5h3.8V103.7z M202,103.7h-3.8V65.5h3.8V103.7z M209,103.7h-3.8V65.5h3.8V103.7z M215.9,103.7h-3.8
			V65.5h3.8V103.7z M222.8,103.7h-3.6V65.5h3.6V103.7z"/>
		<path fill-rule="evenodd" clip-rule="evenodd" fill="#FBFCFC" d="M180.7,114.6v45.8h45.8v-45.8H180.7z M188.2,156.6h-3.6v-38.2
			h3.6V156.6z M195.1,156.6h-3.8v-38.2h3.8V156.6z M202,156.6h-3.8v-38.2h3.8V156.6z M209,156.6h-3.8v-38.2h3.8V156.6z M215.9,156.6
			h-3.8v-38.2h3.8V156.6z M222.8,156.6h-3.6v-38.2h3.6V156.6z"/>
		<path fill-rule="evenodd" clip-rule="evenodd" fill="#FBFCFC" d="M233.6,114.6v45.8h45.8v-45.8H233.6z M241,156.6h-3.6v-38.2h3.6
			V156.6z M248,156.6h-3.8v-38.2h3.8V156.6z M254.9,156.6h-3.8v-38.2h3.8V156.6z M261.9,156.6h-3.8v-38.2h3.8V156.6z M268.8,156.6
			h-3.8v-38.2h3.8V156.6z M275.6,156.6H272v-38.2h3.6V156.6z"/>
		<path fill-rule="evenodd" clip-rule="evenodd" fill="#FBFCFC" d="M233.6,61.7v45.8h45.8V61.7H233.6z M241,103.7h-3.6V65.5h3.6
			V103.7z M248,103.7h-3.8V65.5h3.8V103.7z M254.9,103.7h-3.8V65.5h3.8V103.7z M261.9,103.7h-3.8V65.5h3.8V103.7z M268.8,103.7h-3.8
			V65.5h3.8V103.7z M275.6,103.7H272V65.5h3.6V103.7z"/>
		<path fill-rule="evenodd" clip-rule="evenodd" fill="#FBFCFC" d="M286.5,114.6v45.8h45.8v-45.8H286.5z M294,156.6h-3.6v-38.2h3.6
			V156.6z M300.9,156.6h-3.8v-38.2h3.8V156.6z M307.8,156.6h-3.8v-38.2h3.8V156.6z M314.8,156.6H311v-38.2h3.8V156.6z M321.7,156.6
			H318v-38.2h3.8V156.6z M328.5,156.6h-3.6v-38.2h3.6V156.6z"/>
		<path fill-rule="evenodd" clip-rule="evenodd" fill="#FBFCFC" d="M286.5,61.7v45.8h45.8V61.7H286.5z M294,103.7h-3.6V65.5h3.6
			V103.7z M300.9,103.7h-3.8V65.5h3.8V103.7z M307.8,103.7h-3.8V65.5h3.8V103.7z M314.8,103.7H311V65.5h3.8V103.7z M321.7,103.7H318
			V65.5h3.8V103.7z M328.5,103.7h-3.6V65.5h3.6V103.7z"/>
		<path fill-rule="evenodd" clip-rule="evenodd" fill="#FBFCFC" d="M286.5,8.8v45.8h45.8V8.8H286.5z M294,50.8h-3.6V12.6h3.6V50.8z
			 M300.9,50.8h-3.8V12.6h3.8V50.8z M307.8,50.8h-3.8V12.6h3.8V50.8z M314.8,50.8H311V12.6h3.8V50.8z M321.7,50.8H318V12.6h3.8V50.8
			z M328.5,50.8h-3.6V12.6h3.6V50.8z"/>
		<path fill-rule="evenodd" clip-rule="evenodd" fill="#FBFCFC" d="M339.4,114.6v45.8h45.8v-45.8H339.4z M346.8,156.6h-3.6v-38.2
			h3.6V156.6z M353.8,156.6H350v-38.2h3.8V156.6z M360.7,156.6H357v-38.2h3.8V156.6z M367.7,156.6h-3.8v-38.2h3.8V156.6z
			 M374.6,156.6h-3.8v-38.2h3.8V156.6z M381.4,156.6h-3.6v-38.2h3.6V156.6z"/>
	</g>
	<path fill-rule="evenodd" clip-rule="evenodd" fill="#343434" d="M588.3,208.6H0c12.8-3.2,40.5-7.6,36-24.4
		c9,10.4,22.8,15.6,37.3,17.3c3,0.4,6,0.6,8.9,0.6c7.6,0.2,15.1-0.5,22-1.8c11.3-2.2,20.7-6,25.4-10.4
		c15.8,22.9,107.7,14.2,114.1-3.7c19.8,23.2,81.1,23.2,100.9,0c5.1,14.2,64.8,22.7,96.7,13.8c8-2.2,14.3-5.6,17.4-10.2
		c4.6,4.3,13.8,8.1,24.8,10.3c3,0.6,6.1,1.1,9.3,1.4c21.1,2.2,45.9-1.6,59.5-17.3C547.8,200.9,575.5,205.3,588.3,208.6z"/>
</g>
<g>
</g>
<g>
</g>
<g>
</g>
<g>
</g>
<g>
</g>
<g>
</g>
</svg>
