<?xml version="1.0" encoding="utf-8"?>
<!-- Generator: Adobe Illustrator 18.1.1, SVG Export Plug-In . SVG Version: 6.00 Build 0)  -->
<svg version="1.1" id="Layer_1" xmlns="http://www.w3.org/2000/svg" xmlns:xlink="http://www.w3.org/1999/xlink" x="0px" y="0px"
	 viewBox="0 0 70 70" enable-background="new 0 0 70 70" xml:space="preserve">
<g>
	<path fill="#343434" d="M66.5,0.1L3.5,0L3.4,40.1l10.9,0c9,0.2,8.1,6.3,8.9,11.8c0.8,5.6,6.2,8.4,10.7,8.4
		c5.9,0,10.6-5.1,10.6-11.1c0-4.6-2.1-8-11.3-12c-10.4-4.5-13.1-10.7-13.1-16.8C20.2,10.6,27.8,4,36.6,4c4.6,0,9.6,1.5,13.1,5.3
		c2.7,3.1,3.8,6.3,3.6,10.1c0,1.7-0.2,3.9,3.2,3.9l10.1,0L66.5,0.1L66.5,0.1z"/>
	<path fill="#343434" d="M66.6,29L57.1,29c0,0-10,0.8-9.4-6.9c0.3-3.7-0.8-6.5-1.6-7.7c-2-3.1-5.4-4.6-9.4-4.7
		c-5.9,0-10.3,4.9-10.3,10.1c0,4.5,2.2,9.5,11.5,13.2c8,3.1,13,8.6,13.1,16.1c0,8-6.1,17.2-16.9,17.2c-5.6,0-10.7-1.4-14.5-6.9
		c-2-2.8-2.7-6.5-2.9-10.1c-0.1-2.8-0.8-3.4-2.7-3.4l-10.4,0l0,24.1l63,0.1l0.1-40.6L66.6,29L66.6,29z"/>
</g>
</svg>
