<?xml version="1.0" encoding="utf-8"?>
<!-- Generator: Adobe Illustrator 18.1.1, SVG Export Plug-In . SVG Version: 6.00 Build 0)  -->
<svg version="1.1" id="Layer_1" xmlns="http://www.w3.org/2000/svg" xmlns:xlink="http://www.w3.org/1999/xlink" x="0px" y="0px"
	 viewBox="0 0 200 200" enable-background="new 0 0 200 200" xml:space="preserve">
<g>
	<path fill="#FFFFFF" d="M200,100c0,8.6-1.1,17-3.2,25c-2.3,8.9-5.8,17.3-10.2,25c-3.5,6.1-7.7,11.8-12.4,17
		c-18.3,20.3-44.8,33-74.2,33c-18.2,0-35.3-4.9-50-13.4c-5.4-3.1-10.4-6.7-15-10.7c-3.9-3.3-7.6-7-10.9-10.9C9,147.6,0,124.8,0,100
		c0-24.8,9-47.6,24.1-65C27.4,31,31,27.4,35,24c4.7-4,9.7-7.6,15-10.7C64.7,4.9,81.8,0,100,0c29.5,0,55.9,12.7,74.2,33
		c4.7,5.2,8.9,10.9,12.4,17c4.5,7.7,8,16.1,10.2,25C198.9,83,200,91.4,200,100z"/>
	<g id="draw-main_2_">
		<g id="tr_6_">
			<line fill="none" stroke="#DEDEDD" stroke-width="0.5" stroke-miterlimit="10" x1="186.6" y1="150" x2="175" y2="150"/>
		</g>
		<g id="tr_5_">
			<line fill="none" stroke="#DEDEDD" stroke-width="0.5" stroke-miterlimit="10" x1="196.8" y1="125" x2="175" y2="125"/>
		</g>
		<g id="tr_4_">
			<line fill="none" stroke="#DEDEDD" stroke-width="0.5" stroke-miterlimit="10" x1="200" y1="100" x2="175" y2="100"/>
		</g>
		<g id="tr_2_">
			<line fill="none" stroke="#DEDEDD" stroke-width="0.5" stroke-miterlimit="10" x1="196.8" y1="75" x2="175" y2="75"/>
		</g>
		<g id="th_2_">
			<line fill="none" stroke="#DEDEDD" stroke-width="0.5" stroke-miterlimit="10" x1="186.6" y1="50" x2="175" y2="50"/>
		</g>
	</g>
	<g id="draw-menu_2_">
		<polyline fill="none" stroke="#DEDEDD" stroke-miterlimit="10" points="174.2,33 174.2,50 174.2,167 		"/>
		<g id="li_32_">
			<text transform="matrix(1 0 0 1 62.4983 190.0266)" fill="#989898" font-family="'ProximaNova-Regular'" font-size="8">simple-sidebar</text>
		</g>
		<g id="li_31_">
			<text transform="matrix(1 0 0 1 62.4983 152.5266)" fill="#989898" font-family="'ProximaNova-Regular'" font-size="8">new-invite-modal</text>
			<line fill="none" stroke="#C13938" stroke-linecap="round" stroke-miterlimit="10" x1="164" y1="152.5" x2="160" y2="148.5"/>
			<line fill="none" stroke="#C13938" stroke-linecap="round" stroke-miterlimit="10" x1="164" y1="148.5" x2="160" y2="152.5"/>
		</g>
		<g id="li_14_">
			<text transform="matrix(1 0 0 1 62.4983 90.0266)" fill="#989898" font-family="'ProximaNova-Regular'" font-size="8">build-switcher-styles</text>
			<line fill="none" stroke="#C13938" stroke-linecap="round" stroke-miterlimit="10" x1="164" y1="90" x2="160" y2="86"/>
			<line fill="none" stroke="#C13938" stroke-linecap="round" stroke-miterlimit="10" x1="164" y1="86" x2="160" y2="90"/>
		</g>
		<g id="li_13_">
			<text transform="matrix(1 0 0 1 62.4983 65.0266)" fill="#989898" font-family="'ProximaNova-Regular'" font-size="8">aside-nav-v2</text>
			
				<polyline id="check_28_" fill="none" stroke="#259A47" stroke-linecap="round" stroke-linejoin="round" stroke-miterlimit="10" points="
				159.3,64.1 160.7,65.4 164.7,61.4 			"/>
		</g>
		<g id="li_12_">
			<text transform="matrix(1 0 0 1 62.4983 77.5266)" fill="#989898" font-family="'ProximaNova-Regular'" font-size="8">brand-new-nav</text>
			
				<polyline id="check_27_" fill="none" stroke="#259A47" stroke-linecap="round" stroke-linejoin="round" stroke-miterlimit="10" points="
				159.3,76.6 160.7,77.9 164.7,73.9 			"/>
		</g>
		<g id="li_11_">
			<text transform="matrix(1 0 0 1 62.4983 102.5266)" fill="#989898" font-family="'ProximaNova-Regular'" font-size="8">build-top-queue-fixes</text>
			
				<polyline id="check_26_" fill="none" stroke="#259A47" stroke-linecap="round" stroke-linejoin="round" stroke-miterlimit="10" points="
				159.3,101.6 160.7,102.9 164.7,98.9 			"/>
		</g>
		<g id="li_10_">
			<text transform="matrix(1 0 0 1 62.4983 115.0266)" fill="#989898" font-family="'ProximaNova-Regular'" font-size="8">customer-story-styles</text>
			
				<polyline id="check_25_" fill="none" stroke="#259A47" stroke-linecap="round" stroke-linejoin="round" stroke-miterlimit="10" points="
				159.3,114.1 160.7,115.4 164.7,111.4 			"/>
		</g>
		<g id="li_9_">
			<text transform="matrix(1 0 0 1 62.4983 127.5266)" fill="#989898" font-family="'ProximaNova-Regular'" font-size="8">design-listing-rewrite</text>
			
				<polyline id="check_14_" fill="none" stroke="#259A47" stroke-linecap="round" stroke-linejoin="round" stroke-miterlimit="10" points="
				159.3,126.6 160.7,127.9 164.7,123.9 			"/>
		</g>
		<g id="li_8_">
			<text transform="matrix(1 0 0 1 62.4983 140.0266)" fill="#989898" font-family="'ProximaNova-Regular'" font-size="8">master</text>
			
				<polyline id="check_13_" fill="none" stroke="#259A47" stroke-linecap="round" stroke-linejoin="round" stroke-miterlimit="10" points="
				159.3,139.1 160.7,140.4 164.7,136.4 			"/>
		</g>
		<g id="li_7_">
			<text transform="matrix(1 0 0 1 62.4983 165.0266)" fill="#989898" font-family="'ProximaNova-Regular'" font-size="8">om-simple-settings</text>
			
				<polyline id="check_9_" fill="none" stroke="#259A47" stroke-linecap="round" stroke-linejoin="round" stroke-miterlimit="10" points="
				159.3,164.1 160.7,165.4 164.7,161.4 			"/>
		</g>
		<g id="li_6_">
			<text transform="matrix(1 0 0 1 62.4983 177.5266)" fill="#989898" font-family="'ProximaNova-Regular'" font-size="8">simple-settings</text>
			
				<polyline id="check_8_" fill="none" stroke="#259A47" stroke-linecap="round" stroke-linejoin="round" stroke-miterlimit="10" points="
				159.3,176.6 160.7,177.9 164.7,173.9 			"/>
		</g>
		
			<line id="head-border_2_" fill="none" stroke="#DEDEDD" stroke-width="0.5" stroke-miterlimit="10" x1="50" y1="50" x2="175" y2="50"/>
		
			<text id="select_2_" transform="matrix(1 0 0 1 77.0989 27.5266)" fill="#333333" font-family="'ProximaNova-Regular'" font-size="8">Your Branch Activity</text>
	</g>
	<g id="draw-nav_2_">
		<path fill="#333333" d="M50,13.4v173.2c-5.4-3.1-10.4-6.7-15-10.7c-3.9-3.3-7.6-7-10.9-10.9C9,147.6,0,124.8,0,100
			c0-24.8,9-47.6,24.1-65C27.4,31,31,27.4,35,24C39.6,20,44.6,16.5,50,13.4z"/>
		<path fill="#565656" d="M35,175c0,0.3,0,0.6,0,1c-3.9-3.3-7.6-7-10.9-10.9c0.3,0,0.6,0,1,0C30.5,165,35,169.5,35,175z"/>
		<circle id="link_2_" fill="#565656" cx="25" cy="125" r="10"/>
		<circle id="link_1_" fill="#565656" cx="25" cy="75" r="10"/>
		<path id="logo_2_" fill="#FFFFFF" d="M35,24C31,27.4,27.4,31,24.1,35c0.3,0,0.6,0,0.9,0c5.5,0,10-4.5,10-10C35,24.7,35,24.4,35,24
			z"/>
	</g>
</g>
</svg>
