<?xml version="1.0" encoding="UTF-8" standalone="no"?>
<svg width="23px" height="25px" viewBox="0 0 23 25" version="1.1" xmlns="http://www.w3.org/2000/svg" xmlns:xlink="http://www.w3.org/1999/xlink" xmlns:sketch="http://www.bohemiancoding.com/sketch/ns">
    <!-- Generator: Sketch 3.4 (15588) - http://www.bohemiancoding.com/sketch -->
    <title>icon-insights</title>
    <desc>Created with Sketch.</desc>
    <defs></defs>
    <g id="1.0-Builds" stroke="none" stroke-width="1" fill="none" fill-rule="evenodd" sketch:type="MSPage">
        <g id="00-main-nav-icons-assets" sketch:type="MSArtboardGroup" transform="translate(-24.000000, -513.000000)" fill="#FFFFFF">
            <g id="Group" sketch:type="MSLayerGroup">
                <g id="Layout/Sidebar" sketch:type="MSShapeGroup">
                    <g id="Nav" transform="translate(0.000000, 70.387597)">
                        <g id="Analytics" transform="translate(0.000000, 420.000000)">
                            <path d="M44.0221729,47 L46.0243902,47 L46.0243902,43.001 L44.0221729,43.001 L44.0221729,47 Z M40.0177384,47 L42.0199557,47 L42.0199557,37 L40.0177384,37 L40.0177384,47 Z M36.0133038,47 L38.0155211,47 L38.0155211,23 L36.0133038,23 L36.0133038,47 Z M32.0088692,47 L34.0110865,47 L34.0110865,31 L32.0088692,31 L32.0088692,47 Z M28.0044346,47 L30.0066519,47 L30.0066519,27 L28.0044346,27 L28.0044346,47 Z M24,46.996 L26.0022173,46.996 L26.0022173,39 L24,39 L24,46.996 Z" id="icon-insights" transform="translate(35.012195, 35.000000) scale(-1, 1) translate(-35.012195, -35.000000) "></path>
                        </g>
                    </g>
                </g>
            </g>
        </g>
    </g>
</svg>