<?xml version="1.0" encoding="UTF-8" standalone="no"?>
<svg width="24px" height="22px" viewBox="0 0 24 22" version="1.1" xmlns="http://www.w3.org/2000/svg" xmlns:xlink="http://www.w3.org/1999/xlink" xmlns:sketch="http://www.bohemiancoding.com/sketch/ns">
    <!-- Generator: Sketch 3.4 (15588) - http://www.bohemiancoding.com/sketch -->
    <title>icon-changelog</title>
    <desc>Created with Sketch.</desc>
    <defs></defs>
    <g id="1.0-Builds" stroke="none" stroke-width="1" fill="none" fill-rule="evenodd" sketch:type="MSPage">
        <g id="00-main-nav-icons-assets" sketch:type="MSArtboardGroup" transform="translate(-23.000000, -444.000000)" fill="#FFFFFF">
            <g id="Group" sketch:type="MSLayerGroup">
                <g id="Layout/Sidebar" sketch:type="MSShapeGroup">
                    <g id="Nav" transform="translate(0.000000, 70.387597)">
                        <g id="Changelog" transform="translate(0.000000, 350.000000)">
                            <path d="M44,37 C42.898,37 42,36.103 42,35 L42,31 C42,27.141 38.859,24 35,24 C31.141,24 28,27.141 28,31 L28,35 C28,36.103 27.102,37 26,37 C25.19,37 24.435,37.316 23.893,37.873 C23.316,38.434 23,39.189 23,40 C23,41.654 24.346,43 26,43 L32.185,43 C32.601,44.159 33.701,45 35,45 C36.299,45 37.399,44.159 37.815,43 L44,43 C45.654,43 47,41.654 47,40 C47,38.346 45.654,37 44,37 L44,37 Z M44,41 L26,41 C25.448,41 25,40.551 25,40 C25,39.732 25.102,39.486 25.306,39.288 C25.487,39.102 25.733,39 26,39 C28.206,39 30,37.205 30,35 L30,31 C30,28.243 32.243,26 35,26 C37.757,26 40,28.243 40,31 L40,35 C40,37.205 41.794,39 44,39 C44.552,39 45,39.448 45,40 C45,40.551 44.552,41 44,41 L44,41 Z" id="icon-changelog"></path>
                        </g>
                    </g>
                </g>
            </g>
        </g>
    </g>
</svg>