<?xml version="1.0" encoding="UTF-8" standalone="no"?>
<svg width="22px" height="25px" viewBox="0 0 22 25" version="1.1" xmlns="http://www.w3.org/2000/svg" xmlns:xlink="http://www.w3.org/1999/xlink" xmlns:sketch="http://www.bohemiancoding.com/sketch/ns">
    <!-- Generator: Sketch 3.4 (15588) - http://www.bohemiancoding.com/sketch -->
    <title>icon-logout</title>
    <desc>Created with Sketch.</desc>
    <defs></defs>
    <g id="1.0-Builds" stroke="none" stroke-width="1" fill="none" fill-rule="evenodd" sketch:type="MSPage">
        <g id="00-main-nav-icons-assets" sketch:type="MSArtboardGroup" transform="translate(-24.000000, -953.000000)" fill="#FFFFFF">
            <g id="Group" sketch:type="MSLayerGroup">
                <g id="Layout/Sidebar" sketch:type="MSShapeGroup">
                    <g id="Nav" transform="translate(0.000000, 70.387597)">
                        <g id="Logout" transform="translate(0.000000, 860.000000)">
                            <path d="M39.798,26.101 C39.302,25.858 38.703,26.066 38.462,26.564 C38.221,27.061 38.428,27.658 38.925,27.899 C42.056,29.42 44,32.523 44,36 C44,40.963 39.963,45 35,45 C30.037,45 26,40.963 26,36 C26,32.523 27.945,29.419 31.076,27.9 C31.573,27.658 31.78,27.061 31.539,26.564 C31.299,26.066 30.7,25.861 30.203,26.1 C26.377,27.957 24,31.75 24,36 C24,42.065 28.935,47 35,47 C41.065,47 46,42.065 46,36 C46,31.815 43.565,27.93 39.798,26.101 L39.798,26.101 Z M35,35 C35.553,35 36,34.553 36,34 L36,24 C36,23.447 35.553,23 35,23 C34.447,23 34,23.447 34,24 L34,34 C34,34.553 34.447,35 35,35 L35,35 Z" id="icon-logout"></path>
                        </g>
                    </g>
                </g>
            </g>
        </g>
    </g>
</svg>