<?xml version="1.0" encoding="utf-8"?>
<!-- Generator: Adobe Illustrator 19.1.0, SVG Export Plug-In . SVG Version: 6.00 Build 0)  -->
<svg width="24px" height="22px" version="1.1" id="Layer_1" xmlns="http://www.w3.org/2000/svg" xmlns:xlink="http://www.w3.org/1999/xlink" x="0px" y="0px"
	 viewBox="0 0 24 22" style="enable-background:new 0 0 24 22;" xml:space="preserve">
<style type="text/css">
	.st0{fill:#FFFFFF;}
</style>
<path class="st0" d="M21,0H3C1.3,0,0,1.3,0,3v12c0,1.7,1.3,3,3,3h14.3c0.2,0,0.4,0.1,0.6,0.2l4.5,3.6c0.2,0.1,0.4,0.2,0.6,0.2
	c0.1,0,0.3,0,0.4-0.1c0.3-0.2,0.6-0.5,0.6-0.9V3C24,1.3,22.7,0,21,0z M22,18.9l-2.8-2.3C18.6,16.2,18,16,17.3,16H3c-0.6,0-1-0.4-1-1
	V3c0-0.6,0.4-1,1-1h18c0.6,0,1,0.4,1,1V18.9z M7,10h2V8H7V10z M15,10h2V8h-2V10z M11,10h2V8h-2V10z"/>
</svg>
