<?xml version="1.0" encoding="UTF-8" standalone="no"?>
<svg width="20px" height="25px" viewBox="0 0 20 25" version="1.1" xmlns="http://www.w3.org/2000/svg" xmlns:xlink="http://www.w3.org/1999/xlink" xmlns:sketch="http://www.bohemiancoding.com/sketch/ns">
    <!-- Generator: Sketch 3.4 (15588) - http://www.bohemiancoding.com/sketch -->
    <title>icon-docs</title>
    <desc>Created with Sketch.</desc>
    <defs></defs>
    <g id="1.0-Builds" stroke="none" stroke-width="1" fill="none" fill-rule="evenodd" sketch:type="MSPage">
        <g id="00-main-nav-icons-assets" sketch:type="MSArtboardGroup" transform="translate(-25.000000, -163.000000)" fill="#FFFFFF">
            <g id="Group" sketch:type="MSLayerGroup">
                <g id="Layout/Sidebar" sketch:type="MSShapeGroup">
                    <g id="Nav" transform="translate(0.000000, 70.387597)">
                        <g id="Docs" transform="translate(0.000000, 70.000000)">
                            <path d="M40.92,27.08 C40.481,24.76 38.44,23 36,23 L25,23 L25,46.999 L45,46.999 L45,32 C45,29.56 43.24,27.52 40.92,27.08 L40.92,27.08 Z M43,45 L27,45 L27,25 L36,25 C37.66,25 39,26.34 39,28 L39,29 L40,29 C41.66,29 43,30.34 43,32 L43,45 L43,45 Z M30,32 L34,32 L34,30 L30,30 L30,32 Z M30,36 L39,36 L39,34 L30,34 L30,36 Z" id="icon-docs"></path>
                        </g>
                    </g>
                </g>
            </g>
        </g>
    </g>
</svg>