<?xml version="1.0" encoding="UTF-8" standalone="no"?>
<svg width="26px" height="25px" viewBox="0 0 26 25" version="1.1" xmlns="http://www.w3.org/2000/svg" xmlns:xlink="http://www.w3.org/1999/xlink" xmlns:sketch="http://www.bohemiancoding.com/sketch/ns">
    <!-- Generator: Sketch 3.4 (15588) - http://www.bohemiancoding.com/sketch -->
    <title>icon-admin</title>
    <desc>Created with Sketch.</desc>
    <defs></defs>
    <g id="1.0-Builds" stroke="none" stroke-width="1" fill="none" fill-rule="evenodd" sketch:type="MSPage">
        <g id="00-main-nav-icons-assets" sketch:type="MSArtboardGroup" transform="translate(-22.000000, -583.000000)" stroke-width="0.5" stroke="#FFFFFF" fill="#FFFFFF">
            <g id="Group" sketch:type="MSLayerGroup">
                <g id="Layout/Sidebar" sketch:type="MSShapeGroup">
                    <g id="Nav" transform="translate(0.000000, 70.387597)">
                        <g id="Admin" transform="translate(0.000000, 490.000000)">
                            <path d="M43.3992725,47 C42.4394162,47 41.5376423,46.6263566 40.8586174,45.9479304 L35.2425898,40.3313041 C34.1947118,40.7432699 33.0905477,40.9510491 31.9546479,40.9510491 C29.5594981,40.9510491 27.308656,40.0187371 25.6164827,38.3259649 C23.0069669,35.717048 22.2656681,31.6943939 23.7722173,28.3166338 L24.1266995,27.5214441 L28.5798818,31.9752252 C29.4852484,32.8805918 31.0624546,32.8805918 31.9672224,31.9752252 C32.419307,31.5225419 32.6684025,30.9213592 32.6684025,30.2818542 C32.6684025,29.6423492 32.419307,29.0411666 31.9672224,28.5884833 L27.5134413,24.1347022 L28.3086311,23.7802201 C29.4690812,23.2628677 30.7037809,23 31.9791982,23 C34.374348,23 36.6257888,23.9323121 38.3179622,25.6244854 C40.8292768,28.1358 41.6106944,31.956064 40.3227026,35.2505926 L45.9393289,40.8672189 C47.3398928,42.2683815 47.3398928,44.5473666 45.9393289,45.9479304 C45.2609027,46.6263566 44.3591288,47 43.3992725,47 L43.3992725,47 Z M35.5138405,38.9091839 L41.7053028,45.101245 C42.6100707,46.005414 44.1878756,46.005414 45.0926435,45.101245 C46.0261531,44.1671365 46.0261531,42.647414 45.0926435,41.7139043 L38.9011812,35.5224421 L39.0688417,35.1464035 C40.3741983,32.2183329 39.7322982,28.7321923 37.4712767,26.4711709 C36.005445,25.0053392 34.0551943,24.1975749 31.9791982,24.1975749 C31.1738291,24.1975749 30.3864235,24.3179312 29.6295562,24.5574462 L32.8139079,27.7417979 C33.4923341,28.420224 33.8659775,29.3225967 33.8659775,30.2818542 C33.8659775,31.2411117 33.4923341,32.1434844 32.8139079,32.8219106 C32.1354817,33.5009356 31.233109,33.874579 30.2732527,33.874579 C29.3133964,33.874579 28.4116225,33.5009356 27.7325975,32.8219106 L24.5494434,29.6393553 C23.6931774,32.3734188 24.4123211,35.4302288 26.4625694,37.4798782 C27.9289998,38.9463087 29.8792506,39.754073 31.9540491,39.754073 C33.0600095,39.754073 34.1306415,39.5265338 35.1366044,39.0774432 L35.5138405,38.9091839 L35.5138405,38.9091839 Z" id="icon-admin"></path>
                        </g>
                    </g>
                </g>
            </g>
        </g>
    </g>
</svg>