<?xml version="1.0" encoding="utf-8"?>
<!-- Generator: Adobe Illustrator 15.1.0, SVG Export Plug-In . SVG Version: 6.00 Build 0)  -->
<!DOCTYPE svg PUBLIC "-//W3C//DTD SVG 1.1//EN" "http://www.w3.org/Graphics/SVG/1.1/DTD/svg11.dtd">
<svg version="1.1" id="Layer_1" xmlns:sketch="http://www.bohemiancoding.com/sketch/ns"
	 xmlns="http://www.w3.org/2000/svg" xmlns:xlink="http://www.w3.org/1999/xlink" x="0px" y="0px" width="22px" height="22px"
	 viewBox="0 0 22 22" enable-background="new 0 0 22 22" xml:space="preserve">
<title>bot-icon</title>
<desc>Created with Sketch.</desc>
<g id="Page-1" sketch:type="MSPage">
	<g id="_x30_1-build-list-avatars-20x20" transform="translate(-1000.000000, -863.000000)" sketch:type="MSArtboardGroup">
		<g id="bot-icon" transform="translate(1001.000000, 864.000000)" sketch:type="MSLayerGroup">
			<circle id="Oval-74-Copy" sketch:type="MSShapeGroup" fill="none" stroke="#DEDEDD" cx="10" cy="10" r="10">
			</circle>
			<g id="Group" transform="translate(2.000000, 1.000000)" sketch:type="MSShapeGroup">
				<path id="Rectangle-998" fill="#DEDEDD" d="M4,5h8c0.553,0,1,0.448,1,1v8c0,0.553-0.447,1-1,1H4c-0.552,0-1-0.447-1-1V6
					C3,5.448,3.448,5,4,5z"/>
				<path id="Rectangle-998-Copy-5" fill="#DEDEDD" d="M-1.001,14h18.002l-1.714,1.842c0,0-1.548,2.195-3.495,2.646
					C9.45,19.031,7,18.949,4.635,18.434c-0.486-0.105-4.457-3.074-4.457-3.074L-1.001,14z"/>
				<rect id="Rectangle-998-Copy-2" x="5" y="11" fill="#FFFFFF" width="6" height="1"/>
				<rect id="Rectangle-998-Copy-4" x="10" y="8.064" fill="#FFFFFF" width="1" height="1"/>
				<rect id="Rectangle-1000" x="7" y="3" fill="#DEDEDD" width="2" height="3"/>
				<circle id="Oval-303" fill="#DEDEDD" cx="8" cy="2" r="2"/>
				<circle id="Oval-303-Copy" fill="#DEDEDD" cx="2.5" cy="9.5" r="1.5"/>
				<circle id="Oval-303-Copy-2" fill="#DEDEDD" cx="13.5" cy="9.5" r="1.5"/>
				<rect id="Rectangle-998-Copy-4_2_" x="5" y="8" fill="#FFFFFF" width="1" height="1"/>
			</g>
		</g>
	</g>
</g>
</svg>
