<svg xmlns="http://www.w3.org/2000/svg" width="370" height="100" viewBox="0 0 370 100">
  <path fill="#11100F" fill-rule="evenodd" d="M71.1515384,42.8553846 L40.1084616,42.8553846 C39.3076923,42.8553846 38.6576923,43.5061539 38.6576923,44.3069231 L38.6576923,59.4846154 C38.6576923,60.2853846 39.3076923,60.9369231 40.1084616,60.9369231 L52.2184616,60.9369231 L52.2184616,79.7938461 C52.2184616,79.7938461 49.4992308,80.7207693 41.9815385,80.7207693 C33.1123077,80.7207693 20.7223077,77.48 20.7223077,50.2353846 C20.7223077,22.9846154 33.6238462,19.3992307 45.7361538,19.3992307 C56.2207693,19.3992307 60.7376923,21.2453846 63.6115385,22.1346154 C64.5146153,22.4115384 65.35,21.5123077 65.35,20.7107693 L68.8130769,6.04615384 C68.8130769,5.67153846 68.6861539,5.22 68.2584615,4.91307693 C67.0915384,4.08076923 59.9707692,0.0961538463 41.9815385,0.0961538463 C21.2576923,0.0961538463 0,8.91307693 0,51.2976923 C0,93.6838463 24.3384615,100 44.8476923,100 C61.8292307,100 72.1307693,92.7430769 72.1307693,92.7430769 C72.5553846,92.5084616 72.6015385,91.9153846 72.6015385,91.6430769 L72.6015385,44.3069231 C72.6015385,43.5061539 71.9523077,42.8553846 71.1515384,42.8553846 L71.1515384,42.8553846 Z M231.134616,5.17461539 C231.134616,4.36692307 230.494615,3.71538461 229.693847,3.71538461 L212.214616,3.71538461 C211.416154,3.71538461 210.766923,4.36692307 210.766923,5.17461539 C210.766923,5.17846154 210.771539,38.9538461 210.771539,38.9538461 L183.526154,38.9538461 L183.526154,5.17461539 C183.526154,4.36692307 182.883077,3.71538461 182.083846,3.71538461 L164.605384,3.71538461 C163.81,3.71538461 163.161538,4.36692307 163.161538,5.17461539 L163.161538,96.6384611 C163.161538,97.4453843 163.81,98.1023074 164.605384,98.1023074 L182.083846,98.1023074 C182.883077,98.1023074 183.526154,97.4453843 183.526154,96.6384611 L183.526154,57.5161539 L210.771539,57.5161539 C210.771539,57.5161539 210.723846,96.6353843 210.723846,96.6384611 C210.723846,97.4453843 211.372308,98.1023074 212.171538,98.1023074 L229.692307,98.1023074 C230.493077,98.1023074 231.133077,97.4453843 231.134616,96.6384611 L231.134616,5.17461539 L231.134616,5.17461539 Z M104.135384,17.1769231 C104.135384,10.8830769 99.089231,5.79692307 92.863846,5.79692307 C86.6446154,5.79692307 81.5946154,10.8830769 81.5946154,17.1769231 C81.5946154,23.4638461 86.6446154,28.5638461 92.863846,28.5638461 C99.089231,28.5638461 104.135384,23.4638461 104.135384,17.1769231 L104.135384,17.1769231 Z M102.885385,77.3446154 L102.885385,35.1246154 C102.885385,34.3230769 102.238462,33.6676923 101.439231,33.6676923 L84.0153846,33.6676923 C83.2161539,33.6676923 82.5007692,34.4923077 82.5007692,35.2938461 L82.5007692,95.7823074 C82.5007692,97.56 83.6084615,98.0884611 85.0423077,98.0884611 L100.740769,98.0884611 C102.463077,98.0884611 102.885385,97.2430769 102.885385,95.7538463 L102.885385,77.3446154 L102.885385,77.3446154 Z M297.563077,33.8053846 L280.217693,33.8053846 C279.422307,33.8053846 278.774616,34.4607693 278.774616,35.2676923 L278.774616,80.1153846 C278.774616,80.1153846 274.368462,83.3392307 268.113846,83.3392307 C261.86,83.3392307 260.2,80.5015384 260.2,74.3776923 L260.2,35.2676923 C260.2,34.4607693 259.553847,33.8053846 258.757693,33.8053846 L241.153846,33.8053846 C240.359231,33.8053846 239.708462,34.4607693 239.708462,35.2676923 L239.708462,77.3392307 C239.708462,95.5284611 249.846154,99.9784611 263.792308,99.9784611 C275.233077,99.9784611 284.457693,93.6576926 284.457693,93.6576926 C284.457693,93.6576926 284.896923,96.9884611 285.095385,97.3838463 C285.294615,97.7776926 285.812308,98.1753843 286.371538,98.1753843 L297.570769,98.1261537 C298.365385,98.1261537 299.016154,97.4692306 299.016154,96.6661537 L299.01077,35.2676923 C299.01077,34.4607693 298.362308,33.8053846 297.563077,33.8053846 L297.563077,33.8053846 Z M338.128462,83.2838461 C332.112308,83.1007693 328.031538,80.3707693 328.031538,80.3707693 L328.031538,51.4061539 C328.031538,51.4061539 332.057692,48.9384616 336.996923,48.4969231 C343.243077,47.9376923 349.261539,49.8246154 349.261539,64.7246154 C349.261539,80.4369231 346.545385,83.5376923 338.128462,83.2838461 Z M344.97,31.7507693 C335.118462,31.7507693 328.417692,36.1461539 328.417692,36.1461539 L328.417692,5.17461539 C328.417692,4.36692307 327.772308,3.71538461 326.975384,3.71538461 L309.446923,3.71538461 C308.65,3.71538461 308.002308,4.36692307 308.002308,5.17461539 L308.002308,96.6384611 C308.002308,97.4453843 308.65,98.1023074 309.449231,98.1023074 L321.610769,98.1023074 C322.158462,98.1023074 322.573077,97.82 322.879231,97.3253843 C323.181538,96.8338463 323.617693,93.1084611 323.617693,93.1084611 C323.617693,93.1084611 330.785384,99.9007694 344.353846,99.9007694 C360.283077,99.9007694 369.418462,91.8207693 369.418462,63.6276923 C369.418462,35.4346154 354.828462,31.7507693 344.97,31.7507693 L344.97,31.7507693 Z M153.121538,33.6592307 L140.01,33.6592307 C140.01,33.6592307 139.99,16.3415384 139.99,16.3376923 C139.99,15.6823077 139.652308,15.3546154 138.894615,15.3546154 L121.026923,15.3546154 C120.332307,15.3546154 119.959231,15.66 119.959231,16.3276923 L119.959231,34.2276923 C119.959231,34.2276923 111.005384,36.3892307 110.4,36.5638461 C109.796923,36.7384616 109.353077,37.2946154 109.353077,37.9576923 L109.353077,49.2061539 C109.353077,50.0153846 109.99923,50.6676923 110.798462,50.6676923 L119.959231,50.6676923 L119.959231,77.7276923 C119.959231,97.8269231 134.057692,99.8015389 143.571538,99.8015389 C147.918461,99.8015389 153.118462,98.4053843 153.976923,98.0884611 C154.496154,97.8976926 154.797693,97.36 154.797693,96.7769231 L154.812308,84.4030769 C154.812308,83.5961539 154.13077,82.9430769 153.363077,82.9430769 C152.59923,82.9430769 150.644616,83.2538461 148.632308,83.2538461 C142.192308,83.2538461 140.01,80.2592307 140.01,76.3830769 C140.01,72.51 140.009231,50.6676923 140.009231,50.6676923 L153.121538,50.6676923 C153.92077,50.6676923 154.567692,50.0153846 154.567692,49.2061539 L154.567692,35.1169231 C154.567692,34.31 153.92077,33.6592307 153.121538,33.6592307 L153.121538,33.6592307 Z"/>
</svg>
