<svg xmlns="http://www.w3.org/2000/svg" width="573" height="100" viewBox="0 0 573 100">
  <g fill="#205081" fill-rule="evenodd">
    <path d="M173.731878,23.4188811 C167.318739,23.4188811 160.836762,25.0097901 156.446373,26.6643357 L156.446373,2.4979021 C156.446373,1.28251748 155.463159,0.297902099 154.256045,0.297902099 L141.303216,0.297902099 C140.096103,0.297902099 139.126796,1.28251748 139.126796,2.4979021 L139.126796,85.7216783 C139.126796,86.7776224 139.881937,87.6979021 140.918692,87.8839161 C148.909562,89.3496503 158.335617,89.862937 163.995005,89.862937 C188.320847,89.862937 193.296019,79.4643357 193.296019,63.8412587 L193.296019,45.6251749 C193.293932,30.8825174 186.712522,23.4188811 173.731878,23.4188811 Z M164.744583,74.734965 C161.464655,74.734965 158.747955,74.6076923 156.445678,74.3356643 L156.445678,41.7769231 C160.012782,40.1692307 165.030369,38.548951 169.053617,38.548951 C173.961341,38.548951 175.963926,40.4832167 175.963926,45.2398601 L175.963926,64.3398601 C175.963926,71.2321679 174.230438,74.734965 164.744583,74.734965 Z M252.877783,24.6923077 L239.941642,24.6923077 C238.734529,24.6923077 237.754097,25.6804196 237.754097,26.879021 L237.754097,68.1027971 C233.088352,70.4811189 226.520848,72.9482517 222.611635,72.9482517 C219.696066,72.9482517 218.618982,71.865035 218.618982,68.93007 L218.618982,26.879021 C218.618982,25.6804196 217.623252,24.6923077 216.40084,24.6923077 L203.479302,24.6923077 C202.254109,24.6923077 201.286194,25.6804196 201.286194,26.879021 L201.286194,70.5916084 C201.286194,83.3769231 206.289178,89.8636364 216.144955,89.8636364 C223.009371,89.8636364 232.351984,87.4916084 240.239944,83.7615384 L241.193953,87.0097901 C241.478348,87.9496503 242.318321,88.5937063 243.299448,88.5937063 L252.877783,88.5909091 C254.088374,88.5909091 255.070197,87.6034966 255.070197,86.3902099 L255.070197,26.8797203 C255.070197,25.6804196 254.088374,24.6923077 252.877783,24.6923077 Z M304.99088,75.120979 C304.906745,74.5076923 304.550729,73.9692307 304.066075,73.6195804 C303.557085,73.2776224 302.928496,73.162937 302.332589,73.2979021 C298.621548,74.1482517 294.726242,74.6083916 291.071525,74.6083916 C282.867882,74.6083916 280.493288,72.506993 280.493288,65.241958 L280.493288,48.0391609 C280.493288,40.7685314 282.867882,38.6671329 291.071525,38.6671329 C293.022655,38.6671329 297.881705,38.948951 302.332589,39.9741259 C302.928496,40.1111889 303.557085,39.9979021 304.066075,39.6447553 C304.566027,39.3062937 304.919261,38.762937 304.99088,38.1468531 L306.528976,27.8482517 C306.681952,26.762937 306.046409,25.7293706 304.99088,25.4188811 C300.001802,23.941958 294.155367,23.4181819 290.702299,23.4181819 C271.140939,23.4181819 263.163976,30.5832167 263.163976,48.1678321 L263.163976,65.1125874 C263.163976,82.6909091 271.140939,89.8622377 290.702299,89.8622377 C295.448702,89.8622377 300.923826,89.0958041 304.99088,87.8657343 C306.046409,87.5517483 306.681952,86.5104896 306.528976,85.43007 L304.99088,75.120979 Z M394.165007,23.4188811 C376.804406,23.4188811 367.638408,32.113986 367.638408,48.5524476 L367.638408,64.9853147 C367.638408,81.9538461 376.235615,89.8622377 394.679561,89.8622377 C402.18369,89.8622377 410.188467,88.5391609 416.628724,86.2461539 C417.652267,85.8755244 418.264864,84.7951049 418.050697,83.713986 L416.130859,74.4020979 C416.002916,73.8041959 415.632995,73.2762237 415.121223,72.9685314 C414.596239,72.6475524 413.970432,72.562937 413.389125,72.7328671 C407.432132,74.420979 401.785955,75.2482517 396.070245,75.2482517 C386.644189,75.2482517 384.965633,72.1762237 384.965633,65.7468531 L384.965633,63.4972029 L417.09947,63.4972029 C418.319796,63.4972029 419.288406,62.5230769 419.288406,61.2902099 L419.288406,49.3111889 C419.287712,31.641958 411.311444,23.4188811 394.165007,23.4188811 Z M384.965633,49.1342657 L384.965633,47.0230769 C384.965633,40.8902099 387.941002,38.0321679 394.296427,38.0321679 C401.31938,38.0321679 402.721884,41.4783217 402.721884,47.0230769 L402.721884,49.1342657 L384.965633,49.1342657 Z M82.8263502,24.6636364 L69.8888181,24.6636364 C68.6796185,24.6636364 67.6957097,25.6552447 67.6957097,26.865035 L67.6957097,86.365035 C67.6957097,87.5853147 68.6796185,88.5692307 69.8888181,88.5692307 L82.8256548,88.5692307 C84.0626682,88.5692307 85.0284981,87.5853147 85.0284981,86.365035 L85.0284981,26.865035 C85.0291934,25.6552447 84.0633635,24.6636364 82.8263502,24.6636364 Z M82.8263502,0.290909091 L69.8888181,0.290909091 C68.6796185,0.290909091 67.6957097,1.28951049 67.6957097,2.4986014 L67.6957097,13.7076923 C67.6957097,14.9405594 68.6796185,15.9167833 69.8888181,15.9167833 L82.8256548,15.9167833 C84.0626682,15.9167833 85.0284981,14.9405594 85.0284981,13.7076923 L85.0284981,2.4986014 C85.0291934,1.28951049 84.0633635,0.290909091 82.8263502,0.290909091 Z M50.2391503,43.2 C55.600932,40.2335664 57.9289368,36.0755244 57.9289368,29.6818181 L57.9289368,20.9314686 C57.9289368,8.11818181 50.2836522,1.8986014 34.5849172,1.8986014 L2.64160402,1.8986014 C1.44492054,1.8986014 0.46309773,2.88321679 0.46309773,4.0979021 L0.46309773,86.365035 C0.46309773,87.5853147 1.44492054,88.5692307 2.64160402,88.5692307 L36.8614668,88.5692307 C52.101276,88.5692307 60.8458962,81.1265734 60.8458962,68.141958 L60.8458962,59.1055944 C60.8452009,51.3594406 56.9352932,45.5748251 50.2391503,43.2 Z M18.2930557,17.0258741 L32.6803757,17.0258741 C39.1929482,17.0258741 40.1038462,19.8839161 40.1038462,22.944056 L40.1038462,30.4412587 C40.1038462,35.3167833 37.8405082,37.3993007 32.5524328,37.3993007 L29.4414729,37.3993007 C28.2162804,37.3993007 27.2344577,38.3902099 27.2344577,39.606993 L27.2344577,49.9433567 C27.2344577,51.1678321 28.2162804,52.1538461 29.4414729,52.1538461 L35.0688753,52.1538461 C40.7143564,52.1538461 43.0048127,54.3496503 43.0048127,59.7405594 L43.0048127,66.1020979 C43.0048127,71.5867133 40.6587291,73.4363636 33.6768007,73.4363636 L18.2944464,73.4363636 L18.2944464,17.0258741 L18.2930557,17.0258741 Z M131.434924,75.9216783 C131.349397,75.3020979 131.009374,74.7566433 130.498298,74.406993 C129.98305,74.065035 129.344726,73.951049 128.747427,74.1041959 C126.459057,74.6776224 124.26873,74.9909091 122.578353,74.9909091 C119.37839,74.9909091 117.957111,73.5902099 117.957111,70.4622377 L117.957111,38.9342657 L130.524721,38.9342657 C131.734616,38.9342657 132.713657,37.9496503 132.713657,36.7307693 L132.713657,26.8923077 C132.713657,25.6797203 131.734616,24.6909091 130.524721,24.6909091 L117.957111,24.6909091 L117.957111,9.53286713 C117.957111,8.89160839 117.672021,8.28881119 117.204056,7.87412587 C116.721488,7.45034966 116.079688,7.25874126 115.451794,7.35034966 L102.514957,9.16153846 C101.434396,9.31888111 100.628494,10.2496503 100.628494,11.3496503 L100.628494,24.6909091 L93.5742505,24.6909091 C92.3664416,24.6909091 91.3825327,25.679021 91.3825327,26.8923077 L91.3825327,36.7307693 C91.3825327,37.9496503 92.3664416,38.9342657 93.5742505,38.9342657 L100.628494,38.9342657 L100.628494,72.5055944 C100.628494,84.0244756 106.640421,89.8727273 118.525205,89.8727273 C121.91013,89.8727273 127.653654,89.0846154 131.40711,87.7755244 C132.416051,87.4265734 133.014045,86.4202797 132.856898,85.3601399 L131.434924,75.9216783 Z M461.967104,75.9188811 C461.882272,75.2993007 461.527648,74.7538461 461.0124,74.4027971 C460.502714,74.0622377 459.860218,73.9468531 459.278912,74.1041959 C456.974549,74.6748251 454.800215,74.9909091 453.095236,74.9909091 C449.90918,74.9909091 448.460782,73.586014 448.460782,70.4587413 L448.460782,38.9307693 L461.043691,38.9307693 C462.265405,38.9307693 463.229846,37.9398601 463.229846,36.7307693 L463.229846,26.8923077 C463.229846,25.6797203 462.265405,24.6902099 461.043691,24.6902099 L448.460782,24.6902099 L448.460782,9.52937063 C448.460782,8.88671329 448.204897,8.28461539 447.719547,7.87132867 C447.236285,7.44965034 446.597962,7.25804196 445.971459,7.35034966 L433.033231,9.16153846 C431.953365,9.31538461 431.14051,10.2461538 431.14051,11.3384615 L431.14051,24.6902099 L424.091133,24.6902099 C422.893755,24.6902099 421.902892,25.679021 421.902892,26.8923077 L421.902892,36.7307693 C421.902892,37.9398601 422.894449,38.9307693 424.091133,38.9307693 L431.14051,38.9307693 L431.14051,72.5062937 C431.14051,84.020979 437.16982,89.8692307 449.042784,89.8692307 C452.44092,89.8692307 458.169147,89.0818181 461.923297,87.7734266 C462.919723,87.4230769 463.540663,86.420979 463.386297,85.358042 L461.967104,75.9188811 Z" transform="translate(107.778 6.294)"/>
    <path d="M473.406174,91.1825174 L456.106067,62.4594406 L472.794969,34.1734266 C473.196876,33.4916084 473.204525,32.6461539 472.814438,31.9594406 C472.424352,31.2713287 471.698414,30.8461539 470.911288,30.8461539 L456.619925,30.8461539 C455.83697,30.8461539 455.113814,31.2671329 454.722336,31.9482517 L438.846289,59.6293706 L438.846289,8.8055944 C438.846289,7.58811189 437.865162,6.6027972 436.655962,6.6027972 L423.718431,6.6027972 C422.50923,6.6027972 421.528103,7.58811189 421.528103,8.8055944 L421.528103,92.6594406 C421.528103,93.8762237 422.50923,94.8622377 423.718431,94.8622377 L436.655962,94.8622377 C437.865162,94.8622377 438.846289,93.8762237 438.846289,92.6594406 L438.846289,65.2160839 L455.739622,93.6454546 C456.134577,94.3104896 456.849388,94.7188811 457.619827,94.7188811 L471.64696,94.7188811 L471.660866,94.7188811 C472.870761,94.7188811 473.851194,93.7314686 473.851194,92.5160839 C473.851888,92.013986 473.686397,91.5524476 473.406174,91.1825174 Z M42.568138,0.673426573 L42.568138,0.674825174 L42.568138,0.673426573 C19.1524983,0.673426573 0.032681071,7.0041958 0.032681071,14.865035 C0.032681071,16.9356643 5.13857692,46.6237763 7.16410797,58.3972029 C8.07222455,63.6776224 21.6397364,71.4188811 42.5570126,71.4188811 L42.5785682,71.355944 L42.5785682,71.4188811 C63.495149,71.4188811 77.0626608,63.6776224 77.9707774,58.3972029 C79.9963085,46.6237763 85.1022043,16.9356643 85.1022043,14.865035 C85.1028997,7.0048951 65.9837778,0.673426573 42.568138,0.673426573 Z M42.568138,61.8811189 C35.100861,61.8811189 29.047214,55.7923077 29.047214,48.2832167 C29.047214,40.7727273 35.100861,34.6853147 42.568138,34.6853147 C50.0354151,34.6853147 56.089062,40.7727273 56.089062,48.2832167 C56.089062,55.7923077 50.0354151,61.8811189 42.568138,61.8811189 Z M42.5604892,19.2517483 C27.5160712,19.2272727 15.3246409,16.5986014 15.3295083,13.379021 C15.3343758,10.1594406 27.5355407,7.56993007 42.5799588,7.5944056 C57.624377,7.61818181 69.8158072,10.2468531 69.8109399,13.4671329 C69.8053771,16.6874126 57.6049074,19.2755244 42.5604892,19.2517483 Z"/>
    <path d="M73.1395416,70.1972029 C72.4928737,70.1972029 71.9748439,70.6573427 71.9748439,70.6573427 C71.9748439,70.6573427 61.500213,78.9993007 42.5688335,79 C23.6367584,78.9993007 13.1628229,70.6573427 13.1628229,70.6573427 C13.1628229,70.6573427 12.6440978,70.1972029 11.9981251,70.1972029 C11.2256002,70.1972029 10.4934052,70.7188811 10.4934052,71.8706294 C10.4934052,71.9923077 10.505226,72.113986 10.5274769,72.2328671 C12.1531864,80.9839161 13.3408304,87.193007 13.549433,88.1377623 C14.9686259,94.5748251 27.4896481,99.4321679 42.568138,99.4328671 L42.568138,99.4328671 L42.5688335,99.4328671 L42.5695288,99.4328671 L42.5695288,99.4328671 C57.6487139,99.4321679 70.1690409,94.5748251 71.5882338,88.1377623 C71.7968364,87.1923077 72.9844804,80.9839161 74.6101898,72.2328671 C74.6324408,72.113986 74.6442616,71.9923077 74.6442616,71.8706294 C74.6442616,70.7188811 73.9113712,70.1972029 73.1395416,70.1972029 Z"/>
    <ellipse cx="42.555" cy="48.279" rx="6.776" ry="6.814"/>
  </g>
</svg>
