<?xml version="1.0" encoding="UTF-8"?>
<svg width="440px" height="127px" viewBox="0 0 440 127" version="1.1" xmlns="http://www.w3.org/2000/svg" xmlns:xlink="http://www.w3.org/1999/xlink">
	<!-- Generator: Sketch 44.1 (41455) - http://www.bohemiancoding.com/sketch -->
	<title>Slack_RGB</title>
	<desc>Created with Sketch.</desc>
	<defs></defs>
	<g id="Page-1" stroke="none" stroke-width="1" fill="none" fill-rule="evenodd">
		<g id="Artboard" fill-rule="nonzero">
			<g id="Slack_RGB">
				<g id="Group" transform="translate(0.000000, 4.000000)">
					<path d="M79.8,8.1 C77.9,2.4 71.8,-0.7 66.1,1.1 C60.4,3 57.3,9.1 59.1,14.8 L87.2,101.2 C89.1,106.5 94.9,109.5 100.4,107.9 C106.2,106.2 109.7,100.1 107.8,94.5 C107.8,94.3 79.8,8.1 79.8,8.1 Z" id="Shape" fill="#ECB32D"></path>
					<path d="M36.3,22.2 C34.4,16.5 28.3,13.4 22.6,15.2 C16.9,17.1 13.8,23.2 15.6,28.9 L43.7,115.3 C45.6,120.6 51.4,123.6 56.9,122 C62.7,120.3 66.2,114.2 64.3,108.6 C64.3,108.4 36.3,22.2 36.3,22.2 Z" id="Shape" fill="#63C1A0"></path>
					<path d="M115.2,79.6 C120.9,77.7 124,71.6 122.2,65.9 C120.3,60.2 114.2,57.1 108.5,58.9 L22,87.1 C16.7,89 13.7,94.8 15.3,100.3 C17,106.1 23.1,109.6 28.7,107.7 C28.9,107.7 115.2,79.6 115.2,79.6 Z" id="Shape" fill="#E01A59"></path>
					<path d="M40,104.1 C45.6,102.3 52.9,99.9 60.7,97.4 C58.9,91.8 56.5,84.5 54,76.7 L33.3,83.4 L40,104.1 Z" id="Shape" fill="#331433"></path>
					<path d="M83.6,89.9 C91.4,87.4 98.7,85 104.3,83.2 C102.5,77.6 100.1,70.3 97.6,62.5 L76.9,69.2 L83.6,89.9 Z" id="Shape" fill="#D62027"></path>
					<path d="M101,36.1 C106.7,34.2 109.8,28.1 108,22.4 C106.1,16.7 100,13.6 94.3,15.4 L7.9,43.5 C2.6,45.4 -0.4,51.2 1.2,56.7 C2.9,62.5 9,66 14.6,64.1 C14.8,64.1 101,36.1 101,36.1 Z" id="Shape" fill="#89D3DF"></path>
					<path d="M25.9,60.5 C31.5,58.7 38.8,56.3 46.6,53.8 C44.1,46 41.7,38.7 39.9,33.1 L19.2,39.8 L25.9,60.5 Z" id="Shape" fill="#258B74"></path>
					<path d="M69.4,46.4 C77.2,43.9 84.5,41.5 90.1,39.7 C87.6,31.9 85.2,24.6 83.4,19 L62.7,25.7 L69.4,46.4 Z" id="Shape" fill="#819C3C"></path>
				</g>
				<path d="M202.8,34.8 C206.6,36.5 206.9,37.7 203.9,43.4 C200.8,49.2 200.1,49.6 196.3,48.1 C191.6,46.1 185.5,44.6 181.6,44.6 C175.2,44.6 171,46.9 171,50.4 C171,61.9 207.6,55.7 207.6,80.1 C207.6,92.4 197,100.6 181.2,100.6 C172.9,100.6 162.6,97.8 155.5,94.2 C152,92.4 151.7,91.4 154.8,85.5 C157.4,80.4 158.3,79.8 162.1,81.4 C168.1,84 175.8,86.1 180.9,86.1 C186.7,86.1 190.6,83.7 190.6,80.3 C190.6,69.2 153.3,74.5 153.3,50.8 C153.3,38.2 163.8,29.8 179.5,29.8 C187.1,29.7 196.4,31.9 202.8,34.8 Z" id="Shape" fill="#2D333A"></path>
				<path d="M232.4,5.8 L232.4,97 C232.4,98.4 230.9,99.8 228.9,99.8 L219.3,99.8 C217.2,99.8 215.8,98.3 215.8,97 L215.8,5.8 C215.8,1.3 217.1,0.9 224.1,0.9 C232.1,0.8 232.4,1.4 232.4,5.8 Z" id="Shape" fill="#2D333A"></path>
				<path d="M300.6,57 L300.6,96.3 C300.6,98.4 299.1,99.8 297.1,99.8 L287.6,99.8 C285.4,99.8 283.9,98.2 284.1,96 L284.2,91.8 C279.1,97.5 271.7,100.5 264.3,100.5 C250,100.5 240.4,92.2 240.4,79.9 C240.4,66.8 251.2,57.9 267.5,57.9 C273.7,57.9 279.3,59 283.9,60.9 L283.9,56.4 C283.9,49.2 278.2,44.9 268.5,44.9 C264,44.9 258.4,46.7 254,49.3 C250.6,51.2 249.8,51.1 246.1,45.6 C242.5,40.1 242.6,39.1 246.1,36.8 C252.8,32.5 261.8,29.7 270.1,29.7 C288.8,29.7 300.6,39.8 300.6,57 Z M256.4,79.8 C256.4,84.5 260.4,87.6 266.3,87.6 C273.5,87.6 280.1,84.1 283.9,78.2 L283.9,72.1 C280.1,70.6 275.4,69.8 271.3,69.8 C262.3,69.8 256.4,74 256.4,79.8 Z" id="Shape" fill="#2D333A"></path>
				<path d="M365.6,34.9 C369.1,36.9 369.2,38 365.4,43.9 C361.8,49.5 361.2,49.8 357.3,47.9 C354.4,46.4 349.7,45.1 345.9,45.1 C333.9,45.1 325.9,53 325.9,65 C325.9,77.4 333.9,85.8 345.9,85.8 C350.1,85.8 355.3,84.2 358.7,82.3 C362.2,80.3 362.9,80.4 366.6,85.8 C369.9,90.8 369.9,92 366.9,94.1 C361.5,97.8 353.1,100.6 345.6,100.6 C323.4,100.6 308.5,86.4 308.5,65 C308.5,43.8 323.4,29.7 345.8,29.7 C352.6,29.7 360.6,32 365.6,34.9 Z" id="Shape" fill="#2D333A"></path>
				<path d="M438.2,91.2 C441,94.7 439.9,96 432.9,98.5 C425.8,101.1 424.8,100.9 422.3,97.7 L402.4,71.2 L393.5,79.8 L393.5,97 C393.5,98.4 392,99.8 390,99.8 L380.4,99.8 C378.3,99.8 376.9,98.3 376.9,97 L376.9,5.8 C376.9,1.3 378.2,0.9 385.2,0.9 C393.3,0.9 393.5,1.5 393.5,5.8 L393.5,57.6 L420.7,31.5 C423.7,28.7 425.4,28.9 430.7,32.4 C436.6,36.2 437,37.3 434.2,40 L414,59.8 L438.2,91.2 Z" id="Shape" fill="#2D333A"></path>
			</g>
		</g>
	</g>
</svg>
