<?xml version="1.0" encoding="UTF-8" standalone="no"?>
<svg width="16px" height="17px" viewBox="0 0 16 17" version="1.1" xmlns="http://www.w3.org/2000/svg" xmlns:xlink="http://www.w3.org/1999/xlink" xmlns:sketch="http://www.bohemiancoding.com/sketch/ns">
    <!-- Generator: Sketch 3.3.2 (12043) - http://www.bohemiancoding.com/sketch -->
    <title>Pull Request</title>
    <desc>Created with Sketch.</desc>
    <defs>
        <linearGradient x1="50%" y1="0%" x2="50%" y2="100%" id="linearGradient-1">
            <stop stop-color="#FFFFFF" offset="0%"></stop>
            <stop stop-color="#000000" offset="100%"></stop>
        </linearGradient>
    </defs>
    <g id="13.0-Iconography" stroke="none" stroke-width="1" fill="none" fill-rule="evenodd" sketch:type="MSPage">
        <g id="13.1-Icons" sketch:type="MSArtboardGroup" transform="translate(-197.000000, -1128.000000)" fill="#333333">
            <g id="UI" sketch:type="MSLayerGroup" transform="translate(105.000000, 767.028347)">
                <g id="Build" transform="translate(0.000000, 317.000000)" sketch:type="MSShapeGroup">
                    <g id="Pull-Request" transform="translate(92.000000, 44.000000)">
                        <path d="M11.2975238,2.76010645 L12.5059048,1.6568021 L11.4285714,0.673149927 L8.38095238,3.45575862 L11.4285714,6.23836732 L12.5059048,5.25471514 L11.2975238,4.1514108 L12.1904762,4.1514108 C13.4506667,4.1514108 14.4761905,5.08775862 14.4761905,6.23836732 L14.4761905,15.9774978 L16,15.9774978 L16,6.23836732 C16,4.32045427 14.2910476,2.76010645 12.1904762,2.76010645 L11.2975238,2.76010645 Z" id="Path-Copy-3"></path>
                        <rect id="Rectangle-2" x="2.28571429" y="5.56521739" width="1.52380952" height="10.4347826"></rect>
                        <path d="M3.04609524,4.84428036 C2.20647619,4.84428036 1.52380952,4.22097601 1.52380952,3.45436732 C1.52380952,2.68775862 2.20647619,2.06445427 3.04609524,2.06445427 C3.88571429,2.06445427 4.56838095,2.68775862 4.56838095,3.45436732 C4.56838095,4.22097601 3.88571429,4.84428036 3.04609524,4.84428036 L3.04609524,4.84428036 Z M3.04609524,0.673149927 C1.36761905,0.673149927 0,1.92045427 0,3.45436732 C0,4.98828036 1.36761905,6.23558471 3.04609524,6.23558471 C4.72457143,6.23558471 6.09219048,4.98828036 6.09219048,3.45436732 C6.09219048,1.92045427 4.72457143,0.673149927 3.04609524,0.673149927 L3.04609524,0.673149927 Z" id="Fill-326-Copy"></path>
                    </g>
                </g>
            </g>
        </g>
    </g>
</svg>