<?xml version="1.0" encoding="UTF-8" standalone="no"?>
<svg width="17px" height="17px" viewBox="0 0 17 17" version="1.1" xmlns="http://www.w3.org/2000/svg" xmlns:xlink="http://www.w3.org/1999/xlink" xmlns:sketch="http://www.bohemiancoding.com/sketch/ns">
    <!-- Generator: Sketch 3.3.2 (12043) - http://www.bohemiancoding.com/sketch -->
    <title>commit</title>
    <desc>Created with Sketch.</desc>
    <defs>
        <linearGradient x1="50%" y1="0%" x2="50%" y2="100%" id="linearGradient-1">
            <stop stop-color="#FFFFFF" offset="0%"></stop>
            <stop stop-color="#000000" offset="100%"></stop>
        </linearGradient>
    </defs>
    <g id="13.0-Iconography" stroke="none" stroke-width="1" fill="none" fill-rule="evenodd" sketch:type="MSPage">
        <g id="13.1-Icons" sketch:type="MSArtboardGroup" transform="translate(-131.000000, -1128.000000)" fill="#333333">
            <g id="UI" sketch:type="MSLayerGroup" transform="translate(105.000000, 767.028347)">
                <g id="Build" transform="translate(0.000000, 317.000000)" sketch:type="MSShapeGroup">
                    <path d="M26.5,53.8178294 L26.5,55.3612914 L34.4946667,60.028347 L42.5,55.3612914 L42.5,53.8178294 L34.4946667,58.484885 L26.5,53.8178294 Z M26.5,50.4855517 L26.5,52.0290137 L34.4946667,56.6960693 L42.5,52.0290137 L42.5,50.4855517 L34.4946667,55.1526073 L26.5,50.4855517 Z M34.4946667,45.5724757 L39.8486667,48.6954026 L34.4946667,51.8189962 L29.1406667,48.6954026 L34.4946667,45.5724757 Z M42.5,48.6954026 L34.4946667,44.028347 L26.5,48.6954026 L34.4946667,53.3624582 L42.5,48.6954026 Z" id="commit"></path>
                </g>
            </g>
        </g>
    </g>
</svg>