<?xml version="1.0" encoding="UTF-8" standalone="no"?>
<svg width="16px" height="16px" viewBox="0 0 16 16" version="1.1" xmlns="http://www.w3.org/2000/svg" xmlns:xlink="http://www.w3.org/1999/xlink" xmlns:sketch="http://www.bohemiancoding.com/sketch/ns">
    <!-- Generator: Sketch 3.4 (15588) - http://www.bohemiancoding.com/sketch -->
    <title>icon-build-list-time-2</title>
    <desc>Created with Sketch.</desc>
    <defs>
        <linearGradient x1="50%" y1="0%" x2="50%" y2="100%" id="linearGradient-1">
            <stop stop-color="#FFFFFF" offset="0%"></stop>
            <stop stop-color="#000000" offset="100%"></stop>
        </linearGradient>
    </defs>
    <g id="13.0-Iconography" stroke="none" stroke-width="1" fill="none" fill-rule="evenodd" sketch:type="MSPage">
        <g id="icon-build-list-time-2" sketch:type="MSArtboardGroup" fill="#333333">
            <path d="M8,0.720000029 C3.58896575,0.720000029 0,4.19853606 0,8.47449239 C0,11.2337993 1.53212768,13.8069983 3.99833319,15.190529 C4.15101258,15.2758284 4.33236103,15.3010305 4.50504209,15.2551498 C4.67572298,15.2112076 4.8204017,15.1026447 4.90974248,14.954017 L8.57738145,8.79759624 C8.76206351,8.48870896 8.65205434,8.09322985 8.33336111,7.91487652 C8.01400117,7.73587699 7.60663389,7.84250126 7.42261855,8.15138854 L4.10567547,13.7197603 C2.56088007,12.6380086 1.56613051,10.9559299 1.37344779,9.12070009 L2.66555546,9.12070009 C3.03225269,9.12070009 3.33227769,8.83055283 3.33227769,8.47449239 C3.33227769,8.11907816 3.03225269,7.82828469 2.66555546,7.82828469 L1.36744729,7.82828469 C1.56146346,5.9400658 2.60088341,4.29288238 4.11034253,3.23762522 L4.75506292,4.32066932 C4.93841153,4.62891039 5.34777898,4.73488845 5.66513876,4.55653512 C5.98316526,4.37947422 6.09250771,3.98270269 5.9091591,3.67446162 L5.26243854,2.58883269 C6.09917493,2.22178672 7.02391866,2.01241542 8,2.01241542 C8.97541462,2.01241542 9.90015835,2.22178672 10.7348946,2.58818648 L10.0895075,3.67381541 C9.90615885,3.98205648 10.0155013,4.37882801 10.3335278,4.55653512 C10.6508876,4.73488845 11.060255,4.62826418 11.2436036,4.32002311 L11.8896575,3.23697901 C13.3984499,4.29288238 14.4385365,5.9400658 14.6325527,7.8289309 L13.3337778,7.8289309 C12.9670806,7.82828469 12.6670556,8.11907816 12.6670556,8.47449239 C12.6670556,8.82990662 12.9670806,9.12070009 13.3337778,9.12070009 L14.6218852,9.12070009 C14.4298692,10.9552837 13.4324527,12.6309003 11.888324,13.7113596 L11.2436036,12.6296079 C11.060255,12.3213668 10.6508876,12.2147425 10.3335278,12.3918034 C10.0155013,12.5701568 9.90615885,12.9669283 10.0895075,13.2751694 L11.0875906,14.9501397 C11.0882574,14.9507859 11.0889241,14.9514321 11.0895908,14.9520783 C11.0895908,14.9527246 11.0895908,14.954017 11.0909242,14.9546632 C11.1382615,15.0347929 11.2182682,15.109753 11.2789399,15.1491717 C11.5222935,15.3223554 11.8089841,15.2990919 12.0016668,15.190529 C14.4672056,13.8069983 16,11.2337993 16,8.47449239 C16,4.19853606 12.4110343,0.720000029 8,0.720000029" id="Fill-145" sketch:type="MSShapeGroup" transform="translate(8.000000, 7.998872) scale(-1, 1) translate(-8.000000, -7.998872) "></path>
        </g>
    </g>
</svg>