<?xml version="1.0" encoding="UTF-8" standalone="yes"?>
<svg width="34px" height="34px" viewBox="0 0 34 34" version="1.1" xmlns="http://www.w3.org/2000/svg" xmlns:xlink="http://www.w3.org/1999/xlink">
    <title>Add Jira Ticket</title>
    <desc></desc>
    <defs></defs>
    <g id="Symbols" stroke="none" stroke-width="1" fill="none" fill-rule="evenodd">
        <g id="add-jira-ticket-b1" transform="translate(-8.000000, -6.000000)" fill="#898989">
            <g id="add-jira-ticket">
                <g id="jira" transform="translate(16.125000, 6.000000)">
                    <path d="M12.9232177,0.899993896 C13.5384521,0.899993896 14.0603024,1.11581456 14.4887688,1.54745476 C14.9172363,1.9790961 15.1314701,2.50481203 15.1314701,3.1246037 C15.1314701,3.74439536 14.9172363,4.27564536 14.4887688,4.7183537 C14.0603024,5.16106203 13.5384521,5.38241563 12.9232177,5.38241563 C12.2860109,5.38241563 11.7531738,5.16106203 11.3247063,4.7183537 C10.8962399,4.27564536 10.6820062,3.74439536 10.6820062,3.1246037 C10.6820062,2.50481203 10.9017333,1.9790961 11.3411864,1.54745476 C11.7806396,1.11581456 12.3079833,0.899993896 12.9232177,0.899993896 L12.9232177,0.899993896 Z M2.88720632,3.70565803 C3.31567382,3.27401783 3.8375242,3.05819716 4.45275857,3.05819716 C5.06799295,3.05819716 5.58984332,3.27401783 6.01831082,3.70565803 C6.4467772,4.13729936 6.66101095,4.6630153 6.66101095,5.28280696 C6.66101095,5.90259863 6.4467772,6.42831456 6.01831082,6.85995476 C5.58984332,7.2915961 5.06799295,7.50741563 4.45275857,7.50741563 C3.8375242,7.50741563 3.31567382,7.2915961 2.88720632,6.85995476 C2.45873995,6.42831456 2.2445062,5.90259863 2.2445062,5.28280696 C2.2445062,4.6630153 2.45873995,4.13729936 2.88720632,3.70565803 L2.88720632,3.70565803 Z M19.7622063,3.7388613 C20.1906738,3.3072211 20.7125242,3.09140043 21.3277586,3.09140043 C21.9429929,3.09140043 22.4648433,3.3072211 22.8933108,3.7388613 C23.3217772,4.1705015 23.5360109,4.69621856 23.5360109,5.31601023 C23.5360109,5.9358019 23.3217772,6.46151783 22.8933108,6.89315803 C22.4648433,7.32479936 21.9429929,7.5406189 21.3277586,7.5406189 C20.7125242,7.5406189 20.1906738,7.32479936 19.7622063,6.89315803 C19.3337399,6.46151783 19.1195062,5.9358019 19.1195062,5.31601023 C19.1195062,4.69621856 19.3337399,4.1705015 19.7622063,3.7388613 L19.7622063,3.7388613 Z M20.4708247,34.0035102 L16.2520747,34.0035102 C16.0762934,34.0035102 15.9224846,33.8928323 15.7906492,33.6714787 C15.6588138,33.450124 15.5819088,33.2287704 15.5599364,33.0074156 C15.5159906,32.3433537 15.3786618,31.7014269 15.1479491,31.0816352 C14.9172363,30.4618436 14.6590578,29.9139914 14.3734124,29.4380798 C14.0877682,28.9621682 13.6757808,28.4198512 13.1374514,27.8111265 C12.5991209,27.202403 12.1322021,26.6932881 11.7366937,26.283783 C11.3411864,25.874278 10.7808836,25.3153588 10.0557862,24.6070254 C9.33068882,23.8986921 8.74841245,23.3231718 8.30895932,22.8804624 C7.36413595,21.9065052 6.68298332,21.1981718 6.26550257,20.7554624 C5.84802182,20.3127552 5.28772007,19.6763613 4.58459507,18.846283 C3.88147007,18.0162048 3.28820807,17.2580671 2.80480907,16.5718689 C1.15685957,14.1812439 0.223021823,11.8570254 0.0032958225,9.59921236 C-0.0186765525,9.3335885 0.0692140725,9.1343689 0.266967698,9.00155696 C0.398803073,8.89087903 0.541626323,8.83554063 0.695434073,8.83554063 C0.761352323,8.83554063 0.838256198,8.8576769 0.926146823,8.90194716 C2.44226095,9.47746856 3.91442807,9.9312439 5.34265157,10.2632754 C5.6502682,10.329682 5.85900857,10.5067653 5.96887157,10.7945254 C6.16662632,11.3257754 6.4467772,11.8957628 6.80932645,12.5044863 C7.17187457,13.1132098 7.5014647,13.6278588 7.7980957,14.048432 C8.0947267,14.4690052 8.56713895,15.0389914 9.21533132,15.7583928 C9.86352482,16.4777932 10.3304437,16.9924421 10.6160891,17.3023385 C10.9017333,17.6122338 11.4510494,18.176687 12.2640374,18.9956972 C12.3958739,19.1727805 12.5606684,19.2613222 12.7584221,19.2613222 C12.9781492,19.2613222 13.1539304,19.1727805 13.2857658,18.9956972 C14.0328367,18.2209573 14.5766594,17.6565052 14.9172363,17.3023385 C15.2578121,16.9481718 15.7357177,16.4279888 16.3509521,15.7417906 C16.9661864,15.0555936 17.4331053,14.4856062 17.7517087,14.0318298 C18.0703121,13.5780544 18.4108889,13.0578714 18.7734371,12.471283 C19.1359863,11.8846946 19.4051516,11.3147073 19.5809328,10.7613222 C19.7127682,10.473562 19.9215086,10.2964787 20.2071528,10.2300722 C21.8331299,9.83163523 23.2943114,9.3889269 24.5906984,8.90194716 C24.7225338,8.8576769 24.8104244,8.83554063 24.8543703,8.83554063 C24.9862057,8.83554063 25.1290278,8.89087903 25.2828367,9.00155696 C25.4805903,9.15650516 25.5684809,9.36679063 25.5465086,9.63241563 C25.3267826,11.9123638 24.3929437,14.2255153 22.7449953,16.5718689 C22.2835687,17.2580671 21.6958001,18.0217388 20.9816894,18.8628852 C20.2675777,19.7040305 19.7072748,20.3404244 19.3007808,20.7720646 C18.8942868,21.2037048 18.2076408,21.9065052 17.2408451,22.8804624 C17.1529533,22.9911403 17.0101312,23.1460885 16.8123776,23.345307 C16.7464593,23.4117124 16.7080079,23.5113222 16.6970212,23.6441352 C16.6860344,23.7769472 16.7135013,23.9097602 16.7794184,24.0425722 C16.9551997,24.2639269 17.3946528,24.8615823 18.0977778,25.8355406 C18.6251216,26.5881454 18.9821774,27.1193954 19.1689454,27.4292906 C19.3557123,27.739187 19.6138908,28.1652932 19.9434809,28.7076113 C20.2730711,29.2499294 20.4982904,29.6926378 20.6191402,30.0357363 C20.7399899,30.3788348 20.8553463,30.788341 20.9652093,31.2642515 C21.0750734,31.7401631 21.1409906,32.2437439 21.1629641,32.7749939 C21.1849364,32.9963486 21.1300049,33.2177022 20.9981684,33.439057 C20.7344966,33.8153588 20.5587153,34.0035102 20.4708247,34.0035102 L20.4708247,34.0035102 Z M16.0543211,10.6285102 C16.0543211,11.1597602 15.8950188,11.7574156 15.5764154,12.4214787 C15.2578121,13.0855406 14.8458247,13.661062 14.3404533,14.1480406 C13.8350831,14.6350204 13.3626708,14.8785102 12.9232177,14.8785102 C12.4398187,14.8785102 11.9454341,14.6294863 11.4400638,14.1314396 C10.9346924,13.6333928 10.5227051,13.0578714 10.2041017,12.4048765 C9.88549832,11.7518827 9.72619607,11.1597602 9.72619607,10.6285102 L16.0543211,10.6285102 Z M9.26477057,34.0035102 L5.04602057,34.0035102 C4.91418407,34.0035102 4.74938957,33.8153588 4.55163595,33.439057 C4.41979945,33.2177022 4.3538812,32.9410102 4.3538812,32.6089787 C4.3538812,32.3212186 4.37036132,32.0555936 4.40332045,31.8121037 C4.43627957,31.5686138 4.49121107,31.314057 4.56811495,31.048432 C4.64501882,30.782807 4.7054437,30.5669863 4.74938957,30.4009711 C4.79333432,30.2349548 4.88122495,30.0080671 5.01306145,29.720307 C5.14489682,29.4325457 5.2437742,29.2277932 5.30969245,29.1060494 C5.37560957,28.9843044 5.50744607,28.7574156 5.7051997,28.4253852 C5.90295332,28.0933537 6.0402832,27.871999 6.11718707,27.7613222 C6.19409207,27.6506454 6.36987332,27.3905544 6.64453082,26.9810494 C6.91918945,26.5715432 7.10046407,26.2893171 7.1883547,26.1343689 C7.32019007,25.9130153 7.50695807,25.8023385 7.74865757,25.8023385 C7.92443882,25.8023385 8.08923332,25.879812 8.2430422,26.0347602 C9.2757562,27.0972602 10.2095951,28.1929624 11.0445554,29.3218689 C11.1324461,29.4325457 11.1983643,29.5874939 11.2423091,29.7867124 C11.2862549,29.985932 11.2532958,30.2072856 11.1434328,30.4507754 C10.9676516,30.7606718 10.7753902,31.0705671 10.5666498,31.3804624 C10.3579094,31.6903588 10.2095951,31.9504497 10.1217033,32.1607363 C10.0338138,32.3710229 9.9788812,32.653249 9.95690882,33.0074156 C9.93493645,33.2287704 9.8525392,33.450124 9.70971707,33.6714787 C9.56689382,33.8928323 9.41857832,34.0035102 9.26477057,34.0035102 L9.26477057,34.0035102 Z" id="Shape"></path>
                </g>
                <g id="add" transform="translate(8.000000, 26.266667)">
                    <polygon id="Shape" points="5.98130865 0 5.98130865 4.01869183 10 4.01869183 10 5.98130817 5.98130865 5.98130817 5.98130865 10 4.01869135 10 4.01869135 5.98130817 6.53072367e-16 5.98130817 6.53072367e-16 4.01869183 4.01869135 4.01869183 4.01869135 0"></polygon>
                </g>
            </g>
        </g>
    </g>
</svg>
