<?xml version="1.0" encoding="UTF-8" standalone="no"?>
<svg width="18px" height="18px" viewBox="0 0 18 18" version="1.1" xmlns="http://www.w3.org/2000/svg" xmlns:xlink="http://www.w3.org/1999/xlink" xmlns:sketch="http://www.bohemiancoding.com/sketch/ns">
    <!-- Generator: Sketch 3.3.2 (12043) - http://www.bohemiancoding.com/sketch -->
    <title>Pass Copy</title>
    <desc>Created with Sketch.</desc>
    <defs>
        <linearGradient x1="50%" y1="0%" x2="50%" y2="100%" id="linearGradient-1">
            <stop stop-color="#FFFFFF" offset="0%"></stop>
            <stop stop-color="#000000" offset="100%"></stop>
        </linearGradient>
    </defs>
    <g id="13.0-Iconography" stroke="none" stroke-width="1" fill="none" fill-rule="evenodd" sketch:type="MSPage">
        <g id="13.1-Icons" sketch:type="MSArtboardGroup" transform="translate(-104.000000, -583.000000)">
            <g id="State-Icons" sketch:type="MSLayerGroup" transform="translate(104.000000, 412.000000)">
                <g id="Feedback" transform="translate(0.000000, 130.000000)" sketch:type="MSShapeGroup">
                    <g id="Pass-Copy" transform="translate(0.000000, 41.000000)">
                        <path d="M0,8.74285714 C0,13.5638143 4.03725,17.4857143 9,17.4857143 C13.96275,17.4857143 18,13.5638143 18,8.74285714 C18,3.9219 13.96275,0 9,0 C4.03725,0 0,3.9219 0,8.74285714 Z" id="Path-Copy" fill="#42C88A"></path>
                        <path d="M11.9998783,11.6414397 C11.9999593,11.6361565 12,11.6308634 12,11.6255607 L12,3.9172964 C12,3.35693113 11.5522847,2.91428571 11,2.91428571 C10.4438648,2.91428571 10,3.36334889 10,3.9172964 L10,10.6857143 L6.9640038,10.6857143 C6.4315052,10.6857143 6,11.1206377 6,11.6571429 C6,12.1973885 6.4315992,12.6285714 6.9640038,12.6285714 L11.0359962,12.6285714 C11.5684948,12.6285714 12,12.193648 12,11.6571429 C12,11.6518981 11.9999593,11.6466636 11.9998783,11.6414397 Z" id="Rectangle-9" fill="#FFFFFF" transform="translate(9.000000, 7.771429) rotate(45.000000) translate(-9.000000, -7.771429) "></path>
                    </g>
                </g>
            </g>
        </g>
    </g>
</svg>