<?xml version="1.0" encoding="UTF-8" standalone="no"?>
<svg width="20px" height="18px" viewBox="0 0 20 18" version="1.1" xmlns="http://www.w3.org/2000/svg" xmlns:xlink="http://www.w3.org/1999/xlink" xmlns:sketch="http://www.bohemiancoding.com/sketch/ns">
    <!-- Generator: Sketch 3.3.2 (12043) - http://www.bohemiancoding.com/sketch -->
    <title>Icon/Warning</title>
    <desc>Created with Sketch.</desc>
    <defs>
        <linearGradient x1="50%" y1="0%" x2="50%" y2="100%" id="linearGradient-1">
            <stop stop-color="#FFFFFF" offset="0%"></stop>
            <stop stop-color="#000000" offset="100%"></stop>
        </linearGradient>
    </defs>
    <g id="13.0-Iconography" stroke="none" stroke-width="1" fill="none" fill-rule="evenodd" sketch:type="MSPage">
        <g id="13.1-Icons" sketch:type="MSArtboardGroup" transform="translate(-103.000000, -662.000000)">
            <g id="State-Icons" sketch:type="MSLayerGroup" transform="translate(104.000000, 412.000000)">
                <g id="Feedback" transform="translate(0.000000, 130.000000)" sketch:type="MSShapeGroup">
                    <g id="Icon/Warning" transform="translate(0.000000, 121.000000)">
                        <polygon id="Triangle-2" fill="#FFC030" points="8.99963376 -1.09318139 18.8204284 16.366009 -0.821160846 16.366009 "></polygon>
                        <path d="M8,5.00292933 C8,4.44902676 8.44386482,4 9,4 C9.55228475,4 10,4.43788135 10,5.00292933 L10,9.99707067 C10,10.5509732 9.55613518,11 9,11 C8.44771525,11 8,10.5621186 8,9.99707067 L8,5.00292933 Z M8,13 C8,12.4477153 8.44386482,12 9,12 C9.55228475,12 10,12.4438648 10,13 C10,13.5522847 9.55613518,14 9,14 C8.44771525,14 8,13.5561352 8,13 Z" id="Rectangle-6-Copy-2" fill="#FFFFFF"></path>
                    </g>
                </g>
            </g>
        </g>
    </g>
</svg>