<?xml version="1.0" encoding="UTF-8" standalone="no"?>
<svg width="18px" height="18px" viewBox="0 0 18 18" version="1.1" xmlns="http://www.w3.org/2000/svg" xmlns:xlink="http://www.w3.org/1999/xlink" xmlns:sketch="http://www.bohemiancoding.com/sketch/ns">
    <!-- Generator: Sketch 3.3.2 (12043) - http://www.bohemiancoding.com/sketch -->
    <title>Icon/fail</title>
    <desc>Created with Sketch.</desc>
    <defs>
        <linearGradient x1="50%" y1="0%" x2="50%" y2="100%" id="linearGradient-1">
            <stop stop-color="#FFFFFF" offset="0%"></stop>
            <stop stop-color="#000000" offset="100%"></stop>
        </linearGradient>
    </defs>
    <g id="13.0-Iconography" stroke="none" stroke-width="1" fill="none" fill-rule="evenodd" sketch:type="MSPage">
        <g id="13.1-Icons" sketch:type="MSArtboardGroup" transform="translate(-104.000000, -287.000000)">
            <g id="Badges" sketch:type="MSLayerGroup" transform="translate(104.000000, 122.000000)">
                <g id="RED-+-Icon/fail" transform="translate(0.000000, 161.000000)" sketch:type="MSShapeGroup">
                    <g id="Icon/fail" transform="translate(0.000000, 4.000000)">
                        <path d="M9,0 C4.03725,0 0,3.9219 0,8.74285714 C0,13.5638143 4.03725,17.4857143 9,17.4857143 C13.96275,17.4857143 18,13.5638143 18,8.74285714 C18,3.9219 13.96275,0 9,0" id="Path-Copy-2" fill="#EE5C5C"></path>
                        <path d="M8,3.91435441 C8,3.36203172 8.44386482,2.91428571 9,2.91428571 C9.55228475,2.91428571 10,3.35437813 10,3.91435441 L10,9.68564559 C10,10.2379683 9.55613518,10.6857143 9,10.6857143 C8.44771525,10.6857143 8,10.2456219 8,9.68564559 L8,3.91435441 Z M8,13.6 C8,13.0634948 8.44386482,12.6285714 8.97656441,12.6285714 L9.02343559,12.6285714 C9.56277722,12.6285714 10,13.0597544 10,13.6 C10,14.1365052 9.55613518,14.5714286 9.02343559,14.5714286 L8.97656441,14.5714286 C8.43722278,14.5714286 8,14.1402456 8,13.6 Z" id="Rectangle-6-Copy-2" fill="#FFFFFF"></path>
                    </g>
                </g>
            </g>
        </g>
    </g>
</svg>