<?xml version="1.0" encoding="UTF-8" standalone="no"?>
<svg width="22px" height="25px" viewBox="0 0 22 25" version="1.1" xmlns="http://www.w3.org/2000/svg" xmlns:xlink="http://www.w3.org/1999/xlink" xmlns:sketch="http://www.bohemiancoding.com/sketch/ns">
    <!-- Generator: Sketch 3.3.2 (12043) - http://www.bohemiancoding.com/sketch -->
    <title>Icon/Analytics</title>
    <desc>Created with Sketch.</desc>
    <defs>
        <linearGradient x1="50%" y1="0%" x2="50%" y2="100%" id="linearGradient-1">
            <stop stop-color="#FFFFFF" offset="0%"></stop>
            <stop stop-color="#000000" offset="100%"></stop>
        </linearGradient>
    </defs>
    <g id="13.0-Iconography" stroke="none" stroke-width="1" fill="none" fill-rule="evenodd" sketch:type="MSPage">
        <g id="13.1-Icons" sketch:type="MSArtboardGroup" transform="translate(-224.000000, -868.000000)" fill="#CCCCCC">
            <g id="UI" sketch:type="MSLayerGroup" transform="translate(105.000000, 767.028347)">
                <g id="Navigation" transform="translate(0.000000, 47.000000)" sketch:type="MSShapeGroup">
                    <g id="On-Grey" transform="translate(23.000000, 53.000000)">
                        <g id="Icon/Analytics-+-ANALYTICS" transform="translate(81.000000, 1.000000)">
                            <path d="M35,24 L37,24 L37,20.001 L35,20.001 L35,24 Z M31,24 L33,24 L33,14 L31,14 L31,24 Z M27,24 L29,24 L29,0 L27,0 L27,24 Z M23,24 L25,24 L25,8 L23,8 L23,24 Z M19,24 L21,24 L21,4 L19,4 L19,24 Z M15,23.996 L17,23.996 L17,16 L15,16 L15,23.996 Z" id="Icon/Analytics" transform="translate(26.000000, 12.000000) scale(-1, 1) translate(-26.000000, -12.000000) "></path>
                        </g>
                    </g>
                </g>
            </g>
        </g>
    </g>
</svg>