<?xml version="1.0" encoding="UTF-8" standalone="no"?>
<svg width="24px" height="24px" viewBox="0 0 24 24" version="1.1" xmlns="http://www.w3.org/2000/svg" xmlns:xlink="http://www.w3.org/1999/xlink" xmlns:sketch="http://www.bohemiancoding.com/sketch/ns">
    <!-- Generator: Sketch 3.3.2 (12043) - http://www.bohemiancoding.com/sketch -->
    <title>Icon/Pipelines</title>
    <desc>Created with Sketch.</desc>
    <defs>
        <linearGradient x1="50%" y1="0%" x2="50%" y2="100%" id="linearGradient-1">
            <stop stop-color="#FFFFFF" offset="0%"></stop>
            <stop stop-color="#000000" offset="100%"></stop>
        </linearGradient>
    </defs>
    <g id="13.0-Iconography" stroke="none" stroke-width="1" fill="none" fill-rule="evenodd" sketch:type="MSPage">
        <g id="13.1-Icons" sketch:type="MSArtboardGroup" transform="translate(-410.000000, -868.000000)" fill="#CCCCCC">
            <g id="UI" sketch:type="MSLayerGroup" transform="translate(105.000000, 767.028347)">
                <g id="Navigation" transform="translate(0.000000, 47.000000)" sketch:type="MSShapeGroup">
                    <g id="On-Grey" transform="translate(23.000000, 53.000000)">
                        <g id="Icon/Settings-+-PIPELINES" transform="translate(271.000000, 1.000000)">
                            <path d="M31,22 C29.897,22 29,21.104 29,20 C29,18.896 29.897,18 31,18 C32.102,18 33,18.896 33,20 C33,21.104 32.102,22 31,22 M15,6 C13.897,6 13,5.104 13,4 C13,2.896 13.897,2 15,2 C16.102,2 17,2.896 17,4 C17,5.104 16.102,6 15,6 M31,8 C32.102,8 33,8.896 33,10 C33,11.104 32.102,12 31,12 C29.897,12 29,11.104 29,10 C29,8.896 29.897,8 31,8 M31,16 C29.141,16 27.59,17.279 27.143,19 L25.5,19 C24.685,19 24,18.084 24,17 L24,11 L27.143,11 C27.59,12.721 29.141,14 31,14 C33.206,14 35,12.205 35,10 C35,7.795 33.206,6 31,6 C29.141,6 27.59,7.279 27.143,9 L24,9 L24,7 C24,4.795 22.43,3 20.5,3 L18.857,3 C18.41,1.279 16.859,0 15,0 C12.794,0 11,1.795 11,4 C11,6.205 12.794,8 15,8 C16.859,8 18.41,6.721 18.857,5 L20.5,5 C21.314,5 22,5.916 22,7 L22,17 C22,19.205 23.57,21 25.5,21 L27.143,21 C27.59,22.721 29.141,24 31,24 C33.206,24 35,22.205 35,20 C35,17.795 33.206,16 31,16" id="Icon/Pipelines"></path>
                        </g>
                    </g>
                </g>
            </g>
        </g>
    </g>
</svg>