<?xml version="1.0" encoding="UTF-8" standalone="no"?>
<svg width="24px" height="25px" viewBox="0 0 24 25" version="1.1" xmlns="http://www.w3.org/2000/svg" xmlns:xlink="http://www.w3.org/1999/xlink" xmlns:sketch="http://www.bohemiancoding.com/sketch/ns">
    <!-- Generator: Sketch 3.3.2 (12043) - http://www.bohemiancoding.com/sketch -->
    <title>Icon/Resources</title>
    <desc>Created with Sketch.</desc>
    <defs>
        <linearGradient x1="50%" y1="0%" x2="50%" y2="100%" id="linearGradient-1">
            <stop stop-color="#FFFFFF" offset="0%"></stop>
            <stop stop-color="#000000" offset="100%"></stop>
        </linearGradient>
    </defs>
    <g id="13.0-Iconography" stroke="none" stroke-width="1" fill="none" fill-rule="evenodd" sketch:type="MSPage">
        <g id="13.1-Icons" sketch:type="MSArtboardGroup" transform="translate(-313.000000, -868.000000)" fill="#CCCCCC">
            <g id="UI" sketch:type="MSLayerGroup" transform="translate(105.000000, 767.028347)">
                <g id="Navigation" transform="translate(0.000000, 47.000000)" sketch:type="MSShapeGroup">
                    <g id="On-Grey" transform="translate(23.000000, 53.000000)">
                        <g id="Icon/Resources-+-RESOURCES" transform="translate(169.000000, 1.000000)">
                            <path d="M36,20 L38,20 L38,22 L36,22 L36,20 Z M34,24 L40,24 L40,18 L34,18 L34,24 Z M18,20 L20,20 L20,22 L18,22 L18,20 Z M16,24 L22,24 L22,18 L16,18 L16,24 Z M38,4 L36,4 L36,2 L38,2 L38,4 Z M34,6 L40,6 L40,0 L34,0 L34,6 Z M36,11 L38,11 L38,13 L36,13 L36,11 Z M34,15 L40,15 L40,9 L34,9 L34,15 Z M27,11 L29,11 L29,13 L27,13 L27,11 Z M25,15 L31,15 L31,9 L25,9 L25,15 Z M18,2 L20,2 L20,4 L18,4 L18,2 Z M16,6 L22,6 L22,0 L16,0 L16,6 Z M18,11 L20,11 L20,13 L18,13 L18,11 Z M16,15 L22,15 L22,9 L16,9 L16,15 Z M27,2 L29,2 L29,4 L27,4 L27,2 Z M25,6 L31,6 L31,0 L25,0 L25,6 Z M27,20 L29,20 L29,22 L27,22 L27,20 Z M25,24 L31,24 L31,18 L25,18 L25,24 Z" id="Icon/Resources"></path>
                        </g>
                    </g>
                </g>
            </g>
        </g>
    </g>
</svg>