<?xml version="1.0" encoding="UTF-8" standalone="no"?>
<svg width="24px" height="22px" viewBox="0 0 24 22" version="1.1" xmlns="http://www.w3.org/2000/svg" xmlns:xlink="http://www.w3.org/1999/xlink" xmlns:sketch="http://www.bohemiancoding.com/sketch/ns">
    <!-- Generator: Sketch 3.3.2 (12043) - http://www.bohemiancoding.com/sketch -->
    <title>Icon/Builds Copy 2</title>
    <desc>Created with Sketch.</desc>
    <defs>
        <linearGradient x1="50%" y1="0%" x2="50%" y2="100%" id="linearGradient-1">
            <stop stop-color="#FFFFFF" offset="0%"></stop>
            <stop stop-color="#000000" offset="100%"></stop>
        </linearGradient>
    </defs>
    <g id="13.0-Iconography" stroke="none" stroke-width="1" fill="none" fill-rule="evenodd" sketch:type="MSPage">
        <g id="13.1-Icons" sketch:type="MSArtboardGroup" transform="translate(-134.000000, -867.000000)" fill="#CCCCCC">
            <g id="UI" sketch:type="MSLayerGroup" transform="translate(105.000000, 767.028347)">
                <g id="Navigation" transform="translate(0.000000, 47.000000)" sketch:type="MSShapeGroup">
                    <g id="On-Grey" transform="translate(23.000000, 53.000000)">
                        <g id="Icon/Build-+-BUILDS">
                            <g id="Icon/Builds-Copy-2" transform="translate(6.000000, 0.000000)">
                                <path d="M3,6 C4.65685425,6 6,4.65685425 6,3 C6,1.34314575 4.65685425,0 3,0 C1.34314575,0 0,1.34314575 0,3 C0,4.65685425 1.34314575,6 3,6 Z M3,14 C4.65685425,14 6,12.6568542 6,11 C6,9.34314575 4.65685425,8 3,8 C1.34314575,8 0,9.34314575 0,11 C0,12.6568542 1.34314575,14 3,14 Z M3,22 C4.65685425,22 6,20.6568542 6,19 C6,17.3431458 4.65685425,16 3,16 C1.34314575,16 0,17.3431458 0,19 C0,20.6568542 1.34314575,22 3,22 Z M9,2 L24,2 L24,4 L9,4 L9,2 Z M9,10 L24,10 L24,12 L9,12 L9,10 Z M9,18 L24,18 L24,20 L9,20 L9,18 Z" id="Oval-43"></path>
                            </g>
                        </g>
                    </g>
                </g>
            </g>
        </g>
    </g>
</svg>