<?xml version="1.0" encoding="UTF-8" standalone="no"?>
<svg width="24px" height="25px" viewBox="0 0 24 25" version="1.1" xmlns="http://www.w3.org/2000/svg" xmlns:xlink="http://www.w3.org/1999/xlink" xmlns:sketch="http://www.bohemiancoding.com/sketch/ns">
    <!-- Generator: Sketch 3.3.2 (12043) - http://www.bohemiancoding.com/sketch -->
    <title>Icon/Settings</title>
    <desc>Created with Sketch.</desc>
    <defs>
        <linearGradient x1="50%" y1="0%" x2="50%" y2="100%" id="linearGradient-1">
            <stop stop-color="#FFFFFF" offset="0%"></stop>
            <stop stop-color="#000000" offset="100%"></stop>
        </linearGradient>
    </defs>
    <g id="13.0-Iconography" stroke="none" stroke-width="1" fill="none" fill-rule="evenodd" sketch:type="MSPage">
        <g id="13.1-Icons" sketch:type="MSArtboardGroup" transform="translate(-500.000000, -868.000000)" fill="#CCCCCC">
            <g id="UI" sketch:type="MSLayerGroup" transform="translate(105.000000, 767.028347)">
                <g id="Navigation" transform="translate(0.000000, 47.000000)" sketch:type="MSShapeGroup">
                    <g id="On-Grey" transform="translate(23.000000, 53.000000)">
                        <g id="Icon/Pipelines-+-SETTINGS" transform="translate(360.000000, 1.000000)">
                            <path d="M23.98,15 C22.326,15 20.98,13.654 20.98,12 C20.98,10.346 22.326,9 23.98,9 C25.634,9 26.98,10.346 26.98,12 C26.98,13.654 25.634,15 23.98,15 L23.98,15 Z M23.98,7 C21.223,7 18.98,9.243 18.98,12 C18.98,14.757 21.223,17 23.98,17 C26.737,17 28.98,14.757 28.98,12 C28.98,9.243 26.737,7 23.98,7 L23.98,7 Z M33.439,15.619 L31.843,18.381 L29.887,17.794 L26.045,20.01 L25.576,22 L22.386,22 L21.916,20.01 L18.075,17.794 L16.119,18.381 L14.523,15.618 L16.009,14.217 L16.009,9.783 L14.523,8.381 L16.119,5.617 L18.075,6.205 L21.916,3.988 L22.386,2 L25.576,2 L26.196,4.627 L29.258,6.395 L31.843,5.617 L33.439,8.381 L31.951,9.782 L31.951,14.217 L33.439,15.619 Z M33.951,10.647 L35.962,8.752 L32.783,3.246 L29.51,4.23 L27.944,3.326 L27.158,0 L20.804,0 L20.168,2.687 L17.823,4.041 L15.177,3.246 L12,8.752 L14.009,10.647 L14.009,13.353 L12,15.248 L15.177,20.752 L17.823,19.958 L20.168,21.31 L20.804,24 L27.158,24 L27.793,21.31 L30.139,19.958 L32.783,20.752 L35.962,15.248 L33.951,13.353 L33.951,10.647 Z" id="Icon/Settings"></path>
                        </g>
                    </g>
                </g>
            </g>
        </g>
    </g>
</svg>