<?xml version="1.0" encoding="UTF-8" standalone="no"?>
<svg width="24px" height="22px" viewBox="0 0 24 22" version="1.1" xmlns="http://www.w3.org/2000/svg" xmlns:xlink="http://www.w3.org/1999/xlink" xmlns:sketch="http://www.bohemiancoding.com/sketch/ns">
    <!-- Generator: Sketch 3.3.2 (12043) - http://www.bohemiancoding.com/sketch -->
    <title>Notif/Default</title>
    <desc>Created with Sketch.</desc>
    <defs>
        <linearGradient x1="50%" y1="0%" x2="50%" y2="100%" id="linearGradient-1">
            <stop stop-color="#FFFFFF" offset="0%"></stop>
            <stop stop-color="#000000" offset="100%"></stop>
        </linearGradient>
    </defs>
    <g id="13.0-Iconography" stroke="none" stroke-width="1" fill="none" fill-rule="evenodd" sketch:type="MSPage">
        <g id="13.1-Icons" sketch:type="MSArtboardGroup" transform="translate(-289.000000, -1258.000000)" fill="#999999">
            <g id="UI" sketch:type="MSLayerGroup" transform="translate(105.000000, 767.028347)">
                <g id="Notif/Default" transform="translate(184.000000, 490.971653)" sketch:type="MSShapeGroup">
                    <path d="M21,0 L3,0 C1.346,0 0,1.346 0,3 L0,15 C0,16.654 1.346,18 3,18 L17.299,18 C17.524,18 17.746,18.078 17.923,18.219 L22.375,21.781 C22.556,21.925 22.777,22 23,22 C23.147,22 23.296,21.967 23.434,21.901 C23.779,21.735 24,21.384 24,21 L24,3 C24,1.346 22.654,0 21,0 L21,0 Z" id="Fill-44"></path>
                </g>
            </g>
        </g>
    </g>
</svg>