<?xml version="1.0" encoding="UTF-8" standalone="no"?>
<svg width="16px" height="16px" viewBox="0 0 16 16" version="1.1" xmlns="http://www.w3.org/2000/svg" xmlns:xlink="http://www.w3.org/1999/xlink" xmlns:sketch="http://www.bohemiancoding.com/sketch/ns">
    <!-- Generator: Sketch 3.3.2 (12043) - http://www.bohemiancoding.com/sketch -->
    <title>settings link</title>
    <desc>Created with Sketch.</desc>
    <defs>
        <linearGradient x1="50%" y1="0%" x2="50%" y2="100%" id="linearGradient-1">
            <stop stop-color="#FFFFFF" offset="0%"></stop>
            <stop stop-color="#000000" offset="100%"></stop>
        </linearGradient>
    </defs>
    <g id="13.0-Iconography" stroke="none" stroke-width="1" fill="none" fill-rule="evenodd" sketch:type="MSPage">
        <g id="13.1-Icons" sketch:type="MSArtboardGroup" transform="translate(-304.000000, -1017.000000)" fill="#333333">
            <path d="M311.999332,1027 C310.894917,1027 309.996161,1026.10267 309.996161,1025 C309.996161,1023.89733 310.894917,1023 311.999332,1023 C313.103748,1023 314.002504,1023.89733 314.002504,1025 C314.002504,1026.10267 313.103748,1027 311.999332,1027 L311.999332,1027 Z M311.999332,1021.66667 C310.158417,1021.66667 308.660713,1023.162 308.660713,1025 C308.660713,1026.838 310.158417,1028.33333 311.999332,1028.33333 C313.840247,1028.33333 315.337952,1026.838 315.337952,1025 C315.337952,1023.162 313.840247,1021.66667 311.999332,1021.66667 L311.999332,1021.66667 Z M318.315333,1027.41267 L317.249645,1029.254 L315.943577,1028.86267 L313.378182,1030.34 L313.06502,1031.66667 L310.93498,1031.66667 L310.62115,1030.34 L308.056423,1028.86267 L306.750355,1029.254 L305.684667,1027.412 L306.676905,1026.478 L306.676905,1023.522 L305.684667,1022.58733 L306.750355,1020.74467 L308.056423,1021.13667 L310.62115,1019.65867 L310.93498,1018.33333 L313.06502,1018.33333 L313.479008,1020.08467 L315.523579,1021.26333 L317.249645,1020.74467 L318.315333,1022.58733 L317.321759,1023.52133 L317.321759,1026.478 L318.315333,1027.41267 Z M318.657207,1024.098 L320,1022.83467 L317.877306,1019.164 L315.691845,1019.82 L314.64619,1019.21733 L314.121359,1017 L309.878641,1017 L309.453969,1018.79133 L307.888156,1019.694 L306.121359,1019.164 L304,1022.83467 L305.341457,1024.098 L305.341457,1025.902 L304,1027.16533 L306.121359,1030.83467 L307.888156,1030.30533 L309.453969,1031.20667 L309.878641,1033 L314.121359,1033 L314.545363,1031.20667 L316.111844,1030.30533 L317.877306,1030.83467 L320,1027.16533 L318.657207,1025.902 L318.657207,1024.098 Z" id="settings-link" sketch:type="MSShapeGroup"></path>
        </g>
    </g>
</svg>