<?xml version="1.0" encoding="UTF-8" standalone="no"?>
<svg width="16px" height="15px" viewBox="0 0 16 15" version="1.1" xmlns="http://www.w3.org/2000/svg" xmlns:xlink="http://www.w3.org/1999/xlink" xmlns:sketch="http://www.bohemiancoding.com/sketch/ns">
    <!-- Generator: Sketch 3.3.2 (12043) - http://www.bohemiancoding.com/sketch -->
    <title>builds link</title>
    <desc>Created with Sketch.</desc>
    <defs>
        <linearGradient x1="50%" y1="0%" x2="50%" y2="100%" id="linearGradient-1">
            <stop stop-color="#FFFFFF" offset="0%"></stop>
            <stop stop-color="#000000" offset="100%"></stop>
        </linearGradient>
    </defs>
    <g id="13.0-Iconography" stroke="none" stroke-width="1" fill="none" fill-rule="evenodd" sketch:type="MSPage">
        <g id="13.1-Icons" sketch:type="MSArtboardGroup" transform="translate(-279.000000, -1017.000000)" fill="#333333">
            <g id="builds-link" sketch:type="MSLayerGroup" transform="translate(279.000000, 1017.000000)">
                <path d="M2,4 C3.1045695,4 4,3.1045695 4,2 C4,0.8954305 3.1045695,0 2,0 C0.8954305,0 0,0.8954305 0,2 C0,3.1045695 0.8954305,4 2,4 Z M2,9.33333333 C3.1045695,9.33333333 4,8.43790283 4,7.33333333 C4,6.22876383 3.1045695,5.33333333 2,5.33333333 C0.8954305,5.33333333 0,6.22876383 0,7.33333333 C0,8.43790283 0.8954305,9.33333333 2,9.33333333 Z M2,14.6666667 C3.1045695,14.6666667 4,13.7712362 4,12.6666667 C4,11.5620972 3.1045695,10.6666667 2,10.6666667 C0.8954305,10.6666667 0,11.5620972 0,12.6666667 C0,13.7712362 0.8954305,14.6666667 2,14.6666667 Z M6,1.33333333 L16,1.33333333 L16,2.66666667 L6,2.66666667 L6,1.33333333 Z M6,6.66666667 L16,6.66666667 L16,8 L6,8 L6,6.66666667 Z M6,12 L16,12 L16,13.3333333 L6,13.3333333 L6,12 Z" id="Oval-43" sketch:type="MSShapeGroup"></path>
            </g>
        </g>
    </g>
</svg>