<?xml version="1.0" encoding="UTF-8" standalone="no"?>
<svg width="18px" height="18px" viewBox="0 0 18 18" version="1.1" xmlns="http://www.w3.org/2000/svg" xmlns:xlink="http://www.w3.org/1999/xlink">
    <!-- Generator: Sketch 39.1 (31720) - http://www.bohemiancoding.com/sketch -->
    <title>Rebuild</title>
    <desc>Created with Sketch.</desc>
    <defs></defs>
    <g id="Page-1" stroke="none" stroke-width="1" fill="none" fill-rule="evenodd">
        <g id="Rebuild">
            <g>
                <g id="Fill-8" transform="translate(2.000000, 2.000000)" fill="#666666">
                    <g id="1.0-Rebuild">
                        <g id="rebuild-drowpdown-states-c">
                            <g id="Rebuild-Dropdowns">
                                <g id="default">
                                    <g id="Select-Menu">
                                        <path d="M7,0 C4.6246667,0 2.44825,1.20108333 1.1666667,3.1365833 L1.1666667,0.58333333 L0.0005833,0.58333333 L0,5.25 L4.6666667,5.25 L4.6666667,4.0833333 L1.9594167,4.0833333 C2.99425,2.296 4.9005833,1.16666667 7,1.16666667 C10.2165,1.16666667 12.8333333,3.7835 12.8333333,7 C12.8333333,10.2170833 10.2165,12.8333333 7,12.8333333 C4.1830833,12.8333333 1.7704167,10.82725 1.2629167,8.0610833 C1.2051667,7.7449167 0.9076667,7.5355 0.5839167,7.59325 C0.2671667,7.651 0.05775,7.9549167 0.1155,8.27225 C0.7245,11.5914167 3.6201667,14 7,14 C10.8599167,14 14,10.8599167 14,7 C14,3.1406667 10.8599167,0 7,0" id="Fill-8" transform="translate(7.000000, 7.000000) scale(-1, 1) translate(-7.000000, -7.000000) "></path>
                                    </g>
                                </g>
                            </g>
                        </g>
                    </g>
                </g>
                <polygon id="Shape" points="0 0 18 0 18 18 0 18"></polygon>
            </g>
        </g>
    </g>
</svg>