<?xml version="1.0" encoding="UTF-8" standalone="no"?>
<svg
    xmlns="http://www.w3.org/2000/svg"
    width="18px"
    height="18px"
    viewBox="0 0 18 18"
    version="1.1"
    class="status failed">
  <style>
    /* Style applied when viewed unembedded. */
    svg:root .circle { fill: gray; }
    svg:root .icon { fill: white; }
  </style>
  <path
      class="circle"
      d="M 9,0 C 4.03725,0 0,3.9219 0,8.7428571 c 0,4.8209569 4.03725,8.7428569 9,8.7428569 4.96275,0 9,-3.9219 9,-8.7428569 C 18,3.9219 13.96275,0 9,0" />
  <path
      class="icon"
      d="M 8,3.9143544 C 8,3.3620317 8.4438648,2.9142857 9,2.9142857 c 0.5522848,0 1,0.4400924 1,1.0000687 l 0,5.7712912 c 0,0.5523224 -0.4438648,1.0000684 -1,1.0000684 -0.5522847,0 -1,-0.440092 -1,-1.0000684 L 8,3.9143544 z M 8,13.6 c 0,-0.536505 0.4438648,-0.971429 0.9765644,-0.971429 l 0.046871,0 C 9.5627772,12.628571 10,13.059754 10,13.6 c 0,0.536505 -0.4438648,0.971429 -0.9765644,0.971429 l -0.046871,0 C 8.4372228,14.571429 8,14.140246 8,13.6 z" />
</svg>
