<?xml version="1.0" encoding="UTF-8" standalone="no"?>
<svg
    xmlns="http://www.w3.org/2000/svg"
    width="18px"
    height="18px"
    viewBox="0 0 18 18"
    version="1.1"
    class="status passed">
  <style>
    /* Style applied when viewed unembedded. */
    svg:root .circle { fill: gray; }
    svg:root .icon { fill: white; }
  </style>
  <path
      class="circle"
      d="m 0,8.7428571 c 0,4.8209569 4.03725,8.7428569 9,8.7428569 4.96275,0 9,-3.9219 9,-8.7428569 C 18,3.9219 13.96275,0 9,0 4.03725,0 0,3.9219 0,8.7428571 z" />
  <path
      class="icon"
      d="m 8.384723,12.629174 c 0.00379,-0.0037 0.00757,-0.0074 0.011315,-0.01114 L 13.846604,7.167466 C 14.242842,6.7712279 14.239257,6.141648 13.848733,5.7511236 13.455486,5.3578767 12.82409,5.3615524 12.43239,5.7532524 L 7.6463961,10.539246 5.4996226,8.3924729 C 5.1230892,8.0159396 4.5104313,8.018357 4.1310649,8.3977233 3.7490533,8.7797349 3.7493483,9.3898134 4.1258152,9.7662803 l 2.8793333,2.8793337 c 0.3765337,0.376533 0.9891908,0.374116 1.3685571,-0.0053 0.00368,-0.0037 0.00738,-0.0074 0.011015,-0.01119 z" />
</svg>
