<?xml version="1.0" encoding="UTF-8" standalone="no"?>
<svg width="18px" height="18px" viewBox="0 0 18 18" version="1.1" xmlns="http://www.w3.org/2000/svg" xmlns:xlink="http://www.w3.org/1999/xlink" xmlns:sketch="http://www.bohemiancoding.com/sketch/ns">
    <!-- Generator: Sketch 3.3.2 (12043) - http://www.bohemiancoding.com/sketch -->
    <title>Add</title>
    <desc>Created with Sketch.</desc>
    <defs>
        <linearGradient x1="50%" y1="0%" x2="50%" y2="100%" id="linearGradient-1">
            <stop stop-color="#FFFFFF" offset="0%"></stop>
            <stop stop-color="#000000" offset="100%"></stop>
        </linearGradient>
    </defs>
    <g id="13.0-Iconography" stroke="none" stroke-width="1" fill="none" fill-rule="evenodd" sketch:type="MSPage">
        <g id="13.1-Icons" sketch:type="MSArtboardGroup" transform="translate(-104.000000, -453.000000)">
            <g id="State-Icons" sketch:type="MSLayerGroup" transform="translate(104.000000, 412.000000)">
                <g id="Add-+-Icon/Remove" sketch:type="MSShapeGroup">
                    <g id="Add" transform="translate(0.000000, 41.000000)">
                        <path d="M9,0 C4.03725,0 0,4.03725 0,9 C0,13.96275 4.03725,18 9,18 C13.96275,18 18,13.96275 18,9 C18,4.03725 13.96275,0 9,0" id="Path-Copy-2" fill="#3DC1D9"></path>
                        <path d="M10,8 L10,4.00247329 C10,3.45576096 9.55228475,3 9,3 C8.44386482,3 8,3.44882258 8,4.00247329 L8,8 L4.00247329,8 C3.45576096,8 3,8.44771525 3,9 C3,9.55613518 3.44882258,10 4.00247329,10 L8,10 L8,13.9975267 C8,14.544239 8.44771525,15 9,15 C9.55613518,15 10,14.5511774 10,13.9975267 L10,10 L13.9975267,10 C14.544239,10 15,9.55228475 15,9 C15,8.44386482 14.5511774,8 13.9975267,8 L10,8 Z" id="Rectangle-4-Copy-2" fill="#FFFFFF"></path>
                    </g>
                </g>
            </g>
        </g>
    </g>
</svg>