<?xml version="1.0" encoding="UTF-8" standalone="no"?>
<svg width="11px" height="7px" viewBox="0 0 11 7" version="1.1" xmlns="http://www.w3.org/2000/svg" xmlns:xlink="http://www.w3.org/1999/xlink" xmlns:sketch="http://www.bohemiancoding.com/sketch/ns">
    <!-- Generator: bin/sketchtool 1.4 (305) - http://www.bohemiancoding.com/sketch -->
    <title>Rectangle 2 + Switcher Copy + arrow icon 3 copy</title>
    <desc>Created with bin/sketchtool.</desc>
    <defs></defs>
    <g id="Page-1" stroke="none" stroke-width="1" fill="none" fill-rule="evenodd" sketch:type="MSPage">
        <g id="A4" sketch:type="MSArtboardGroup" transform="translate(-169.000000, -134.500000)" fill="#9B9B9B">
            <g id="Rectangle-2-+-Switcher-Copy-+-arrow-icon-3-copy-+-Rectangle-4-Copy-+-Group-Copy-Copy-Copy" sketch:type="MSLayerGroup" transform="translate(109.000000, 128.000000)">
                <g id="Rectangle-2-+-Switcher-Copy-+-arrow-icon-3-copy" transform="translate(60.000000, 7.000000)" sketch:type="MSShapeGroup">
                    <path d="M5.10447358,3.67646093 L8.54668535,0.278489008 C8.92134651,-0.0913569434 9.54171498,-0.0949745796 9.92208628,0.280508132 C10.3051095,0.65860864 10.3033733,1.26386461 9.92413169,1.63823219 L5.86320646,5.64696578 C5.84248911,5.67193524 5.82030666,5.69614655 5.79665739,5.71949187 C5.60543167,5.90825993 5.35354862,6.00121347 5.10272284,5.99998804 C4.85305943,6.00033256 4.602634,5.90736775 4.41230092,5.71948086 C4.38869008,5.69617348 4.36654129,5.67200292 4.34585285,5.64707648 L0.284826619,1.6382432 C-0.0944150344,1.26387561 -0.096151151,0.658619645 0.286872031,0.280519136 C0.667243335,-0.0949635754 1.2876118,-0.0913459392 1.66227296,0.278500012 L5.10447358,3.67646093 L5.10447358,3.67646093 Z" id="arrow-icon-3-copy"></path>
                </g>
            </g>
        </g>
    </g>
</svg>