<?xml version="1.0" encoding="UTF-8" standalone="no"?>
<svg width="16px" height="16px" viewBox="0 0 16 16" version="1.1" xmlns="http://www.w3.org/2000/svg" xmlns:xlink="http://www.w3.org/1999/xlink" xmlns:sketch="http://www.bohemiancoding.com/sketch/ns">
    <!-- Generator: Sketch 3.3.2 (12043) - http://www.bohemiancoding.com/sketch -->
    <title>Icon/pin</title>
    <desc>Created with Sketch.</desc>
    <defs>
        <linearGradient x1="50%" y1="0%" x2="50%" y2="100%" id="linearGradient-1">
            <stop stop-color="#FFFFFF" offset="0%"></stop>
            <stop stop-color="#000000" offset="100%"></stop>
        </linearGradient>
    </defs>
    <g id="13.0-Iconography" stroke="none" stroke-width="1" fill="none" fill-rule="evenodd" sketch:type="MSPage">
        <g id="13.1-Icons" sketch:type="MSArtboardGroup" transform="translate(-174.000000, -1016.000000)" stroke="#333333" fill="#333333" opacity="0.755655317">
            <g id="UI" sketch:type="MSLayerGroup" transform="translate(105.000000, 767.028347)">
                <g id="UI-Controls" transform="translate(0.000000, 197.000000)" sketch:type="MSShapeGroup">
                    <g id="Icon/pin" transform="translate(76.000000, 61.000000) scale(-1, 1) translate(-76.000000, -61.000000) translate(67.000000, 52.000000)">
                        <path d="M12.8400485,9.51710117 C12.260259,8.81374117 11.574819,8.96126117 10.7847896,8.18638117 C10.3928064,7.80190117 10.4300948,5.40910117 10.4300948,5.40910117 C10.4300948,5.40910117 10.4006885,3.33438117 10.8032822,2.90926117 C11.0815812,2.61614117 11.5702717,2.54030117 11.8549369,2.24526117 C11.8576654,2.24318117 11.8594843,2.24126117 11.8614548,2.23854117 C11.9229959,2.17358117 11.9728654,2.09710117 12.009699,2.00638117 C12.0142464,1.99678117 12.0192485,1.98942117 12.0224317,1.97998117 C12.0474422,1.91086117 12.0609327,1.82974117 12.0680569,1.74238117 C12.0700275,1.71998117 12.0801833,1.70110117 12.0801833,1.67870117 C12.0801833,1.67470117 12.0782127,1.67134117 12.0776064,1.66718117 C12.0782127,1.66110117 12.0801833,1.65646117 12.0801833,1.65038117 C12.0801833,1.63550117 12.0694212,1.62798117 12.0680569,1.61438117 C12.0351643,1.20542117 11.7203348,0.881261172 11.3247138,0.881261172 L6.59272221,0.881261172 C6.19710115,0.881261172 5.8821201,1.20542117 5.84953063,1.61438117 C5.84816642,1.62782117 5.83725273,1.63534117 5.83725273,1.65038117 C5.83725273,1.65646117 5.83922326,1.66110117 5.83982958,1.66718117 C5.83922326,1.67134117 5.83725273,1.67470117 5.83725273,1.67870117 C5.83725273,1.70110117 5.8475601,1.71998117 5.84953063,1.74238117 C5.85650326,1.82958117 5.86999379,1.91086117 5.89500431,1.97998117 C5.89818747,1.98942117 5.90334115,1.99678117 5.90788852,2.00638117 C5.94441905,2.09710117 5.9944401,2.17358117 6.05598115,2.23854117 C6.05795168,2.24126117 6.05977063,2.24318117 6.06234747,2.24526117 C6.34701273,2.54046117 6.83570326,2.61614117 7.11400221,2.90926117 C7.51674747,3.33438117 7.48718958,5.40910117 7.48718958,5.40910117 C7.48718958,5.40910117 7.524478,7.80190117 7.13249484,8.18638117 C6.34261694,8.96126117 5.65717694,8.81374117 5.07753905,9.51710117 C4.66706326,10.0153412 4.74224642,10.9033412 4.74224642,10.9033412 L8.63342958,10.9033412 L8.63342958,14.5227012 L8.92446115,16.7212612 L8.99373273,16.7212612 L9.28491589,14.5227012 L9.28491589,10.9033412 L13.1753412,10.9033412 C13.1753412,10.9033412 13.2503727,10.0153412 12.8400485,9.51710117" id="Imported-Layers" transform="translate(9.056842, 8.881261) rotate(-45.000000) translate(-9.056842, -8.881261) "></path>
                    </g>
                </g>
            </g>
        </g>
    </g>
</svg>