<?xml version="1.0" encoding="UTF-8" standalone="no"?>
<svg width="18px" height="18px" viewBox="0 0 18 18" version="1.1" xmlns="http://www.w3.org/2000/svg" xmlns:xlink="http://www.w3.org/1999/xlink" xmlns:sketch="http://www.bohemiancoding.com/sketch/ns">
    <!-- Generator: Sketch 3.3.2 (12043) - http://www.bohemiancoding.com/sketch -->
    <title>Icon/Remove</title>
    <desc>Created with Sketch.</desc>
    <defs>
        <linearGradient x1="50%" y1="0%" x2="50%" y2="100%" id="linearGradient-1">
            <stop stop-color="#FFFFFF" offset="0%"></stop>
            <stop stop-color="#000000" offset="100%"></stop>
        </linearGradient>
    </defs>
    <g id="13.0-Iconography" stroke="none" stroke-width="1" fill="none" fill-rule="evenodd" sketch:type="MSPage">
        <g id="13.1-Icons" sketch:type="MSArtboardGroup" transform="translate(-104.000000, -493.000000)">
            <g id="State-Icons" sketch:type="MSLayerGroup" transform="translate(104.000000, 412.000000)">
                <g id="Add-+-Icon/Remove" sketch:type="MSShapeGroup">
                    <g id="Icon/Remove" transform="translate(0.000000, 81.000000)">
                        <path d="M9,0 C4.03725,0 0,4.03725 0,9 C0,13.96275 4.03725,18 9,18 C13.96275,18 18,13.96275 18,9 C18,4.03725 13.96275,0 9,0" id="Path-Copy-2" fill="#999999"></path>
                        <g id="Rectangle-8-+-Rectangle-8-Copy" transform="translate(9.000000, 9.000000) rotate(-45.000000) translate(-9.000000, -9.000000) translate(3.000000, 3.000000)" fill="#FFFFFF">
                            <rect id="Rectangle-8" x="0" y="5" width="12" height="2" rx="40"></rect>
                            <rect id="Rectangle-8-Copy" transform="translate(6.000000, 6.000000) rotate(-90.000000) translate(-6.000000, -6.000000) " x="0" y="5" width="12" height="2" rx="40"></rect>
                        </g>
                    </g>
                </g>
            </g>
        </g>
    </g>
</svg>